<svg xmlns="http://www.w3.org/2000/svg" version="1.2" viewBox="117.97 11.4 284.83 304.05">
	<title>12376842_4905510</title>
	<style>
		.s0 { fill: #263238 } 
		.s1 { fill: #455a64 } 
		.s2 { fill: #37474f } 
		.s3 { fill: #da26ff } 
		.s4 { opacity: .7;fill: #ffffff } 
		.s5 { opacity: .25;fill: #da26ff } 
		.s6 { opacity: .2;fill: #ffffff } 
		.s7 { opacity: .15;fill: #da26ff } 
	</style>
	<g id="Light_Bulb">
		<g id="Bulb_3_">
			<g id="Socket_2_">
				<g>
					<path class="s0" d="m263 312.1c-9 0-16.2-4.2-16.2-9.3-0.1-5.2 7.2-9.4 16.2-9.5 9 0 16.2 4.2 16.2 9.4 0 5.2-7.2 9.4-16.2 9.4z" fill="#000000"/>
					<path class="s0" d="m278.4 305.7l-2.7 0.1c-0.6-1.3-1.7-2.4-3.4-3.4-5.1-3-13.5-2.9-18.6 0.1-1.7 0.9-2.8 2.1-3.4 3.3h-2.6l3 4.8c0.6 1 1.6 1.9 3 2.6 5.2 3 13.5 3 18.7 0 1.3-0.8 2.3-1.7 2.9-2.7z" fill="#000000"/>
				</g>
				<g>
					<path class="s1" d="m263 309.2c-13.3 0-24-6.2-24-13.9 0-7.7 10.7-13.9 24-13.9 13.3 0 24 6.2 24 13.9 0 7.7-10.7 13.9-24 13.9z" fill="#000000"/>
					<path class="s2" d="m263 306.1c-13.8 0-24.9-6.4-24.9-14.3 0-8 11.1-14.4 24.9-14.4 13.8 0 24.9 6.4 24.9 14.4 0 7.9-11.1 14.3-24.9 14.3z" fill="#000000"/>
					<path class="s1" d="m263 302.7c-14.1 0-25.5-6.6-25.5-14.7 0-8.2 11.4-14.8 25.5-14.8 14.1 0 25.5 6.6 25.5 14.8 0 8.1-11.4 14.7-25.5 14.7z" fill="#000000"/>
					<path class="s2" d="m263 299.3c-14.5 0-26.2-6.8-26.2-15.1 0-8.4 11.7-15.1 26.2-15.1 14.5 0 26.2 6.7 26.2 15.1 0 8.3-11.7 15.1-26.2 15.1z" fill="#000000"/>
					<path class="s1" d="m263 295.8c-14.8 0-26.8-6.9-26.8-15.4 0-8.6 12-15.5 26.8-15.5 14.8 0 26.8 6.9 26.8 15.5 0 8.5-12 15.4-26.8 15.4z" fill="#000000"/>
					<path class="s2" d="m263 292.4c-15.2 0-27.4-7.1-27.4-15.8 0-8.8 12.2-15.9 27.4-15.9 15.2 0 27.4 7.1 27.4 15.9 0 8.7-12.2 15.8-27.4 15.8z" fill="#000000"/>
				</g>
			</g>
			<path class="s3" d="m291.7 262.4c0-4.2-2.8-8.5-8.4-11.7-11.2-6.5-29.4-6.5-40.6 0-5.6 3.2-8.4 7.5-8.4 11.7 0 1.7 0 8.1 0 9.8 0 4.2 2.8 8.4 8.4 11.7 11.2 6.4 29.4 6.4 40.6 0 5.6-3.3 8.4-7.5 8.4-11.7 0-1.7 0-8.1 0-9.8z" fill="#000000"/>
			<g>
				<path id="XMLID_68_" class="s3" d="m263 66.5c-47.7 0-86.3 38.6-86.3 86.3 0 68.5 56.5 79.9 56.5 107.5 0 4.4 2.9 8.8 8.7 12.2 11.7 6.7 30.5 6.7 42.2 0 5.8-3.4 8.7-7.8 8.7-12.2 0-27.6 56.5-39 56.5-107.5 0-47.7-38.6-86.3-86.3-86.3z" fill="#000000"/>
				<path id="XMLID_67_" class="s4" d="m263 66.5c-47.7 0-86.3 38.6-86.3 86.3 0 68.5 56.5 79.9 56.5 107.5 0 4.4 2.9 8.8 8.7 12.2 11.7 6.7 30.5 6.7 42.2 0 5.8-3.4 8.7-7.8 8.7-12.2 0-27.6 56.5-39 56.5-107.5 0-47.7-38.6-86.3-86.3-86.3z" fill="#000000"/>
				<path class="s5" d="m263 274.8c-13.8 0-24.9-6.4-24.9-14.3 0-8 11.1-14.4 24.9-14.4 13.8 0 24.9 6.4 24.9 14.4 0 7.9-11.1 14.3-24.9 14.3z" fill="#000000"/>
				<path class="s5" d="m284.8 267.4q-1.6 1.7-4.2 3.2c-9.7 5.6-25.5 5.6-35.2 0q-2.6-1.5-4.2-3.2 1.6-1.7 4.2-3.2c9.7-5.6 25.5-5.6 35.2 0q2.6 1.5 4.2 3.2z" fill="#000000"/>
				<path class="s5" d="m284.8 267.4q-1.6 1.7-4.2 3.2c-9.7 5.6-25.5 5.6-35.2 0q-2.6-1.5-4.2-3.2 1.6-1.7 4.2-3.2c9.7-5.6 25.5-5.6 35.2 0q2.6 1.5 4.2 3.2z" fill="#000000"/>
				<g>
					<path class="s6" d="m306.9 101.3q-1.5 0.7-3 1.8c-3.4 2.7-4.8 7.5-4.2 11.8 1.2 8.3 9.3 13.5 13.9 20 5.1 7.1 9 15.1 11.3 23.6 0.7 2.5 1.5 6.6 2.8 8.9 2.1 3.6 6.3 4.1 8.6 2.9 3.4-1.8 5.1-6 5.6-9.3 2.8-19.5-1.2-34.1-11-49.1-5.4-8.2-13.9-14.9-24-10.6z" fill="#000000"/>
					<path class="s6" d="m263 198c-34.1 0-61.6-27.6-61.6-61.6 0-34 27.5-61.6 61.6-61.6 34 0 61.6 27.6 61.6 61.6 0 34-27.6 61.6-61.6 61.6z" fill="#000000"/>
					<path class="s6" d="m325.5 180.8c-0.9 2.7-0.4 5.4 0.9 7.8 1.5 2.5 5.2 3.2 7.6 1.7 2.5-1.6 4.1-4.5 4.1-7.5 0-3.2-2.1-6.5-5.6-6.9-3.3-0.3-6.1 2.3-7 4.9z" fill="#000000"/>
				</g>
				<path class="s7" d="m245.7 251.6c-1.9-11-4.9-16.8-18.4-23.7-13.4-6.9-36.7-17.4-46.5-45.6 13 43.2 52.4 54.9 52.4 78 0 4.4 2.9 8.8 8.7 12.2 2.4 1.3 5.2 2.4 8 3.2-1.2-6.9-3-17.3-4.2-24.1z" fill="#000000"/>
				<path class="s7" d="m280.3 251.6c1.9-11 4.9-16.8 18.4-23.7 13.4-6.9 36.7-17.4 46.5-45.6-13 43.2-52.4 54.9-52.4 78 0 4.4-2.9 8.8-8.7 12.2-2.4 1.3-5.2 2.4-8 3.2 1.2-6.9 3-17.3 4.2-24.1z" fill="#000000"/>
			</g>
			<g>
				<path class="s1" d="m273.1 269.1h-1c0-30.8 1.8-50 6-64.4 1.2-4.2 2.6-7.8 4.2-10.8-7-2.1-14.5-6.8-19.3-11.3-4.8 4.5-12.3 9.2-19.3 11.3 1.6 3 3 6.6 4.2 10.8 4.2 14.4 6 33.6 6 64.4h-1c0-30.7-1.8-49.8-5.9-64.1-1.3-4.2-2.7-7.8-4.3-10.8q-1.4 0.4-2.9 0.7c-10 1.6-15.8-1.3-18-4.5-1.5-2.3-1.4-5 0.2-7.5 1.4-2.1 3.9-3.1 6.9-2.6 4.3 0.6 9.8 4.4 14.3 12.7 7-2.1 14.4-6.7 19.1-11.1-1.2-1.2-2.2-2.4-2.9-3.5-4.7-7.1-4.4-13.3-2.6-16.7 1.3-2.4 3.6-3.8 6.2-3.8 2.6 0 4.9 1.4 6.2 3.8 1.8 3.4 2.1 9.6-2.6 16.7-0.8 1.1-1.7 2.3-2.9 3.5 4.7 4.4 12.1 9 19 11.1 4.6-8.3 10.1-12.1 14.4-12.8 2.9-0.4 5.4 0.6 6.9 2.7 1.6 2.5 1.6 5.2 0.1 7.5-2.1 3.2-7.9 6.1-18 4.5q-1.4-0.3-2.8-0.7c-1.6 3-3.1 6.6-4.3 10.8-4.1 14.3-5.9 33.4-5.9 64.1zm10.7-75.8q1.2 0.4 2.5 0.6c9.6 1.6 15.1-1.1 17-4.1 1.3-1.9 1.2-4.2-0.2-6.3-1.2-1.8-3.3-2.6-5.8-2.3-3.9 0.6-9.2 4.2-13.5 12.1zm-56.3-12.2c-2 0-3.6 0.9-4.7 2.4-1.3 2.1-1.4 4.4-0.1 6.3 1.9 3 7.4 5.7 17 4.1q1.2-0.2 2.5-0.6c-4.4-7.9-9.6-11.5-13.5-12.1q-0.6-0.1-1.2-0.1zm35.5-22.2c-2.3 0-4.2 1.2-5.3 3.3-2.1 4-1.1 10.1 2.6 15.7 0.6 1 1.6 2.1 2.7 3.3 1.1-1.2 2-2.3 2.7-3.3 3.7-5.6 4.7-11.7 2.6-15.7-1.2-2.1-3-3.3-5.3-3.3z" fill="#000000"/>
			</g>
		</g>
	</g>
	<g id="Sparkles">
		<g id="Shine_4_">
			<g id="Shine_3_" style="opacity: .2">
				<g>
					<g>
						<path class="s3" d="m262.8 60c-0.3 0-0.5-0.2-0.5-0.5v-47.6c0-0.3 0.2-0.5 0.5-0.5 0.3 0 0.5 0.2 0.5 0.5v47.6c0 0.3-0.2 0.5-0.5 0.5z" fill="#000000"/>
					</g>
					<g>
						<path class="s3" d="m238.2 63.3c-0.2 0-0.4-0.2-0.5-0.4l-9.5-35.8c-0.1-0.2 0-0.5 0.3-0.6 0.3-0.1 0.6 0.1 0.6 0.4l9.6 35.8c0.1 0.2-0.1 0.5-0.3 0.6q-0.1 0-0.2 0z" fill="#000000"/>
					</g>
					<g>
						<path class="s3" d="m215.3 72.8c-0.1 0-0.3 0-0.4-0.2l-14.9-25.8c-0.1-0.2 0-0.5 0.2-0.6 0.2-0.2 0.6-0.1 0.7 0.1l14.9 25.8c0.1 0.2 0 0.5-0.2 0.7q-0.1 0-0.3 0z" fill="#000000"/>
					</g>
					<g>
						<path class="s3" d="m195.7 88q-0.2 0-0.4-0.2l-31-31c-0.2-0.2-0.2-0.5 0-0.7 0.2-0.2 0.5-0.2 0.7 0l31 31c0.2 0.2 0.2 0.6 0 0.7q-0.1 0.2-0.3 0.2z" fill="#000000"/>
					</g>
					<g>
						<path class="s3" d="m180.6 107.7q-0.1 0-0.2 0l-44.3-25.6c-0.2-0.1-0.3-0.5-0.2-0.7 0.2-0.2 0.5-0.3 0.7-0.2l44.3 25.6c0.2 0.1 0.3 0.4 0.2 0.7-0.1 0.1-0.3 0.2-0.5 0.2z" fill="#000000"/>
					</g>
					<g>
						<path class="s3" d="m171.2 130.7q-0.1 0-0.1-0.1l-18.6-4.9c-0.3-0.1-0.5-0.4-0.4-0.6 0.1-0.3 0.4-0.5 0.6-0.4l18.6 5c0.3 0.1 0.4 0.3 0.4 0.6-0.1 0.2-0.3 0.4-0.5 0.4z" fill="#000000"/>
					</g>
					<g>
						<path class="s3" d="m126.9 156.6c-0.2 0-0.5-0.2-0.5-0.5 0-0.2 0.2-0.5 0.5-0.5l41.1-1.3c0.3-0.1 0.5 0.2 0.5 0.5 0 0.2-0.2 0.5-0.5 0.5l-41.1 1.3q0 0 0 0z" fill="#000000"/>
					</g>
					<g>
						<path class="s3" d="m160.3 182.8c-0.2 0-0.4-0.1-0.4-0.4-0.1-0.2 0-0.5 0.3-0.6l11-2.9c0.3-0.1 0.5 0.1 0.6 0.3 0.1 0.3-0.1 0.6-0.4 0.6l-10.9 3q-0.1 0-0.2 0z" fill="#000000"/>
					</g>
					<g>
						<path class="s3" d="m140.1 226.3c-0.2 0-0.4-0.1-0.5-0.2-0.1-0.3 0-0.6 0.2-0.7l40.8-23.6c0.3-0.1 0.6 0 0.7 0.2 0.1 0.3 0.1 0.6-0.2 0.7l-40.8 23.6q-0.1 0-0.2 0z" fill="#000000"/>
					</g>
					<g>
						<path class="s3" d="m164.9 253.6q-0.2 0-0.4-0.2c-0.2-0.2-0.2-0.5 0-0.7l31.2-31.1c0.2-0.2 0.5-0.2 0.7 0 0.2 0.2 0.2 0.5 0 0.7l-31.2 31.1q-0.1 0.2-0.3 0.2z" fill="#000000"/>
					</g>
					<g>
						<path class="s3" d="m200.2 264.4q-0.1 0-0.2-0.1c-0.3-0.1-0.4-0.4-0.2-0.7l15.5-26.9c0.1-0.2 0.5-0.3 0.7-0.2 0.2 0.2 0.3 0.5 0.2 0.7l-15.6 26.9c0 0.2-0.2 0.3-0.4 0.3z" fill="#000000"/>
					</g>
					<g>
						<path class="s3" d="m319.8 252.9c-0.1 0-0.3-0.1-0.4-0.2l-9-15.7c-0.2-0.3-0.1-0.6 0.1-0.7 0.3-0.1 0.6-0.1 0.7 0.2l9.1 15.7c0.1 0.2 0 0.5-0.2 0.7q-0.1 0-0.3 0z" fill="#000000"/>
					</g>
					<g>
						<path class="s3" d="m349.3 240.9q-0.2 0-0.4-0.1l-18.8-18.9c-0.2-0.2-0.2-0.5 0-0.7 0.2-0.2 0.5-0.2 0.7 0l18.8 18.9c0.2 0.2 0.2 0.5 0 0.7q-0.1 0.1-0.3 0.1z" fill="#000000"/>
					</g>
					<g>
						<path class="s3" d="m387.4 226.5q-0.2 0-0.3 0l-41.9-24.2c-0.2-0.1-0.3-0.5-0.1-0.7 0.1-0.2 0.4-0.3 0.6-0.2l41.9 24.2c0.2 0.1 0.3 0.4 0.2 0.7-0.1 0.1-0.3 0.2-0.4 0.2z" fill="#000000"/>
					</g>
					<g>
						<path class="s3" d="m374 184.5q0 0-0.1 0l-19.1-5.1c-0.3-0.1-0.4-0.4-0.4-0.6 0.1-0.3 0.4-0.4 0.7-0.4l19.1 5.1c0.2 0.1 0.4 0.4 0.3 0.7-0.1 0.2-0.3 0.3-0.5 0.3z" fill="#000000"/>
					</g>
					<g>
						<path class="s3" d="m388.9 154.8h-30.8c-0.3 0-0.5-0.2-0.5-0.5 0-0.3 0.2-0.5 0.5-0.5h30.8c0.3 0 0.5 0.2 0.5 0.5 0 0.3-0.2 0.5-0.5 0.5z" fill="#000000"/>
					</g>
					<g>
						<path class="s3" d="m354.8 130.2c-0.2 0-0.4-0.1-0.5-0.4 0-0.2 0.1-0.5 0.4-0.6l43.2-11.6c0.3 0 0.6 0.1 0.6 0.4 0.1 0.3-0.1 0.5-0.3 0.6l-43.3 11.6q0 0-0.1 0z" fill="#000000"/>
					</g>
					<g>
						<path class="s3" d="m345.3 107.3c-0.2 0-0.4-0.1-0.5-0.2-0.1-0.3 0-0.6 0.2-0.7l47.2-27.3c0.2-0.1 0.5 0 0.7 0.2 0.1 0.3 0 0.6-0.2 0.7l-47.2 27.2q-0.1 0.1-0.2 0.1z" fill="#000000"/>
					</g>
					<g>
						<path class="s3" d="m330.1 87.7q-0.2 0-0.4-0.2c-0.1-0.2-0.1-0.5 0-0.7l16.7-16.6c0.2-0.2 0.5-0.2 0.7 0 0.2 0.2 0.2 0.5 0 0.7l-16.6 16.6q-0.2 0.2-0.4 0.2z" fill="#000000"/>
					</g>
					<g>
						<path class="s3" d="m310.4 72.6q-0.2 0-0.3-0.1c-0.2-0.1-0.3-0.4-0.2-0.6l14.8-25.6c0.1-0.2 0.4-0.3 0.7-0.2 0.2 0.2 0.3 0.5 0.2 0.7l-14.8 25.6c-0.1 0.1-0.3 0.2-0.4 0.2z" fill="#000000"/>
					</g>
					<g>
						<path class="s3" d="m287.4 63.2q0 0-0.1-0.1c-0.3 0-0.4-0.3-0.4-0.6l9.5-35.1c0-0.3 0.3-0.4 0.6-0.4 0.2 0.1 0.4 0.4 0.3 0.6l-9.4 35.2c0 0.2-0.2 0.4-0.5 0.4z" fill="#000000"/>
					</g>
				</g>
				<g>
					<g>
						<path class="s3" d="m259.1 60.1c-0.3 0-0.5-0.2-0.5-0.5l-1.2-29.5c0-0.3 0.2-0.5 0.5-0.5q0 0 0 0c0.3 0 0.5 0.2 0.5 0.5l1.2 29.5c0 0.2-0.2 0.5-0.5 0.5q0 0 0 0z" fill="#000000"/>
					</g>
					<g>
						<path class="s3" d="m234.6 64.3c-0.2 0-0.4-0.1-0.5-0.3l-7-22.8c-0.1-0.2 0-0.5 0.3-0.6 0.3-0.1 0.5 0.1 0.6 0.3l7.1 22.8c0.1 0.3-0.1 0.5-0.3 0.6q-0.1 0-0.2 0z" fill="#000000"/>
					</g>
					<g>
						<path class="s3" d="m212.1 74.8c-0.2 0-0.3-0.1-0.4-0.2l-21-33.3c-0.1-0.2-0.1-0.5 0.2-0.6 0.2-0.2 0.5-0.1 0.7 0.1l20.9 33.2c0.2 0.3 0.1 0.6-0.1 0.7q-0.1 0.1-0.3 0.1z" fill="#000000"/>
					</g>
					<g>
						<path class="s3" d="m193.1 90.7q-0.2 0-0.4-0.1l-19.6-18.1c-0.2-0.2-0.2-0.6 0-0.8 0.2-0.2 0.5-0.2 0.7 0l19.6 18.1c0.2 0.2 0.2 0.6 0 0.8q-0.1 0.1-0.3 0.1z" fill="#000000"/>
					</g>
					<g>
						<path class="s3" d="m178.8 111q-0.1 0-0.2 0l-16.1-8.5c-0.3-0.1-0.4-0.4-0.2-0.7 0.1-0.2 0.4-0.3 0.6-0.2l16.2 8.5c0.2 0.1 0.3 0.4 0.2 0.7-0.1 0.1-0.3 0.2-0.5 0.2z" fill="#000000"/>
					</g>
					<g>
						<path class="s3" d="m170.3 134.3q-0.1 0-0.1 0l-51.8-11.7c-0.3-0.1-0.5-0.3-0.4-0.6 0-0.3 0.3-0.4 0.6-0.4l51.8 11.7c0.3 0.1 0.4 0.4 0.4 0.6-0.1 0.3-0.3 0.4-0.5 0.4z" fill="#000000"/>
					</g>
					<g>
						<path class="s3" d="m142.9 160c-0.2 0-0.4-0.2-0.5-0.4 0-0.3 0.3-0.6 0.5-0.6l25.2-1c0.3 0 0.5 0.2 0.5 0.5 0 0.3-0.2 0.5-0.5 0.5l-25.1 1q0 0-0.1 0z" fill="#000000"/>
					</g>
					<g>
						<path class="s3" d="m138.4 194c-0.2 0-0.4-0.1-0.5-0.3 0-0.3 0.1-0.6 0.4-0.6l33.9-10.6c0.3-0.1 0.6 0.1 0.6 0.3 0.1 0.3 0 0.6-0.3 0.7l-33.9 10.5q-0.1 0-0.2 0z" fill="#000000"/>
					</g>
					<g>
						<path class="s3" d="m139.1 233.6c-0.1 0-0.3-0.1-0.4-0.3-0.1-0.2-0.1-0.5 0.2-0.7l43.7-27.5c0.2-0.2 0.5-0.1 0.6 0.1 0.2 0.3 0.1 0.6-0.1 0.7l-43.7 27.6q-0.1 0.1-0.3 0.1z" fill="#000000"/>
					</g>
					<g>
						<path class="s3" d="m186.9 237.9q-0.2 0-0.4-0.2c-0.2-0.2-0.2-0.5 0-0.7l11.9-12.8c0.2-0.2 0.5-0.2 0.7-0.1 0.2 0.2 0.2 0.5 0 0.8l-11.9 12.8q-0.1 0.2-0.3 0.2z" fill="#000000"/>
					</g>
					<g>
						<path class="s3" d="m329.6 260c-0.1 0-0.3 0-0.4-0.2l-15.6-24.8c-0.2-0.2-0.1-0.5 0.1-0.6 0.3-0.2 0.6-0.1 0.7 0.1l15.7 24.8c0.1 0.2 0 0.5-0.2 0.7q-0.1 0-0.3 0z" fill="#000000"/>
					</g>
					<g>
						<path class="s3" d="m367.9 251.6q-0.2 0-0.3-0.1l-34.9-32.3c-0.2-0.2-0.2-0.5 0-0.7 0.2-0.2 0.5-0.2 0.7 0l34.9 32.2c0.2 0.2 0.2 0.5 0 0.7q-0.2 0.2-0.4 0.2z" fill="#000000"/>
					</g>
					<g>
						<path class="s3" d="m360 205.7q-0.1 0-0.2 0l-12.7-6.7c-0.3-0.1-0.4-0.4-0.2-0.7 0.1-0.2 0.4-0.3 0.6-0.2l12.7 6.7c0.3 0.1 0.4 0.4 0.3 0.7-0.1 0.1-0.3 0.2-0.5 0.2z" fill="#000000"/>
					</g>
					<g>
						<path class="s3" d="m393 184.1q-0.1 0-0.1 0l-37.2-8.4c-0.3 0-0.4-0.3-0.4-0.6 0.1-0.2 0.4-0.4 0.6-0.3l37.2 8.4c0.3 0 0.4 0.3 0.4 0.6-0.1 0.2-0.3 0.3-0.5 0.3z" fill="#000000"/>
					</g>
					<g>
						<path class="s3" d="m358 151c-0.2 0-0.5-0.2-0.5-0.4 0-0.3 0.2-0.6 0.5-0.6l44.3-1.7c0.3 0 0.5 0.2 0.5 0.5 0 0.2-0.2 0.5-0.5 0.5l-44.3 1.7q0 0 0 0z" fill="#000000"/>
					</g>
					<g>
						<path class="s3" d="m353.8 126.6c-0.3 0-0.5-0.1-0.5-0.4-0.1-0.2 0-0.5 0.3-0.6l14.7-4.6c0.3 0 0.6 0.1 0.7 0.4 0.1 0.2-0.1 0.5-0.4 0.6l-14.7 4.6q-0.1 0-0.1 0z" fill="#000000"/>
					</g>
					<g>
						<path class="s3" d="m343.3 104.1c-0.2 0-0.3-0.1-0.4-0.2-0.2-0.3-0.1-0.6 0.1-0.7l30.2-19.1c0.3-0.2 0.6-0.1 0.7 0.1 0.2 0.3 0.1 0.6-0.1 0.7l-30.2 19.1q-0.2 0.1-0.3 0.1z" fill="#000000"/>
					</g>
					<g>
						<path class="s3" d="m327.4 85.1q-0.2 0-0.4-0.2c-0.2-0.2-0.2-0.5 0-0.7l31.5-34.1c0.2-0.2 0.5-0.2 0.7 0 0.2 0.2 0.2 0.5 0.1 0.7l-31.6 34.1q-0.1 0.2-0.3 0.2z" fill="#000000"/>
					</g>
					<g>
						<path class="s3" d="m307.1 70.8q-0.1 0-0.3-0.1c-0.2-0.1-0.3-0.4-0.2-0.6l23.1-43.8c0.1-0.3 0.4-0.4 0.6-0.2 0.3 0.1 0.4 0.4 0.2 0.6l-23 43.8c-0.1 0.2-0.2 0.3-0.4 0.3z" fill="#000000"/>
					</g>
					<g>
						<path class="s3" d="m283.8 62.3q-0.1 0-0.1 0c-0.3-0.1-0.5-0.4-0.4-0.6l2.5-11.4c0.1-0.2 0.4-0.4 0.6-0.3 0.3 0 0.5 0.3 0.4 0.6l-2.5 11.3c-0.1 0.2-0.3 0.4-0.5 0.4z" fill="#000000"/>
					</g>
				</g>
				<g>
					<g>
						<path class="s3" d="m272.7 60.5q0 0 0 0c-0.3 0-0.5-0.3-0.5-0.6l4.3-40.7c0-0.3 0.3-0.5 0.5-0.5 0.3 0.1 0.5 0.3 0.5 0.6l-4.3 40.7c0 0.3-0.2 0.5-0.5 0.5z" fill="#000000"/>
					</g>
					<g>
						<path class="s3" d="m247.9 61.2c-0.2 0-0.4-0.2-0.5-0.4l-7.5-47.2c0-0.3 0.2-0.5 0.4-0.6 0.3 0 0.6 0.2 0.6 0.4l7.5 47.2c0.1 0.3-0.1 0.6-0.4 0.6q0 0-0.1 0z" fill="#000000"/>
					</g>
					<g>
						<path class="s3" d="m224.2 68.3c-0.2 0-0.4-0.1-0.5-0.3l-17.3-38.8c-0.1-0.2 0-0.5 0.3-0.6 0.2-0.1 0.5 0 0.6 0.2l17.3 38.8c0.1 0.3 0 0.6-0.2 0.7q-0.1 0-0.2 0z" fill="#000000"/>
					</g>
					<g>
						<path class="s3" d="m203 81.3q-0.2 0-0.4-0.1l-21.4-26.5c-0.2-0.2-0.1-0.5 0.1-0.7 0.2-0.2 0.5-0.2 0.7 0.1l21.4 26.4c0.2 0.2 0.2 0.6-0.1 0.7q-0.1 0.1-0.3 0.1z" fill="#000000"/>
					</g>
					<g>
						<path class="s3" d="m186 99.4q-0.2 0-0.3-0.1l-35.8-26c-0.2-0.2-0.3-0.5-0.1-0.7 0.1-0.2 0.4-0.3 0.7-0.1l35.8 26c0.2 0.1 0.3 0.5 0.1 0.7q-0.2 0.2-0.4 0.2z" fill="#000000"/>
					</g>
					<g>
						<path class="s3" d="m174.2 121.2q-0.1 0-0.2 0l-35.2-13.5c-0.2-0.1-0.4-0.4-0.3-0.7 0.1-0.2 0.4-0.3 0.7-0.2l35.2 13.5c0.3 0.1 0.4 0.4 0.3 0.6-0.1 0.2-0.3 0.3-0.5 0.3z" fill="#000000"/>
					</g>
					<g>
						<path class="s3" d="m168.5 145.4q0 0-0.1 0l-41.5-4.4c-0.3 0-0.5-0.3-0.5-0.5 0.1-0.3 0.3-0.5 0.6-0.5l41.6 4.4c0.2 0 0.4 0.2 0.4 0.5 0 0.3-0.2 0.5-0.5 0.5z" fill="#000000"/>
					</g>
					<g>
						<path class="s3" d="m118.5 178.2c-0.3 0-0.5-0.1-0.5-0.4-0.1-0.3 0.1-0.5 0.4-0.6l50.7-8c0.3-0.1 0.6 0.1 0.6 0.4 0.1 0.3-0.1 0.5-0.4 0.6l-50.8 8q0 0 0 0z" fill="#000000"/>
					</g>
					<g>
						<path class="s3" d="m145 207.9c-0.2 0-0.4-0.1-0.4-0.3-0.1-0.2 0-0.5 0.2-0.7l31.3-13.9c0.3-0.1 0.6 0 0.7 0.2 0.1 0.3 0 0.6-0.3 0.7l-31.3 14q-0.1 0-0.2 0z" fill="#000000"/>
					</g>
					<g>
						<path class="s3" d="m163.3 236.2q-0.3 0-0.4-0.2c-0.2-0.2-0.2-0.5 0-0.7l26.1-21.1c0.3-0.2 0.6-0.2 0.8 0 0.1 0.3 0.1 0.6-0.1 0.8l-26.1 21.1q-0.2 0.1-0.3 0.1z" fill="#000000"/>
					</g>
					<g>
						<path class="s3" d="m175.7 275.8q-0.2 0-0.3-0.1c-0.2-0.2-0.3-0.5-0.1-0.7l31.7-43.7c0.2-0.2 0.5-0.3 0.7-0.1 0.2 0.2 0.3 0.5 0.1 0.7l-31.7 43.7q-0.2 0.2-0.4 0.2z" fill="#000000"/>
					</g>
					<g>
						<path class="s3" d="m349.8 261.7q-0.3 0-0.4-0.2l-26.7-33c-0.2-0.2-0.1-0.5 0.1-0.7 0.2-0.1 0.5-0.1 0.7 0.1l26.7 33c0.1 0.2 0.1 0.5-0.1 0.7q-0.1 0.1-0.3 0.1z" fill="#000000"/>
					</g>
					<g>
						<path class="s3" d="m370.6 232.8q-0.2 0-0.3-0.1l-30.5-22.1c-0.2-0.2-0.3-0.5-0.1-0.7 0.2-0.2 0.5-0.3 0.7-0.1l30.5 22.1c0.2 0.2 0.3 0.5 0.1 0.7q-0.2 0.2-0.4 0.2z" fill="#000000"/>
					</g>
					<g>
						<path class="s3" d="m381.9 200.3q-0.1 0-0.2 0l-30-11.5c-0.2-0.1-0.4-0.4-0.3-0.6 0.1-0.3 0.4-0.4 0.7-0.3l30 11.5c0.2 0.1 0.3 0.4 0.2 0.6 0 0.2-0.2 0.3-0.4 0.3z" fill="#000000"/>
					</g>
					<g>
						<path class="s3" d="m370.6 166.1q0 0-0.1 0l-12.9-1.4c-0.3 0-0.5-0.3-0.5-0.5 0-0.3 0.3-0.5 0.6-0.5l12.9 1.4c0.3 0 0.5 0.2 0.5 0.5 0 0.3-0.3 0.5-0.5 0.5z" fill="#000000"/>
					</g>
					<g>
						<path class="s3" d="m356.9 139.9c-0.2 0-0.5-0.2-0.5-0.4 0-0.3 0.1-0.6 0.4-0.6l26.7-4.2c0.3-0.1 0.5 0.1 0.6 0.4 0 0.3-0.2 0.5-0.5 0.6l-26.6 4.2q-0.1 0-0.1 0z" fill="#000000"/>
					</g>
					<g>
						<path class="s3" d="m349.8 116.1c-0.2 0-0.4-0.1-0.5-0.3-0.1-0.2 0-0.5 0.3-0.6l22.9-10.2c0.2-0.1 0.5 0 0.6 0.2 0.1 0.3 0 0.6-0.2 0.7l-22.9 10.2q-0.1 0-0.2 0z" fill="#000000"/>
					</g>
					<g>
						<path class="s3" d="m336.8 95q-0.3 0-0.4-0.2c-0.2-0.2-0.2-0.5 0-0.7l20.9-16.9c0.2-0.2 0.5-0.1 0.7 0.1 0.2 0.2 0.1 0.5-0.1 0.7l-20.8 16.9q-0.2 0.1-0.3 0.1z" fill="#000000"/>
					</g>
					<g>
						<path class="s3" d="m318.7 78q-0.2 0-0.3-0.1c-0.2-0.2-0.3-0.5-0.1-0.7l6.7-9.2c0.2-0.3 0.5-0.3 0.7-0.1 0.2 0.1 0.3 0.4 0.1 0.7l-6.7 9.2q-0.1 0.2-0.4 0.2z" fill="#000000"/>
					</g>
					<g>
						<path class="s3" d="m296.9 66.2q-0.1 0-0.2 0c-0.3-0.1-0.4-0.4-0.3-0.7l12.1-31.6c0.1-0.3 0.4-0.4 0.7-0.3 0.2 0.1 0.4 0.4 0.3 0.6l-12.2 31.7c0 0.2-0.2 0.3-0.4 0.3z" fill="#000000"/>
					</g>
				</g>
			</g>
			<g id="Shine">
				<g>
					<path class="s3" d="m172.1 208.8q0 0 0 0c-0.3 0.2-0.6 0.1-0.8-0.1l-0.4-0.5q0 0 0 0c-0.9-1.3-2.5-1.7-3.9-0.9l-0.5 0.2c-0.3 0.2-0.7 0.1-0.8-0.2-0.2-0.3-0.1-0.6 0.1-0.8l0.5-0.4c1.3-0.9 1.7-2.5 0.9-3.9l-0.2-0.6c-0.2-0.2-0.1-0.6 0.2-0.8 0.3-0.1 0.6-0.1 0.8 0.2l0.4 0.5c0.9 1.2 2.5 1.6 3.9 0.9l0.6-0.2c0.2-0.2 0.6-0.1 0.8 0.2 0.1 0.3 0.1 0.6-0.2 0.8l-0.5 0.3c-1.2 1-1.6 2.6-0.9 4l0.2 0.5c0.2 0.3 0.1 0.7-0.2 0.8zm-3.8-3.1c0.8 0 1.5 0.1 2.2 0.5 0-0.8 0.1-1.5 0.5-2.2-0.8 0-1.5-0.1-2.2-0.5 0 0.8-0.1 1.5-0.5 2.2z" fill="#000000"/>
				</g>
				<g>
					<path class="s3" d="m197.5 241.5c-0.7 0.4-1.5 0.6-2.4 0.6-2.1-0.1-3.8-1.9-3.8-4.1 0.1-2.1 1.9-3.8 4.1-3.8 2.2 0.1 3.9 1.9 3.8 4.1 0 1.3-0.7 2.5-1.7 3.2zm-3.7-5.6q-0.2 0.1-0.4 0.3c-0.5 0.5-0.8 1.2-0.8 1.9-0.1 0.7 0.2 1.4 0.7 1.9 0.5 0.6 1.2 0.9 1.9 0.9 1.5 0 2.7-1.1 2.8-2.6 0-1.5-1.1-2.8-2.6-2.8-0.6 0-1.2 0.1-1.6 0.4z" fill="#000000"/>
				</g>
				<g>
					<g>
						<path class="s3" d="m175.1 234.8q0 0 0 0l-1.6 1.3c-0.3 0.2-0.7 0.2-0.9-0.1-0.2-0.2-0.2-0.6 0.1-0.8l1.6-1.3c0.3-0.2 0.6-0.2 0.9 0.1 0.2 0.2 0.1 0.6-0.1 0.8z" fill="#000000"/>
					</g>
					<g>
						<path class="s3" d="m178.1 236.6q0 0 0 0c-0.3 0.2-0.7 0.2-0.9-0.1l-1.3-1.6c-0.2-0.2-0.1-0.7 0.1-0.8 0.3-0.3 0.7-0.2 0.9 0l1.3 1.6c0.2 0.3 0.1 0.7-0.1 0.9z" fill="#000000"/>
					</g>
					<g>
						<path class="s3" d="m178.7 231.9q0 0 0 0l-1.6 1.3c-0.3 0.2-0.7 0.2-0.9-0.1-0.2-0.2-0.2-0.6 0.1-0.8l1.6-1.3c0.2-0.2 0.6-0.2 0.8 0.1 0.3 0.2 0.2 0.6 0 0.8z" fill="#000000"/>
					</g>
					<g>
						<path class="s3" d="m175.2 233q0 0 0 0c-0.3 0.2-0.7 0.2-0.9-0.1l-1.3-1.6c-0.2-0.2-0.2-0.7 0.1-0.8 0.3-0.3 0.7-0.2 0.9 0.1l1.3 1.5c0.2 0.3 0.1 0.7-0.1 0.9z" fill="#000000"/>
					</g>
				</g>
			</g>
			<g id="Shine_1_">
				<g>
					<path class="s3" d="m364.6 182.3q0 0 0 0c0.3 0.1 0.4 0.5 0.3 0.8l-0.3 0.5q0 0 0 0c-0.6 1.5 0 3.1 1.3 3.9l0.5 0.3c0.3 0.2 0.4 0.5 0.2 0.8-0.1 0.3-0.5 0.4-0.8 0.3l-0.5-0.2c-1.5-0.6-3.1-0.1-3.9 1.2l-0.3 0.5c-0.2 0.3-0.5 0.4-0.8 0.3-0.3-0.2-0.4-0.5-0.3-0.8l0.2-0.6c0.6-1.4 0.1-3-1.2-3.8l-0.5-0.4c-0.3-0.1-0.4-0.5-0.3-0.8 0.2-0.3 0.5-0.4 0.8-0.3l0.6 0.3c1.4 0.6 3 0.1 3.9-1.3l0.3-0.5c0.1-0.2 0.5-0.3 0.8-0.2zm-0.8 4.9c-0.4-0.6-0.6-1.4-0.6-2.1-0.7 0.4-1.4 0.6-2.2 0.7 0.4 0.6 0.7 1.3 0.7 2.1 0.6-0.4 1.4-0.7 2.2-0.7z" fill="#000000"/>
				</g>
				<g>
					<path class="s3" d="m369.7 140.7c0.7 0.3 1.4 0.9 1.8 1.6 1 1.9 0.4 4.3-1.5 5.4-1.9 1.1-4.3 0.4-5.4-1.5-1.1-1.9-0.4-4.3 1.5-5.4 1.2-0.6 2.5-0.6 3.6-0.1zm-2.8 6q0.2 0.1 0.4 0.2c0.7 0.2 1.4 0.1 2.1-0.3 0.6-0.3 1.1-0.9 1.2-1.6 0.2-0.7 0.2-1.4-0.2-2.1-0.7-1.3-2.4-1.7-3.7-1-1.3 0.7-1.8 2.4-1 3.7 0.3 0.5 0.7 0.9 1.2 1.1z" fill="#000000"/>
				</g>
				<g>
					<g>
						<path class="s3" d="m379.2 164.8q0 0 0 0l1.8 0.9c0.3 0.2 0.5 0.5 0.3 0.8-0.1 0.3-0.5 0.5-0.8 0.3l-1.9-0.9c-0.3-0.1-0.4-0.5-0.2-0.8 0.1-0.3 0.5-0.4 0.8-0.3z" fill="#000000"/>
					</g>
					<g>
						<path class="s3" d="m379.5 161.3q0 0 0 0c0.3 0.2 0.4 0.5 0.3 0.8l-0.9 1.9c-0.1 0.3-0.5 0.4-0.8 0.3-0.3-0.2-0.5-0.5-0.3-0.8l0.9-1.9c0.1-0.3 0.5-0.4 0.8-0.3z" fill="#000000"/>
					</g>
					<g>
						<path class="s3" d="m375 162.8q0 0 0 0l1.9 0.9c0.3 0.1 0.4 0.5 0.3 0.8-0.2 0.3-0.6 0.4-0.9 0.3l-1.8-0.9c-0.3-0.2-0.4-0.5-0.3-0.8 0.2-0.3 0.5-0.5 0.8-0.3z" fill="#000000"/>
					</g>
					<g>
						<path class="s3" d="m377.5 165.5q0 0 0 0c0.3 0.1 0.4 0.5 0.3 0.8l-0.9 1.8c-0.2 0.4-0.6 0.5-0.8 0.3-0.3-0.1-0.5-0.5-0.3-0.8l0.9-1.8c0.1-0.3 0.5-0.5 0.8-0.3z" fill="#000000"/>
					</g>
				</g>
			</g>
			<g id="Shine_2_">
				<g>
					<path class="s3" d="m172.9 91.1q0.1 0 0.1 0c0.3 0.1 0.5 0.4 0.5 0.7l-0.1 0.6q0 0 0 0c-0.2 1.5 0.8 3 2.3 3.4l0.5 0.1c0.3 0.1 0.5 0.4 0.5 0.8-0.1 0.3-0.4 0.5-0.7 0.4h-0.6c-1.5-0.2-3 0.7-3.4 2.2l-0.1 0.6c-0.1 0.3-0.5 0.5-0.8 0.5-0.3-0.1-0.5-0.4-0.4-0.7v-0.6c0.2-1.6-0.7-3-2.2-3.4l-0.6-0.2c-0.3 0-0.5-0.4-0.5-0.7 0.1-0.3 0.4-0.5 0.7-0.5l0.6 0.1c1.6 0.2 3-0.8 3.4-2.3l0.2-0.5c0-0.3 0.3-0.5 0.6-0.5zm0.7 5c-0.6-0.6-1-1.2-1.2-1.9-0.5 0.6-1.2 1-1.9 1.2 0.6 0.5 1 1.2 1.2 1.9 0.5-0.6 1.2-1 1.9-1.2z" fill="#000000"/>
				</g>
				<g>
					<path class="s3" d="m186.4 64.4c0.8 0.1 1.6 0.5 2.2 1.1 1.5 1.5 1.5 4 0 5.5-1.5 1.6-4 1.6-5.6 0.1-1.5-1.6-1.5-4.1 0-5.6 0.9-0.9 2.2-1.3 3.4-1.1zm-1 6.5q0.2 0.1 0.4 0.1c0.7 0 1.4-0.3 1.9-0.8 0.5-0.5 0.8-1.2 0.8-1.9 0-0.8-0.3-1.5-0.8-2-1.1-1-2.8-1-3.8 0.1-1.1 1-1.1 2.7 0 3.8 0.4 0.4 0.9 0.7 1.5 0.7z" fill="#000000"/>
				</g>
				<g>
					<g>
						<path class="s3" d="m216.9 61.1q0 0 0 0l2.1 0.4c0.3 0 0.5 0.3 0.5 0.7-0.1 0.3-0.4 0.5-0.7 0.5l-2.1-0.4c-0.3 0-0.5-0.4-0.5-0.7 0.1-0.3 0.4-0.5 0.7-0.5z" fill="#000000"/>
					</g>
					<g>
						<path class="s3" d="m216.3 57.7q0 0 0 0c0.3 0 0.6 0.3 0.5 0.7l-0.4 2c0 0.3-0.4 0.6-0.7 0.5-0.3-0.1-0.5-0.4-0.5-0.7l0.4-2c0.1-0.4 0.4-0.6 0.7-0.5z" fill="#000000"/>
					</g>
					<g>
						<path class="s3" d="m212.4 60.3q0 0 0 0l2 0.4c0.3 0 0.6 0.3 0.5 0.7 0 0.3-0.4 0.5-0.7 0.5l-2-0.4c-0.4 0-0.6-0.4-0.5-0.7 0-0.3 0.4-0.5 0.7-0.5z" fill="#000000"/>
					</g>
					<g>
						<path class="s3" d="m215.5 62.2q0 0 0 0c0.3 0.1 0.6 0.4 0.5 0.7l-0.4 2.1c0 0.3-0.4 0.5-0.7 0.5-0.3-0.1-0.5-0.4-0.5-0.8l0.4-2c0.1-0.3 0.4-0.5 0.7-0.5z" fill="#000000"/>
					</g>
				</g>
			</g>
		</g>
	</g>
	<g id="Speech_Bubble">
	</g>
</svg>