<svg version="1.1" xmlns="http://www.w3.org/2000/svg" width="512px" height="512px" transform="rotate(0) scale(1, 1)">
<path d="M0 0 C1.01790619 0.00215515 2.03581238 0.0043103 3.08456421 0.00653076 C17.69363523 0.05620146 32.02575853 0.30709809 46.375 3.3125 C47.34985352 3.51117676 48.32470703 3.70985352 49.32910156 3.91455078 C88.37782454 12.08284366 124.83813271 27.70153311 156.375 52.3125 C157.27089844 52.99699219 158.16679687 53.68148437 159.08984375 54.38671875 C174.64917637 66.50480877 189.28601276 80.73459548 201.375 96.3125 C202.138125 97.24707031 202.90125 98.18164062 203.6875 99.14453125 C237.90781205 141.86508107 256.89075101 197.18366372 256.63574219 251.77026367 C256.62496902 254.50787272 256.63573747 257.24483183 256.6484375 259.98242188 C256.67323234 290.11035469 256.67323234 290.11035469 248.6875 299.2421875 C242.88227424 304.88355608 236.74715478 306.85227318 228.8125 307.6875 C220.82808206 306.81647259 214.09613686 304.03805895 208.375 298.3125 C203.78746029 291.51815057 202.69654184 285.58469826 203.02734375 277.53125 C203.06453633 275.46280928 203.10172702 273.39436852 203.13891602 271.32592773 C203.16784943 270.26042694 203.19678284 269.19492615 203.22659302 268.09713745 C203.69110293 250.33668771 203.7006884 233.24957664 199.85571289 215.82983398 C199.19164298 212.3523201 198.81412661 208.82551288 198.375 205.3125 C166.365 205.3125 134.355 205.3125 101.375 205.3125 C102.035 215.8725 102.695 226.4325 103.375 237.3125 C104.18673985 266.26455466 104.18673985 266.26455466 96.1875 275.1875 C89.63068752 281.06362644 83.06499766 283.0224363 74.3046875 282.69921875 C67.23428298 281.76592535 61.28921568 278.45008912 56.375 273.3125 C49.73154316 264.42872188 50.40926694 253.8256776 50.125 243.25 C50.06204705 241.46411558 49.99695636 239.67830519 49.9296875 237.89257812 C49.83381063 235.3395452 49.7401767 232.78686797 49.66497803 230.23313904 C49.4129688 221.90644954 48.86508267 213.64390546 48.375 205.3125 C16.695 205.3125 -14.985 205.3125 -47.625 205.3125 C-49.36171604 229.79414068 -49.36171604 229.79414068 -49.88574219 254.24316406 C-49.87495497 256.94879365 -49.88579446 259.65376399 -49.8984375 262.359375 C-49.90825945 277.06971118 -48.86451693 291.65962409 -47.625 306.3125 C-46.95816193 306.31392502 -46.29132385 306.31535004 -45.60427856 306.31681824 C-38.62770097 306.33659232 -31.65198924 306.39103141 -24.67578125 306.46508789 C-22.07656071 306.48820285 -19.47724738 306.50264822 -16.87792969 306.50805664 C-13.12897338 306.51739312 -9.38146376 306.55849133 -5.6328125 306.60546875 C-4.48136749 306.6015361 -3.32992249 306.59760345 -2.14358521 306.59355164 C6.13567617 306.74134552 12.981861 308.37711581 19.28268433 314.02140808 C24.59750261 319.59253654 26.50564239 325.59622915 26.875 333.1875 C26.62428503 341.47154038 23.56621415 347.58969357 17.5625 353.25 C10.90591746 359.02660788 3.39447576 359.76577074 -5.03125 359.82421875 C-6.47920959 359.85114555 -6.47920959 359.85114555 -7.9564209 359.87861633 C-11.01257068 359.93241198 -14.06856706 359.96651606 -17.125 360 C-19.20835454 360.03320022 -21.29168891 360.06769236 -23.375 360.10351562 C-28.45822209 360.18812067 -33.54140112 360.25507792 -38.625 360.3125 C-30.75744868 393.38638373 -19.24306635 424.60725185 -2.625 454.3125 C-2.21427246 455.20710938 -1.80354492 456.10171875 -1.38037109 457.0234375 C0.19768754 459.59561809 0.19768754 459.59561809 3.203125 459.90844727 C4.33234375 459.89869873 5.4615625 459.8889502 6.625 459.87890625 C7.87410156 459.88986328 9.12320312 459.90082031 10.41015625 459.91210938 C11.71855469 459.89986328 13.02695312 459.88761719 14.375 459.875 C24.89894538 459.80597311 34.92693941 460.03733694 43.75 466.5 C49.26327664 472.40708212 51.88867067 478.4492067 52.6875 486.4375 C52.11140592 493.58106654 49.68549209 501.29703524 44.375 506.3125 C39.12441832 510.04009349 34.88982012 512.41813442 28.33813477 512.48950195 C27.30660782 512.50214584 26.27508087 512.51478973 25.21229553 512.52781677 C23.53133034 512.53918419 23.53133034 512.53918419 21.81640625 512.55078125 C20.65278061 512.5605751 19.48915497 512.57036896 18.29026794 512.58045959 C-29.93279832 512.90256004 -29.93279832 512.90256004 -50.625 508.3125 C-52.12619385 507.99901611 -52.12619385 507.99901611 -53.65771484 507.67919922 C-90.82124749 499.7953098 -125.69485276 483.69486307 -155.625 460.3125 C-156.59695312 459.55324219 -157.56890625 458.79398437 -158.5703125 458.01171875 C-173.94991644 445.67736402 -188.50265196 431.87645499 -200.625 416.3125 C-201.77162109 414.90871094 -201.77162109 414.90871094 -202.94140625 413.4765625 C-228.5282721 381.52378299 -245.03801276 342.35738322 -252.625 302.3125 C-252.78871094 301.50312988 -252.95242187 300.69375977 -253.12109375 299.85986328 C-258.59069558 271.87335724 -258.46977511 238.21828161 -252.625 210.3125 C-252.42632324 209.33764648 -252.22764648 208.36279297 -252.02294922 207.35839844 C-241.7272891 158.1397446 -219.29081567 114.71000304 -184.625 78.3125 C-184.05475098 77.71356934 -183.48450195 77.11463867 -182.89697266 76.49755859 C-174.89671874 68.15723469 -166.68033043 60.51197864 -157.39306641 53.62744141 C-155.58557641 52.28318 -153.79826388 50.91490873 -152.01171875 49.54296875 C-143.60452986 43.15390681 -134.86138957 37.61168285 -125.65234375 32.45166016 C-123.78933792 31.40484113 -121.94116361 30.33571119 -120.09375 29.26171875 C-83.4933446 8.69459905 -41.63834482 -0.15855121 0 0 Z M-0.625 54.3125 C-16.73344173 80.03009894 -27.49248719 108.12408371 -35.75 137.25 C-36.19327637 138.8131897 -36.19327637 138.8131897 -36.64550781 140.40795898 C-37.89937994 145.00434187 -38.625 148.4732803 -38.625 153.3125 C-12.885 153.3125 12.855 153.3125 39.375 153.3125 C37.80196612 144.66081367 35.94695987 136.67882385 33.4375 128.3125 C33.24447296 127.66786804 33.05144592 127.02323608 32.85256958 126.35906982 C26.90793531 106.65079269 19.23705261 87.40195647 9.375 69.3125 C9.01744629 68.6534668 8.65989258 67.99443359 8.29150391 67.31542969 C4.87335654 59.77207404 4.87335654 59.77207404 -0.625 54.3125 Z M64.375 62.3125 C65.66095282 66.27950512 67.07597176 70.14686023 68.66015625 74.00390625 C78.59170105 98.49654878 86.38558829 123.26792636 91.85351562 149.15893555 C92.29755267 151.34439742 92.29755267 151.34439742 93.375 153.3125 C120.765 153.3125 148.155 153.3125 176.375 153.3125 C163.60345444 131.41842189 147.384894 111.97831932 127.375 96.3125 C126.41464844 95.55839844 125.45429688 94.80429688 124.46484375 94.02734375 C106.42712679 80.1722858 86.11274426 69.06459094 64.375 62.3125 Z M-134.625 103.3125 C-135.48480469 104.04984375 -136.34460938 104.7871875 -137.23046875 105.546875 C-146.82915895 113.90948585 -155.25246491 123.24074057 -162.9375 133.375 C-163.40462402 133.98674072 -163.87174805 134.59848145 -164.35302734 135.22875977 C-168.66556065 141.04695547 -171.90889372 146.9420321 -175.625 153.3125 C-148.235 153.3125 -120.845 153.3125 -92.625 153.3125 C-89.325 140.1125 -86.025 126.9125 -82.625 113.3125 C-72.57166667 82.37916667 -72.57166667 82.37916667 -65.76953125 67.8828125 C-64.48940585 65.47692833 -64.48940585 65.47692833 -64.625 63.3125 C-88.16540405 63.3125 -117.82796397 88.45101647 -134.625 103.3125 Z M-197.625 205.3125 C-201.12703744 222.82268718 -203.85670254 238.13120233 -203.875 255.5625 C-203.87633942 256.31550385 -203.87767883 257.06850769 -203.87905884 257.84432983 C-203.8724483 275.01646572 -201.50169993 290.51346697 -197.625 307.3125 C-165.615 307.3125 -133.605 307.3125 -100.625 307.3125 C-100.955 299.7225 -101.285 292.1325 -101.625 284.3125 C-101.70502791 279.74396317 -101.76675253 275.19197422 -101.7578125 270.625 C-101.75876923 269.46911377 -101.75972595 268.31322754 -101.76071167 267.12231445 C-101.76138104 264.71988876 -101.75961566 262.3174611 -101.75537109 259.91503906 C-101.75000479 256.3157124 -101.75535952 252.71651046 -101.76171875 249.1171875 C-101.76105775 246.7447914 -101.75977613 244.37239538 -101.7578125 242 C-101.75983673 240.96593018 -101.76186096 239.93186035 -101.76394653 238.86645508 C-101.7301105 227.6471618 -101.11381769 216.55530696 -100.625 205.3125 C-132.635 205.3125 -164.645 205.3125 -197.625 205.3125 Z M-175.625 359.3125 C-170.14718388 368.89160525 -170.14718388 368.89160525 -163.9375 377.6875 C-163.5245166 378.2136792 -163.1115332 378.7398584 -162.68603516 379.28198242 C-152.09169149 392.65178448 -141.04173548 404.70923461 -127.625 415.3125 C-127.11275879 415.72290527 -126.60051758 416.13331055 -126.07275391 416.55615234 C-109.0892904 430.14815688 -88.64929218 443.06738095 -67.625 449.3125 C-66.635 448.9825 -65.645 448.6525 -64.625 448.3125 C-64.91109131 447.61092773 -65.19718262 446.90935547 -65.49194336 446.18652344 C-76.99417977 417.83163919 -85.9826686 389.20299128 -92.625 359.3125 C-120.015 359.3125 -147.405 359.3125 -175.625 359.3125 Z " fill="#da26ff" transform="translate(255.625,-0.3125)"/>
<path d="M0 0 C5.31089773 1.77639539 10.33291897 4.32987835 15.35980225 6.77609253 C18.81335502 8.45660812 22.2863886 10.09497819 25.75857544 11.73655701 C27.55084645 12.58444699 29.34208123 13.43453068 31.1322937 14.28675842 C38.92587001 17.99185537 46.79254317 21.51245368 54.69406128 24.9800415 C70.22256874 31.79724423 85.62646834 38.86787321 100.99243164 46.04321289 C109.07857291 49.81556359 117.17573415 53.54842992 125.34375 57.140625 C126.43534676 57.62304153 126.43534676 57.62304153 127.54899597 58.11520386 C130.93010404 59.6092841 134.31536331 61.09125031 137.7121582 62.54931641 C138.88609131 63.06671387 140.06002441 63.58411133 141.26953125 64.1171875 C142.28635986 64.55659668 143.30318848 64.99600586 144.35083008 65.44873047 C147.97815487 67.57277634 150.13008613 70.26017226 152 74 C152.50931028 80.00986133 152.02100115 84.20478596 148 89 C144.63665591 91.31646245 141.02114753 92.97755539 137.3203125 94.6875 C136.27479218 95.19369873 135.22927185 95.69989746 134.15206909 96.22143555 C130.81867629 97.83382116 127.47356398 99.41938919 124.125 101 C120.78429513 102.58190642 117.44723294 104.169836 114.11935425 105.77856445 C112.0524033 106.77747051 109.97803685 107.76122066 107.89553833 108.72729492 C97.42063761 113.78301499 93.47932824 120.28856296 88.62890625 130.60546875 C87.63270203 132.66106936 86.63594055 134.71639997 85.63867188 136.77148438 C84.09297405 139.98715601 82.55388287 143.20567165 81.02514648 146.42944336 C79.53573019 149.55947968 78.02154418 152.6765404 76.50390625 155.79296875 C76.05576065 156.75655807 75.60761505 157.7201474 75.14588928 158.7129364 C72.26723015 164.58063446 70.07272141 167.42845266 64 170 C59.9503761 170.96792417 56.70393033 170.37028476 52.99804688 168.42089844 C49.52465193 165.61616031 47.89591966 162.74156426 46.09375 158.765625 C45.7582312 158.06044739 45.4227124 157.35526978 45.07702637 156.62872314 C44.03459753 154.42655405 43.01611961 152.21441108 42 150 C41.37470947 148.66423955 40.74843705 147.32893821 40.12109375 145.99414062 C38.21861924 141.92574248 36.35725992 137.83919092 34.5 133.75 C33.80515822 132.22604512 33.11025095 130.7021201 32.4152832 129.17822266 C27.26903483 117.87512734 22.23033352 106.52569487 17.21139526 95.16564941 C10.52557373 80.04612527 3.58734018 65.04741974 -3.4047699 50.06747437 C-4.51981628 47.67241857 -5.62718351 45.27392039 -6.73388672 42.875 C-8.31044643 39.4617634 -9.9288303 36.07161577 -11.56689453 32.6875 C-12.4004884 30.92728373 -13.23367075 29.16687251 -14.06640625 27.40625 C-14.46069321 26.61142212 -14.85498016 25.81659424 -15.26121521 24.99768066 C-17.85850152 19.43476629 -19.14209453 14.14185113 -18 8 C-13.44095924 0.5774915 -8.53090635 -1.3796614 0 0 Z " fill="#da26ff" transform="translate(341,323)"/>
</svg>