<svg xmlns="http://www.w3.org/2000/svg" xmlns:xlink="http://www.w3.org/1999/xlink" version="1.1" x="0px" y="0px" viewBox="0 0 500 500" style="enable-background:new 0 0 500 500;" xml:space="preserve">
<g id="Floor">
	<path id="Floor_00000109719696119997998730000005061501500175690149_" style="fill:#F5F5F5;" d="M82.234,209.922   c-92.652,53.493-92.65,140.222,0.005,193.715c92.655,53.493,242.876,53.493,335.528,0c92.652-53.493,92.65-140.222-0.005-193.715   C325.107,156.429,174.886,156.429,82.234,209.922z"/>
</g>
<g id="Shadow">
	<path id="Shadow_00000156552686049750036970000010184197855628958642_" style="fill:#E0E0E0;" d="M237.466,276.077   c-19.912-1.925-38.104-4.703-52.502-8.365c-9.306-2.367-17.174-5.415-21.985-7.478c-0.854-1.235-2.065-2.306-3.603-3.188   c-0.283-0.163-0.579-0.319-0.885-0.469c0.306,0.15,0.601,0.306,0.885,0.469l0.016-0.006l-32.8-18.724   c-0.184-0.118-0.387-0.231-0.575-0.341l-0.459-0.259l-0.016,0.006c-5.174-2.738-12.357-4.233-20.263-3.726   c-1.608-0.386-3.272-0.721-4.999-0.988c-21.202-3.282-42.998,3.98-48.682,16.222c-2.518,5.422-1.447,10.91,2.365,15.629   c-0.194,4.039,2.321,7.678,6.603,10.37l-0.037,0.019l33.497,19.141c0.088,0.054,0.175,0.108,0.267,0.155   c1.572,0.926,3.498,1.647,5.725,2.149c3.966,2.997,9.91,7.99,13.934,13.656c5.947,8.373,10.072,18.191,13.147,29.359   c-12.368,27.296,15.859,43.458,63.316,36.125c26.767-4.137,53.942-14.87,74.915-28.356l0.003-0.007   c16.368-10.531,28.924-22.736,34.525-34.796C312.564,285.305,284.652,269.011,237.466,276.077z M158.076,256.385   c-0.176-0.081-0.35-0.162-0.533-0.239C157.725,256.223,157.9,256.305,158.076,256.385z M157.02,255.941   c-0.161-0.062-0.32-0.124-0.486-0.183C156.7,255.816,156.859,255.879,157.02,255.941z M155.937,255.558   c-0.155-0.05-0.31-0.1-0.469-0.148C155.627,255.458,155.782,255.508,155.937,255.558z M154.804,255.223   c-0.15-0.04-0.301-0.08-0.454-0.118C154.503,255.143,154.654,255.183,154.804,255.223z M153.614,254.933   c-0.14-0.031-0.283-0.06-0.425-0.089C153.331,254.873,153.474,254.902,153.614,254.933z"/>
</g>
<g id="Megaphone">
	<g id="Megaphone_00000167362689299967386620000006478788609557456280_">
		<g>
			<path style="fill:#455A64;" d="M42.107,125.833c-0.004,24.565,19.907,44.482,44.471,44.486     c24.565,0.004,44.483-19.908,44.486-44.472c0.003-24.565-19.907-44.482-44.472-44.486     C62.027,81.358,42.11,101.268,42.107,125.833z"/>
			<path style="fill:#374545;" d="M64.334,131.458c8.084,4.669,29.06,16.784,50.185,28.986c-7.637,6.174-17.354,9.878-27.941,9.876     c-24.564-0.004-44.476-19.921-44.471-44.486c0-9.213,2.803-17.772,7.602-24.87C45.736,112.306,48.2,122.138,64.334,131.458z"/>
		</g>
		<g id="XMLID_913_">
			<path id="XMLID_6588_" style="fill:#374545;" d="M101.673,160.172l30.99-17.906c-9.524,35.769-14.858,89.447-12.412,128.811     l-12.399,7.156C100.601,254.553,98.982,206.228,101.673,160.172z"/>
			<g id="Button_00000163064644485318689490000002263325276231772086_">
				<polygon style="fill:#1b1d1f;" points="116.963,201.151 108.314,206.144 108.314,222.231 116.963,217.237     "/>
				<polygon style="fill:#da26ff;" points="108.678,221.6 110.853,207.61 108.678,206.355     "/>
				<polygon style="opacity:0.2;" points="108.678,221.6 110.853,207.61 108.678,206.355     " fill="#000000"/>
				<polygon style="fill:#da26ff;" points="110.853,207.61 118.772,203.038 116.599,201.782 108.678,206.355     "/>
				<polygon style="opacity:0.35;" points="110.853,207.61 118.772,203.038 116.599,201.782 108.678,206.355     " fill="#000000"/>
				<polygon style="fill:#da26ff;" points="116.598,217.027 108.678,221.6 110.853,207.61 118.772,203.038     "/>
				<polygon style="opacity:0.3;fill:#FFFFFF;" points="116.598,217.027 108.678,221.6 110.853,207.61 118.772,203.038     "/>
				<path style="fill:#da26ff;" d="M113.952,208.748l1.893-1.093c0.322-0.186,0.546-0.663,0.501-1.066l0,0      c-0.045-0.403-0.343-0.579-0.665-0.393l-1.893,1.093c-0.322,0.186-0.546,0.663-0.501,1.066l0,0      C113.332,208.758,113.63,208.934,113.952,208.748z"/>
			</g>
			<polygon style="fill:#374545;" points="69.868,230.021 78.81,222.175 75.456,233.936    "/>
			<path id="XMLID_00000054261602768451448540000018259199660548507836_" style="fill:#455A64;" d="M63.997,159.866     c0,0,13.062,16.64,13.062,16.64c0.046,6.933,0.091,13.867,0.137,20.801c0.034,5.233,0.069,10.467,0.103,15.7     c0.026,3.952,1.408,11.379-2.164,14.013c-1.41,1.04-3.14,1.561-4.605,2.522c-3.966,2.601-5.25,8.08-4.142,12.692     c1.109,4.612,4.139,8.508,7.338,12.01c9.941,10.887,21.348,17.16,34.015,23.864c-2.976-17.834-5.736-35.235-6.518-53.419     c-0.924-21.49-0.609-43.039,0.451-64.518L63.997,159.866z"/>
			<path style="opacity:0.2;" d="M101.673,160.172l-37.676-0.306l13.062,16.64c0.035,5.314,0.07,10.627,0.105,15.941l23.55,13.055     c0,0,10.32,4.1,21.123,1.244c2.201-23.302,5.966-46.224,10.827-64.48L101.673,160.172z" fill="#000000"/>
			<path style="fill:#da26ff;" d="M93.031,234.864l7.209,4.172c1.459,0.845,3.814,0.828,5.261-0.036l0.852-0.508     c1.445-0.865,2.618-2.933,2.62-4.619l-0.001-1.054c0.001-1.686-1.183-2.369-2.644-1.526c-0.31,0.178-0.616,0.356-0.911,0.526     c-1.46,0.842-3.827,0.844-5.287,0l-7.097-4.098c-1.46-0.842-2.643-0.16-2.643,1.525v1.039     C90.389,231.97,91.572,234.02,93.031,234.864z M110.08,248.768c0.001-1.685-1.183-2.368-2.642-1.526     c-0.311,0.18-0.618,0.357-0.914,0.527c-1.46,0.842-3.827,0.841-5.286-0.002l-7.096-4.098c-1.46-0.844-2.642-0.161-2.643,1.524     l-0.001,1.039c0,1.685,1.183,3.736,2.641,4.581l7.21,4.171c1.458,0.845,3.813,0.829,5.26-0.037l0.852-0.508     c1.446-0.866,2.619-2.932,2.62-4.618L110.08,248.768z"/>
			<g style="opacity:0.6;">
				<path style="fill:#FFFFFF;" d="M93.033,227.72c-1.46-0.842-2.643-0.16-2.643,1.525v1.039c-0.001,1.686,1.181,3.736,2.64,4.58      l7.209,4.172c0.582,0.337,1.307,0.531,2.06,0.595c-0.236-2.419-0.448-4.846-0.624-7.285c-0.564-0.1-1.099-0.269-1.545-0.527      L93.033,227.72z"/>
				<path style="fill:#FFFFFF;" d="M103.27,248.366c-0.744-0.071-1.458-0.267-2.032-0.598l-7.096-4.098      c-1.46-0.844-2.642-0.161-2.643,1.524l-0.001,1.039c0,1.685,1.183,3.736,2.641,4.581l7.21,4.171      c0.79,0.458,1.842,0.654,2.872,0.608C103.883,253.187,103.567,250.778,103.27,248.366z"/>
			</g>
		</g>
		<g id="XMLID_00000062151288803533149130000011045542981381465262_">
			<g>
				<path id="XMLID_912_" style="fill:#da26ff;" d="M162.548,109.235l-0.015,0.016c-5.95-3.42-13.961-3.284-22.857,1.065      c-0.931,0.441-1.877,0.944-2.839,1.494c-1.131,0.657-2.229,1.343-3.328,2.105c-1.816,1.237-3.585,2.594-5.311,4.089      c-3.158,2.702-6.15,5.783-8.927,9.155c-7.448,9.062-13.309,20.139-16.408,31.202c-1.557,5.585-2.413,11.154-2.413,16.479      c-0.002,11.307,3.872,19.35,10.173,23.257L64.813,171.96l0.031-0.046c-7.827-4.975-13.213-13.857-13.21-24.981      c0.001-5.081,0.78-10.406,2.214-15.732c3.038-11.307,8.992-22.673,16.607-31.934c2.779-3.373,5.77-6.47,8.929-9.154      c1.724-1.495,3.494-2.868,5.31-4.09c1.1-0.762,2.213-1.464,3.328-2.104c0.945-0.549,1.907-1.037,2.868-1.48      c8.789-3.996,17.96-3.431,25.376,0.432l0.015-0.016l0.626,0.352c0.259,0.152,0.534,0.304,0.793,0.472L162.548,109.235z"/>
				<path id="XMLID_00000118398781855315804420000012744713827764416139_" style="opacity:0.1;" d="M64.813,171.96l0.031-0.046      c-7.827-4.975-13.213-13.857-13.21-24.981c0.001-5.081,0.78-10.406,2.214-15.732l49.016,27.158      c-1.557,5.585-2.413,11.154-2.413,16.479c-0.002,11.307,3.872,19.35,10.173,23.257L64.813,171.96z" fill="#000000"/>
				<path style="opacity:0.2;" d="M70.787,126.523l23.451,13.362c4.08,2.325,8.91,0.711,11.232-3.371      c0.32-0.562,0.645-1.12,0.977-1.674c2.41-4.031,1.395-8.964-2.686-11.288l-23.475-13.372c-4.081-2.325-9.681-1.159-12.084,2.876      c-0.33,0.553-0.653,1.11-0.971,1.671C64.916,118.812,66.706,124.198,70.787,126.523z" fill="#000000"/>
				<path style="fill:#da26ff;" d="M94.237,139.885c4.08,2.325,8.91,0.711,11.232-3.371c0.319-0.562,0.645-1.12,0.976-1.674      c0.874-1.463,1.292-3.043,1.281-4.576c-0.582-1.721-1.78-3.236-3.564-4.252l-23.475-13.372      c-4.081-2.324-9.681-1.159-12.084,2.876c-0.329,0.553-0.653,1.11-0.971,1.671c-0.728,1.285-1.049,2.698-1.021,4.104      c0.669,2.146,2.136,4.071,4.174,5.232L94.237,139.885z"/>
				<path style="opacity:0.2;fill:#FFFFFF;" d="M94.237,139.885c4.08,2.325,8.91,0.711,11.232-3.371      c0.319-0.562,0.645-1.12,0.976-1.674c0.874-1.463,1.292-3.043,1.281-4.576c-0.582-1.721-1.78-3.236-3.564-4.252l-23.475-13.372      c-4.081-2.324-9.681-1.159-12.084,2.876c-0.329,0.553-0.653,1.11-0.971,1.671c-0.728,1.285-1.049,2.698-1.021,4.104      c0.669,2.146,2.136,4.071,4.174,5.232L94.237,139.885z"/>
				<path style="fill:#da26ff;" d="M88.599,157.75l-23.408-13.337c-4.08-2.325-8.159-0.454-8.269,4.241      c-0.013,0.536-0.015,1.071-0.008,1.604c0.067,4.696,4.477,10.282,8.558,12.606l23.322,13.287      c4.08,2.325,6.318,0.499,6.276-4.196c-0.005-0.515,0-1.031,0.014-1.548C95.212,165.712,92.68,160.075,88.599,157.75z"/>
				<path style="opacity:0.2;" d="M88.599,157.75l-23.408-13.337c-4.08-2.325-8.159-0.454-8.269,4.241      c-0.013,0.536-0.015,1.071-0.008,1.604c0.067,4.696,4.477,10.282,8.558,12.606l23.322,13.287      c4.08,2.325,6.318,0.499,6.276-4.196c-0.005-0.515,0-1.031,0.014-1.548C95.212,165.712,92.68,160.075,88.599,157.75z" fill="#000000"/>
				<path style="fill:#da26ff;" d="M88.599,157.75l-23.408-13.337c-2.016-1.149-4.03-1.27-5.567-0.535      c-0.478,0.807-0.767,1.818-0.795,3.015c-0.012,0.536-0.015,1.071-0.008,1.604c0.067,4.696,4.477,10.282,8.557,12.606      l23.322,13.287c1.546,0.881,2.827,1.163,3.82,0.922c0.371-0.852,0.561-1.977,0.548-3.358c-0.005-0.515,0-1.031,0.014-1.548      C95.212,165.712,92.68,160.075,88.599,157.75z"/>
				<path style="opacity:0.2;fill:#FFFFFF;" d="M88.599,157.75l-23.408-13.337c-2.016-1.149-4.03-1.27-5.567-0.535      c-0.478,0.807-0.767,1.818-0.795,3.015c-0.012,0.536-0.015,1.071-0.008,1.604c0.067,4.696,4.477,10.282,8.557,12.606      l23.322,13.287c1.546,0.881,2.827,1.163,3.82,0.922c0.371-0.852,0.561-1.977,0.548-3.358c-0.005-0.515,0-1.031,0.014-1.548      C95.212,165.712,92.68,160.075,88.599,157.75z"/>
				<path style="opacity:0.2;" d="M94.184,86.48c-0.51,0.273-1.015,0.558-1.514,0.853c-4.042,2.39-3.617,6.806,0.464,9.131      l23.51,13.396c4.08,2.325,10.28,1.691,14.333-0.68c0.523-0.306,1.053-0.601,1.588-0.883c4.155-2.188,4.638-4.836,0.558-7.161      l-23.629-13.464C105.413,85.347,98.324,84.264,94.184,86.48z" fill="#000000"/>
				<path style="fill:#da26ff;" d="M133.122,103.74l-23.629-13.464c-4.08-2.325-11.169-3.408-15.309-1.192      c-0.51,0.273-1.015,0.558-1.514,0.853c-1.392,0.823-2.241,1.888-2.607,3.023c0.416,1.325,1.45,2.58,3.071,3.504l23.51,13.396      c4.08,2.325,10.28,1.691,14.334-0.68c0.523-0.306,1.053-0.601,1.588-0.883c1.466-0.772,2.465-1.602,2.977-2.454      C135.106,105.127,134.315,104.42,133.122,103.74z"/>
				<path style="opacity:0.2;fill:#FFFFFF;" d="M133.122,103.74l-23.629-13.464c-4.08-2.325-11.169-3.408-15.309-1.192      c-0.51,0.273-1.015,0.558-1.514,0.853c-1.392,0.823-2.241,1.888-2.607,3.023c0.416,1.325,1.45,2.58,3.071,3.504l23.51,13.396      c4.08,2.325,10.28,1.691,14.334-0.68c0.523-0.306,1.053-0.601,1.588-0.883c1.466-0.772,2.465-1.602,2.977-2.454      C135.106,105.127,134.315,104.42,133.122,103.74z"/>
			</g>
			<g>
				<path id="XMLID_00000052804585014783457960000005569887575240897201_" style="fill:#da26ff;" d="M173.226,132.827      c-0.005,23.21-16.289,51.42-36.387,63.015c-10.102,5.842-19.258,6.359-25.849,2.467c-0.122-0.061-0.244-0.136-0.366-0.213      c-6.301-3.908-10.175-11.95-10.173-23.257c0.003-23.208,16.289-51.419,36.387-63.029c10.025-5.782,19.12-6.345,25.696-2.559      C169.14,113.035,173.227,121.2,173.226,132.827z"/>
				<path id="XMLID_00000068650872303284180500000017962856307255741102_" style="opacity:0.2;" d="M173.226,132.827      c-0.005,23.21-16.289,51.42-36.387,63.015c-10.102,5.842-19.258,6.359-25.849,2.467c-0.122-0.061-0.244-0.136-0.366-0.213      c-6.301-3.908-10.175-11.95-10.173-23.257c0.003-23.208,16.289-51.419,36.387-63.029c10.025-5.782,19.12-6.345,25.696-2.559      C169.14,113.035,173.227,121.2,173.226,132.827z" fill="#000000"/>
			</g>
			<g>
				<path id="XMLID_887_" style="fill:#da26ff;" d="M273.148,120.324c0,0-36.71,18.833-68.068,73.127      c-6.159,10.663-11.03,20.837-14.88,30.279c-15.751,38.62-14.447,65.225-14.447,65.225c-10.939-26.795-22.29-49.296-35.585-66.75      c-11.658-15.305-27.896-25.856-27.896-25.856l0.015-0.026c-6.004-3.486-9.507-11.06-9.508-21.492      c0.004-6.87,1.483-14.19,4.117-21.376c1.642-4.549,3.744-9.044,6.216-13.326c6.381-11.047,15.192-20.689,24.894-26.292      c9.036-5.212,17.348-5.963,23.368-2.504l0.014-0.025c0,0,15.397,7.606,34.155,10.501      C217.184,125.15,244.474,124.238,273.148,120.324z"/>
				<path id="XMLID_00000042697721602018624490000003322309158160239796_" style="opacity:0.6;fill:#FFFFFF;" d="M273.148,120.324      c0,0-36.71,18.833-68.068,73.127c-6.159,10.663-11.03,20.837-14.88,30.279c-15.751,38.62-14.447,65.225-14.447,65.225      c-10.939-26.795-22.29-49.296-35.585-66.75c-11.658-15.305-27.896-25.856-27.896-25.856l0.015-0.026      c-6.004-3.486-9.507-11.06-9.508-21.492c0.004-6.87,1.483-14.19,4.117-21.376c1.642-4.549,3.744-9.044,6.216-13.326      c6.381-11.047,15.192-20.689,24.894-26.292c9.036-5.212,17.348-5.963,23.368-2.504l0.014-0.025c0,0,15.397,7.606,34.155,10.501      C217.184,125.15,244.474,124.238,273.148,120.324z"/>
				<path style="opacity:0.3;fill:#FFFFFF;" d="M124.15,139.673c0,0,14.268,3.945,44.905,3.036l15.348-16.3      c-13.469-2.908-23.29-7.321-29.863-11.836C144.702,116.332,128.206,129.503,124.15,139.673z M199.352,128.797l-12.04,12.78      c19.336-2.041,37.456-7.041,47.711-12.27C221.494,130.2,209.641,129.903,199.352,128.797z"/>
				<path style="opacity:0.3;fill:#da26ff;" d="M104.423,161.635c-1.066,4.479-1.64,8.925-1.643,13.196      c0.001,10.432,3.504,18.006,9.508,21.492l-0.015,0.026c0,0,16.238,10.551,27.896,25.856      c13.295,17.454,24.646,39.955,35.585,66.75c0,0-1.164-23.969,12.178-59.42C164.233,196.026,132.609,176.273,104.423,161.635z"/>
			</g>
			<g>
				<path id="XMLID_00000069394186526721576870000006047671460437518474_" style="fill:#da26ff;" d="M342.292,172.71      c-0.005,24.201-7.455,50.689-19.864,75.147v0.014c-15.905,31.325-39.896,59.29-66.755,74.79      c-47.826,27.595-86.58,5.206-86.572-50.002c0.002-12.635,2.033-25.879,5.729-39.138c9.13-32.654,28.392-65.351,52.474-88.906      c3.387-3.325,6.867-6.454,10.439-9.383c1.48-1.22,2.992-2.41,4.501-3.554l0.016-0.001c2.152-1.631,4.319-3.188,6.516-4.652      c2.288-1.526,4.594-2.974,6.929-4.317C303.53,95.112,342.3,117.487,342.292,172.71z"/>
				<path style="opacity:0.2;fill:#FFFFFF;" d="M199.338,185.144c0,0,1.943,7.082,12.108,9.971      c13.774-21.814,35.311-47.394,60.563-60.956c-4.216-3.032-8.467-6.014-12.713-9.005      C235.679,138.459,214.364,163.104,199.338,185.144z M266.878,121.325c4.291,3.015,8.576,6.037,12.801,9.142      c0.955-0.405,1.914-0.793,2.877-1.16c1.419-0.541,2.8-1.01,4.152-1.425c-4.111-3.205-8.286-6.33-12.502-9.396      C271.747,119.294,269.302,120.242,266.878,121.325z M292.979,115.348c-3.17-0.011-6.332,0.27-9.478,0.807      c4.186,3.163,8.315,6.397,12.381,9.714c26.619-3.735,33.659,14.379,35.97,19.392C331.853,145.26,329.327,115.48,292.979,115.348      z"/>
				<path id="XMLID_881_" style="opacity:0.1;" d="M322.428,247.871c-15.905,31.325-39.896,59.29-66.755,74.79      c-47.826,27.595-86.58,5.206-86.572-50.002c0.002-12.635,2.033-25.879,5.729-39.138l0.015-0.001      c3.234,7.143,14.859,17.336,20.063,10.197c-3.252,11.871-5.023,23.62-5.025,34.713c-0.003,15.87,3.535,28.672,10.219,37.051      c5.705,7.142,13.546,10.774,23.298,10.76c9.475,0.017,20.493-3.475,31.862-10.02c22.845-13.18,43.844-36.874,58.742-63.712      C314.004,252.509,316.978,255.028,322.428,247.871z" fill="#000000"/>
			</g>
			<g>
				<path id="XMLID_00000041282555392782725590000003372966241387617672_" style="fill:#da26ff;" d="M336.37,175.791      c-0.003,24.384-8.568,51.91-22.366,76.718c-14.897,26.839-35.897,50.532-58.742,63.712      c-11.369,6.545-22.386,10.037-31.862,10.02c-9.751,0.013-17.593-3.618-23.298-10.76c-6.684-8.379-10.222-21.181-10.219-37.051      c0.002-11.093,1.773-22.842,5.025-34.713c1.222-4.487,2.656-8.987,4.29-13.473c2.839-7.812,6.274-15.625,10.212-23.177      c0.808-1.556,1.633-3.096,2.472-4.623c1.389-2.548,2.84-5.081,4.351-7.552c5.127-8.498,10.882-16.585,17.078-24.015      c0.061-0.077,0.152-0.168,0.213-0.26c4.136-4.943,8.454-9.581,12.927-13.867c3.22-3.082,6.516-5.966,9.873-8.652      c1.404-1.128,2.823-2.211,4.259-3.264c1.723-1.251,3.463-2.456,5.219-3.617c1.709-1.113,3.432-2.166,5.158-3.173      c11.399-6.589,22.417-10.036,31.893-10.05C323.85,127.998,336.375,145.883,336.37,175.791z"/>
				<path id="XMLID_877_" style="opacity:0.4;" d="M336.37,175.791c-0.003,24.384-8.568,51.91-22.366,76.718      c-14.897,26.839-35.897,50.532-58.742,63.712c-11.369,6.545-22.386,10.037-31.862,10.02c-9.751,0.013-17.593-3.618-23.298-10.76      c-6.684-8.379-10.222-21.181-10.219-37.051c0.002-11.093,1.773-22.842,5.025-34.713c1.222-4.487,2.656-8.987,4.29-13.473      c2.839-7.812,6.274-15.625,10.212-23.177c0.808-1.556,1.633-3.096,2.472-4.623c1.389-2.548,2.84-5.081,4.351-7.552      c5.127-8.498,10.882-16.585,17.078-24.015c0.061-0.077,0.152-0.168,0.213-0.26c4.136-4.943,8.454-9.581,12.927-13.867      c3.22-3.082,6.516-5.966,9.873-8.652c1.404-1.128,2.823-2.211,4.259-3.264c1.723-1.251,3.463-2.456,5.219-3.617      c1.709-1.113,3.432-2.166,5.158-3.173c11.399-6.589,22.417-10.036,31.893-10.05C323.85,127.998,336.375,145.883,336.37,175.791z      " fill="#000000"/>
			</g>
		</g>
		<g>
			<g id="XMLID_00000113320510357155738450000001461870102893923263_">
				<path id="XMLID_00000143594074885671513060000010165201038812332990_" style="fill:#374545;" d="M273.744,196.802l-29.525,52.23      c-12.395-6.566-27.485-14.739-46.571-14.31c0.488-1.495,1.007-2.975,1.557-4.47c2.839-7.813,6.274-15.625,10.212-23.177      c0.808-1.557,1.633-3.097,2.472-4.623c1.39-2.547,2.839-5.081,4.35-7.552c5.128-8.498,10.882-16.585,17.079-24.014      c0.061-0.077,0.152-0.168,0.213-0.26c0.915-1.083,1.832-2.166,2.764-3.219C245.776,184.318,273.744,196.802,273.744,196.802z"/>
			</g>
			<path style="fill:#1b1d1f;" d="M256.21,227.82c-7.809-2.223-15.705-4.231-22.851-8.031c-8.954-4.762-16.827-13.192-17.402-23.318     c-0.02-0.347-0.029-0.694-0.031-1.041c-1.396,2.304-2.744,4.654-4.036,7.021c-0.839,1.526-1.663,3.066-2.472,4.623     c-3.939,7.552-7.373,15.363-10.213,23.177c-0.55,1.495-1.069,2.975-1.557,4.47c19.086-0.429,34.176,7.744,46.571,14.31     L256.21,227.82z"/>
			<g id="XMLID_00000112596797688944469570000006539306747739097764_">
				<path id="XMLID_00000040570552250803205030000015248804975712277423_" style="fill:#da26ff;" d="M248.308,249.87      c-6.441-0.001-10.286-5.205-10.283-13.921l-0.001-0.267c0.003-13.699,9.658-30.415,21.522-37.263l0.23-0.133      c3.163-1.826,6.272-2.791,8.99-2.792c6.441,0.001,10.286,5.207,10.284,13.922l0,0.268c-0.002,13.699-9.658,30.415-21.523,37.263      l-0.23,0.134C254.134,248.906,251.025,249.871,248.308,249.87L248.308,249.87z"/>
			</g>
			<path style="opacity:0.2;fill:#FFFFFF;" d="M259.078,204.363c-1.267,1.146-2.193,2.503-2.509,3.938     c-0.662,3.011,1.967,3.246,5.156,6.09c2.647,2.36,3.575,5.943,3.858,9.25c0.329,3.844,0.094,6.708-1.771,14.158     c6.196-6.839,11.129-16.364,11.511-25.584c0.151-3.644-0.903-7.755-3.931-10.067     C268.248,199.746,262.452,201.311,259.078,204.363z"/>
		</g>
	</g>
</g>
<g id="Bolts">
	<g id="Bolts_00000093874383079984440420000004107949239797972128_">
		<polygon id="Bolt_00000140721733712900629220000008983028068705482163_" style="fill:#da26ff;" points="462.904,334.995     403.5,285.2 392.549,304.595 341.588,275.931 397.561,323.375 409.549,304.992   "/>
		<g>
			<polygon id="Bolt_00000008859915192229054550000006229327735982458792_" style="fill:#da26ff;" points="360.06,382.124      350.535,325.237 334.963,330.913 319.996,290.06 328.718,343.959 344.387,339.357    "/>
			<polygon id="Bolt_00000152965472951734809950000000094428228399304369_" style="opacity:0.6;fill:#FFFFFF;" points="     360.06,382.124 350.535,325.237 334.963,330.913 319.996,290.06 328.718,343.959 344.387,339.357    "/>
		</g>
		<g>
			<polygon id="Bolt_00000106859701111925118550000011619343078658918808_" style="fill:#da26ff;" points="461.391,227.477      394.777,223.792 397.231,242.805 347.331,249.329 410.368,253.162 409.151,234.313    "/>
			<polygon id="Bolt_00000064355793632224325030000003668653970919070643_" style="opacity:0.6;fill:#FFFFFF;" points="     461.391,227.477 394.777,223.792 397.231,242.805 347.331,249.329 410.368,253.162 409.151,234.313    "/>
		</g>
	</g>
</g>
<g id="Lines">
	<g id="Lines_00000117655751633515094750000013972295323587517589_">
		<path style="fill:#E0E0E0;" d="M301.563,86.719l0.121-0.002c1.572-0.056,2.809-1.334,2.816-2.911l0.198-48.12    c0.006-1.614-1.302-2.932-2.914-2.939l-0.118,0.002c-1.574,0.056-2.813,1.336-2.82,2.912l-0.198,48.121    c-0.003,0.782,0.298,1.518,0.848,2.072C300.046,86.408,300.779,86.715,301.563,86.719z"/>
		<path style="fill:#E0E0E0;" d="M251.849,100.95l0.115-0.002c0.477-0.017,0.931-0.146,1.345-0.382    c1.402-0.802,1.89-2.594,1.088-3.995l-23.885-41.769c-0.545-0.949-1.563-1.514-2.658-1.475c-0.472,0.017-0.922,0.145-1.337,0.384    c-1.401,0.801-1.889,2.592-1.088,3.993l23.885,41.77C249.835,100.379,250.806,100.945,251.849,100.95z"/>
		<path style="fill:#E0E0E0;" d="M414.929,160.002c-0.168-1.472-1.404-2.591-2.874-2.602c-0.118-0.001-0.237,0.005-0.363,0.019    l-47.814,5.403c-0.777,0.088-1.474,0.474-1.962,1.085c-0.487,0.611-0.707,1.375-0.619,2.15c0.119,1.037,0.787,1.941,1.745,2.358    c0.361,0.158,0.744,0.24,1.138,0.243c0.116,0.001,0.234-0.005,0.353-0.019l47.815-5.404c0.778-0.088,1.474-0.474,1.962-1.085    C414.796,161.54,415.016,160.776,414.929,160.002z"/>
		<path style="fill:#E0E0E0;" d="M348.564,108.19c0.332,0.109,0.678,0.159,1.028,0.147c0.689-0.024,1.326-0.281,1.842-0.741    l35.913-32.032c0.582-0.52,0.927-1.235,0.972-2.016c0.044-0.781-0.218-1.533-0.739-2.116c-0.58-0.651-1.415-1.006-2.29-0.975    c-0.69,0.024-1.326,0.281-1.842,0.74l-35.911,32.033c-0.583,0.52-0.929,1.236-0.974,2.016c-0.044,0.781,0.218,1.533,0.74,2.117    C347.64,107.744,348.077,108.03,348.564,108.19z"/>
	</g>
</g>
</svg>