<?xml version="1.0" encoding="UTF-8"?>
<svg version="1.1" xmlns="http://www.w3.org/2000/svg" width="512" height="512">
<path d="M0 0 C2.21035217 -0.00542629 4.42070072 -0.01255179 6.63104248 -0.02124023 C12.6103687 -0.039416 18.58941765 -0.03242968 24.56874847 -0.01972389 C30.83897119 -0.00956647 37.10917084 -0.01899718 43.37939453 -0.02526855 C54.58077652 -0.03300195 65.78205716 -0.02060487 76.98341489 -0.00023121 C87.12116691 0.01763764 97.25873566 0.01453286 107.39648438 -0.00390625 C119.19455925 -0.02535548 130.99254496 -0.03325746 142.79063988 -0.0214572 C149.02667004 -0.0152349 155.26257422 -0.0143519 161.49859619 -0.02760315 C167.36252601 -0.03919429 173.2261112 -0.03107601 179.09000397 -0.00802612 C181.23653848 -0.0027565 183.38310222 -0.00422271 185.52962494 -0.01307678 C200.62442292 -0.06957962 212.70994352 0.5682006 224.1796875 11.51757812 C231.15499853 18.82438909 235.48398093 27.2656509 235.39233398 37.51708984 C235.29308564 39.66120755 235.17860948 41.80466185 235.05078125 43.94726562 C234.98247169 46.31300772 234.91948384 48.6789084 234.86132812 51.04492188 C234.75450226 54.72611673 234.61709393 58.39407899 234.38793945 62.06982422 C233.14223529 75.699966 233.14223529 75.699966 238.10067749 87.82714844 C243.07285783 91.97256982 248.67365272 94.70961591 254.56259155 97.32208252 C258.07493546 98.92652951 261.18040788 100.87930949 264.42578125 102.97070312 C265.97749023 103.92178955 265.97749023 103.92178955 267.56054688 104.89208984 C271.82824075 107.51065409 276.08765283 110.14257292 280.34716797 112.77441406 C282.75428705 114.25578195 285.16953678 115.72199168 287.58984375 117.18164062 C300.98160614 125.35143598 310.45693611 134.96874915 314.75735593 150.39903212 C315.60941621 154.67323048 315.46051953 159.00329869 315.44711304 163.34576416 C315.45164415 164.42612529 315.45617526 165.50648641 315.46084368 166.61958575 C315.47348902 170.23438989 315.4718672 173.84904339 315.47021484 177.46386719 C315.47620001 180.05785821 315.48300553 182.65184745 315.49057007 185.24583435 C315.50715603 191.55787955 315.51267853 197.86988739 315.51379482 204.18195257 C315.51474649 209.31518273 315.5188627 214.44840061 315.52519608 219.58162689 C315.54280234 234.14899882 315.55203597 248.71634133 315.55053513 263.28372398 C315.55045522 264.06843003 315.5503753 264.85313608 315.55029297 265.66162109 C315.55021121 266.44729008 315.55012945 267.23295907 315.55004521 268.04243621 C315.5492326 280.77043471 315.56836551 293.49831479 315.5965697 306.22627905 C315.62532962 319.30871577 315.63910827 332.39109479 315.63738215 345.47356391 C315.63671929 352.81295509 315.64216555 360.15222215 315.66373825 367.49158478 C315.68390357 374.39616236 315.68324462 381.30047415 315.66870499 388.20506477 C315.66661581 390.73539424 315.67132415 393.2657401 315.6834259 395.79604149 C315.69890828 399.25815295 315.68954928 402.71936482 315.67416382 406.18145752 C315.68445094 407.17574272 315.69473807 408.17002793 315.70533693 409.19444299 C315.59655053 420.3205814 311.86584053 429.46614257 304.1796875 437.51757812 C293.62598367 447.59247497 282.34467826 449.11472617 268.27685547 449.0255127 C266.68302276 449.03012843 265.08919432 449.03648584 263.49537468 449.04442167 C259.14033954 449.06104587 254.78565718 449.05290028 250.43062115 449.0404768 C245.72433325 449.0314002 241.01810462 449.04540895 236.31182861 449.05639648 C227.10198462 449.07415848 217.89227122 449.07035206 208.68242216 449.05874592 C201.19563954 449.04970274 193.70889345 449.04849143 186.22210693 449.05284119 C184.62217229 449.05376058 184.62217229 449.05376058 182.98991573 449.05469856 C180.82291364 449.05597749 178.65591155 449.05727435 176.48890948 449.05858892 C156.18144163 449.06998793 135.87404607 449.05689167 115.56659007 449.03538746 C98.15177906 449.01751711 80.73707471 449.0206214 63.32226562 449.0390625 C43.08616188 449.0604812 22.85012145 449.06888935 2.61400795 449.05661345 C0.45509467 449.05533928 -1.70381863 449.0540818 -3.86273193 449.05284119 C-5.45596273 449.05191553 -5.45596273 449.05191553 -7.08138001 449.05097118 C-14.55689335 449.04752129 -22.03236643 449.05333886 -29.50787354 449.0627594 C-38.62129417 449.07399185 -47.73457703 449.07091308 -56.84798193 449.04963642 C-61.49545973 449.03914283 -66.14270805 449.03497532 -70.79018402 449.04823303 C-75.04892092 449.06019783 -79.30721674 449.05352741 -83.56591392 449.03232282 C-85.10210542 449.02787402 -86.6383346 449.03008411 -88.17450166 449.03982598 C-101.47693952 449.11767989 -111.96387436 446.92684327 -121.8203125 437.51757812 C-130.45545425 428.4720534 -133.43915922 418.5317487 -133.32824707 406.21510315 C-133.33448703 405.13202989 -133.340727 404.04895663 -133.34715605 402.93306297 C-133.36300877 399.33283411 -133.35051153 395.73328956 -133.33789062 392.13305664 C-133.34331517 389.54009611 -133.3504397 386.94713866 -133.35913086 384.35418701 C-133.37685559 378.05967809 -133.37310309 371.76536067 -133.3614803 365.47084446 C-133.3524215 360.35153338 -133.35123251 355.23227571 -133.35557556 350.11295891 C-133.35618849 349.38244324 -133.35680143 348.65192758 -133.35743293 347.89927508 C-133.35871192 346.41491571 -133.36000878 344.93055636 -133.3613233 343.44619703 C-133.37271159 329.54860474 -133.35964338 315.65111824 -133.33812183 301.75354331 C-133.32025618 289.84858203 -133.32335392 277.94377682 -133.34179688 266.03881836 C-133.36324111 252.19018597 -133.37160917 238.34164617 -133.35934782 224.49299949 C-133.35807372 223.01400405 -133.35681624 221.53500858 -133.35557556 220.05601311 C-133.35495846 219.3284573 -133.35434136 218.60090149 -133.35370556 217.85129853 C-133.35026301 212.74318976 -133.35605734 207.63514009 -133.36549377 202.52704048 C-133.37793541 195.64125983 -133.36897737 188.75577753 -133.34591675 181.87002563 C-133.34064374 179.34818445 -133.34211917 176.8263184 -133.35096741 174.30448723 C-133.36196186 170.85167409 -133.34811098 167.39979125 -133.32824707 163.94703674 C-133.33716996 162.95839286 -133.34609284 161.96974898 -133.35528612 160.95114619 C-133.23056813 149.70955288 -129.53420447 140.42639632 -122.8203125 131.51757812 C-122.2428125 130.65132812 -121.6653125 129.78507813 -121.0703125 128.89257812 C-114.39954763 121.85121521 -105.04512677 117.08626811 -96.8203125 112.08007812 C-95.12140355 111.0402616 -93.42249783 110.00043977 -91.72377014 108.96032715 C-89.95950368 107.8806227 -88.19441709 106.80226924 -86.42919922 105.72412109 C-80.98201301 102.39558345 -75.54523325 99.05012061 -70.10864258 95.70431519 C-68.40947636 94.65898183 -66.70962632 93.6147603 -65.00976562 92.57055664 C-63.97916016 91.93690186 -62.94855469 91.30324707 -61.88671875 90.65039062 C-60.97865479 90.0923877 -60.07059082 89.53438477 -59.13500977 88.95947266 C-57.34353863 87.84351141 -55.57645874 86.68834228 -53.8203125 85.51757812 C-53.3711022 83.21654119 -53.3711022 83.21654119 -53.45141602 80.50805664 C-53.44453262 79.46259171 -53.43764923 78.41712677 -53.43055725 77.33998108 C-53.43979469 75.63545021 -53.43979469 75.63545021 -53.44921875 73.89648438 C-53.43181963 71.4921862 -53.41423545 69.08788935 -53.39648438 66.68359375 C-53.3864543 62.89198159 -53.38280326 59.1004627 -53.38452148 55.30883789 C-53.38092643 51.65027291 -53.35347074 47.9924213 -53.32421875 44.33398438 C-53.33240128 43.21584854 -53.3405838 42.09771271 -53.34901428 40.94569397 C-53.24014128 29.29595549 -49.91553987 19.99752917 -41.8203125 11.51757812 C-29.47335029 -0.26921945 -16.10952184 -0.06644924 0 0 Z M-18.8203125 35.51757812 C-21.08363946 39.30489551 -21.09530735 42.91767926 -21.1550293 47.26417542 C-21.16661607 47.92968334 -21.17820284 48.59519126 -21.19014072 49.28086609 C-21.22612194 51.50370414 -21.24796147 53.72644164 -21.26953125 55.94946289 C-21.29189517 57.54648237 -21.31492224 59.14349267 -21.33856201 60.74049377 C-21.41153459 65.97985888 -21.46210194 71.21931842 -21.5078125 76.45898438 C-21.51570423 77.35197322 -21.52359596 78.24496206 -21.53172684 79.16501117 C-21.60456197 87.59503369 -21.66741243 96.02509054 -21.70994568 104.45532322 C-21.76505445 115.21680551 -21.86652025 125.97564589 -22.03089428 136.73602825 C-22.14271198 144.31414607 -22.20045007 151.89154981 -22.2188921 159.47046322 C-22.23137251 163.99148192 -22.26727235 168.50939962 -22.36166382 173.02951241 C-22.44949951 177.28831869 -22.46983834 181.54235689 -22.4404068 185.80191612 C-22.44106014 187.35642746 -22.46531181 188.91115472 -22.51610565 190.46483612 C-22.82381245 198.83153466 -22.82381245 198.83153466 -19.47444534 206.28925204 C-16.18473865 209.69942111 -12.50669585 212.49352658 -8.63563728 215.2074517 C-5.69795395 217.32758833 -2.99239384 219.70787481 -0.2578125 222.08007812 C0.81518126 222.98907818 1.88925622 223.89680492 2.96484375 224.80273438 C6.20515225 227.5386227 9.44262391 230.27785184 12.6796875 233.01757812 C13.76300849 233.93425938 14.84634182 234.85092605 15.9296875 235.76757812 C48.4296875 263.26757812 48.4296875 263.26757812 50.0546875 264.64282227 C51.13769988 265.55905464 52.22103315 266.47490784 53.3046875 267.39038086 C56.02069452 269.68568427 58.73074213 271.98738311 61.4296875 274.30273438 C64.65783828 277.06757452 67.90934619 279.80279732 71.1796875 282.51757812 C71.74252441 282.98679687 72.30536133 283.45601562 72.88525391 283.93945312 C81.50992469 291.45734962 81.50992469 291.45734962 92.1796875 294.51757812 C98.26053621 292.69207744 102.22564121 290.27317824 106.8671875 286.01757812 C108.08806366 284.93500756 109.3094289 283.85298834 110.53125 282.77148438 C111.14000977 282.22637207 111.74876953 281.68125977 112.37597656 281.11962891 C115.12208568 278.68054281 117.93034623 276.31772572 120.7421875 273.95507812 C121.81660953 273.04776671 122.89082845 272.14021471 123.96484375 271.23242188 C124.49480957 270.78495605 125.02477539 270.33749023 125.57080078 269.87646484 C128.27541039 267.59211627 130.97740877 265.30468305 133.6796875 263.01757812 C134.76300849 262.10089687 135.84634182 261.1842302 136.9296875 260.26757812 C137.4659375 259.81382812 138.0021875 259.36007812 138.5546875 258.89257812 C148.84635417 250.18424479 159.13802083 241.47591146 169.4296875 232.76757812 C170.2343042 232.08671143 170.2343042 232.08671143 171.05517578 231.39208984 C172.13678271 230.476934 173.21848819 229.56189462 174.30029297 228.64697266 C177.03586689 226.33314335 179.76961224 224.01721341 182.5 221.69726562 C183.05365234 221.22740234 183.60730469 220.75753906 184.17773438 220.2734375 C187.24430943 217.67621956 187.24430943 217.67621956 190.27914238 215.04215717 C192.1796875 213.51757812 192.1796875 213.51757812 194.87834358 211.82761669 C199.36038616 208.78675913 202.61848283 206.41944405 204.18938828 201.09580421 C204.55545225 196.87132438 204.57778393 192.7697215 204.47607422 188.53637695 C204.47788517 186.92902946 204.48450613 185.32168134 204.49554443 183.71437073 C204.51145131 179.37039531 204.45934298 175.02966182 204.39381552 170.68625093 C204.33598203 166.13278594 204.33854393 161.57933166 204.33377075 157.02555847 C204.31721035 149.38309388 204.25986176 141.74184366 204.17431641 134.09985352 C204.06475069 124.29743369 204.01969662 114.49585212 203.99601555 104.69289112 C203.97541718 96.25256272 203.92845871 87.81241284 203.87559366 79.3722322 C203.85938928 76.66449593 203.84616881 73.95675544 203.83309555 71.24900246 C203.81058829 66.99291119 203.77171684 62.73725682 203.72023773 58.48142052 C203.70351557 56.92141137 203.69174863 55.3613399 203.6853447 53.80125427 C203.67558364 51.66862333 203.64740556 49.53699885 203.61447144 47.40461731 C203.60294981 46.21244504 203.59142818 45.02027277 203.57955742 43.79197407 C203.12101473 40.03712717 202.26892265 37.67082273 200.1796875 34.51757812 C196.04468705 31.91522672 191.46465541 32.23421348 186.7223053 32.25688171 C185.44817887 32.25114339 185.44817887 32.25114339 184.14831251 32.24528915 C181.30332044 32.23497401 178.45853075 32.23894848 175.61352539 32.24291992 C173.57328606 32.23857264 171.53304837 32.23338944 169.49281311 32.22743225 C163.95154236 32.21403312 158.41033978 32.21346458 152.86905599 32.21599555 C148.24416918 32.21706459 143.61929621 32.21218365 138.99441236 32.20739013 C128.08456193 32.1962919 117.17474593 32.1958594 106.26489258 32.2019043 C95.00692899 32.20794611 83.74909033 32.19562848 72.49114805 32.17433423 C62.82733108 32.15672681 53.1635539 32.15071549 43.49972147 32.15397197 C37.72711093 32.15578625 31.95458951 32.15313411 26.18199348 32.13925743 C20.75405196 32.12669765 15.3263054 32.12860574 9.89836693 32.14166832 C7.90614888 32.14403763 5.91391719 32.14128675 3.92171478 32.1330452 C1.20226716 32.12260619 -1.5165228 32.13065553 -4.23594666 32.14335632 C-5.41859105 32.1322949 -5.41859105 32.1322949 -6.62512726 32.12101001 C-11.41712346 32.16809659 -14.84853937 32.77235645 -18.8203125 35.51757812 Z M-60.2578125 128.33007812 C-60.91144775 128.72662598 -61.56508301 129.12317383 -62.23852539 129.53173828 C-63.66319597 130.39619772 -65.08758015 131.26112929 -66.51171875 132.12646484 C-68.9377791 133.58836119 -71.37773927 135.02486922 -73.8203125 136.45898438 C-75.46627895 137.43662487 -77.11211466 138.41448553 -78.7578125 139.39257812 C-79.55695068 139.85639893 -80.35608887 140.32021973 -81.17944336 140.7980957 C-82.28364624 141.45974731 -82.28364624 141.45974731 -83.41015625 142.13476562 C-84.06878662 142.5226123 -84.72741699 142.91045898 -85.40600586 143.31005859 C-85.87272705 143.70854004 -86.33944824 144.10702148 -86.8203125 144.51757812 C-87.16264061 147.69801248 -87.16264061 147.69801248 -84.58203125 149.90039062 C-83.56555361 150.82363203 -82.540159 151.73711571 -81.5078125 152.64257812 C-80.96527832 153.12903809 -80.42274414 153.61549805 -79.86376953 154.11669922 C-75.52075472 157.98010181 -71.03815678 161.66133846 -66.5078125 165.30273438 C-62.79380339 168.36355293 -59.25512293 171.60217734 -55.71875 174.86523438 C-54.11406246 176.62699887 -54.11406246 176.62699887 -52.8203125 176.51757812 C-52.8203125 159.35757813 -52.8203125 142.19757813 -52.8203125 124.51757812 C-55.29054681 124.51757812 -58.13841011 127.04346105 -60.2578125 128.33007812 Z M235.1796875 124.51757812 C235.1796875 142.00757813 235.1796875 159.49757813 235.1796875 177.51757812 C240.46950263 173.55021678 245.26883383 169.7337881 249.9921875 165.20507812 C255.15630731 160.31315921 260.43274375 155.76485282 266.0703125 151.41992188 C268.18860785 149.50953329 269.00465525 148.06359147 270.1796875 145.51757812 C266.32096207 143.16855555 262.46147899 140.82078446 258.60131836 138.47412109 C257.29089295 137.67725603 255.98066764 136.88006183 254.6706543 136.08251953 C252.77706822 134.92977646 250.88274237 133.77825741 248.98828125 132.62695312 C248.41194443 132.27574402 247.8356076 131.92453491 247.24180603 131.56268311 C243.25602153 129.14260813 239.23169553 126.83301129 235.1796875 124.51757812 Z M-100.8203125 180.51757812 C-100.88875109 209.46128153 -100.94184194 238.40497539 -100.97350849 267.34874377 C-100.97726061 270.76586187 -100.98114357 274.1829798 -100.98510742 277.60009766 C-100.98589435 278.28038396 -100.98668128 278.96067027 -100.98749206 279.66157131 C-101.00054579 290.67650394 -101.02419944 301.6913896 -101.05177089 312.70629437 C-101.07982602 324.00870301 -101.09626443 335.31108818 -101.10257798 346.61353338 C-101.10649268 352.96191159 -101.11570844 359.31018327 -101.13750267 365.65852737 C-101.15784471 371.6321923 -101.16415086 377.60570665 -101.15963554 383.57940292 C-101.16046176 385.77319405 -101.16644088 387.96699014 -101.17792892 390.16075134 C-101.19283708 393.15411627 -101.18927199 396.14691141 -101.18107605 399.14028931 C-101.18981457 400.00994847 -101.1985531 400.87960763 -101.20755643 401.7756201 C-101.17096021 406.71479691 -100.76199511 410.34501147 -97.8203125 414.51757812 C-93.97948274 416.4989256 -90.75937457 416.76871611 -86.47464085 416.77205372 C-85.18649622 416.77788591 -83.8983516 416.78371811 -82.5711723 416.78972703 C-81.1436849 416.78609392 -79.71619798 416.78226955 -78.28871155 416.77827454 C-76.77074398 416.78129489 -75.25277793 416.78518379 -73.73481458 416.7898671 C-69.56188968 416.80017075 -65.38905046 416.79795928 -61.21611845 416.79368651 C-56.71638088 416.79122359 -52.21666418 416.80022802 -47.7169342 416.807724 C-38.90101654 416.82048493 -30.08512931 416.82226297 -21.26920397 416.81992374 C-14.10499216 416.81814204 -6.9407896 416.81988702 0.2234211 416.82414818 C1.24234425 416.82474337 2.2612674 416.82533856 3.311067 416.82595178 C5.38088095 416.82716351 7.45069489 416.82837764 9.52050883 416.82959416 C28.93884752 416.84047498 48.35716886 416.83830458 67.77550853 416.83220931 C85.54764037 416.82703916 103.31971741 416.83829723 121.09183841 416.85730753 C139.33269104 416.87666992 157.57351773 416.88494477 175.81438071 416.88118428 C186.05828343 416.87926987 196.3021395 416.88178315 206.54603386 416.89589882 C215.26629016 416.9077932 223.98647109 416.90923935 232.70672839 416.89710865 C237.15706604 416.8912064 241.60726571 416.89015761 246.0575943 416.90211105 C250.13057826 416.91292398 254.20330826 416.90992154 258.27628011 416.89584937 C259.75065551 416.89318974 261.22505052 416.8956085 262.69940674 416.90358523 C264.70230753 416.91367043 266.70527974 416.90349082 268.70817471 416.89230824 C269.82108267 416.89236325 270.93399064 416.89241827 272.08062309 416.89247495 C275.67619502 416.45751513 278.08597199 415.37388908 281.1796875 413.51757812 C283.94867128 409.22364842 283.45319391 404.20289846 283.42019653 399.26054382 C283.42190538 398.32522176 283.42361423 397.3898997 283.42537487 396.42623454 C283.42867021 393.29083309 283.41766522 390.15564543 283.40673828 387.02026367 C283.40617418 384.77324936 283.40649071 382.52623468 283.40762329 380.27922058 C283.40819784 374.1763733 283.39642699 368.07360441 283.38247538 361.97077537 C283.36998502 355.59394969 283.36879885 349.21712228 283.36642456 342.84028625 C283.36091177 332.13626589 283.34841367 321.43227652 283.33056641 310.72827148 C283.31220404 299.70385888 283.29804928 288.6794541 283.28955078 277.6550293 C283.28902533 276.97530792 283.28849989 276.29558655 283.28795852 275.59526756 C283.28534841 272.18525253 283.282821 268.77523745 283.28033471 265.36522233 C283.2596065 237.08265445 283.22423588 208.80011783 283.1796875 180.51757812 C278.27193709 183.75577044 278.27193709 183.75577044 273.69921875 187.43554688 C273.09851563 187.96277344 272.4978125 188.49 271.87890625 189.03320312 C270.94498047 189.86078125 270.94498047 189.86078125 269.9921875 190.70507812 C265.60952004 194.54847205 261.21443581 198.35306637 256.6796875 202.01757812 C252.26300018 205.59299167 247.96184854 209.2835337 243.6796875 213.01757812 C238.54741094 217.49292329 233.34783476 221.85764939 228.0546875 226.14257812 C224.54421111 229.04253688 221.11136023 232.0251595 217.6796875 235.01757812 C212.54741094 239.49292329 207.34783476 243.85764939 202.0546875 248.14257812 C198.54421111 251.04253688 195.11136023 254.0251595 191.6796875 257.01757812 C186.54741094 261.49292329 181.34783476 265.85764939 176.0546875 270.14257812 C172.54421111 273.04253688 169.11136023 276.0251595 165.6796875 279.01757812 C160.54741094 283.49292329 155.34783476 287.85764939 150.0546875 292.14257812 C146.54418743 295.04255644 143.11193595 298.02579083 139.6796875 301.01757812 C110.33605955 326.51757812 110.33605955 326.51757812 89.1796875 326.51757812 C77.56546439 325.57429097 68.07295335 321.98544248 59.1796875 314.51757812 C57.72949219 313.30714844 57.72949219 313.30714844 56.25 312.07226562 C53.44896122 309.72076045 50.66541824 307.34926568 47.88525391 304.97314453 C45.15779855 302.6454765 42.41841254 300.33196447 39.6796875 298.01757812 C36.40359892 295.24725084 33.1289158 292.47531937 29.859375 289.69726562 C24.87654403 285.46678189 19.88266035 281.25904132 14.8046875 277.14257812 C9.68155683 272.97536688 4.70373822 268.65445356 -0.27294922 264.31494141 C-3.90750453 261.15305369 -7.57543118 258.04914872 -11.3203125 255.01757812 C-16.40840456 250.89864646 -21.34035073 246.61610478 -26.2734375 242.31445312 C-29.90787749 239.15278582 -33.57561068 236.04900341 -37.3203125 233.01757812 C-42.40840456 228.89864646 -47.34035073 224.61610478 -52.2734375 220.31445312 C-55.90787749 217.15278582 -59.57561068 214.04900341 -63.3203125 211.01757812 C-67.73701887 207.44214916 -72.03783525 203.75128092 -76.3203125 200.01757812 C-88.1435759 189.72068443 -88.1435759 189.72068443 -100.8203125 180.51757812 Z " fill="#000000" transform="translate(164.8203125,31.482421875)"/>
<path d="M0 0 C1.37045026 -0.00542487 2.74089468 -0.01254958 4.11132812 -0.02124023 C7.82214736 -0.03943355 11.53252041 -0.0324229 15.24334717 -0.01972389 C19.13229549 -0.00957537 23.02120638 -0.0189947 26.91015625 -0.02526855 C33.44017372 -0.03253959 39.97001005 -0.02297163 46.5 -0.00390625 C54.04255185 0.01786159 61.58467116 0.01080982 69.12721252 -0.01121187 C75.61063837 -0.02938147 82.09393423 -0.03191662 88.57737732 -0.0214572 C92.44635098 -0.01523078 96.31512153 -0.01436299 100.18408203 -0.02760315 C103.82206402 -0.03918392 107.45949 -0.03109613 111.09741211 -0.00802612 C113.06428265 -0.00024035 115.03120039 -0.01207597 116.99804688 -0.02453613 C127.73721866 0.0783295 127.73721866 0.0783295 132.5625 4.51757812 C136.19083663 8.33687985 136.87250458 11.40036819 137.0625 16.51757812 C136.87250458 21.63478806 136.19083663 24.6982764 132.5625 28.51757812 C126.80959292 33.81024048 120.62887603 33.08269404 113.125 33.03515625 C111.75454974 33.04058112 110.38410532 33.04770583 109.01367188 33.05639648 C105.30285264 33.0745898 101.59247959 33.06757915 97.88165283 33.05488014 C93.99270451 33.04473162 90.10379362 33.05415095 86.21484375 33.0604248 C79.68482628 33.06769584 73.15498995 33.05812788 66.625 33.0390625 C59.08244815 33.01729466 51.54032884 33.02434643 43.99778748 33.04636812 C37.51436163 33.06453772 31.03106577 33.06707287 24.54762268 33.05661345 C20.67864902 33.05038703 16.80987847 33.04951924 12.94091797 33.0627594 C9.30293598 33.07434017 5.66551 33.06625238 2.02758789 33.04318237 C0.06071735 33.0353966 -1.90620039 33.04723222 -3.87304688 33.05969238 C-14.61221866 32.95682675 -14.61221866 32.95682675 -19.4375 28.51757812 C-23.06583663 24.6982764 -23.74750458 21.63478806 -23.9375 16.51757812 C-23.74750458 11.40036819 -23.06583663 8.33687985 -19.4375 4.51757812 C-13.68459292 -0.77508423 -7.50387603 -0.04753779 0 0 Z " fill="#000000" transform="translate(199.4375,175.482421875)"/>
<path d="M0 0 C1.37045026 -0.00542487 2.74089468 -0.01254958 4.11132812 -0.02124023 C7.82214736 -0.03943355 11.53252041 -0.0324229 15.24334717 -0.01972389 C19.13229549 -0.00957537 23.02120638 -0.0189947 26.91015625 -0.02526855 C33.44017372 -0.03253959 39.97001005 -0.02297163 46.5 -0.00390625 C54.04255185 0.01786159 61.58467116 0.01080982 69.12721252 -0.01121187 C75.61063837 -0.02938147 82.09393423 -0.03191662 88.57737732 -0.0214572 C92.44635098 -0.01523078 96.31512153 -0.01436299 100.18408203 -0.02760315 C103.82206402 -0.03918392 107.45949 -0.03109613 111.09741211 -0.00802612 C113.06428265 -0.00024035 115.03120039 -0.01207597 116.99804688 -0.02453613 C127.73721866 0.0783295 127.73721866 0.0783295 132.5625 4.51757812 C136.19083663 8.33687985 136.87250458 11.40036819 137.0625 16.51757812 C136.87250458 21.63478806 136.19083663 24.6982764 132.5625 28.51757812 C126.80959292 33.81024048 120.62887603 33.08269404 113.125 33.03515625 C111.75454974 33.04058112 110.38410532 33.04770583 109.01367188 33.05639648 C105.30285264 33.0745898 101.59247959 33.06757915 97.88165283 33.05488014 C93.99270451 33.04473162 90.10379362 33.05415095 86.21484375 33.0604248 C79.68482628 33.06769584 73.15498995 33.05812788 66.625 33.0390625 C59.08244815 33.01729466 51.54032884 33.02434643 43.99778748 33.04636812 C37.51436163 33.06453772 31.03106577 33.06707287 24.54762268 33.05661345 C20.67864902 33.05038703 16.80987847 33.04951924 12.94091797 33.0627594 C9.30293598 33.07434017 5.66551 33.06625238 2.02758789 33.04318237 C0.06071735 33.0353966 -1.90620039 33.04723222 -3.87304688 33.05969238 C-14.61221866 32.95682675 -14.61221866 32.95682675 -19.4375 28.51757812 C-23.06583663 24.6982764 -23.74750458 21.63478806 -23.9375 16.51757812 C-23.74750458 11.40036819 -23.06583663 8.33687985 -19.4375 4.51757812 C-13.68459292 -0.77508423 -7.50387603 -0.04753779 0 0 Z " fill="#000000" transform="translate(199.4375,111.482421875)"/>
</svg>
