<svg xmlns="http://www.w3.org/2000/svg" xmlns:xlink="http://www.w3.org/1999/xlink" version="1.1" x="0px" y="0px" viewBox="0 0 500 500" style="enable-background:new 0 0 500 500;" xml:space="preserve">
<g id="Floor">
	<ellipse style="fill:#F5F5F5;" cx="250" cy="350.631" rx="220.893" ry="127.533"/>
</g>
<g id="Shadows">
	<path style="fill:#e0e0e0;" d="M426.148,395.309l-54.48,31.454c-4.723,2.727-12.974,2.385-18.428-0.764l-51.833-29.926   c-5.454-3.149-6.046-7.912-1.323-10.639l54.48-31.454c4.723-2.727,12.974-2.385,18.428,0.764l51.833,29.926   C430.279,387.819,430.871,392.582,426.148,395.309z"/>
	<path style="fill:#e0e0e0;" d="M337.903,399.845c16.775,10.412,16.775,27.293,0,37.705c-16.775,10.412-43.972,10.412-60.746,0   c-16.775-10.412-16.775-27.293,0-37.704C293.932,389.433,321.129,389.433,337.903,399.845z"/>
	<ellipse style="fill:#e0e0e0;" cx="98.803" cy="388.11" rx="41.957" ry="24.224"/>
	<path style="fill:#e0e0e0;" d="M268.283,252.743L86.202,357.868c-5.529,3.192-5.529,11.172,0,14.364l99.37,57.371   c7.072,4.083,15.786,4.083,22.858,0l174.799-100.92c5.528-3.192,5.528-11.172,0-14.364l-106.653-61.576   C274.01,251.261,270.849,251.261,268.283,252.743z"/>
</g>
<g id="Desk">
	<g>
		<g>
			<path style="fill:#455a64;" d="M214.255,424.408c-1.818,1.05-4.766,1.05-6.584,0c-1.818-1.05-1.818-2.752,0-3.802     c1.818-1.05,4.766-1.05,6.584,0C216.073,421.657,216.073,423.358,214.255,424.408z"/>
			<rect x="206.315" y="318.134" style="fill:#455a64;" width="9.311" height="104.27"/>
		</g>
		<g>
			<path style="fill:#455a64;" d="M105.114,361.807c-1.818,1.05-4.766,1.05-6.584,0c-1.818-1.05-1.818-2.752,0-3.801     c1.818-1.05,4.766-1.05,6.584,0C106.932,359.056,106.932,360.758,105.114,361.807z"/>
			<rect x="97.175" y="255.533" style="fill:#455a64;" width="9.311" height="104.27"/>
		</g>
		<g>
			<path style="fill:#455a64;" d="M376.393,329.841c-1.818,1.05-4.766,1.05-6.584,0c-1.818-1.05-1.818-2.752,0-3.802     c1.818-1.05,4.766-1.05,6.584,0C378.211,327.089,378.211,328.791,376.393,329.841z"/>
			<rect x="368.454" y="223.567" style="fill:#455a64;" width="9.312" height="104.27"/>
		</g>
		<g>
			<path style="fill:#455a64;" d="M267.253,267.24c-1.818,1.05-4.766,1.05-6.584,0c-1.818-1.05-1.818-2.752,0-3.801     c1.818-1.05,4.766-1.05,6.584,0C269.071,264.488,269.071,266.19,267.253,267.24z"/>
			<rect x="259.313" y="160.966" style="fill:#455a64;" width="9.311" height="104.27"/>
		</g>
		<g>
			<polygon style="fill:#da26ff;" points="73.762,256.707 73.762,262.874 197.001,334.026 197.001,327.859    "/>
			<polygon style="opacity:0.3;" points="73.762,256.707 73.762,262.874 197.001,334.026 197.001,327.859    " fill="#000000"/>
			<polygon style="fill:#da26ff;" points="395.668,213.158 197.001,327.859 197.001,334.026 395.668,219.325    "/>
			<polygon style="opacity:0.3;fill:#ffffff;" points="395.668,213.158 197.001,327.859 197.001,334.026 395.668,219.325    "/>
			<polygon style="fill:#da26ff;" points="272.43,142.006 73.762,256.707 197.001,327.859 395.668,213.158    "/>
		</g>
	</g>
</g>
<g id="Papers">
	<g>
		<path style="fill:#37474f;" d="M69.503,324.449v60.208l0,0c0,4.528,2.992,9.057,8.976,12.512c11.968,6.91,31.373,6.91,43.341,0    c5.984-3.455,8.976-7.983,8.976-12.512l0,0v-60.208H69.503z"/>
		<ellipse style="fill:#455a64;" cx="100.149" cy="324.188" rx="30.647" ry="17.694"/>
		<path style="fill:#263238;" d="M121.151,332.519c-0.866,0.732-1.866,1.423-2.979,2.072c-0.206,0.124-0.412,0.237-0.629,0.35    c-1.34,0.732-2.793,1.35-4.319,1.886c-0.598,0.206-1.216,0.402-1.835,0.567c-1.391,0.402-2.845,0.722-4.319,0.959    c-1.247,0.206-2.525,0.361-3.803,0.443c-0.515,0.041-1.031,0.072-1.546,0.082c-0.969,0.031-1.948,0.031-2.917,0    c-1.216-0.031-2.422-0.113-3.618-0.247c-1.536-0.175-3.051-0.433-4.515-0.783c-0.598-0.134-1.185-0.278-1.763-0.454    c-2.453-0.691-4.742-1.629-6.782-2.804c-0.979-0.567-1.855-1.165-2.639-1.783c-5.803-4.618-6.37-10.751-1.711-15.668    c1.134-1.206,2.587-2.34,4.35-3.36c1.711-0.99,3.618-1.814,5.638-2.453c0.371-0.124,0.763-0.247,1.144-0.35    c1.031-0.299,2.092-0.546,3.175-0.742c1.154-0.227,2.329-0.402,3.525-0.526c2.01-0.216,4.072-0.289,6.113-0.206    c1.804,0.062,3.597,0.237,5.35,0.526c0.114,0.01,0.237,0.031,0.351,0.051c1.35,0.227,2.68,0.526,3.968,0.897    c1.866,0.526,3.649,1.196,5.288,2.01c0.515,0.247,1.01,0.516,1.495,0.794c0.804,0.464,1.546,0.959,2.226,1.464    c1.144,0.855,2.092,1.773,2.855,2.721C127.026,322.634,126.325,328.21,121.151,332.519z"/>
		<g>
			<path style="fill:#da26ff;" d="M101.091,246.318v18.725h9.582V252.29C110.673,252.29,107.102,247.083,101.091,246.318z"/>
			<path style="opacity:0.3;fill:#ffffff;" d="M101.091,246.318v18.725h9.582V252.29     C110.673,252.29,107.102,247.083,101.091,246.318z"/>
			<path style="fill:#da26ff;" d="M107.07,250.985v87.368c-1.247,0.206-2.525,0.361-3.803,0.443     c-0.515,0.041-1.031,0.072-1.546,0.082c-0.969,0.031-1.948,0.031-2.917,0c-1.216-0.031-2.422-0.113-3.618-0.247     c-1.536-0.175-3.051-0.433-4.515-0.783c-0.598-0.134-1.185-0.278-1.763-0.454v-86.41H107.07z"/>
			<path style="opacity:0.7;fill:#ffffff;" d="M107.07,250.985v87.368c-1.247,0.206-2.525,0.361-3.803,0.443     c-0.515,0.041-1.031,0.072-1.546,0.082c-0.969,0.031-1.948,0.031-2.917,0c-1.216-0.031-2.422-0.113-3.618-0.247     c-1.536-0.175-3.051-0.433-4.515-0.783c-0.598-0.134-1.185-0.278-1.763-0.454v-86.41H107.07z"/>
			<path style="fill:#da26ff;" d="M111.389,253.923v83.472c-1.391,0.402-2.845,0.722-4.319,0.959     c-1.247,0.206-2.525,0.361-3.803,0.443c-0.515,0.041-1.031,0.072-1.546,0.082v-77.792c2.268-0.381,4.01-1.051,5.35-1.835     c1.928-1.123,3.02-2.484,3.608-3.546C111.266,254.675,111.389,253.923,111.389,253.923z"/>
			<path style="opacity:0.5;fill:#ffffff;" d="M111.389,253.923v83.472c-1.391,0.402-2.845,0.722-4.319,0.959     c-1.247,0.206-2.525,0.361-3.803,0.443c-0.515,0.041-1.031,0.072-1.546,0.082v-77.792c2.268-0.381,4.01-1.051,5.35-1.835     c1.928-1.123,3.02-2.484,3.608-3.546C111.266,254.675,111.389,253.923,111.389,253.923z"/>
			<path style="fill:#da26ff;" d="M102.173,261.455c-0.214,0-0.405-0.151-0.448-0.369c-0.049-0.248,0.112-0.488,0.36-0.537     c1.831-0.36,3.455-0.944,4.827-1.736c2.297-1.326,3.561-3.061,3.561-4.887c0-1.825-1.265-3.561-3.561-4.886     c-2.376-1.372-5.544-2.127-8.921-2.127c-0.253,0-0.457-0.204-0.457-0.457c0-0.253,0.204-0.457,0.457-0.457     c3.535,0,6.865,0.799,9.378,2.249c2.591,1.496,4.018,3.512,4.018,5.678c0,2.165-1.427,4.182-4.018,5.678     c-1.459,0.842-3.177,1.462-5.107,1.842C102.232,261.453,102.202,261.455,102.173,261.455z"/>
			<path style="opacity:0.5;fill:#ffffff;" d="M102.173,261.455c-0.214,0-0.405-0.151-0.448-0.369     c-0.049-0.248,0.112-0.488,0.36-0.537c1.831-0.36,3.455-0.944,4.827-1.736c2.297-1.326,3.561-3.061,3.561-4.887     c0-1.825-1.265-3.561-3.561-4.886c-2.376-1.372-5.544-2.127-8.921-2.127c-0.253,0-0.457-0.204-0.457-0.457     c0-0.253,0.204-0.457,0.457-0.457c3.535,0,6.865,0.799,9.378,2.249c2.591,1.496,4.018,3.512,4.018,5.678     c0,2.165-1.427,4.182-4.018,5.678c-1.459,0.842-3.177,1.462-5.107,1.842C102.232,261.453,102.202,261.455,102.173,261.455z"/>
			<path style="fill:#da26ff;" d="M104.412,247.535c3.546,2.047,3.546,5.367,0,7.414c-3.546,2.047-9.295,2.047-12.841,0     c-3.546-2.047-3.546-5.367,0-7.414C95.117,245.488,100.866,245.488,104.412,247.535z"/>
			<path style="opacity:0.5;fill:#ffffff;" d="M104.412,247.535c3.546,2.047,3.546,5.367,0,7.414c-3.546,2.047-9.295,2.047-12.841,0     c-3.546-2.047-3.546-5.367,0-7.414C95.117,245.488,100.866,245.488,104.412,247.535z"/>
		</g>
		<g>
			<path style="fill:#da26ff;" d="M121.199,278.434l-2.005,13.855l7.09,1.026l1.366-9.436     C127.649,283.88,125.565,279.645,121.199,278.434z"/>
			<path style="opacity:0.3;fill:#ffffff;" d="M121.199,278.434l-2.005,13.855l7.09,1.026l1.366-9.436     C127.649,283.88,125.565,279.645,121.199,278.434z"/>
			<path style="fill:#da26ff;" d="M125.129,282.526l-0.825,5.711l-0.062,0.412l-0.051,0.371l-0.567,3.907l-3.226,22.316     l-2.855,19.698c-1.34,0.732-2.793,1.35-4.319,1.886c-0.598,0.206-1.216,0.402-1.835,0.567c-1.391,0.402-2.845,0.722-4.319,0.959     c-1.247,0.206-2.525,0.361-3.803,0.443l3.803-26.316l0.351-2.402l3.968-27.439l0.299-2.061h0.021l8.988,1.309l4.412,0.639     H125.129z"/>
			<path style="opacity:0.7;fill:#ffffff;" d="M125.129,282.526l-0.825,5.711l-0.062,0.412l-0.051,0.371l-0.567,3.907l-3.226,22.316     l-2.855,19.698c-1.34,0.732-2.793,1.35-4.319,1.886c-0.598,0.206-1.216,0.402-1.835,0.567c-1.391,0.402-2.845,0.722-4.319,0.959     c-1.247,0.206-2.525,0.361-3.803,0.443l3.803-26.316l0.351-2.402l3.968-27.439l0.299-2.061h0.021l8.988,1.309l4.412,0.639     H125.129z"/>
			<path style="fill:#da26ff;" d="M128.005,285.165l-4.752,32.799l-2.103,14.554c-0.866,0.732-1.866,1.423-2.979,2.072     c-0.206,0.124-0.412,0.237-0.629,0.35c-1.34,0.732-2.793,1.35-4.319,1.886l3.453-23.842l2.989-20.626l0.423-2.927     c1.722-0.041,3.082-0.35,4.154-0.783c1.536-0.618,2.474-1.495,3.031-2.216C127.83,285.722,128.005,285.165,128.005,285.165z"/>
			<path style="opacity:0.5;fill:#ffffff;" d="M128.005,285.165l-4.752,32.799l-2.103,14.554c-0.866,0.732-1.866,1.423-2.979,2.072     c-0.206,0.124-0.412,0.237-0.629,0.35c-1.34,0.732-2.793,1.35-4.319,1.886l3.453-23.842l2.989-20.626l0.423-2.927     c1.722-0.041,3.082-0.35,4.154-0.783c1.536-0.618,2.474-1.495,3.031-2.216C127.83,285.722,128.005,285.165,128.005,285.165z"/>
			<path style="fill:#da26ff;" d="M120.379,289.751c-0.158-0.023-0.284-0.155-0.292-0.321c-0.009-0.188,0.135-0.349,0.324-0.359     c1.394-0.07,2.658-0.329,3.758-0.768c1.841-0.735,2.963-1.883,3.158-3.234c0.196-1.351-0.554-2.77-2.112-3.997     c-1.611-1.269-3.874-2.168-6.373-2.529c-0.187-0.027-0.316-0.2-0.289-0.387c0.027-0.187,0.2-0.316,0.387-0.289     c2.616,0.379,4.994,1.326,6.698,2.669c1.757,1.384,2.597,3.029,2.365,4.632c-0.232,1.602-1.504,2.941-3.581,3.771     c-1.17,0.467-2.508,0.741-3.976,0.816C120.423,289.755,120.4,289.754,120.379,289.751z"/>
			<path style="opacity:0.5;fill:#ffffff;" d="M120.379,289.751c-0.158-0.023-0.284-0.155-0.292-0.321     c-0.009-0.188,0.135-0.349,0.324-0.359c1.394-0.07,2.658-0.329,3.758-0.768c1.841-0.735,2.963-1.883,3.158-3.234     c0.196-1.351-0.554-2.77-2.112-3.997c-1.611-1.269-3.874-2.168-6.373-2.529c-0.187-0.027-0.316-0.2-0.289-0.387     c0.027-0.187,0.2-0.316,0.387-0.289c2.616,0.379,4.994,1.326,6.698,2.669c1.757,1.384,2.597,3.029,2.365,4.632     c-0.232,1.602-1.504,2.941-3.581,3.771c-1.17,0.467-2.508,0.741-3.976,0.816C120.423,289.755,120.4,289.754,120.379,289.751z"/>
			<path style="fill:#da26ff;" d="M123.526,279.691c2.405,1.895,2.049,4.351-0.794,5.486c-2.843,1.135-7.097,0.519-9.502-1.375     c-2.405-1.895-2.049-4.351,0.794-5.486C116.868,277.181,121.122,277.796,123.526,279.691z"/>
			<path style="opacity:0.5;fill:#ffffff;" d="M123.526,279.691c2.405,1.895,2.049,4.351-0.794,5.486     c-2.843,1.135-7.097,0.519-9.502-1.375c-2.405-1.895-2.049-4.351,0.794-5.486C116.868,277.181,121.122,277.796,123.526,279.691z"/>
		</g>
		<g>
			<path style="fill:#da26ff;" d="M82.531,268.316l1.68,15.346l7.853-0.86l-1.144-10.452     C90.921,272.351,87.527,268.404,82.531,268.316z"/>
			<path style="opacity:0.3;fill:#ffffff;" d="M82.531,268.316l1.68,15.346l7.853-0.86l-1.144-10.452     C90.921,272.351,87.527,268.404,82.531,268.316z"/>
			<path style="fill:#da26ff;" d="M95.186,338.631c-1.536-0.175-3.051-0.433-4.515-0.783c-0.598-0.134-1.185-0.278-1.763-0.454     c-2.453-0.691-4.742-1.629-6.782-2.804c-0.979-0.567-1.855-1.165-2.639-1.783l-1.711-15.668l-4.803-43.911h0.021l9.957-1.093     l4.886-0.536h0.021l0.691,6.339l0.052,0.433l0.041,0.423l0.268,2.412l0.206,1.917l2.969,27.109L95.186,338.631z"/>
			<path style="opacity:0.7;fill:#ffffff;" d="M95.186,338.631c-1.536-0.175-3.051-0.433-4.515-0.783     c-0.598-0.134-1.185-0.278-1.763-0.454c-2.453-0.691-4.742-1.629-6.782-2.804c-0.979-0.567-1.855-1.165-2.639-1.783     l-1.711-15.668l-4.803-43.911h0.021l9.957-1.093l4.886-0.536h0.021l0.691,6.339l0.052,0.433l0.041,0.423l0.268,2.412l0.206,1.917     l2.969,27.109L95.186,338.631z"/>
			<path style="fill:#da26ff;" d="M95.186,338.631c-1.536-0.175-3.051-0.433-4.515-0.783l-1.763-16.07l-1.144-10.452l-3.041-27.717     l-0.35-3.247c1.835-0.515,3.206-1.227,4.226-1.989c0.113-0.083,0.216-0.155,0.309-0.237c1.268-1.021,1.959-2.113,2.319-2.969     c0.392-0.907,0.423-1.536,0.423-1.536l3.958,36.077l3.195,29.171C97.587,338.848,96.381,338.765,95.186,338.631z"/>
			<path style="opacity:0.5;fill:#ffffff;" d="M95.186,338.631c-1.536-0.175-3.051-0.433-4.515-0.783l-1.763-16.07l-1.144-10.452     l-3.041-27.717l-0.35-3.247c1.835-0.515,3.206-1.227,4.226-1.989c0.113-0.083,0.216-0.155,0.309-0.237     c1.268-1.021,1.959-2.113,2.319-2.969c0.392-0.907,0.423-1.536,0.423-1.536l3.958,36.077l3.195,29.171     C97.587,338.848,96.381,338.765,95.186,338.631z"/>
			<path style="fill:#da26ff;" d="M84.777,280.625c-0.176,0.019-0.346-0.087-0.4-0.262c-0.062-0.199,0.048-0.41,0.247-0.472     c1.469-0.46,2.747-1.084,3.8-1.856c1.763-1.293,2.644-2.828,2.48-4.324c-0.164-1.496-1.356-2.805-3.357-3.685     c-2.07-0.911-4.734-1.246-7.502-0.943c-0.207,0.023-0.393-0.126-0.415-0.333c-0.023-0.207,0.126-0.393,0.333-0.415     c2.897-0.317,5.698,0.039,7.888,1.002c2.258,0.994,3.608,2.518,3.802,4.293c0.194,1.775-0.794,3.555-2.784,5.014     c-1.12,0.821-2.473,1.483-4.021,1.968C84.825,280.618,84.801,280.623,84.777,280.625z"/>
			<path style="opacity:0.5;fill:#ffffff;" d="M84.777,280.625c-0.176,0.019-0.346-0.087-0.4-0.262     c-0.062-0.199,0.048-0.41,0.247-0.472c1.469-0.46,2.747-1.084,3.8-1.856c1.763-1.293,2.644-2.828,2.48-4.324     c-0.164-1.496-1.356-2.805-3.357-3.685c-2.07-0.911-4.734-1.246-7.502-0.943c-0.207,0.023-0.393-0.126-0.415-0.333     c-0.023-0.207,0.126-0.393,0.333-0.415c2.897-0.317,5.698,0.039,7.888,1.002c2.258,0.994,3.608,2.518,3.802,4.293     c0.194,1.775-0.794,3.555-2.784,5.014c-1.12,0.821-2.473,1.483-4.021,1.968C84.825,280.618,84.801,280.623,84.777,280.625z"/>
			<path style="fill:#da26ff;" d="M85.363,269.016c3.09,1.36,3.388,4.08,0.665,6.076c-2.722,1.996-7.434,2.512-10.524,1.152     c-3.09-1.36-3.388-4.08-0.665-6.076C77.561,268.172,82.273,267.656,85.363,269.016z"/>
			<path style="opacity:0.5;fill:#ffffff;" d="M85.363,269.016c3.09,1.36,3.388,4.08,0.665,6.076     c-2.722,1.996-7.434,2.512-10.524,1.152c-3.09-1.36-3.388-4.08-0.665-6.076C77.561,268.172,82.273,267.656,85.363,269.016z"/>
		</g>
	</g>
</g>
<g id="Palette">
	<g>
		<g>
			<path style="fill:#263238;" d="M326.566,204.367l-11.97,6.911c-0.769,0.444-2.111,0.388-2.998-0.124l-40.755-23.53     c-0.887-0.512-0.984-1.287-0.215-1.731l11.97-6.911c0.768-0.444,2.111-0.388,2.999,0.124l40.755,23.53     C327.238,203.148,327.335,203.923,326.566,204.367z"/>
			<g>
				<polygon style="fill:#da26ff;" points="291.795,185.882 282.579,191.202 274.983,186.817 284.199,181.496     "/>
				<polygon style="fill:#da26ff;" points="301.809,191.663 292.593,196.984 284.997,192.599 294.213,187.278     "/>
				<polygon style="fill:#da26ff;" points="311.823,197.445 302.608,202.766 295.012,198.38 304.228,193.06     "/>
				<polygon style="fill:#da26ff;" points="321.838,203.227 312.622,208.548 305.026,204.162 314.242,198.841     "/>
			</g>
			<g>
				<polygon style="opacity:0.4;" points="291.795,185.882 282.579,191.202 274.983,186.817 284.199,181.496     " fill="#000000"/>
				<polygon style="opacity:0.5;" points="301.809,191.663 292.593,196.984 284.997,192.599 294.213,187.278     " fill="#000000"/>
				<polygon style="opacity:0.6;" points="311.823,197.445 302.608,202.766 295.012,198.38 304.228,193.06     " fill="#000000"/>
				<polygon style="opacity:0.8;" points="321.838,203.227 312.622,208.548 305.026,204.162 314.242,198.841     " fill="#000000"/>
			</g>
		</g>
		<g>
			<path style="fill:#37474f;" d="M328.887,191.665l-10.151,9.381c-0.652,0.602-1.973,0.844-2.952,0.54l-44.941-13.963     c-0.979-0.304-1.244-1.039-0.592-1.641l10.151-9.381c0.652-0.602,1.973-0.844,2.952-0.54l44.941,13.963     C329.273,190.328,329.539,191.063,328.887,191.665z"/>
			<g>
				<polygon style="fill:#da26ff;" points="290.895,181.304 283.079,188.526 274.703,185.924 282.519,178.701     "/>
				<polygon style="fill:#da26ff;" points="301.938,184.735 294.122,191.957 285.746,189.354 293.562,182.132     "/>
				<polygon style="fill:#da26ff;" points="312.981,188.166 305.165,195.388 296.789,192.785 304.605,185.563     "/>
				<polygon style="fill:#da26ff;" points="324.023,191.596 316.208,198.819 307.832,196.216 315.647,188.994     "/>
			</g>
			<g>
				<polygon style="opacity:0.1;fill:#ffffff;" points="290.895,181.304 283.079,188.526 274.703,185.924 282.519,178.701     "/>
				<polygon style="opacity:0.1;" points="312.981,188.166 305.165,195.388 296.789,192.785 304.605,185.563     " fill="#000000"/>
				<polygon style="opacity:0.2;" points="324.023,191.596 316.208,198.819 307.832,196.216 315.647,188.994     " fill="#000000"/>
			</g>
		</g>
		<g>
			<path style="fill:#455a64;" d="M328.477,179.637l-8.004,11.269c-0.514,0.724-1.758,1.232-2.778,1.136l-46.852-4.418     c-1.02-0.096-1.431-0.761-0.917-1.484l8.004-11.269c0.514-0.723,1.758-1.232,2.778-1.136l46.852,4.418     C328.58,178.249,328.991,178.913,328.477,179.637z"/>
			<g>
				<polygon style="fill:#da26ff;" points="289.166,177.313 283.003,185.989 274.271,185.165 280.434,176.49     "/>
				<polygon style="fill:#da26ff;" points="300.678,178.399 294.516,187.074 285.784,186.251 291.946,177.575     "/>
				<polygon style="fill:#da26ff;" points="312.191,179.484 306.028,188.16 297.296,187.337 303.458,178.661     "/>
				<polygon style="fill:#da26ff;" points="323.703,180.57 317.541,189.245 308.809,188.422 314.971,179.746     "/>
			</g>
			<g>
				<polygon style="opacity:0.8;fill:#ffffff;" points="289.166,177.313 283.003,185.989 274.271,185.165 280.434,176.49     "/>
				<polygon style="opacity:0.6;fill:#ffffff;" points="300.678,178.399 294.516,187.074 285.784,186.251 291.946,177.575     "/>
				<polygon style="opacity:0.4;fill:#ffffff;" points="312.191,179.484 306.028,188.16 297.296,187.337 303.458,178.661     "/>
				<polygon style="opacity:0.2;fill:#ffffff;" points="323.703,180.57 317.541,189.245 308.809,188.422 314.971,179.746     "/>
			</g>
		</g>
		<path style="fill:#e0e0e0;" d="M268.37,190.27c-1.762,0-3.384-1.166-3.882-2.944c-0.29-1.037-0.158-2.124,0.37-3.061    s1.39-1.613,2.426-1.903c1.037-0.29,2.124-0.159,3.06,0.369c0.938,0.528,1.613,1.39,1.903,2.426l-0.773,0.216    c-0.231-0.83-0.773-1.519-1.523-1.942c-0.752-0.423-1.623-0.527-2.45-0.296c-0.83,0.232-1.521,0.773-1.943,1.523    c-0.423,0.75-0.527,1.621-0.296,2.451c0.479,1.711,2.26,2.714,3.975,2.238c0.83-0.232,1.52-0.773,1.942-1.523l0.699,0.393    c-0.527,0.938-1.389,1.614-2.425,1.903C269.092,190.222,268.728,190.27,268.37,190.27z"/>
	</g>
</g>
<g id="Book">
	<g>
		<path style="fill:#da26ff;" d="M211.693,284.5l-33.861,19.549l-42.735-24.673l33.929-19.589c0.898-0.519,2.006-0.519,2.904,0    l39.762,22.957C212.369,283.134,212.369,284.109,211.693,284.5z"/>
		<path style="opacity:0.7;" d="M211.693,284.5l-33.861,19.549l-42.735-24.673l33.929-19.589c0.898-0.519,2.006-0.519,2.904,0    l39.762,22.957C212.369,283.134,212.369,284.109,211.693,284.5z" fill="#000000"/>
		<g>
			<path style="fill:#ffffff;" d="M209.348,283.782l-31.516,18.195l-39.776-22.965l31.58-18.232c0.836-0.483,1.867-0.483,2.703,0     l37.008,21.367C209.977,282.511,209.977,283.419,209.348,283.782z"/>
			<polygon style="fill:#ffffff;" points="177.832,301.977 177.832,298.429 209.82,279.961 209.82,282.985    "/>
		</g>
		<polygon style="fill:#e0e0e0;" points="177.832,301.977 177.832,298.429 138.056,275.464 138.056,279.013   "/>
		<path style="fill:#da26ff;" d="M211.693,278.879l-33.861,19.549l-42.735-24.673l33.929-19.589c0.898-0.519,2.006-0.519,2.904,0    l39.762,22.957C212.369,277.513,212.369,278.489,211.693,278.879z"/>
		<path style="opacity:0.5;" d="M211.693,278.879l-33.861,19.549l-42.735-24.673l33.929-19.589c0.898-0.519,2.006-0.519,2.904,0    l39.762,22.957C212.369,277.513,212.369,278.489,211.693,278.879z" fill="#000000"/>
		<g>
			<path style="fill:#ffffff;" d="M173.416,301.499c-0.206,0.081-0.433,0.072-0.635-0.036c-0.253-0.135-0.405-0.388-0.405-0.676     v-3.21c0-1.474,0.788-2.856,2.056-3.606l0.121-0.071c0.171-0.101,0.324-0.036,0.381-0.003c0.058,0.033,0.191,0.13,0.191,0.329     c0,0.367,0.298,0.665,0.665,0.665c0.367,0,0.665-0.298,0.665-0.665c0-0.622-0.323-1.177-0.863-1.485     c-0.54-0.308-1.183-0.303-1.718,0.014l-0.121,0.071c-1.671,0.989-2.709,2.81-2.709,4.752v3.21c0,0.775,0.425,1.484,1.109,1.85     c0.311,0.166,0.65,0.248,0.989,0.248c0.407,0,0.813-0.119,1.166-0.354c0.134-0.09,0.217-0.223,0.259-0.367L173.416,301.499z"/>
			<path style="fill:#ffffff;" d="M167.089,297.847c-0.206,0.081-0.433,0.072-0.635-0.036c-0.253-0.136-0.405-0.388-0.405-0.676     v-3.21c0-1.474,0.788-2.856,2.056-3.606l0.121-0.071c0.171-0.101,0.324-0.036,0.381-0.003c0.058,0.033,0.191,0.13,0.191,0.329     c0,0.367,0.298,0.665,0.665,0.665c0.367,0,0.665-0.298,0.665-0.665c0-0.622-0.323-1.178-0.863-1.486     c-0.54-0.308-1.183-0.303-1.717,0.014l-0.121,0.072c-1.671,0.989-2.709,2.81-2.709,4.752v3.21c0,0.775,0.425,1.484,1.109,1.85     c0.311,0.166,0.65,0.248,0.989,0.248c0.407,0,0.814-0.119,1.166-0.354c0.134-0.09,0.217-0.223,0.259-0.366L167.089,297.847z"/>
			<path style="fill:#ffffff;" d="M160.762,294.196c-0.206,0.081-0.433,0.072-0.635-0.036c-0.253-0.136-0.405-0.388-0.405-0.676     v-3.211c0-1.474,0.788-2.855,2.056-3.606l0.121-0.071c0.171-0.101,0.324-0.036,0.381-0.003c0.058,0.033,0.191,0.13,0.191,0.329     c0,0.367,0.298,0.665,0.665,0.665s0.665-0.298,0.665-0.665c0-0.622-0.323-1.177-0.863-1.485c-0.54-0.308-1.183-0.303-1.718,0.014     l-0.121,0.071c-1.671,0.99-2.709,2.81-2.709,4.752v3.211c0,0.775,0.425,1.484,1.109,1.85c0.311,0.166,0.65,0.248,0.989,0.248     c0.407,0,0.814-0.119,1.166-0.354c0.134-0.09,0.217-0.223,0.259-0.366L160.762,294.196z"/>
			<path style="fill:#ffffff;" d="M154.435,290.544c-0.206,0.081-0.433,0.072-0.635-0.036c-0.253-0.136-0.405-0.388-0.405-0.676     v-3.21c0-1.474,0.788-2.856,2.056-3.606l0.121-0.072c0.171-0.101,0.324-0.036,0.381-0.003c0.058,0.032,0.191,0.13,0.191,0.329     c0,0.367,0.298,0.665,0.665,0.665c0.367,0,0.665-0.298,0.665-0.665c0-0.622-0.323-1.177-0.863-1.485     c-0.54-0.308-1.183-0.303-1.718,0.014l-0.121,0.072c-1.671,0.989-2.709,2.81-2.709,4.752v3.21c0,0.775,0.425,1.484,1.108,1.85     c0.311,0.166,0.65,0.248,0.989,0.248c0.407,0,0.814-0.119,1.166-0.354c0.134-0.09,0.217-0.223,0.259-0.367L154.435,290.544z"/>
			<path style="fill:#ffffff;" d="M148.108,286.892c-0.206,0.081-0.433,0.072-0.635-0.036c-0.254-0.136-0.405-0.388-0.405-0.676     v-3.21c0-1.474,0.788-2.856,2.056-3.606l0.121-0.072c0.171-0.101,0.324-0.036,0.381-0.003c0.058,0.033,0.191,0.131,0.191,0.329     c0,0.367,0.298,0.665,0.665,0.665c0.368,0,0.665-0.298,0.665-0.665c0-0.622-0.323-1.177-0.863-1.485     c-0.54-0.308-1.183-0.303-1.718,0.014l-0.121,0.071c-1.671,0.989-2.709,2.81-2.709,4.752v3.21c0,0.776,0.425,1.484,1.109,1.85     c0.311,0.166,0.65,0.248,0.989,0.248c0.407,0,0.814-0.119,1.166-0.354c0.134-0.09,0.217-0.223,0.259-0.366L148.108,286.892z"/>
			<path style="fill:#ffffff;" d="M141.782,283.24c-0.206,0.081-0.433,0.072-0.635-0.036c-0.253-0.135-0.405-0.388-0.405-0.676     v-3.21c0-1.474,0.788-2.855,2.056-3.606l0.121-0.071c0.171-0.101,0.324-0.036,0.381-0.003c0.058,0.033,0.191,0.13,0.191,0.329     c0,0.367,0.298,0.665,0.665,0.665c0.367,0,0.665-0.298,0.665-0.665c0-0.622-0.323-1.177-0.863-1.485     c-0.54-0.308-1.183-0.303-1.717,0.014l-0.121,0.072c-1.671,0.989-2.709,2.81-2.709,4.752v3.21c0,0.775,0.425,1.484,1.109,1.85     c0.311,0.166,0.65,0.248,0.989,0.248c0.407,0,0.813-0.119,1.166-0.354c0.134-0.09,0.217-0.223,0.259-0.366L141.782,283.24z"/>
		</g>
	</g>
	<polygon style="fill:#e6e6e6;" points="216.061,270.044 179.454,291.18 131.814,263.675 168.422,242.54  "/>
	<g>
		<polygon style="fill:#FAFAFA;" points="218.164,269.353 179.915,287.348 134.747,255.95 172.996,237.955   "/>
		<g>
			<path style="fill:#da26ff;" d="M169.409,256.905c-3.072,2.758-3.755,7.468-2.154,11.182c1.714,3.974,5.976,6.264,10.184,6.405     c4.274,0.143,8.627-2.109,10.598-5.989c0.973-1.915,1.229-4.114,0.583-6.175c-0.656-2.093-2.096-3.876-3.875-5.13     c-2.336-1.647-5.253-2.297-8.074-2.355c-2.43-0.05-5.363,0.163-7.04,2.165c-0.33,0.394,0.236,0.966,0.569,0.569     c1.382-1.649,3.686-1.898,5.705-1.931c2.386-0.04,4.837,0.32,6.992,1.391c3.675,1.826,6.287,5.909,4.883,10.031     c-1.289,3.784-5.193,6.323-9.083,6.598c-3.853,0.272-7.999-1.38-10.096-4.734c-2.213-3.541-1.782-8.62,1.378-11.458     C170.364,257.127,169.793,256.559,169.409,256.905L169.409,256.905z"/>
			<path style="fill:#da26ff;" d="M175.049,268.753c1.861,0.525,3.973,0.265,5.581-0.841c1.584-1.089,2.502-2.935,2.391-4.861     c-0.063-1.083-0.442-2.092-1.131-2.93c-0.329-0.4-0.895,0.172-0.569,0.569c1.324,1.609,1.147,4.165-0.191,5.713     c-1.425,1.648-3.817,2.152-5.866,1.574C174.764,267.836,174.551,268.612,175.049,268.753L175.049,268.753z"/>
			<path style="fill:#da26ff;" d="M167.33,270.681c-2.266-0.506-4.451-1.972-5.521-4.08c-0.428-0.843-0.755-2.145-0.082-2.954     c0.96-1.156,2.565-0.171,3.191,0.797c0.243,0.376,0.646,0.983,0.643,1.444c-0.004,0.837-1.324-0.365-1.582-0.62     c-0.857-0.844-1.466-1.922-1.734-3.096c-0.51-2.233,0.485-5.045,3.028-5.359c1.004-0.124,2.354,0.239,2.663,1.332     c0.164,0.58-0.138,1.249-0.835,0.842c-0.528-0.308-0.779-0.971-0.9-1.538c-0.468-2.185,0.971-4.498,3.205-4.859     c1.064-0.172,2.212,0.081,3.096,0.698c0.337,0.235,1.242,0.932,0.833,1.382c-0.593,0.653-1.24-0.409-1.31-0.907     c-0.163-1.163,0.78-2.206,1.803-2.604c1.208-0.471,2.551-0.047,3.599,0.615c0.573,0.362,1.273,0.863,1.632,1.455     c0.488,0.807-0.508,1.317-1.115,0.793c-1.169-1.009,0.09-2.437,1.216-2.654c1.475-0.284,2.986,0.668,4.145,1.471     c1.213,0.84,2.285,1.883,3.176,3.059c0.309,0.408,1.007,0.007,0.695-0.406c-1.164-1.539-2.585-2.856-4.242-3.851     c-1.483-0.89-3.413-1.647-5.034-0.637c-1.198,0.747-1.647,2.437-0.594,3.523c0.958,0.988,3.075,0.387,2.681-1.183     c-0.196-0.782-0.961-1.391-1.57-1.856c-0.743-0.568-1.594-1.029-2.515-1.222c-1.598-0.336-3.26,0.212-4.183,1.603     c-0.746,1.123-0.767,3.283,0.821,3.727c0.592,0.165,1.314-0.109,1.595-0.669c0.359-0.715-0.173-1.429-0.683-1.899     c-2.41-2.225-6.443-1.439-7.724,1.595c-0.581,1.375-0.63,3.224,0.319,4.458c0.445,0.578,1.18,1.04,1.923,0.752     c0.564-0.219,0.84-0.784,0.827-1.367c-0.036-1.554-1.609-2.442-3.008-2.478c-1.62-0.042-3.101,0.879-3.849,2.302     c-0.806,1.533-0.811,3.408-0.19,5.005c0.303,0.778,0.729,1.491,1.272,2.126c0.519,0.606,1.267,1.348,2.052,1.587     c0.716,0.218,1.324-0.253,1.306-0.992c-0.018-0.758-0.499-1.622-0.933-2.218c-0.915-1.253-2.811-2.069-4.127-0.879     c-1.105,1-0.847,2.733-0.277,3.941c0.739,1.565,2.155,2.876,3.658,3.695c0.759,0.414,1.573,0.713,2.416,0.901     C167.62,271.57,167.835,270.794,167.33,270.681L167.33,270.681z"/>
			<path style="fill:#da26ff;" d="M172.706,263.988c-0.023,0.04-0.054,0.116-0.093,0.143c0.071-0.051,0.015-0.02-0.008,0.008     c-0.019,0.022-0.038,0.043-0.057,0.063c-0.033,0.034-0.068,0.067-0.103,0.098c-0.018,0.016-0.077,0.083-0.007,0.009     c-0.024,0.026-0.064,0.046-0.094,0.065c-0.048,0.031-0.098,0.06-0.148,0.086c-0.017,0.009-0.034,0.017-0.051,0.025     c-0.009,0.004-0.017,0.008-0.026,0.012c-0.041,0.018-0.035,0.016,0.017-0.007c-0.035,0.03-0.118,0.042-0.162,0.055     c-0.059,0.017-0.122,0.022-0.18,0.041c-0.056,0.018,0.101-0.008,0.009-0.001c-0.028,0.002-0.056,0.005-0.084,0.007     c-0.056,0.003-0.112,0.003-0.167,0c-0.012-0.001-0.075,0.002-0.083-0.007c0.018,0.02,0.083,0.016,0.011,0     c-0.059-0.013-0.117-0.025-0.174-0.044c-0.022-0.007-0.06-0.014-0.078-0.029c0.074,0.058,0.026,0.01-0.005-0.006     c-0.041-0.021-0.082-0.045-0.12-0.071c-0.008-0.005-0.015-0.011-0.023-0.016c-0.036-0.026-0.031-0.022,0.017,0.014     c0,0-0.051-0.045-0.055-0.049c-0.018-0.017-0.035-0.034-0.051-0.052c-0.074-0.082,0.025,0.045-0.013-0.012     c-0.022-0.034-0.045-0.066-0.065-0.102c-0.012-0.021-0.023-0.042-0.033-0.064c-0.003-0.007-0.007-0.015-0.01-0.022     c-0.017-0.039-0.013-0.029,0.012,0.029c0.004-0.035-0.035-0.103-0.045-0.139c-0.012-0.046-0.014-0.099-0.029-0.144     c0.033,0.095,0.007,0.052,0.003,0.009c-0.002-0.024-0.003-0.049-0.004-0.073c-0.001-0.041,0-0.082,0.002-0.123     c0.001-0.021,0.01-0.053,0.006-0.073c0.015,0.081-0.01,0.063,0,0.01c0.01-0.056,0.024-0.111,0.04-0.165     c0.006-0.019,0.013-0.038,0.019-0.057c0.013-0.041,0.041-0.048-0.009,0.018c0.027-0.036,0.042-0.088,0.065-0.127     c0.012-0.02,0.025-0.04,0.038-0.06c0.032-0.048,0.052-0.029-0.007,0.006c0.035-0.021,0.065-0.074,0.095-0.102     c0.016-0.014,0.04-0.029,0.053-0.046c-0.052,0.068-0.046,0.034-0.006,0.008c0.036-0.024,0.077-0.04,0.114-0.062     c0.045-0.027-0.097,0.031-0.018,0.009c0.027-0.008,0.053-0.017,0.081-0.024c0.033-0.009,0.067-0.015,0.101-0.021     c-0.101,0.017,0.039,0.001,0.06,0.001c0.033,0,0.066,0.002,0.099,0.004c0.105,0.005-0.078-0.02,0.024,0.004     c0.077,0.018,0.15,0.039,0.225,0.064c0.103,0.035-0.068-0.039,0.029,0.013c0.041,0.022,0.083,0.041,0.123,0.064     c0.061,0.035,0.121,0.074,0.179,0.115c0.007,0.005,0.1,0.078,0.033,0.024c0.038,0.03,0.075,0.062,0.111,0.094     c0.055,0.049,0.108,0.099,0.159,0.152c0.06,0.061,0.117,0.124,0.172,0.189c0.023,0.027,0.046,0.056,0.069,0.083     c0.029,0.036,0.03,0.037,0.003,0.003c0.014,0.019,0.029,0.038,0.042,0.057c0.125,0.168,0.354,0.271,0.55,0.144     c0.167-0.107,0.279-0.37,0.144-0.55c-0.412-0.553-0.976-1.132-1.692-1.238c-0.628-0.093-1.257,0.176-1.532,0.769     c-0.235,0.508-0.242,1.106,0.026,1.605c0.285,0.531,0.895,0.817,1.484,0.795c0.691-0.025,1.362-0.4,1.71-1.003     c0.105-0.182,0.048-0.449-0.144-0.55C173.065,263.742,172.819,263.793,172.706,263.988L172.706,263.988z"/>
			<path style="fill:#da26ff;" d="M174.682,259.479c0.043,0.641,0.499,1.141,1.094,1.343c0.598,0.203,1.258,0.001,1.612-0.526     c0.315-0.47,0.305-1.124,0.046-1.615c-0.295-0.561-0.954-0.824-1.558-0.642c-0.354,0.107-0.652,0.33-0.868,0.626     c-0.224,0.306-0.294,0.672-0.235,1.042c0.033,0.208,0.304,0.343,0.495,0.281c0.226-0.073,0.316-0.271,0.281-0.495     c-0.001-0.003,0.007,0.092,0.006,0.048c0-0.016-0.003-0.031-0.004-0.047c-0.001-0.023-0.001-0.047,0-0.07     c0-0.012,0.002-0.023,0.002-0.035c0.001-0.066-0.003,0.031-0.007,0.038c0.01-0.023,0.01-0.054,0.016-0.079     c0.006-0.026,0.014-0.052,0.023-0.077c0.004-0.011,0.009-0.022,0.012-0.033c0.01-0.039-0.019,0.043-0.019,0.043     c0.032-0.037,0.05-0.1,0.077-0.143c0.008-0.012,0.065-0.09,0.023-0.036c-0.043,0.054,0.02-0.022,0.029-0.032     c0.037-0.041,0.077-0.08,0.119-0.115c0.009-0.008,0.019-0.015,0.027-0.023c0.031-0.028-0.034,0.027-0.034,0.027     c0.021-0.003,0.05-0.035,0.069-0.047c0.047-0.03,0.099-0.05,0.145-0.079c0.034-0.021-0.041,0.017-0.042,0.017     c0.01-0.001,0.023-0.009,0.033-0.013c0.026-0.009,0.052-0.018,0.078-0.026c0.022-0.007,0.045-0.012,0.068-0.017     c0.015-0.003,0.031-0.006,0.046-0.009c0.056-0.012-0.025,0.007-0.038,0.004c0.045,0.008,0.103-0.007,0.15-0.005     c0.011,0,0.023,0.002,0.035,0.002c0.066,0.002-0.032-0.003-0.038-0.006c0.021,0.011,0.056,0.011,0.08,0.017     c0.027,0.007,0.052,0.016,0.079,0.024c0.068,0.021-0.068-0.036-0.011-0.004c0.041,0.023,0.084,0.057,0.127,0.076     c-0.07-0.031-0.06-0.049-0.032-0.025c0.008,0.007,0.016,0.013,0.023,0.021c0.018,0.016,0.035,0.033,0.052,0.05     c0.014,0.015,0.028,0.031,0.041,0.046c0.009,0.01,0.034,0.042-0.006-0.008c-0.043-0.055-0.004-0.004,0.005,0.01     c0.025,0.038,0.048,0.077,0.068,0.117c0.007,0.015,0.038,0.084,0.01,0.019c-0.028-0.066,0.007,0.021,0.013,0.041     c0.014,0.044,0.026,0.088,0.036,0.133c0.004,0.02,0.006,0.043,0.012,0.063c-0.035-0.114-0.005-0.044-0.002-0.001     c0.003,0.046,0.004,0.092,0.003,0.139c-0.001,0.025-0.003,0.049-0.005,0.074c-0.003,0.064,0.019-0.098,0.002-0.012     c-0.009,0.045-0.018,0.09-0.031,0.134c-0.007,0.023-0.015,0.046-0.023,0.07c-0.026,0.081,0.033-0.064,0.005-0.009     c-0.022,0.044-0.044,0.086-0.071,0.127c-0.011,0.017-0.026,0.033-0.036,0.051c0,0.001,0.059-0.065,0.03-0.041     c-0.012,0.011-0.023,0.027-0.035,0.039c-0.014,0.015-0.029,0.03-0.045,0.044c-0.012,0.011-0.081,0.068-0.024,0.023     c0.054-0.043-0.007,0.003-0.021,0.012c-0.026,0.016-0.052,0.03-0.079,0.044c-0.009,0.005-0.023,0.008-0.03,0.014     c-0.001,0,0.083-0.03,0.045-0.019c-0.025,0.007-0.049,0.017-0.073,0.024c-0.021,0.006-0.042,0.011-0.064,0.016     c-0.011,0.002-0.032,0.003-0.043,0.008c0.01-0.005,0.098-0.009,0.042-0.006c-0.048,0.003-0.095,0.006-0.143,0.004     c-0.024-0.001-0.054-0.009-0.077-0.006c-0.003,0.001,0.093,0.016,0.052,0.007c-0.014-0.003-0.029-0.005-0.044-0.008     c-0.055-0.011-0.109-0.025-0.163-0.043c-0.014-0.005-0.028-0.01-0.042-0.015c-0.052-0.017,0.022,0.007,0.033,0.015     c-0.024-0.016-0.056-0.026-0.081-0.039c-0.05-0.027-0.097-0.057-0.145-0.089c-0.072-0.048,0.048,0.043,0.001,0.001     c-0.022-0.02-0.045-0.039-0.067-0.06c-0.021-0.021-0.042-0.042-0.062-0.064c-0.011-0.013-0.068-0.082-0.025-0.028     c0.044,0.054-0.015-0.026-0.025-0.041c-0.016-0.025-0.03-0.051-0.044-0.077c-0.005-0.01-0.009-0.02-0.015-0.03     c-0.025-0.049,0.014,0.023,0.014,0.035c-0.002-0.026-0.021-0.058-0.028-0.084c-0.007-0.025-0.012-0.05-0.018-0.076     c-0.004-0.017-0.011-0.069-0.002-0.002c0.011,0.074,0.001-0.002,0.001-0.014c-0.014-0.209-0.175-0.412-0.402-0.402     C174.878,259.086,174.667,259.254,174.682,259.479L174.682,259.479z"/>
		</g>
	</g>
</g>
<g id="Device_1">
	<g>
		<g>
			<path style="fill:#e0e0e0;" d="M235.911,220.744l-16.223,9.234c-1.08,0.617-2.268,0.97-3.468,1.061     c-1.648,0.128-3.329-0.233-4.811-1.087l-10.396-6.007l-1.185-0.685c-2.509-1.452-4.055-4.13-4.055-7.026v-29.933l24.344-13.857     v30.573c0,2.505,1.335,4.815,3.502,6.067l12.307,7.109C237.679,217.204,237.672,219.739,235.911,220.744z"/>
			<path style="fill:#e6e6e6;" d="M216.222,231.039c1.199-0.09,2.387-0.444,3.467-1.061l16.223-9.234     c1.76-1.004,1.768-3.539,0.015-4.551l-8.404-4.854h-11.301V231.039z"/>
			<path style="fill:#e6e6e6;" d="M235.625,214.185l0.449,0.358c0.735,0.586,1.163,1.474,1.163,2.414v1.514h-1.626L235.625,214.185z     "/>
			<path style="fill:#F0F0F0;" d="M221.987,174.756v27.508c0,2.423,1.292,4.662,3.39,5.873l10.248,6.047     c1.698,0.981,1.69,3.435-0.014,4.405l-1.165,0.663l-14.542,8.276c-2.486,1.415-5.535,1.405-8.011-0.026l-10.084-5.952     c-2.098-1.212-3.39-3.451-3.39-5.873v-27.508L221.987,174.756z"/>
			<path style="fill:#e6e6e6;" d="M221.987,202.264v-27.508l-23.568,13.413v27.508c0,2.423,1.292,4.661,3.39,5.873l23.219-13.63     C223.137,206.67,221.987,204.549,221.987,202.264z"/>
		</g>
		<g>
			<path style="fill:#e0e0e0;" d="M147.411,236.162l-2.679,1.549v4.896c-1.722,0-3.407-0.462-4.886-1.344l-0.21-0.126     c-1.255-0.747-2.123-1.969-2.445-3.36c-0.089-0.289-0.145-0.597-0.145-0.924v-6.673L147.411,236.162z"/>
			<g>
				<path style="fill:#37474f;" d="M263.814,56.204l-0.211-0.126c-1.478-0.88-3.166-1.345-4.886-1.345v0.001      c-0.522-0.007-1.06,0.121-1.566,0.413l-115.435,66.38c-2.89,1.668-4.67,4.751-4.67,8.088v100.565l10.364,5.982l109.658-63.042      c2.89-1.668,4.669-4.751,4.669-8.088V60.757h4.664C266.402,58.889,265.419,57.159,263.814,56.204z"/>
			</g>
			<path style="fill:#263238;" d="M138.04,125.424c-0.639,1.279-0.994,2.711-0.994,4.191v100.564l10.365,5.983l3.878-2.24V133.628     L138.04,125.424z"/>
			<path style="fill:#F0F0F0;" d="M141.71,232.871v6.673c0,2.354,2.548,3.826,4.587,2.648l115.435-66.38     c2.89-1.668,4.669-4.751,4.669-8.088v-6.845L141.71,232.871z"/>
			<g>
				<path style="fill:#455a64;" d="M266.402,60.489c0-2.354-2.548-3.825-4.587-2.648l-115.435,66.38      c-2.89,1.668-4.669,4.751-4.669,8.088v100.563l124.692-71.991"/>
			</g>
			<path style="fill:#da26ff;" d="M259.711,65.12c0.021,0,0.018,0-0.022-0.003v0.003c-0.171,0-0.939,0.017-1.52,0.352l-108.49,62.37     c-2.552,1.473-4.123,4.196-4.123,7.142v85.684c0,0.389,0.08,0.751,0.221,1.075c0,0-0.001,0-0.002,0     c0.608,1.408,2.368,2.108,3.831,1.263l108.491-62.37c2.552-1.473,4.124-4.196,4.124-7.142V67.811     C262.22,66.308,261.043,65.219,259.711,65.12z"/>
			<path style="opacity:0.5;fill:#ffffff;" d="M259.711,65.12c0.021,0,0.018,0-0.022-0.003v0.003c-0.171,0-0.939,0.017-1.52,0.352     l-108.49,62.37c-2.552,1.473-4.123,4.196-4.123,7.142v85.684c0,0.389,0.08,0.751,0.221,1.075c0,0-0.001,0-0.002,0     c0.608,1.408,2.368,2.108,3.831,1.263l108.491-62.37c2.552-1.473,4.124-4.196,4.124-7.142V67.811     C262.22,66.308,261.043,65.219,259.711,65.12z"/>
		</g>
	</g>
</g>
<g id="Device_2">
	<g>
		<path style="fill:#263238;" d="M305.103,238.211l-0.856,0.477c-0.318-0.331-0.7-0.651-1.195-0.938l-33.108-19.115    c-2.484-1.434-6.241-1.59-8.392-0.348l-58.442,33.741c-0.169,0.097-0.296,0.209-0.435,0.317l-1.017-0.566v2.473h0.021    c0.056,0.916,0.732,1.869,2.034,2.62l33.108,19.115c2.484,1.434,6.241,1.59,8.392,0.348l58.441-33.741    c0.957-0.552,1.408-1.29,1.425-2.063h0.024V238.211z"/>
		<path style="fill:#37474f;" d="M303.654,240.274l-58.441,33.741c-2.151,1.242-5.908,1.086-8.392-0.348l-33.108-19.115    c-2.484-1.434-2.754-3.603-0.603-4.845l58.442-33.741c2.151-1.242,5.908-1.086,8.392,0.348l33.108,19.115    C305.535,236.862,305.805,239.032,303.654,240.274z"/>
		<path style="fill:#455a64;" d="M296.594,239.089l-45.855,26.474c-1.047,0.605-2.876,0.529-4.085-0.169l-28.612-16.519    c-1.209-0.698-1.34-1.754-0.293-2.359l45.855-26.474c1.047-0.605,2.876-0.529,4.085,0.169l28.612,16.519    C297.51,237.428,297.641,238.484,296.594,239.089z"/>
		<path style="fill:#263238;" d="M229.127,259.126c1.488,0.859,1.488,2.251,0,3.11c-1.488,0.859-3.899,0.859-5.387,0    c-1.488-0.859-1.488-2.251,0-3.11C225.227,258.267,227.639,258.267,229.127,259.126z"/>
		<g>
			<path style="fill:#263238;" d="M235.161,263.391l-3.979,2.297c-0.404,0.233-1.111,0.204-1.578-0.065l0,0     c-0.467-0.27-0.518-0.678-0.113-0.911l3.979-2.297c0.405-0.234,1.111-0.204,1.578,0.065l0,0     C235.515,262.749,235.566,263.157,235.161,263.391z"/>
			<path style="fill:#263238;" d="M238.94,265.573l-3.979,2.297c-0.404,0.234-1.111,0.204-1.578-0.065l0,0     c-0.467-0.27-0.518-0.677-0.113-0.911l3.979-2.297c0.404-0.233,1.111-0.204,1.578,0.065l0,0     C239.294,264.931,239.345,265.339,238.94,265.573z"/>
			<path style="fill:#263238;" d="M219.653,254.437l-3.979,2.297c-0.405,0.234-1.111,0.204-1.578-0.065l0,0     c-0.467-0.27-0.518-0.678-0.113-0.911l3.979-2.297c0.405-0.234,1.111-0.204,1.578,0.065l0,0     C220.007,253.795,220.057,254.203,219.653,254.437z"/>
			<path style="fill:#263238;" d="M223.432,256.619l-3.979,2.297c-0.405,0.234-1.111,0.204-1.578-0.065l0,0     c-0.467-0.27-0.518-0.678-0.113-0.911l3.979-2.297c0.404-0.234,1.111-0.204,1.578,0.065l0,0     C223.786,255.977,223.837,256.385,223.432,256.619z"/>
		</g>
	</g>
	<g>
		<path style="fill:#37474f;" d="M258.883,198.221l-6.785-0.585l-6.789,0.561l1.714,9.697c0.002,0.011,0.004,0.023,0.006,0.034    l0.011,0.061l0.005,0c0.134,0.628,0.615,1.236,1.45,1.719c1.991,1.149,5.218,1.149,7.209,0c0.889-0.513,1.378-1.17,1.473-1.841    l0.003,0L258.883,198.221z"/>
		<path style="fill:#455a64;" d="M256.91,195.155c2.658,1.535,2.658,4.022,0,5.557c-2.658,1.534-6.967,1.534-9.625,0    c-2.658-1.535-2.658-4.022,0-5.557C249.943,193.62,254.252,193.62,256.91,195.155z"/>
		<path style="fill:#263238;" d="M252.098,176.627c-1.044,0-1.891,0.847-1.891,1.891v18.723c0,0.279,0.185,0.559,0.554,0.772    c0.738,0.426,1.936,0.426,2.674,0c0.369-0.213,0.554-0.493,0.554-0.772v-18.723C253.989,177.473,253.142,176.627,252.098,176.627z    "/>
	</g>
</g>
<g id="Windows">
	<g>
		<g>
			<path style="fill:#e0e0e0;" d="M201.603,47.014c0.016,0,0.013,0-0.017-0.002v0.002c-0.127,0-0.693,0.013-1.122,0.26     L120.35,93.331c-1.884,1.088-3.045,3.098-3.045,5.274v63.273c0,0.288,0.059,0.554,0.163,0.794c0,0-0.001,0-0.001,0     c0.449,1.04,1.749,1.557,2.829,0.933l80.115-46.057c1.884-1.088,3.045-3.098,3.045-5.274V49.001     C203.455,47.892,202.586,47.087,201.603,47.014z"/>
			<path style="fill:#e0e0e0;" d="M201.565,47.981c0.454,0.049,0.924,0.417,0.924,1.02v63.273c0,1.825-0.982,3.525-2.56,4.436     l-80.116,46.058c-0.162,0.093-0.334,0.141-0.511,0.141c-0.407,0-0.788-0.249-0.947-0.62c-0.055-0.129-0.084-0.267-0.084-0.411     V98.605c0-1.825,0.982-3.525,2.56-4.436l80.116-46.058C201.095,48.026,201.365,47.985,201.565,47.981 M201.586,47.012v0.002     c-0.127,0-0.693,0.013-1.122,0.26L120.35,93.331c-1.884,1.088-3.045,3.098-3.045,5.274v63.273c0,0.288,0.059,0.554,0.163,0.794     c0,0-0.001,0-0.001,0c0.315,0.73,1.051,1.203,1.835,1.203c0.332,0,0.673-0.085,0.994-0.27l80.115-46.057     c1.884-1.088,3.045-3.098,3.045-5.274V49.001c0-1.11-0.869-1.914-1.852-1.987c0.003,0,0.006,0,0.007,0     C201.617,47.014,201.61,47.014,201.586,47.012L201.586,47.012z"/>
		</g>
		<polygon style="fill:#e0e0e0;" points="118.184,163.529 120.992,165.502 120.992,160.938   "/>
		<polygon style="fill:#e0e0e0;" points="202.503,47.313 205.351,49.304 201.839,51.789   "/>
		<g>
			<g>
				<path style="fill:#ffffff;" d="M204.34,48.941c0.015,0,0.013,0-0.017-0.002v0.002c-0.127,0-0.693,0.012-1.122,0.26      l-80.115,46.057c-1.884,1.088-3.045,3.098-3.045,5.274v63.273c0,0.288,0.059,0.554,0.163,0.794c0,0-0.001,0-0.001,0      c0.449,1.04,1.749,1.557,2.829,0.933l80.115-46.057c1.884-1.088,3.045-3.099,3.045-5.274V50.928      C206.193,49.818,205.324,49.014,204.34,48.941z"/>
				<path style="fill:#e0e0e0;" d="M204.302,49.907c0.454,0.049,0.924,0.417,0.924,1.02v63.273c0,1.825-0.982,3.525-2.56,4.436      l-80.116,46.058c-0.162,0.093-0.333,0.141-0.511,0.141c-0.407,0-0.788-0.249-0.947-0.62c-0.056-0.129-0.084-0.267-0.084-0.411      v-63.273c0-1.825,0.982-3.525,2.56-4.436l80.116-46.058C203.833,49.952,204.103,49.911,204.302,49.907 M204.324,48.939v0.002      c-0.127,0-0.693,0.012-1.122,0.26l-80.115,46.057c-1.884,1.088-3.045,3.098-3.045,5.274v63.273c0,0.288,0.059,0.554,0.163,0.794      c0,0-0.001,0-0.001,0c0.316,0.73,1.051,1.203,1.835,1.203c0.332,0,0.673-0.085,0.994-0.27l80.115-46.057      c1.884-1.088,3.045-3.099,3.045-5.274V50.928c0-1.11-0.869-1.914-1.852-1.987c0.003,0,0.005,0,0.007,0      C204.354,48.941,204.348,48.94,204.324,48.939L204.324,48.939z"/>
			</g>
			<g>
				<path style="fill:#da26ff;" d="M160.197,118.036c0-0.843,0.074-1.707,0.183-2.578c-5.586,1.921-9.927-0.796-10.817-6.828      c-6.275,5.088-11,14.218-11,21.897c0,8.761,6.15,12.312,13.737,7.931c4.397-2.539,8.302-7.188,10.817-12.351      C161.294,124.466,160.197,121.719,160.197,118.036z"/>
				<path style="opacity:0.7;fill:#ffffff;" d="M160.197,118.036c0-0.843,0.074-1.707,0.183-2.578      c-5.586,1.921-9.927-0.796-10.817-6.828c-6.275,5.088-11,14.218-11,21.897c0,8.761,6.15,12.312,13.737,7.931      c4.397-2.539,8.302-7.188,10.817-12.351C161.294,124.466,160.197,121.719,160.197,118.036z"/>
				<path style="fill:#da26ff;" d="M176.671,92.978c-0.89,7.06-5.231,14.789-10.817,19.318c0.11,0.744,0.183,1.523,0.183,2.367      c0,3.683-1.097,7.697-2.921,11.442c2.514,2.26,6.419,2.4,10.817-0.139c7.587-4.38,13.737-15.033,13.737-23.794      C187.671,94.495,182.947,90.821,176.671,92.978z"/>
				<path style="opacity:0.3;" d="M176.671,92.978c-0.89,7.06-5.231,14.789-10.817,19.318c0.11,0.744,0.183,1.523,0.183,2.367      c0,3.683-1.097,7.697-2.921,11.442c2.514,2.26,6.419,2.4,10.817-0.139c7.587-4.38,13.737-15.033,13.737-23.794      C187.671,94.495,182.947,90.821,176.671,92.978z" fill="#000000"/>
				<path style="fill:#da26ff;" d="M165.855,112.296c-0.885,0.717-1.8,1.356-2.737,1.897c-0.938,0.541-1.853,0.959-2.737,1.264      c-0.11,0.871-0.183,1.735-0.183,2.578c0,3.683,1.097,6.43,2.921,8.07c1.824-3.745,2.921-7.759,2.921-11.442      C166.038,113.82,165.964,113.041,165.855,112.296z"/>
				<path style="opacity:0.5;" d="M165.855,112.296c-0.885,0.717-1.8,1.356-2.737,1.897c-0.938,0.541-1.853,0.959-2.737,1.264      c-0.11,0.871-0.183,1.735-0.183,2.578c0,3.683,1.097,6.43,2.921,8.07c1.824-3.745,2.921-7.759,2.921-11.442      C166.038,113.82,165.964,113.041,165.855,112.296z" fill="#000000"/>
				<path style="fill:#da26ff;" d="M163.117,106.593c2.514-5.163,6.419-9.813,10.817-12.351c0.938-0.541,1.853-0.959,2.737-1.264      c0.11-0.871,0.183-1.735,0.183-2.578c0-8.761-6.15-12.312-13.737-7.931c-7.587,4.38-13.737,15.033-13.737,23.794      c0,0.843,0.074,1.622,0.183,2.367c0.885-0.717,1.8-1.356,2.737-1.897C156.698,104.193,160.603,104.333,163.117,106.593z"/>
				<path style="fill:#da26ff;" d="M160.38,115.457c0.37-2.933,1.331-5.976,2.737-8.864c-2.514-2.26-6.419-2.4-10.817,0.139      c-0.938,0.541-1.853,1.18-2.737,1.897C150.453,114.662,154.794,117.378,160.38,115.457z"/>
				<path style="opacity:0.3;fill:#ffffff;" d="M160.38,115.457c0.37-2.933,1.331-5.976,2.737-8.864      c-2.514-2.26-6.419-2.4-10.817,0.139c-0.938,0.541-1.853,1.18-2.737,1.897C150.453,114.662,154.794,117.378,160.38,115.457z"/>
				<path style="fill:#da26ff;" d="M163.117,106.593c1.406,1.264,2.368,3.197,2.737,5.703c5.586-4.529,9.927-12.258,10.817-19.318      c-0.885,0.304-1.8,0.722-2.737,1.264C169.537,96.781,165.632,101.43,163.117,106.593z"/>
				<path style="opacity:0.7;" d="M163.117,106.593c1.406,1.264,2.368,3.197,2.737,5.703c5.586-4.529,9.927-12.258,10.817-19.318      c-0.885,0.304-1.8,0.722-2.737,1.264C169.537,96.781,165.632,101.43,163.117,106.593z" fill="#000000"/>
				<path style="fill:#263238;" d="M163.117,106.593c-1.406,2.888-2.368,5.931-2.737,8.864c0.885-0.304,1.8-0.722,2.737-1.264      c0.937-0.541,1.852-1.18,2.737-1.897C165.485,109.79,164.524,107.857,163.117,106.593z"/>
			</g>
		</g>
	</g>
	<g>
		<g>
			<g>
				<path style="fill:#e0e0e0;" d="M250.591,98.018c0.013,0,0.011,0-0.014-0.001v0.002c-0.105,0-0.573,0.01-0.927,0.215      l-66.204,38.06c-1.557,0.899-2.516,2.56-2.516,4.358v52.287c0,0.238,0.049,0.458,0.135,0.656c0,0-0.001,0-0.001,0      c0.371,0.859,1.445,1.286,2.338,0.771l66.205-38.06c1.557-0.899,2.516-2.561,2.516-4.358V99.66      C252.122,98.743,251.403,98.079,250.591,98.018z"/>
				<path style="fill:#e0e0e0;" d="M250.559,98.817c0.375,0.041,0.764,0.344,0.764,0.843v52.287c0,1.508-0.811,2.913-2.116,3.666      l-66.206,38.061c-0.133,0.077-0.275,0.116-0.422,0.116c-0.336,0-0.65-0.205-0.783-0.512c-0.046-0.106-0.069-0.221-0.069-0.339      v-52.287c0-1.508,0.811-2.913,2.116-3.666l66.206-38.061C250.171,98.854,250.395,98.82,250.559,98.817 M250.577,98.017v0.002      c-0.105,0-0.573,0.01-0.927,0.215l-66.204,38.06c-1.557,0.899-2.516,2.56-2.516,4.358v52.287c0,0.238,0.049,0.458,0.135,0.656      c0,0-0.001,0-0.001,0c0.261,0.604,0.869,0.994,1.517,0.994c0.275,0,0.556-0.07,0.822-0.223l66.204-38.06      c1.557-0.899,2.516-2.561,2.516-4.358V99.66c0-0.917-0.718-1.582-1.531-1.642c0.003,0,0.004,0,0.006,0      C250.602,98.018,250.597,98.018,250.577,98.017L250.577,98.017z"/>
			</g>
			<polygon style="fill:#e0e0e0;" points="181.655,194.303 183.976,195.933 183.976,192.161    "/>
			<polygon style="fill:#e0e0e0;" points="251.335,98.265 253.688,99.91 250.786,101.964    "/>
			<g>
				<g>
					<path style="fill:#ffffff;" d="M252.853,99.61c0.013,0,0.011,0-0.014-0.002v0.002c-0.105,0-0.573,0.01-0.927,0.215       l-66.204,38.06c-1.557,0.899-2.516,2.56-2.516,4.358v52.287c0,0.238,0.049,0.458,0.135,0.656c0,0-0.001,0-0.001,0       c0.371,0.859,1.445,1.286,2.338,0.771l66.204-38.06c1.557-0.899,2.516-2.56,2.516-4.358v-52.287       C254.383,100.335,253.665,99.67,252.853,99.61z"/>
					<path style="fill:#e0e0e0;" d="M252.821,100.409c0.375,0.041,0.764,0.344,0.764,0.843v52.287c0,1.508-0.811,2.913-2.116,3.666       l-66.206,38.061c-0.133,0.077-0.276,0.116-0.422,0.116c-0.336,0-0.65-0.205-0.782-0.512c-0.046-0.106-0.069-0.221-0.069-0.339       v-52.287c0-1.508,0.811-2.913,2.116-3.666l66.206-38.061C252.433,100.446,252.656,100.412,252.821,100.409 M252.839,99.608       v0.002c-0.105,0-0.573,0.01-0.927,0.215l-66.204,38.06c-1.557,0.899-2.516,2.56-2.516,4.358v52.287       c0,0.238,0.049,0.458,0.135,0.656c0,0-0.001,0-0.001,0c0.261,0.604,0.868,0.994,1.517,0.994c0.274,0,0.556-0.07,0.821-0.223       l66.205-38.06c1.557-0.899,2.516-2.56,2.516-4.358v-52.287c0-0.917-0.718-1.582-1.531-1.642c0.003,0,0.005,0,0.006,0       C252.864,99.61,252.858,99.61,252.839,99.608L252.839,99.608z"/>
				</g>
			</g>
		</g>
		<g>
			<polygon style="fill:#da26ff;" points="246.114,151.858 196.174,180.69 210.928,142.303 221.144,154.437 231.591,139.561    "/>
			<polygon style="opacity:0.4;fill:#ffffff;" points="246.114,151.858 196.174,180.69 210.928,142.303 221.144,154.437      231.591,139.561    "/>
			<path style="fill:#da26ff;" d="M228.791,127.91c0,2.905-2.04,6.437-4.555,7.89c-2.516,1.452-4.556,0.275-4.556-2.63     c0-2.905,2.04-6.438,4.556-7.89C226.751,123.827,228.791,125.005,228.791,127.91z"/>
		</g>
	</g>
</g>
<g id="Character">
	<g>
		<g>
			<path style="fill:#263238;" d="M348.892,279.446l14.972,79.742c0.212,1.16,1.217,1.995,2.406,1.995     c1.486,0,2.632-1.33,2.42-2.802l-11.038-73.883L348.892,279.446z"/>
			<path style="fill:#455a64;" d="M377.703,331.15l-15.259,93.108c-0.23,1.404-1.444,2.435-2.866,2.435l0,0     c-1.732,0-3.078-1.505-2.887-3.226l10.705-96.056L377.703,331.15z"/>
			<path style="fill:#455a64;" d="M325.033,299.834l-15.259,93.108c-0.23,1.404-1.444,2.435-2.866,2.435l0,0     c-1.732,0-3.078-1.505-2.887-3.226l10.705-96.055L325.033,299.834z"/>
			<path style="fill:#263238;" d="M402.157,309.375l15.057,80.237c0.212,1.16,1.217,1.995,2.406,1.995     c1.486,0,2.632-1.33,2.42-2.802l-11.123-74.364L402.157,309.375z"/>
			<path style="fill:#da26ff;" d="M352.205,273.375c7.026-3.132,11.842-9.757,12.603-17.412     c2.428-24.43,11.032-74.777,40.191-58.017c35.99,20.686,23.104,80.756,17.871,100.018c-1.18,4.345-3.442,8.308-6.614,11.504     c-6.501,6.55-19.963,17.828-42.856,27.432c-2.808,1.178-5.938,1.363-8.866,0.529c-11.374-3.24-41.089-13.19-55.905-32.134     c-1.751-2.239-1.371-5.473,0.854-7.242C315.486,293.281,329.045,283.7,352.205,273.375z"/>
			<path style="opacity:0.3;" d="M352.205,273.375c7.026-3.132,11.842-9.757,12.603-17.412c2.428-24.43,11.032-74.777,40.191-58.017     c35.99,20.686,23.104,80.756,17.871,100.018c-1.18,4.345-3.442,8.308-6.614,11.504c-6.501,6.55-19.963,17.828-42.856,27.432     c-2.808,1.178-5.938,1.363-8.866,0.529c-11.374-3.24-41.089-13.19-55.905-32.134c-1.751-2.239-1.371-5.473,0.854-7.242     C315.486,293.281,329.045,283.7,352.205,273.375z" fill="#000000"/>
			<path style="fill:#da26ff;" d="M307.558,301.845c-0.061,1.201,0.273,2.428,1.072,3.449c0.791,1.011,1.632,1.991,2.503,2.951l0,0     c0,0,0,0.001,0.001,0.001c0.476,0.525,0.964,1.042,1.461,1.552c0.01,0.01,0.02,0.02,0.03,0.031     c0.493,0.504,0.996,1.001,1.508,1.491c0.015,0.014,0.03,0.029,0.045,0.043c0.512,0.489,1.034,0.97,1.564,1.445     c0.013,0.012,0.026,0.024,0.04,0.035c0.535,0.478,1.077,0.948,1.628,1.411c0.007,0.006,0.014,0.012,0.021,0.018     c8.402,7.056,18.598,12.423,27.715,16.299c0.012,0.005,0.023,0.01,0.035,0.015c0.568,0.241,1.13,0.476,1.688,0.705     c0.058,0.024,0.117,0.048,0.176,0.072c0.523,0.214,1.04,0.423,1.554,0.627c0.09,0.036,0.181,0.072,0.271,0.108     c0.488,0.193,0.97,0.381,1.449,0.565c0.111,0.043,0.221,0.085,0.332,0.128c0.456,0.174,0.906,0.344,1.351,0.51     c0.131,0.049,0.261,0.097,0.391,0.145c0.42,0.155,0.836,0.307,1.246,0.456c0.152,0.055,0.301,0.108,0.451,0.162     c0.389,0.139,0.773,0.275,1.151,0.408c0.161,0.056,0.318,0.111,0.477,0.166c0.36,0.125,0.716,0.248,1.066,0.366     c0.172,0.059,0.34,0.115,0.51,0.171c0.327,0.11,0.652,0.219,0.969,0.323c0.187,0.061,0.367,0.12,0.55,0.179     c0.291,0.095,0.583,0.19,0.864,0.28c0.2,0.064,0.391,0.124,0.586,0.185c0.253,0.079,0.507,0.16,0.751,0.236     c0.217,0.067,0.422,0.129,0.632,0.194c0.212,0.065,0.428,0.132,0.632,0.193c0.267,0.081,0.518,0.155,0.772,0.23     c0.13,0.039,0.267,0.08,0.393,0.117c0.38,0.111,0.745,0.217,1.092,0.316c2.928,0.834,6.058,0.649,8.866-0.529     c22.893-9.603,36.354-20.881,42.856-27.432c3.172-3.196,5.433-7.159,6.614-11.504c5.233-19.262,18.118-79.332-17.871-100.018     c-0.638-0.367-1.263-0.69-1.881-0.993c-0.135-0.066-0.27-0.133-0.404-0.196c-0.609-0.287-1.21-0.55-1.8-0.778     c-0.058-0.022-0.115-0.04-0.172-0.062c-0.566-0.213-1.123-0.397-1.672-0.557c-0.084-0.025-0.169-0.052-0.254-0.075     c-0.591-0.164-1.172-0.298-1.743-0.402c-0.049-0.009-0.097-0.015-0.146-0.024c-1.192-0.207-2.341-0.285-3.45-0.243     c-0.022,0.001-0.043,0.002-0.064,0.003c-1.133,0.048-2.223,0.22-3.271,0.507c0,0,0,0,0,0c5.749-2.54,12.769-2.425,19.727,1.575     c35.99,20.686,23.104,80.756,17.871,100.018l-0.885,3.309c-1.787,6.683-5.737,12.586-11.233,16.787l-9.339,7.138v-0.004     c-7.561,5.815-18.289,12.598-32.847,18.709c-2.817,1.182-5.955,1.382-8.893,0.546c-11.367-3.238-41.094-13.188-55.913-32.137     c-0.66-0.844-1-1.829-1.065-2.822h-0.023v-6.415L307.558,301.845z"/>
			<path style="opacity:0.5;" d="M307.558,301.845c-0.061,1.201,0.273,2.428,1.072,3.449c0.791,1.011,1.632,1.991,2.503,2.951l0,0     c0,0,0,0.001,0.001,0.001c0.476,0.525,0.964,1.042,1.461,1.552c0.01,0.01,0.02,0.02,0.03,0.031     c0.493,0.504,0.996,1.001,1.508,1.491c0.015,0.014,0.03,0.029,0.045,0.043c0.512,0.489,1.034,0.97,1.564,1.445     c0.013,0.012,0.026,0.024,0.04,0.035c0.535,0.478,1.077,0.948,1.628,1.411c0.007,0.006,0.014,0.012,0.021,0.018     c8.402,7.056,18.598,12.423,27.715,16.299c0.012,0.005,0.023,0.01,0.035,0.015c0.568,0.241,1.13,0.476,1.688,0.705     c0.058,0.024,0.117,0.048,0.176,0.072c0.523,0.214,1.04,0.423,1.554,0.627c0.09,0.036,0.181,0.072,0.271,0.108     c0.488,0.193,0.97,0.381,1.449,0.565c0.111,0.043,0.221,0.085,0.332,0.128c0.456,0.174,0.906,0.344,1.351,0.51     c0.131,0.049,0.261,0.097,0.391,0.145c0.42,0.155,0.836,0.307,1.246,0.456c0.152,0.055,0.301,0.108,0.451,0.162     c0.389,0.139,0.773,0.275,1.151,0.408c0.161,0.056,0.318,0.111,0.477,0.166c0.36,0.125,0.716,0.248,1.066,0.366     c0.172,0.059,0.34,0.115,0.51,0.171c0.327,0.11,0.652,0.219,0.969,0.323c0.187,0.061,0.367,0.12,0.55,0.179     c0.291,0.095,0.583,0.19,0.864,0.28c0.2,0.064,0.391,0.124,0.586,0.185c0.253,0.079,0.507,0.16,0.751,0.236     c0.217,0.067,0.422,0.129,0.632,0.194c0.212,0.065,0.428,0.132,0.632,0.193c0.267,0.081,0.518,0.155,0.772,0.23     c0.13,0.039,0.267,0.08,0.393,0.117c0.38,0.111,0.745,0.217,1.092,0.316c2.928,0.834,6.058,0.649,8.866-0.529     c22.893-9.603,36.354-20.881,42.856-27.432c3.172-3.196,5.433-7.159,6.614-11.504c5.233-19.262,18.118-79.332-17.871-100.018     c-0.638-0.367-1.263-0.69-1.881-0.993c-0.135-0.066-0.27-0.133-0.404-0.196c-0.609-0.287-1.21-0.55-1.8-0.778     c-0.058-0.022-0.115-0.04-0.172-0.062c-0.566-0.213-1.123-0.397-1.672-0.557c-0.084-0.025-0.169-0.052-0.254-0.075     c-0.591-0.164-1.172-0.298-1.743-0.402c-0.049-0.009-0.097-0.015-0.146-0.024c-1.192-0.207-2.341-0.285-3.45-0.243     c-0.022,0.001-0.043,0.002-0.064,0.003c-1.133,0.048-2.223,0.22-3.271,0.507c0,0,0,0,0,0c5.749-2.54,12.769-2.425,19.727,1.575     c35.99,20.686,23.104,80.756,17.871,100.018l-0.885,3.309c-1.787,6.683-5.737,12.586-11.233,16.787l-9.339,7.138v-0.004     c-7.561,5.815-18.289,12.598-32.847,18.709c-2.817,1.182-5.955,1.382-8.893,0.546c-11.367-3.238-41.094-13.188-55.913-32.137     c-0.66-0.844-1-1.829-1.065-2.822h-0.023v-6.415L307.558,301.845z" fill="#000000"/>
		</g>
		<g>
			<path style="fill:#263238;" d="M417.112,158.292c0,0,7.981-8.271,17.123-3.047c9.142,5.224,4.805,21.987,2.177,26.744     c-2.628,4.757-7.504,21.836,6.768,18.37c0,0-4.882,6.981-15.04,5.095c-10.158-1.887-12.08-14.097-9.378-24.172     c2.703-10.075-1.651-14.663-1.651-14.663V158.292z"/>
			<path style="fill:#945959;" d="M375.32,198.865c0,0-10.593-1.103-14.802,0.784c-4.208,1.886-30.909,39.761-30.909,39.761     s10.014,3.163,26.193-10.245C371.983,215.756,375.32,198.865,375.32,198.865z"/>
			<path style="fill:#da26ff;" d="M410.583,237.668l1.257-29.022l-13.366-6.66l-15.932-3.093l-7.222-0.028     c0,0-14.076,11.957-18.43,23.566c-4.354,11.609,5.491,20.197,5.491,20.197c0,9.749-5.491,20.435-5.491,20.435     s9.433,13.782,30.184,12.26c6.785-0.498,13.361-2.771,19.147-5.6c-1.445-8.365-3.669-15.028-3.669-15.028L410.583,237.668z"/>
			<path style="opacity:0.5;fill:#ffffff;" d="M410.583,237.668l1.257-29.022l-13.366-6.66l-15.932-3.093l-7.222-0.028     c0,0-14.076,11.957-18.43,23.566c-4.354,11.609,5.491,20.197,5.491,20.197c0,9.749-5.491,20.435-5.491,20.435     s9.433,13.782,30.184,12.26c6.785-0.498,13.361-2.771,19.147-5.6c-1.445-8.365-3.669-15.028-3.669-15.028L410.583,237.668z"/>
			<g>
				<path style="fill:#263238;" d="M384.076,140.285c0,0-10.841-5.774-15.475,5.53c-4.634,11.304,2.206,24.05-11.365,25.924      c0,0,6.622,7.534,15.189-3.257c-1.216,1.531,0.209,6.531,0.75,8.17c0.974,2.952,2.693,5.667,5.003,7.753      c2.559,2.31,5.735,3.84,9,4.945c2.406,0.814,4.918,1.417,7.457,1.357c3.868-0.091,8.723-1.85,12.07-3.777      c3.607-2.076,6.554-5.273,8.493-8.942c3.386-6.407,4.463-14.895,2.787-21.953c-1.002-4.22-2.871-7.915-5.941-10.984      C404.414,138.202,393.569,137.886,384.076,140.285z"/>
				<path style="fill:#945959;" d="M384.093,188.984l-1.551,9.909c0,0-12.042,9.81-2.187,12.277      c9.856,2.467,18.118-9.184,18.118-9.184l3.075-19.65L384.093,188.984z"/>
				<path style="fill:#703838;" d="M401.89,178.995l-0.087,0.576c-5.776,13.526-15.536,15.142-18.645,15.39l3.303-21.821      l15.509,2.352L401.89,178.995z"/>
				<path style="fill:#945959;" d="M391.966,145.308c-5.992-0.441-18.976,1.962-21.598,17.53      c-2.623,15.568-2.099,27.837,5.907,29.597c8.006,1.76,27.219-2.715,31.226-22.824      C411.509,149.502,397.81,145.738,391.966,145.308z"/>
				<polygon style="fill:#703838;" points="380.308,170.81 379.016,179.989 373.874,177.583     "/>
				<path style="fill:#263238;" d="M388.395,171.825c-0.147,1.033-1.103,1.751-2.135,1.604c-1.033-0.147-1.751-1.103-1.604-2.135      c0.147-1.033,1.103-1.751,2.135-1.604C387.823,169.836,388.542,170.792,388.395,171.825z"/>
				<path style="fill:#263238;" d="M376.282,168.773c-0.147,1.033-1.103,1.751-2.136,1.604c-1.033-0.147-1.751-1.103-1.604-2.136      c0.147-1.033,1.103-1.751,2.135-1.604C375.711,166.784,376.429,167.74,376.282,168.773z"/>
				<path style="fill:#da26ff;" d="M372.688,164.289l3.965-1.652c0,0-1.196-1.658-2.717-0.98      C372.414,162.335,372.688,164.289,372.688,164.289z"/>
				<path style="fill:#703838;" d="M380.203,182.272c0,0,1.86-0.529,5.939-2.283c0,0,0.353,1.244-2.279,2.145      C381.232,183.035,380.203,182.272,380.203,182.272z"/>
				<path style="fill:#263238;" d="M372.688,164.289l3.965-1.652c0,0-1.196-1.658-2.717-0.98      C372.414,162.335,372.688,164.289,372.688,164.289z"/>
				<path style="fill:#263238;" d="M397.716,172.418c0,0-1.396,6.508,2.386,7.1l7.407,1.159l1.959-12.516      c2.197-14.036-6.157-30.365-30.627-22.318C378.841,145.843,374.812,164.408,397.716,172.418z"/>
				<path style="fill:#945959;" d="M400.185,178.746c0.199-1.432,0.667-2.826,1.467-4.029c0.898-1.349,2.299-2.628,4.313-2.348      c4.422,0.615,4.309,4.952,3.997,6.451c-0.818,3.936-4.74,7.681-10.739,6.848L400.185,178.746z"/>
			</g>
			<g>
				<path style="fill:#da26ff;" d="M282.583,398.295c0,0-12.226,9.55-13.484,12.259c-1.258,2.709,1.944,10.315,19.252,7.546      c4.837-0.774,11.802-5.708,15.285-10.448c3.483-4.74,10.541-8.021,11.609-9.698c1.524-2.394,0.665-14.947-2.014-15.17      C308.912,382.423,282.583,398.295,282.583,398.295z"/>
				<path style="fill:#945959;" d="M306.345,306.143c0,0-7.684,63.231-8.955,72.54c-0.594,4.353-12.661,17.377-16.829,21.765      c-0.733,0.772-0.606,2.013,0.269,2.62l0.358,0.248c5.023,3.486,11.735,3.162,16.445-0.736c3.4-2.814,6.93-6.202,8.712-9.343      c2.641-4.653,4.71-6.936,5.835-7.964c0.591-0.54,0.964-1.273,1.021-2.071c0.221-3.096,0.929-10.86,2.7-15.21      c2.247-5.519,13.71-27.759,13.71-47.887L306.345,306.143z"/>
				<path style="fill:#703838;" d="M329.61,320.106l-0.08-0.048l-5.174-0.574c2,13.887-1.892,33.075-1.902,33.121      C326.013,343.316,329.61,331.381,329.61,320.106z"/>
			</g>
			<g>
				<path style="fill:#da26ff;" d="M305.365,411.636c0,0-12.226,9.55-13.484,12.259c-1.258,2.709,1.944,10.315,19.252,7.546      c4.837-0.774,11.802-5.708,15.285-10.448c3.483-4.74,10.541-8.021,11.609-9.698c1.524-2.394,0.665-14.947-2.014-15.17      C331.693,395.764,305.365,411.636,305.365,411.636z"/>
				<path style="fill:#945959;" d="M329.126,319.484c0,0-7.684,63.231-8.955,72.54c-0.594,4.353-12.661,17.377-16.829,21.765      c-0.733,0.772-0.606,2.014,0.269,2.62l0.358,0.248c5.023,3.486,11.735,3.162,16.445-0.736c3.4-2.814,6.93-6.202,8.712-9.343      c2.641-4.653,4.71-6.936,5.834-7.964c0.591-0.54,0.964-1.273,1.021-2.071c0.221-3.096,0.929-10.86,2.7-15.21      c2.247-5.519,13.71-27.759,13.71-47.886L329.126,319.484z"/>
			</g>
			<path style="fill:#263238;" d="M356.891,263.063c0,0-36.713,20.025-44.227,28.91c-7.514,8.884-10.723,29.425-10.723,29.425     c12.817,16.543,51.978,18.357,51.978,18.357c3.302-10.793,11.388-12.697,24.013-18.792c12.625-6.095,26.701-18.429,28.974-31.731     c1.039-6.08,0.394-13.267-0.685-19.508c-5.786,2.829-12.363,5.102-19.147,5.6C366.323,276.844,356.891,263.063,356.891,263.063z"/>
			<path style="fill:#da26ff;" d="M377.062,244.343c0,0,16.107,4.338,23.073-7.19C400.134,237.152,394.475,252.179,377.062,244.343z     "/>
			<path style="opacity:0.2;fill:#ffffff;" d="M400.134,237.152c0,0-5.659,15.027-23.073,7.19     C377.062,244.343,393.169,248.681,400.134,237.152"/>
			<path style="fill:#945959;" d="M410.093,207.775c0,0-12.209,5.331-0.624,32.254c7.789,18.1,9.095,23.034,9.095,23.034     s-4.063,2.032-27.281,19.3l6.965,11.609c0,0,41.253-14.711,40.341-26.147c-0.912-11.437-12.915-40.894-14.801-45.103     C421.901,218.513,420.958,212.564,410.093,207.775z"/>
			<path style="fill:#945959;" d="M329.61,239.409c3.994,1.718,12.48-5.708,19.542-15.479c7.062-9.771,11.319-17.897,11.319-17.897     s9.146,1.177,14.85-7.169c0.919-1.345-6.451-10.342-6.451-10.342l3.887-1.741c0,0,6.191-1.689,5.811-4.446     c-0.162-1.181-10.377,0.951-14.229,1.799c-0.94,0.207-1.786,0.708-2.422,1.431l-11.41,12.978c0,0-11.701,9.99-17.994,15.906     C322.838,223.544,321.29,235.83,329.61,239.409z"/>
			<path style="fill:#703838;" d="M368.869,188.886c-0.139,0-0.271-0.08-0.331-0.214c-0.081-0.183,0-0.397,0.183-0.479l3.888-1.742     c1.671-0.461,5.785-2.031,5.608-4.001c-0.237-0.12-1.563-0.391-8.767,0.997c-0.198,0.04-0.386-0.091-0.424-0.288     c-0.038-0.196,0.091-0.386,0.287-0.424c8.313-1.601,9.074-1.059,9.358-0.854c0.184,0.131,0.24,0.292,0.256,0.405     c0.417,3.037-5.811,4.772-6.075,4.844l-3.835,1.723C368.969,188.876,368.919,188.886,368.869,188.886z"/>
			<path style="fill:#703838;" d="M344.729,229.891c-0.084,0-0.169-0.029-0.237-0.088c-0.151-0.131-0.168-0.36-0.037-0.511     c1.501-1.732,2.982-3.607,4.402-5.573c6.965-9.635,11.25-17.772,11.292-17.853l0.117-0.223l0.25,0.032     c0.04,0.005,3.978,0.476,8.197-1.537c0.181-0.086,0.397-0.009,0.483,0.171c0.086,0.181,0.01,0.397-0.171,0.483     c-3.849,1.835-7.386,1.704-8.35,1.627c-0.729,1.359-4.868,8.922-11.231,17.725c-1.434,1.982-2.928,3.875-4.441,5.623     C344.932,229.849,344.831,229.891,344.729,229.891z"/>
			<path style="fill:#945959;" d="M392.492,282.459c0,0-5.805-1.064-10.352-0.097c-2.081,0.443-4.235,0.432-6.336,0.149     c-1.955-0.263-4.831-0.737-3.564,2.27c1.104,2.622,4.836,3.237,7.289,3.483c0,0-0.871,3.096-7.546,2.902     c-6.675-0.194-8.513,0.097-8.03,2.225c0.484,2.128,7.005,9.798,13.75,9.905c5.055,0.08,14.112-3.423,20.545-9.324     L392.492,282.459z"/>
		</g>
	</g>
</g>
<g id="Speech_bubble">
	<g>
		<g>
			<path style="fill:#ffffff;" d="M394.337,73.249c1.394-11.454-6.761-21.869-18.215-23.264c-0.315-0.038-0.625-0.042-0.937-0.066     c0.077-0.379,0.152-0.758,0.199-1.149c0.96-7.886-4.655-15.056-12.541-16.016c-0.806-0.098-1.601-0.111-2.386-0.076     c-3.507-5.696-9.476-9.802-16.632-10.673c-9.256-1.127-17.885,3.475-22.345,11.018c-0.014-0.002-0.027-0.005-0.042-0.007     c-11.454-1.394-21.87,6.761-23.264,18.215c-0.503,4.13,0.251,8.116,1.939,11.602c-5.504,1.473-9.835,6.15-10.566,12.152     c-0.96,7.886,4.655,15.057,12.541,16.016c1.64,0.2,3.244,0.1,4.773-0.23c1.005,8.986,8.042,16.445,17.408,17.585     c4.881,0.594,9.558-0.636,13.368-3.142c3.446,4.32,8.52,7.346,14.439,8.066c11.981,1.458,22.875-7.072,24.333-19.053     c0.116-0.956,0.162-1.903,0.155-2.841C385.683,90.082,393.17,82.832,394.337,73.249z"/>
			<path style="fill:#e0e0e0;" d="M354.761,114.444c-0.931,0-1.868-0.057-2.808-0.171c-5.681-0.691-10.807-3.431-14.527-7.746     c-3.986,2.383-8.661,3.382-13.279,2.822c-9.323-1.135-16.642-8.223-18.135-17.408c-1.353,0.198-2.708,0.216-4.045,0.053     c-8.42-1.024-14.436-8.709-13.413-17.129c0.715-5.873,4.661-10.724,10.182-12.652c-1.477-3.508-2.014-7.323-1.553-11.102     c0.706-5.805,3.631-10.987,8.234-14.592c4.446-3.48,9.941-5.088,15.541-4.56c4.888-7.777,13.837-12.061,22.988-10.946     c7.022,0.854,13.204,4.725,17.052,10.65c0.684-0.009,1.343,0.023,1.965,0.099c8.421,1.025,14.438,8.709,13.414,17.13     c-0.005,0.039-0.01,0.078-0.016,0.117c11.92,1.517,20.421,12.419,18.969,24.362l-0.001,0.001     c-1.157,9.507-8.409,17.15-17.774,18.868c-0.02,0.721-0.071,1.428-0.153,2.11c-0.738,6.06-3.791,11.47-8.598,15.233     C364.742,112.761,359.84,114.444,354.761,114.444z M337.635,104.214c0.295,0,0.586,0.13,0.782,0.377     c3.431,4.3,8.323,7.033,13.778,7.697c5.529,0.675,10.989-0.848,15.376-4.281c4.386-3.434,7.171-8.37,7.845-13.899     c0.105-0.866,0.154-1.779,0.147-2.712c-0.004-0.5,0.362-0.927,0.858-0.998c8.881-1.271,15.84-8.372,16.924-17.269     c1.324-10.888-6.456-20.824-17.345-22.15c-0.175-0.021-0.349-0.03-0.523-0.039l-0.368-0.022     c-0.286-0.022-0.549-0.166-0.722-0.395c-0.173-0.229-0.239-0.521-0.182-0.802c0.071-0.353,0.142-0.707,0.186-1.071     c0.891-7.325-4.345-14.011-11.67-14.902c-0.68-0.082-1.408-0.104-2.221-0.069c-0.365,0.019-0.705-0.166-0.896-0.475     c-3.499-5.682-9.295-9.401-15.901-10.205c-8.565-1.047-16.963,3.09-21.364,10.535c-0.204,0.349-0.592,0.542-1.002,0.481     c-5.296-0.647-10.504,0.804-14.688,4.08c-4.184,3.275-6.841,7.984-7.482,13.259c-0.461,3.781,0.178,7.6,1.846,11.046     c0.13,0.268,0.133,0.581,0.009,0.852c-0.124,0.271-0.362,0.473-0.65,0.55c-5.311,1.421-9.17,5.859-9.833,11.307     c-0.891,7.326,4.345,14.012,11.67,14.903c1.464,0.178,2.957,0.106,4.44-0.215c0.275-0.06,0.565,0.002,0.795,0.165     c0.229,0.165,0.378,0.42,0.41,0.701c0.98,8.769,7.779,15.638,16.534,16.703c4.435,0.541,8.949-0.519,12.697-2.984     C337.255,104.268,337.446,104.214,337.635,104.214z M394.337,73.249h0.01H394.337z"/>
		</g>
		<g>
			<g>
				<path style="fill:#263238;" d="M342.275,96.296l-1.078,0.009c-2.469,0.021-4.487-1.963-4.508-4.431l-0.047-5.549l10.018-0.085      l0.047,5.547C346.728,94.256,344.744,96.275,342.275,96.296z"/>
				<path style="fill:#37474f;" d="M349.486,87.862c0.02,2.356-3.466,4.296-7.785,4.332c-4.32,0.037-7.838-1.844-7.858-4.2      c-0.02-2.356,3.466-4.296,7.785-4.333C345.948,83.625,349.466,85.506,349.486,87.862z"/>
				<path style="fill:#455a64;" d="M349.465,85.373c0.02,2.356-3.465,4.296-7.785,4.332c-4.32,0.037-7.838-1.844-7.858-4.2      c-0.02-2.356,3.465-4.296,7.785-4.333C345.927,81.137,349.445,83.017,349.465,85.373z"/>
				<path style="fill:#da26ff;" d="M358.106,63.461c-0.083-9.819-8.651-17.58-18.685-16.385      c-7.685,0.916-13.806,7.196-14.533,14.901c-0.619,6.556,2.56,12.405,7.579,15.632c1.807,1.162,2.953,3.112,2.971,5.26l0,0      c0.019,2.272,1.877,4.099,4.149,4.079l2.07-0.017l2.07-0.018c2.272-0.019,4.098-1.877,4.079-4.149l-0.001-0.179      c-0.017-2.049,1.048-3.929,2.762-5.051C355.147,74.536,358.156,69.343,358.106,63.461z"/>
				<path style="fill:#263238;" d="M342.503,86.952c-0.005-0.057-0.12-1.551-0.126-14.747c0-0.909,0.017-1.769,0.053-2.577      c-0.412,0.04-0.849,0.062-1.313,0.066c-0.347,0.003-0.686-0.005-1.009-0.023c0.201,1.275,0.314,2.703,0.327,4.261l0.11,13.011      l-0.711,0.006l-0.11-13.011c-0.014-1.582-0.138-3.04-0.356-4.329c-3.902-0.438-5.715-2.472-5.73-4.392      c-0.012-1.303,0.82-2.256,1.977-2.266c0.008,0,0.016,0,0.023,0c2.064,0,3.618,2.243,4.345,6.001      c0.358,0.025,0.741,0.033,1.129,0.033c0.483-0.004,0.933-0.03,1.354-0.074c0.297-5.05,1.341-7.972,3.115-8.702      c1.096-0.452,2.185,0.1,2.841,0.762c0.811,0.82,1.247,2.728,0.455,4.649c-0.533,1.292-1.963,3.344-5.733,3.92      c-0.037,0.812-0.058,1.698-0.057,2.666c0.006,13.069,0.118,14.628,0.122,14.688L342.503,86.952z M335.637,63.66      c-0.006,0-0.011,0-0.017,0c-0.757,0.007-1.28,0.644-1.272,1.549c0.014,1.573,1.56,3.236,4.882,3.667      C338.56,65.657,337.258,63.66,335.637,63.66z M346.406,60.755c-0.185,0-0.371,0.033-0.556,0.109      c-0.887,0.365-2.288,1.917-2.666,7.948c3.317-0.555,4.569-2.335,5.035-3.465c0.651-1.579,0.357-3.211-0.302-3.878      C347.541,61.089,346.987,60.755,346.406,60.755z"/>
				<path style="opacity:0.4;fill:#ffffff;" d="M351.559,55.634c-0.609,1.077-2.496,1.161-4.213,0.189      c-1.717-0.972-2.615-2.633-2.006-3.709c0.609-1.076,2.496-1.161,4.213-0.189C351.27,52.897,352.168,54.558,351.559,55.634z"/>
				<path style="opacity:0.4;fill:#ffffff;" d="M355.264,60.013c0.254,1.155-0.198,2.236-1.008,2.414      c-0.81,0.178-1.673-0.615-1.926-1.77c-0.254-1.156,0.198-2.236,1.008-2.414C354.148,58.065,355.011,58.857,355.264,60.013z"/>
			</g>
			<path style="fill:#da26ff;" d="M340.734,43.912c-0.381,0-0.696-0.301-0.71-0.685l-0.285-7.787     c-0.015-0.392,0.292-0.721,0.684-0.736c0.39-0.012,0.722,0.292,0.736,0.684l0.285,7.787c0.015,0.392-0.292,0.721-0.684,0.736     C340.752,43.911,340.743,43.912,340.734,43.912z"/>
			<g>
				<path style="fill:#da26ff;" d="M324.107,52.165c-0.112,0-0.227-0.027-0.333-0.083l-6.876-3.665      c-0.347-0.185-0.478-0.615-0.293-0.961c0.185-0.346,0.614-0.477,0.961-0.293l6.876,3.665c0.347,0.185,0.477,0.615,0.293,0.961      C324.607,52.028,324.361,52.165,324.107,52.165z"/>
				<path style="fill:#da26ff;" d="M356.692,50.984c-0.238,0-0.47-0.119-0.605-0.336c-0.207-0.333-0.104-0.771,0.229-0.978      l6.62-4.11c0.337-0.207,0.772-0.104,0.979,0.229c0.207,0.333,0.104,0.771-0.229,0.978l-6.62,4.11      C356.949,50.95,356.82,50.984,356.692,50.984z"/>
			</g>
		</g>
		<g>
			<path style="fill:#ffffff;" d="M383.283,106.736c-0.714,5.862-6.044,10.036-11.907,9.323c-5.862-0.714-10.036-6.044-9.323-11.907     c0.714-5.862,6.044-10.036,11.907-9.323C379.823,95.543,383.997,100.874,383.283,106.736z"/>
			<path style="fill:#e0e0e0;" d="M372.692,117.139c-0.477,0-0.956-0.029-1.437-0.087c-3.101-0.377-5.869-1.94-7.794-4.399     c-1.926-2.459-2.778-5.521-2.4-8.622c0.778-6.4,6.618-10.975,13.02-10.195c3.101,0.377,5.869,1.939,7.794,4.399     c1.926,2.459,2.778,5.521,2.4,8.622l0.001,0c-0.378,3.101-1.939,5.869-4.398,7.794     C377.8,116.278,375.291,117.139,372.692,117.139z M372.661,95.75c-4.826,0-9.017,3.613-9.615,8.523     c-0.313,2.57,0.395,5.108,1.99,7.146c1.597,2.038,3.891,3.333,6.462,3.646c2.564,0.311,5.108-0.394,7.147-1.99     c2.039-1.597,3.333-3.891,3.646-6.461c0,0,0.001,0,0.001,0c0.313-2.57-0.394-5.108-1.99-7.146     c-1.597-2.039-3.891-3.334-6.462-3.646C373.443,95.774,373.05,95.75,372.661,95.75z"/>
		</g>
		<g>
			<path style="fill:#ffffff;" d="M392.629,125.424c0,2.328-1.887,4.216-4.216,4.216s-4.216-1.887-4.216-4.216     s1.887-4.216,4.216-4.216S392.629,123.095,392.629,125.424z"/>
			<path style="fill:#e0e0e0;" d="M388.414,130.639c-2.876,0-5.216-2.34-5.216-5.216c0-2.876,2.34-5.216,5.216-5.216     c2.876,0,5.216,2.34,5.216,5.216C393.63,128.299,391.29,130.639,388.414,130.639z M388.414,122.208     c-1.773,0-3.216,1.442-3.216,3.216c0,1.773,1.442,3.216,3.216,3.216c1.773,0,3.216-1.442,3.216-3.216     C391.63,123.65,390.188,122.208,388.414,122.208z"/>
		</g>
	</g>
</g>
</svg>