<?xml version="1.0" encoding="UTF-8"?>
<svg version="1.1" xmlns="http://www.w3.org/2000/svg" width="512" height="512">
<path d="M0 0 C4.69998221 3.81494897 8.90184729 8.19600303 13.16308594 12.484375 C14.44296594 13.75418642 15.72388478 15.02295148 17.00575256 16.29075623 C20.46155518 19.71540238 23.90140395 23.15565082 27.33752346 26.60003281 C30.21786416 29.48455365 33.10577255 32.36143923 35.99359822 35.2384634 C42.81205481 42.03183614 49.61736922 48.83817735 56.41455078 55.65283203 C63.4032395 62.65903171 70.41358373 69.64300564 77.43503928 76.61635399 C83.48459284 82.6260093 89.5203522 88.64927965 95.5454371 94.68346596 C99.13443823 98.27762613 102.72824848 101.86659477 106.33544159 105.44250488 C109.72981011 108.80863027 113.10648149 112.19159624 116.47088432 115.58766365 C117.70031125 116.8230936 118.9355904 118.05273504 120.17742348 119.27569389 C130.50235401 129.45544189 138.41623591 139.69790554 139.19517517 154.7787323 C139.12527558 159.53749848 138.04793095 163.94697789 136.87719727 168.5402832 C136.65281007 169.44980649 136.42842287 170.35932978 136.19723606 171.29641438 C135.47634792 174.20064589 134.74030613 177.10066177 134 180 C133.76375286 180.9303796 133.52750572 181.8607592 133.28409958 182.81933212 C131.53997029 189.67231996 129.75664972 196.5148155 127.96484375 203.35546875 C127.39862921 205.52109851 126.83243186 207.68673276 126.26625061 209.85237122 C125.09065553 214.34614043 123.91298183 218.83935928 122.73413086 223.33227539 C121.22978634 229.0675185 119.73366884 234.80487471 118.23940182 240.54275036 C117.07784287 244.99729465 115.9104867 249.45030489 114.74154854 253.90291786 C114.18727869 256.01810763 113.63511718 258.13385114 113.08518791 260.25017357 C112.31672858 263.20512631 111.54007658 266.15781339 110.76147461 269.11010742 C110.54059174 269.96688583 110.31970886 270.82366425 110.09213257 271.70640564 C106.53069756 285.10274884 101.37521408 295.74061388 89.01953125 303.0625 C83.79630619 305.48720796 78.88091321 306.3598405 73.16796875 306.6015625 C72.42556442 306.63899567 71.6831601 306.67642883 70.91825867 306.71499634 C64.49452767 307.02126592 58.06837389 307.16994183 51.63891602 307.29003906 C-21.3821783 308.66615798 -93.1724768 321.64988068 -162.4375 344.6875 C-163.10625153 344.90966187 -163.77500305 345.13182373 -164.46401978 345.36071777 C-170.44328961 347.35457853 -176.40671403 349.36801444 -182.28613281 351.64233398 C-183.35372581 352.05374382 -183.35372581 352.05374382 -184.44288635 352.47346497 C-185.79803627 352.99975714 -187.15030469 353.53355948 -188.49888611 354.07646179 C-195.6568827 356.86311122 -202.46223022 357.43496742 -209.81640625 355.109375 C-215.36236844 352.62980919 -219.86178278 349.26923634 -223 344 C-227.58717309 331.84103357 -224.34743743 321.43851046 -219.95941162 309.86984253 C-218.72347679 306.60422432 -217.53985062 303.32039185 -216.35321045 300.03660583 C-215.75144475 298.37145055 -215.14764945 296.70702732 -214.54180908 295.04335022 C-188.8594104 224.43705405 -177.14826515 148.35873895 -176.37792969 73.41137695 C-176.1811235 57.14808938 -175.54336283 43.00323971 -163.453125 30.88671875 C-157.19202437 26.07125442 -150.56189997 23.23162699 -142.94555664 21.34033203 C-142.08867752 21.11676025 -141.2317984 20.89318848 -140.34895325 20.6628418 C-137.53891518 19.93272219 -134.72472209 19.22025814 -131.91015625 18.5078125 C-129.92235142 17.99477071 -127.93484325 17.48057824 -125.94761658 16.96530151 C-120.7177857 15.61231914 -115.48429784 14.27407117 -110.24981689 12.93920898 C-105.01405854 11.60171992 -99.7814874 10.25189728 -94.54882812 8.90234375 C-88.49159331 7.34047197 -82.43418396 5.7793419 -76.37490845 4.22540283 C-64.68352839 1.22497363 -53.00931351 -1.82487877 -41.37501526 -5.04074097 C-25.90025728 -9.28894221 -13.6452108 -9.0523367 0 0 Z M-74 119 C-74.55300781 119.51820313 -75.10601562 120.03640625 -75.67578125 120.5703125 C-79.4632134 124.47004048 -81.80399678 129.13508873 -84.25 133.9375 C-84.5917627 134.60595947 -84.93352539 135.27441895 -85.28564453 135.96313477 C-91.77136503 149.21087328 -92.33621476 165.58235588 -87.9375 179.625 C-82.59104739 195.10723557 -71.64557305 207.65343819 -57 215 C-56.2265625 215.38800781 -55.453125 215.77601563 -54.65625 216.17578125 C-41.6555483 222.29768702 -25.72027346 223.36403437 -11.875 219.375 C-1.24667816 215.43909243 6.98171238 209.98995445 15 202 C15.56460938 201.45859375 16.12921875 200.9171875 16.7109375 200.359375 C27.25857371 189.3094704 31.52691633 173.39171552 31.42211914 158.50219727 C30.80583241 140.41165594 22.83570557 126.27381422 10 114 C-3.52512778 102.4941759 -19.36341058 98.98963036 -36.64941406 99.8046875 C-51.55295912 101.04303773 -63.64226363 108.69726046 -74 119 Z " fill="#000000" transform="translate(225,156)"/>
<path d="M0 0 C8.50805225 6.83682209 16.06048891 14.94108694 23.74412346 22.66895866 C26.00745305 24.94519605 28.27401843 27.21816803 30.54139709 29.4903717 C35.34293742 34.30325528 40.14049557 39.12009606 44.9375 43.9375 C50.52390848 49.5475326 56.11194956 55.15591911 61.70419502 60.76013374 C63.93700686 62.99942607 66.16678808 65.24170652 68.39646912 67.4841156 C69.75887577 68.85015299 71.12142201 70.21605118 72.48413086 71.58178711 C73.41218788 72.51759361 73.41218788 72.51759361 74.35899353 73.4723053 C75.21436707 74.32778458 75.21436707 74.32778458 76.08702087 75.20054626 C76.58009704 75.69584304 77.0731732 76.19113981 77.58119106 76.70144558 C79.17656862 78.22790336 79.17656862 78.22790336 82 80 C82 80.66 82 81.32 82 82 C82.99 82.33 83.98 82.66 85 83 C85 83.66 85 84.32 85 85 C86.32 85.66 87.64 86.32 89 87 C89 87.66 89 88.32 89 89 C89.99 89.33 90.98 89.66 92 90 C92 90.66 92 91.32 92 92 C93.32 92.66 94.64 93.32 96 94 C96 94.66 96 95.32 96 96 C96.99 96.33 97.98 96.66 99 97 C99 97.66 99 98.32 99 99 C99.99 99.33 100.98 99.66 102 100 C102 100.66 102 101.32 102 102 C102.99 102.33 103.98 102.66 105 103 C105 103.66 105 104.32 105 105 C105.99 105.33 106.98 105.66 108 106 C108 106.66 108 107.32 108 108 C108.99 108.33 109.98 108.66 111 109 C111 109.66 111 110.32 111 111 C111.57908615 111.25475098 112.1581723 111.50950195 112.75480652 111.77197266 C115.24190441 113.13231164 116.9129033 114.65221802 118.9230957 116.6484375 C119.68100906 117.39681885 120.43892242 118.1452002 121.21980286 118.91625977 C122.03027573 119.72764404 122.8407486 120.53902832 123.67578125 121.375 C124.5191655 122.21409912 125.36254974 123.05319824 126.23149109 123.91772461 C128.01682401 125.69731326 129.79953996 127.47953061 131.57983398 129.26416016 C134.28308043 131.97054626 136.99930239 134.66339909 139.71679688 137.35546875 C141.45393675 139.0903334 143.19028986 140.82598628 144.92578125 142.5625 C145.73018143 143.35769043 146.5345816 144.15288086 147.36335754 144.97216797 C156.25489589 153.9358795 164.21223933 163.41090096 164.52050781 176.4934082 C164.29000158 201.85732623 143.78967643 216.44118884 127.0456543 233.24951172 C124.44660419 235.85970076 121.85948308 238.48140064 119.27466488 241.10567284 C117.24884494 243.15783336 115.214001 245.20087105 113.17675972 247.24168777 C111.76192225 248.66362283 110.35672761 250.09513246 108.95188904 251.52694702 C99.0933732 261.35273987 89.60078547 268.19580761 75.3125 268.4375 C55.41279027 268.36151175 43.63144534 252.78372455 30.55761719 239.76635742 C29.1276334 238.34593219 27.69748345 236.92567421 26.2671814 235.50556946 C21.60655806 230.87607068 16.95125127 226.24124705 12.296875 221.60546875 C11.50215569 220.81404677 10.70743639 220.02262478 9.88863468 219.20722032 C2.38327501 211.73260509 -5.12005201 204.25595495 -12.61854935 196.77445507 C-22.17554022 187.23939275 -31.74246647 177.71454602 -41.32315183 168.20329016 C-48.08041121 161.49333155 -54.82608365 154.77186153 -61.56336093 148.04184037 C-65.57904491 144.0310985 -69.59957329 140.02551863 -73.63266754 136.03227806 C-77.42490496 132.27703257 -81.20251876 128.507661 -84.96967697 124.7272625 C-86.34870956 123.34828362 -87.7328272 121.97436695 -89.12253952 120.60615158 C-99.40073516 110.47842768 -108.16941009 100.73642593 -108.3125 85.5 C-108.33009146 68.12550314 -98.41702986 58.11566741 -86.75015831 46.41643715 C-86.19709826 45.8626457 -85.6440382 45.30885426 -85.07421875 44.73828125 C-83.9197663 43.5773846 -82.76545688 42.41634569 -81.61128235 41.25517273 C-79.20344589 38.83543465 -76.79158737 36.41978984 -74.37719727 34.0065918 C-71.3042288 30.93382678 -68.24527372 27.84750935 -65.18965435 24.75750446 C-62.81402096 22.3595015 -60.42921783 19.9707778 -58.04184914 17.58446312 C-56.91085899 16.45113446 -55.78305918 15.31461161 -54.65872765 14.1746769 C-40.4129954 -0.25024526 -19.84980287 -12.23131548 0 0 Z " fill="#000000" transform="translate(348,4)"/>
</svg>
