<svg xmlns="http://www.w3.org/2000/svg" version="1.2" viewBox="0 0 500 500" width="2000" height="2000">
	<title>33462719_8046142 (1)</title>
	<style>
		.s0 { opacity: .05;fill: #da26ff } 
		.s1 { opacity: .1;fill: #000000 } 
		.s2 { fill: #263238 } 
		.s3 { fill: #37474f } 
		.s4 { fill: #fafafa } 
		.s5 { fill: #455a64 } 
		.s6 { fill: #da26ff } 
		.s7 { opacity: .4;fill: #ffffff } 
		.s8 { opacity: .2;fill: #000000 } 
		.s9 { opacity: .5;fill: #ffffff } 
	</style>
	<g id="Circle_00000097477729433031618590000009742825940988654003_">
		<path id="Circle" class="s0" d="m250 446.6c-108.7 0-196.6-87.9-196.6-196.6 0-108.7 87.9-196.6 196.6-196.6 108.7 0 196.6 87.9 196.6 196.6 0 108.7-87.9 196.6-196.6 196.6z" fill="#000000"/>
	</g>
	<g id="Shadows">
		<path id="Shadow_49_" class="s1" d="m119.4 194.2l3.7-2.4-3.9-2.2-1.3-0.7c-0.4-0.2-1.3-0.8-1.3-0.8-2.5-1.4-7-4-8.6-5.5 0.6-0.2 1.4-0.5 2.6-0.6q2.8-0.4 4.6-1.4c1.8-1 2.8-2.7 2.8-4.5 0-2-1.3-3.8-3.4-5-1.8-1.1-3.9-1.6-6.2-1.6-1.9 0-3.6 0.4-5 1.2-1.4 0.9-2.5 2.1-3 3.5 0 0-0.5 1.2-2.3 1.3q-0.2 0.1-0.3 0.1c-2.9 0-7-2.4-13-5.9l-2.9-1.7-1.3 0.7c-12.1 6.2-15.9 9.1-16.2 12.2v0.1 0.2c0 1.3 0.7 4.3 6.8 4.5 1 0 1.7 0.2 2.1 0.3-0.3 0.3-0.7 0.8-1.5 1.2-1.5 0.9-3.5 1.5-5.2 1.5-1.2 0-1.7-0.3-1.9-0.4-0.2-0.1-0.2-0.1-0.2-0.2-0.2-2.3-2.2-4.7-5.8-4.7h-0.2c-3.8 0.1-9.5 3.3-18.5 8.7q-0.9 0.5-1.8 1l-4.4 2.7 4.7 2.6q1.9 1.1 3.7 2.1c2.7 1.5 5.9 3.2 7.4 4.4-0.6 0.2-1.4 0.4-2.4 0.6q-2.8 0.3-4.6 1.4c-1.8 1-2.8 2.6-2.8 4.4 0 2 1.2 3.8 3.4 5.1 1.7 1 3.9 1.5 6.1 1.5 2 0 3.7-0.4 5.1-1.2 1.4-0.8 2.5-2 3-3.5 0 0 0.4-1.2 2.3-1.3h0.3c2.2 0 5.3 1.8 9.6 4.4 1.3 0.8 2.8 1.7 4.4 2.7l1.3 0.7 1.3-0.7c14.3-7.3 18.3-10.2 18.6-13.1v-0.2-0.2c0-1.3-0.7-4.2-6.8-4.5-1.1 0-1.8-0.2-2.1-0.3 0.2-0.3 0.7-0.7 1.5-1.2 1.5-0.9 3.5-1.4 5.2-1.4 1.2 0 1.7 0.2 1.9 0.3 0.1 0.1 0.1 0.2 0.1 0.2 0.3 2.3 2.2 4.8 5.9 4.8h0.2c4.2-0.1 9.7-3.6 18.3-9.2z" fill="#000000"/>
		<path id="Shadow_48_" class="s1" d="m368 403.6c-3.2-1.6-6.9-3.4-9-4.8q0.4 0 0.9 0 2.8-0.1 4.6-1.2c1.5-0.9 2.4-2.3 2.3-4 0-2.1-1.6-4.1-4.1-5.6-2.2-1.2-5-2-7.4-2q-2.4 0-4 0.9c-1.5 0.9-2.4 2.3-2.6 4-0.1 0.3-0.6 0.4-1.3 0.4-2.2-0.1-5.5-2.4-9.7-5.3-1.4-0.9-2.9-1.9-4.6-3l-1.3-0.9-1.5-0.9-1.2 0.7-0.2 0.2c-1.5 0.9-3 1.7-4.6 2.5-6.7 3.8-10.5 5.8-10.4 9.1q0 0.2 0 0.5c0.5 3.2 4.6 4.2 7 4.5 1.7 0.2 2.7 0.6 3.1 0.8q0.2 0.2 0.3 0.3c-0.1 0.1-0.4 0.4-0.9 0.6-1 0.6-2.5 1-3.9 1-1.2 0-2.3-0.2-2.9-0.6-0.4-0.2-0.8-0.5-1-1-0.7-1.9-2.7-4.3-6.3-4.5q-0.2 0-0.4 0c-3.5 0-6.9 2.1-12.2 5.3q-1.9 1.1-4.3 2.5l-3.9 2.3 47.6 27.5 1.3-0.8q1.8-1 3.3-1.9l1.1-0.7c4.4-2.6 7.5-4.5 9.8-4.5h0.3c1.8 0.1 2.3 1.3 2.3 1.3 0.5 1.5 1.6 2.7 3 3.5 1.4 0.8 3.1 1.2 5.1 1.2 2.2 0 4.4-0.5 6.1-1.5 2.2-1.3 3.5-3.2 3.4-5.2 0-1.8-1.1-3.4-2.8-4.3q-1.8-1.1-4.6-1.4c-1-0.2-1.8-0.4-2.4-0.6 1.5-1.1 4.7-2.9 7.3-4.3q2.2-1.2 4.5-2.6l4.3-2.5-4.4-2.2q-2.9-1.4-5.7-2.8z" fill="#000000"/>
		<path id="Shadow_42_" class="s1" d="m196.3 123.2c-2.9-1.4-6.3-3.1-8.3-4.3q0.4-0.1 0.9-0.1 2.9-0.1 4.6-1.1c1.5-0.9 2.4-2.3 2.4-3.9 0-2.1-1.5-4.2-4.2-5.7-2.2-1.3-4.9-2-7.3-2q-2.4 0-4.1 0.9c-1.4 0.9-2.4 2.3-2.6 4 0 0.2-0.5 0.4-1.2 0.4h-0.1c-2.1-0.1-5.5-2.5-9.5-5.3l-0.6-0.5c-1.7-1.1-3.5-2.4-5.5-3.7l-1.4-0.9-1.4 0.8q-2.1 1.2-4 2.2l-0.4 0.2c-7.2 4-11.1 6.2-10.5 9.7 0.5 3.3 4.6 4.2 7 4.5 1.7 0.2 2.6 0.6 3 0.9q0.2 0.1 0.3 0.2c-0.1 0.1-0.4 0.4-0.8 0.7-1 0.6-2.5 0.9-4 0.9-1.1 0-2.2-0.2-2.9-0.6-0.4-0.2-0.8-0.5-0.9-1-0.7-1.9-2.8-4.2-6.3-4.4q-0.3 0-0.5 0c-3.5 0-6.9 2-12 5l-1.1 0.7q-1.4 0.9-3.1 1.8l-3.7 2.2 5.3 3.5c7.5 4.9 12.5 8.2 16.6 8.3h0.3c3.6 0 5.5-2.5 5.8-4.8 0 0 0-0.1 0.2-0.2 0.1-0.1 0.6-0.3 1.8-0.3 1.7 0 3.7 0.5 5.2 1.4 0.8 0.5 1.3 0.9 1.6 1.2-0.4 0.2-1.1 0.3-2.2 0.4-1.9 0-4.4 0.4-5.8 2-0.7 0.8-1 1.8-0.9 2.8 0.2 3 4 5.7 17.6 12.7l1.3 0.7 1.2-0.7q2.3-1.3 4.4-2.5c6.7-3.7 10.7-5.9 10.1-9.4-0.5-3.2-4.6-4.2-7-4.5-1.7-0.2-2.6-0.6-3-0.8q-0.3-0.2-0.4-0.3c0.2-0.1 0.4-0.4 0.9-0.6 1-0.6 2.5-1 3.9-1 1.2 0 2.3 0.2 3 0.7 0.3 0.1 0.7 0.4 0.9 0.9 0.7 1.9 2.8 4.3 6.3 4.5q0.2 0 0.5 0c3.4 0 6.8-2.1 11.9-5.2l1-0.6q1.7-1 3.7-2.2l4.2-2.4-4.4-2.2c-2-1.1-3.9-2-5.8-3z" fill="#000000"/>
		<path id="Shadow_35_" class="s1" d="m470 236.2c-7.3-3.8-12-6.5-14.1-8.2q0.6-0.1 1.3-0.1c1.9-0.1 3.5-0.4 4.6-1.1 1.5-0.9 2.3-2.3 2.3-3.9 0-2.1-1.5-4.2-4.1-5.7-2.2-1.3-5-2-7.4-2q-2.4 0-4 0.9c-1.5 0.9-2.4 2.3-2.6 3.9-0.1 0.3-0.5 0.5-1.3 0.5-3.3-0.1-9.4-4.1-16.5-8.7l-1.5-0.9-1.5 0.9q-2.3 1.3-4.1 2.5-1.7 0.9-3 1.7c-2.9 1.7-5 2.7-6.8 2.7q-0.2 0-0.3 0c-1.5-0.1-2.2-0.9-2.4-1.4-0.5-1.4-1.5-2.7-2.9-3.4-1.4-0.8-3.2-1.3-5.1-1.3-2.2 0-4.4 0.6-6.1 1.6-2.1 1.2-3.4 3-3.4 5-0.1 1.8 0.9 3.5 2.8 4.5q1.9 1.1 4.6 1.4c1 0.1 1.8 0.3 2.4 0.6-1.5 1.1-4.7 2.9-7.4 4.4q-2.1 1.2-4.4 2.5l-3.8 2.1 3.7 2.4c9.8 6.4 15.9 9.9 20 10h0.2c3.6 0 5.5-2.5 5.8-4.8q0-0.1 0.2-0.2c0.1-0.1 0.7-0.3 1.8-0.3 1.7 0 3.7 0.5 5.3 1.4 0.8 0.5 1.2 0.9 1.5 1.2-0.4 0.1-1.1 0.3-2.2 0.3-6.2 0.3-6.7 3.6-6.7 4.5v0.2 0.2c0.3 3.2 4.4 5.8 16.6 12.1l1.2 0.6 1.3-0.7q2.2-1.2 4.4-2.4c6.8-3.8 10.6-5.9 10.6-9.1q0-0.3 0-0.6c-0.6-3.3-4.7-4.2-7.1-4.5-1.8-0.2-2.7-0.7-3-0.9q-0.2-0.1-0.3-0.2c0.1-0.1 0.4-0.4 0.8-0.7 1.1-0.6 2.5-0.9 4-0.9 1.2 0 2.2 0.2 2.9 0.6 0.4 0.2 0.8 0.5 0.9 1 0.7 1.9 2.8 4.2 6.3 4.4q0.3 0 0.5 0c3.6 0 7-2 12.1-5.1q1.8-1.1 4-2.4l4.3-2.4z" fill="#000000"/>
		<path id="Shadow_30_" class="s1" d="m465.2 346c-3.8-2-10.4-5.4-13-7.5q0.5-0.1 1.3-0.1 2.8-0.1 4.6-1.2c1.6-0.8 2.4-2.3 2.3-4 0-2.1-1.5-4.1-4.1-5.6-2.2-1.2-4.9-2-7.3-2q-2.5 0-4.1 1c-1.5 0.8-2.4 2.2-2.6 3.9 0 0.2-0.4 0.4-1.3 0.4-3.4-0.1-11.1-5.1-17.3-9.1l-1.4-0.9-41.5 24 4.3 2.2c7.8 4 11.3 6.3 12.8 7.6q-0.6 0.1-1.4 0.1-2.8 0.1-4.6 1.1c-1.5 0.9-2.3 2.3-2.3 3.9 0 2.1 1.5 4.2 4.2 5.8 2.1 1.2 4.9 2 7.3 2q2.4 0 4-1c1.5-0.9 2.5-2.3 2.7-3.9 0-0.3 0.5-0.4 1.2-0.4 2.9 0 8.5 3.3 15.5 7.5h0.1q1.2 0.7 2.4 1.5l1.4 0.7 1.3-0.7c2.5-1.5 4.8-2.6 7.2-3.7 5.1-2.4 8.4-3.9 7.9-7.2-0.5-3.3-4.6-4.3-7-4.5-1.7-0.3-2.7-0.7-3.1-0.9q-0.2-0.1-0.3-0.2c0.1-0.2 0.4-0.4 0.8-0.7 1.1-0.6 2.5-1 4-1 1.2 0 2.3 0.3 2.9 0.7 0.4 0.2 0.8 0.5 0.9 0.9 0.7 2 2.8 4.3 6.3 4.5q0.3 0 0.5 0c3 0 5.6-1.8 8.9-4.2 1.7-1.2 3.9-2.8 6.6-4.4l4.2-2.4z" fill="#000000"/>
		<path id="Shadow_00000128454781544475171550000008963430251409424297_" class="s1" d="m110.3 310.5c-3.8-2-10.5-5.4-13-7.5q0.5-0.1 1.3-0.1 2.8-0.1 4.6-1.1c1.5-0.9 2.4-2.4 2.3-4 0-2.1-1.6-4.2-4.2-5.6-2.1-1.3-4.9-2.1-7.3-2.1q-2.4 0-4 1c-1.5 0.8-2.4 2.2-2.7 3.9 0 0.2-0.4 0.4-1.2 0.4-3.4-0.1-11.1-5.1-17.4-9.1l-1.3-0.9-41.5 24 4.3 2.2c7.8 4 11.3 6.3 12.8 7.6q-0.6 0.1-1.4 0.1-2.9 0.2-4.6 1.1c-1.5 0.9-2.3 2.3-2.3 3.9 0 2.1 1.5 4.2 4.1 5.8 2.2 1.2 4.9 2 7.3 2q2.5 0 4.1-1c1.5-0.8 2.4-2.2 2.6-3.9 0.1-0.2 0.5-0.4 1.3-0.4 2.9 0.1 8.4 3.3 15.5 7.5l0.1 0.1q1.1 0.7 2.4 1.4l1.3 0.8 1.4-0.8c2.5-1.4 4.8-2.5 7.2-3.7 5-2.3 8.4-3.9 7.8-7.2-0.5-3.3-4.6-4.2-7-4.5-1.7-0.2-2.6-0.6-3-0.9q-0.2-0.1-0.3-0.2c0.1-0.1 0.3-0.4 0.8-0.7 1.1-0.6 2.5-0.9 4-0.9 1.1 0 2.2 0.2 2.9 0.6 0.3 0.2 0.8 0.5 0.9 0.9 0.7 2 2.8 4.3 6.3 4.5q0.2 0 0.4 0c3 0 5.6-1.8 8.9-4.1 1.8-1.3 4-2.9 6.7-4.4l4.2-2.5z" fill="#000000"/>
	</g>
	<g id="Puzzle_00000114049627822448816420000011812746962525815461_">
		<g id="Puzzle">
			<g>
				<path class="s2" d="m378.4 264.6c-8-4.7-15.7-9.1-23.5-13.5-2.3-1.2-5.3-2-7.8-1-1.8 0.8-2.8 2.3-4.3 3.4-1.8 1.4-3.3 3.2-5.8 3.9-1.5 0.5-3.2 0.7-4.9 0.7v-18.3c-0.1-0.9-0.7-1.9-2.2-2.9-5.7-3.8-12.2-7.3-18.6-11.1-6.9 4-13.3 7.7-20.1 11.6v18.7c3.2 0.8 6.1 1.8 8.6 2.9-1.7 0.6-3.6 1-5.5 1.1-12.2 1-20.3-2.8-25.8-9.6-5.4 3.1-10.3 6-15.5 8.9v18.7c0.9 0.6 1.7 1.2 2.6 1.7q2 1.1 4 2.2-0.2 0.6-0.2 1.2v18.6c0 1.3 0.6 2.6 1.8 3.8 3.8 3.9 12 5.9 17.3 3.9 2.6-1 4.4-2.9 5.7-4.6 2.7-3.4 7.9-4 13.4-1.1 1 0.5 1.9 1 2.8 1.6 6.6 3.7 13.1 7.5 19.9 11.4 5-2.8 9.4-5.4 13.9-7.9 6.3-3.6 11.9-2.6 16 2.7 2.2 2.9 6.6 4.8 11.4 5.1 5.2 0.2 10.2-1.8 11.6-4.6q0.5-0.9 0.5-1.8v-18.7c0-1.4-0.9-2.9-2.4-4.2q3.5-2.1 7.1-4.2c0 0 0-18.6 0-18.6z" fill="#000000"/>
				<path class="s3" d="m320.3 298.2v18.6c-6.8-3.9-13.3-7.7-19.9-11.4-0.9-0.6-1.8-1.1-2.8-1.6-2.1-1.1-4.2-1.7-6.1-1.8v-18.7c1.9 0.1 4 0.7 6.1 1.9 1 0.5 1.9 1 2.8 1.5 6.6 3.8 13.1 7.6 19.9 11.5z" fill="#000000"/>
				<g>
					<path class="s4" d="m300.6 286.3q-0.4-0.3-0.9-0.5-0.9-0.6-1.8-1.1c-2.4-1.2-4.9-1.9-7.1-1.9-2.9 0-5.4 1.1-7 3.2-1.2 1.5-2.9 3.4-5.4 4.4q-2.1 0.7-4.7 0.7c-4.5 0-9.5-1.8-12.1-4.5-1.4-1.4-2-2.9-1.6-4.3 0.6-1.8 2.6-3.3 5.7-4 6.1-1.5 8.5-2.7 8.8-4.5 0.2-1.7-1.7-3.5-6.6-6.4-2.4-1.4-4.9-2.7-7.3-4.1q-2.4-1.3-4.8-2.6c-0.6-0.3-1.1-0.7-1.7-1.1q-0.1-0.1-0.2-0.1l14.5-8.4c5.4 6.5 12.6 9.7 22.1 9.7q1.8 0 3.8-0.2c8-0.6 14.1-4.8 14.5-9.8 0.4-6-4.8-10.3-16.3-13.5l18.8-10.9q2.8 1.6 5.6 3.2c4.5 2.6 8.7 5.1 12.7 7.8 1.4 0.9 2.1 1.9 1.9 2.7-0.2 1.2-2.3 2.2-5.5 2.6-4.3 0.6-7.6 2.6-8.7 5.3-0.6 1.5-0.3 3.2 0.8 4.7 2.8 3.5 8.5 5.9 14.2 5.9q2.6 0 4.8-0.7c2-0.5 3.3-1.7 4.5-2.8 0.5-0.4 1-0.8 1.5-1.2 0.5-0.4 1-0.9 1.5-1.3 0.8-0.8 1.6-1.5 2.7-2q1.1-0.4 2.4-0.4c1.5 0 3.3 0.5 5 1.4 5.6 3.1 11 6.2 16.7 9.5q3 1.7 6 3.5l-12.2 7.1q-1.1 0.6-2.1 1.2c-1.6 0.9-3.2 1.8-4.7 2.8-2.2 1.4-2.5 2.9-2.4 3.8 0.3 1.9 2.5 3.6 6.2 4.8q1 0.2 1.9 0.5c1.5 0.4 3.1 0.8 4.4 1.4 2.3 1.1 3.9 2.6 4.5 4.3 0.3 0.9 0.3 1.9-0.2 2.7-1.3 2.5-5.7 4.3-10.4 4.3q-0.4 0.1-0.8 0c-4.6-0.2-8.9-2.1-11-4.9-2.6-3.3-5.8-5-9.3-5-2.3 0-4.8 0.7-7.3 2.2-3.1 1.7-6.2 3.5-9.4 5.4l-4.3 2.4z" fill="#000000"/>
					<path class="s5" d="m311.3 225.8c-6.9 4-13.3 7.7-20.1 11.6 10.7 2.8 17.5 6.8 17.1 13.3-0.4 4.8-6.3 8.8-14 9.4q-2 0.2-3.8 0.2c-10.1 0-17.1-3.7-22-9.8-5.4 3.1-10.3 6-15.5 8.9 0.9 0.7 1.7 1.2 2.6 1.7 4 2.3 8.1 4.5 12 6.8 9.1 5.2 8.6 7.4-2 9.9-6 1.4-8 5.5-4.4 9.2 2.8 2.8 7.9 4.6 12.5 4.6 1.7 0 3.4-0.2 4.8-0.8 2.6-0.9 4.4-2.8 5.7-4.5 1.5-2 3.9-3 6.6-3 2.1 0 4.5 0.6 6.8 1.9 1 0.5 1.9 1 2.8 1.5 6.5 3.8 13.1 7.6 19.9 11.5 5-2.8 9.4-5.4 13.9-8q3.8-2.1 7.1-2.1c3.4 0 6.4 1.6 8.9 4.8 2.2 3 6.6 4.9 11.4 5.1q0.4 0 0.8 0c4.9 0 9.5-1.9 10.8-4.5 1.4-2.6-0.3-5.8-4.5-7.7-1.9-0.9-4.2-1.4-6.3-2-6.1-1.9-7.7-5.1-3.8-7.7 2.2-1.4 4.6-2.6 6.8-4 4.3-2.4 8.5-4.9 13-7.5-8-4.6-15.7-9.1-23.5-13.5-1.5-0.8-3.4-1.4-5.2-1.4-0.9 0-1.8 0.1-2.6 0.4-1.8 0.8-2.8 2.3-4.3 3.4-1.8 1.4-3.3 3.2-5.8 3.9-1.5 0.5-3.1 0.7-4.7 0.7-5.4 0-11.1-2.3-13.8-5.8-3-3.7 0.7-8.1 7.6-9.1 5.9-0.8 7.9-3.5 3.8-6.3-5.7-3.8-12.2-7.3-18.6-11.1zm0 1.1c1.8 1.1 3.6 2.1 5.3 3.1 4.5 2.7 8.8 5.1 12.7 7.8 1.2 0.8 1.9 1.6 1.7 2.2-0.1 0.8-1.8 1.8-5 2.2-4.5 0.7-8 2.8-9.2 5.6-0.7 1.7-0.3 3.6 0.9 5.2 2.9 3.6 8.8 6.1 14.6 6.1q2.7 0 5-0.7c2-0.6 3.3-1.8 4.6-2.9q0.8-0.7 1.5-1.2c0.6-0.4 1-0.9 1.5-1.3 0.8-0.8 1.6-1.5 2.6-1.9q1-0.4 2.2-0.4c1.4 0 3.2 0.5 4.7 1.3 5.6 3.2 11.1 6.3 16.9 9.6q2.5 1.5 5.1 3l-11.5 6.7q-1 0.6-2.1 1.2c-1.6 0.9-3.2 1.8-4.7 2.8-2.4 1.6-2.7 3.2-2.6 4.3 0.3 2.1 2.7 3.9 6.6 5.1q0.9 0.3 1.9 0.6c1.5 0.4 3 0.8 4.2 1.4 2.3 1 3.8 2.4 4.3 3.9q0.4 1.3-0.1 2.4c-1.2 2.3-5.5 4-10 4q-0.4 0-0.8 0c-4.5-0.2-8.6-2-10.6-4.7-2.7-3.4-6-5.2-9.7-5.2-2.4 0-5 0.8-7.6 2.2-3.1 1.8-6.1 3.6-9.3 5.4q-2 1.2-4.1 2.3l-4.7-2.7-14.7-8.4q-0.5-0.3-0.9-0.6-0.9-0.5-1.9-1c-2.5-1.3-5-2-7.3-2-3.1 0-5.7 1.2-7.4 3.4-1.1 1.5-2.8 3.3-5.2 4.2q-2 0.7-4.5 0.7c-4.4 0-9.3-1.8-11.8-4.3-0.9-0.9-1.8-2.3-1.4-3.9 0.5-1.6 2.4-2.9 5.3-3.6 6.4-1.5 8.9-2.9 9.2-4.9 0.3-1.9-1.7-3.9-6.9-6.9-2.4-1.4-4.9-2.8-7.3-4.1q-2.4-1.3-4.7-2.6-0.6-0.4-1.2-0.8l13.4-7.7c5.4 6.4 12.7 9.5 22.2 9.5q1.9 0 3.8-0.2c8.3-0.7 14.6-5 15-10.3 0.5-7.7-8-11.5-15.5-13.7l7.3-4.2z" fill="#000000"/>
				</g>
				<path class="s3" d="m358.7 297.7v18.6c-3.6-0.7-6.8-2.4-8.5-4.7-2.4-3.1-5.4-4.7-8.6-4.8v-18.7c3.2 0.1 6.2 1.7 8.6 4.8 1.7 2.3 4.9 4.1 8.5 4.8z" fill="#000000"/>
				<path class="s3" d="m265.6 277.8c-3.3 0.8-5.4 2.3-6 4.2q-2-1.1-4-2.2c-0.9-0.5-1.7-1.1-2.6-1.7v-18.7c0.9 0.7 1.7 1.2 2.6 1.7 4 2.3 8.1 4.5 12 6.8 9.1 5.2 8.6 7.4-2 9.9z" fill="#000000"/>
				<path class="s3" d="m308.3 250.7c-0.3 3.5-3.6 6.7-8.5 8.3-2.5-1.1-5.4-2.1-8.6-2.9v-18.7c10.7 2.8 17.5 6.8 17.1 13.3z" fill="#000000"/>
				<path class="s2" d="m332.1 239.8v18.3c-5.3-0.1-10.9-2.3-13.6-5.8-3-3.7 0.7-8.1 7.6-9.1 3.8-0.5 6-1.8 6-3.4z" fill="#000000"/>
			</g>
			<g>
				<path class="s3" d="m235.7 255.3q0.3-0.7 0.3-1.4v-18.3q0-0.1 0-0.2 0-1.7-1.8-3.6c-2.8-2.9-7-4.9-12.7-4.9-5.1-0.1-8.4 1.4-10 4.1-3 5.2-8 5.6-15.6 1.3-6.9-3.9-13.8-7.9-21-12-4.8 2.8-9.5 5.6-14.3 8.3-5.4 3.1-11.5 2.1-15.1-2.5-2.8-3.8-7.8-5.8-13.4-5.6-5.4 0.1-10.1 2.7-10.5 5.8q0 0.2 0 0.5v0.1q0 0 0 0v18.6c0 1.5 0.9 3 2.5 4.2q-3.6 2.1-7.3 4.2v18.6c7.2 4.1 14.1 8.1 20.9 12.1 7 4 12 3.7 14.8-1.2 1.7-2.9 5.8-4.6 10.9-4.4q0.1 0.1 0.2 0.1v17.9q-0.1 0.5 0.2 1.3c0.6 1.3 2.7 2.7 4.5 3.8 5.1 3.1 10.4 6.1 15.7 9.3 6.9-4 13.4-7.8 20.1-11.6v-18.6c-3.1-1.2-5.6-2.3-7.8-3.3q2.5-0.8 5.4-1c12.1-0.9 19.6 3.2 25.1 9.7 5.3-3.1 10.4-6 15.5-9v-18.6q-3.3-1.9-6.6-3.7z" fill="#000000"/>
				<path class="s2" d="m184 292.7l20.1-11.5v18.6l-20.1 11.6z" fill="#000000"/>
				<path class="s2" d="m170.5 275c-5.7 1.1-7.8 2.2-6.7 4.6l-0.2 0.4v-0.9q-0.1 0-0.2-0.1c-5.1-0.2-9.2 1.5-10.9 4.4q-2.1 3.7-5.9 4v-18.7q3.8-0.3 5.9-3.9c1.7-3 5.8-4.7 10.9-4.4 5.8 0.3 10.2 2.2 12.9 5.2 3.6 4 0.9 8.1-5.8 9.4z" fill="#000000"/>
				<g>
					<path class="s4" d="m184 292.2q-2.2-1.3-4.3-2.5c-3.9-2.3-7.5-4.4-11.1-6.6-1.8-1.2-3.8-2.5-4.3-3.7-0.4-0.8-0.2-1.2-0.1-1.5 0.5-1 2.4-1.7 6.4-2.4 4-0.8 6.8-2.6 7.6-4.9 0.4-1.2 0.5-3.1-1.5-5.3-2.9-3.2-7.5-5.1-13.3-5.4q-0.5 0-1.1 0c-4.8 0-8.5 1.7-10.2 4.7-1.5 2.4-3.5 3.6-6.1 3.6-2.2 0-4.9-0.9-8-2.7-4.7-2.7-9.5-5.5-14.3-8.3l-5.9-3.3q2.6-1.5 5.1-2.9 6.5-3.8 13-7.6c3-1.7 3.5-3.4 3.3-4.5-0.2-2-2.8-3.7-7.4-5l-0.8-0.2c-5.9-1.6-9.3-4.4-8.9-7.3 0.4-2.8 4.9-5.3 10.1-5.4q0.3-0.1 0.6-0.1c5.2 0 9.7 2 12.3 5.5 2.2 2.9 5.5 4.5 9.1 4.5 2.2 0 4.5-0.7 6.7-1.9 3.3-1.9 6.5-3.8 9.8-5.7l4.2-2.4 6.3 3.5c4.9 2.9 9.7 5.6 14.5 8.4 3.5 2 6.5 3 9 3 3.1 0 5.5-1.5 7.3-4.5 1.5-2.6 4.6-3.9 9.2-3.9h0.3c5.2 0 9.3 1.6 12.3 4.8q1.9 1.9 1.7 3.5-0.2 1.5-2.2 2.7c-1.3 0.9-3.3 1.6-6.1 2.2-3.8 0.8-6 2.1-6.3 3.9q-0.4 2.5 3.9 5c3.8 2.3 7.7 4.5 11.8 6.9q2.3 1.3 4.7 2.6l-14.4 8.3c-5.8-6.6-12.8-9.7-22-9.7q-1.6 0-3.3 0.2c-8 0.5-14.2 4.4-15.1 9.4-0.9 5.4 2.6 8.5 16.4 14z" fill="#000000"/>
					<path class="s5" d="m174.9 220.3c-4.8 2.8-9.5 5.6-14.3 8.3-2.1 1.2-4.3 1.8-6.4 1.8-3.4 0-6.5-1.5-8.7-4.3-2.7-3.6-7.4-5.7-12.7-5.7q-0.3 0-0.7 0.1c-5.4 0.1-10.1 2.7-10.5 5.8-0.4 3.3 3.1 6.2 9.3 7.9q0.4 0.1 0.8 0.2c7.6 2.1 9.3 5.5 3.9 8.6-6.1 3.6-12.4 7.2-18.8 10.9 7.2 4.1 14.1 8.1 20.9 12.1q4.8 2.7 8.3 2.7 4.2 0 6.5-3.9c1.6-2.8 5.2-4.4 9.8-4.4q0.6 0 1.1 0c5.8 0.3 10.2 2.2 12.9 5.2 3.6 4 0.9 8.1-5.8 9.4-5.7 1-7.8 2.2-6.7 4.6 0.6 1.4 2.7 2.8 4.5 3.9 5.1 3.1 10.4 6.1 15.7 9.2 6.9-3.9 13.4-7.7 20.1-11.5-14.4-5.7-18-8.7-17.1-13.9 0.9-4.6 6.8-8.5 14.7-9q1.6-0.2 3.2-0.2c10.2 0 16.9 4 21.9 9.8 5.3-3.1 10.4-6 15.5-8.9-5.9-3.4-11.7-6.6-17.3-9.9-5.6-3.4-4.5-6.6 2.3-8 2.3-0.5 4.7-1.2 6.3-2.2 3-2 3.1-4.5 0.6-7.1-2.8-2.9-7-4.9-12.7-4.9q-0.1 0-0.3 0c-4.9 0-8.1 1.5-9.7 4.1-1.6 2.9-3.8 4.3-6.8 4.3q-3.6 0-8.8-3c-6.9-3.9-13.8-7.9-21-12zm0 1.1l6.1 3.5c4.9 2.8 9.7 5.6 14.4 8.3 3.7 2.1 6.7 3.1 9.3 3.1 3.3 0 5.9-1.6 7.7-4.8 1.4-2.4 4.4-3.6 8.8-3.6h0.3c5 0 9.1 1.6 12 4.6 0.7 0.8 1.6 2 1.5 3.1q-0.2 1.3-1.9 2.4-1.9 1.2-6 2.1c-4.1 0.9-6.3 2.3-6.7 4.3-0.3 1.9 1.1 3.7 4.1 5.5 3.9 2.4 7.7 4.6 11.8 6.9q2 1.1 3.9 2.2l-2.8 1.6-10.4 6c-5.8-6.3-13-9.5-22.1-9.5q-1.6 0-3.3 0.2c-8.2 0.6-14.6 4.6-15.6 9.8-1 6.1 3.8 9.3 15.8 14.2l-7 4.1-10.8 6.2q-2-1.2-4.1-2.4c-3.8-2.2-7.4-4.3-11-6.6-1.1-0.6-3.6-2.2-4.1-3.4-0.4-0.7-0.2-1-0.2-1.1 0.6-1.1 4.7-1.9 6-2.1 4.3-0.9 7.2-2.8 8.1-5.3 0.6-1.8 0-3.9-1.6-5.7-3-3.4-7.7-5.3-13.7-5.6q-0.5 0-1.1 0c-4.9 0-8.8 1.8-10.7 4.9-1.3 2.3-3.2 3.4-5.6 3.4-2.1 0-4.8-0.9-7.8-2.6-4.7-2.8-9.4-5.5-14.3-8.3q-2.5-1.5-5.1-2.9 2.2-1.3 4.3-2.5c4.5-2.6 8.7-5 13-7.5q4-2.3 3.6-5c-0.3-2.3-2.9-4.1-7.8-5.5q-0.2 0-0.4-0.1l-0.3-0.1c-5.7-1.5-9-4.1-8.6-6.7 0.3-2.6 4.6-4.9 9.6-5q0.3-0.1 0.6-0.1c5 0 9.4 1.9 11.9 5.3 2.3 3 5.7 4.7 9.5 4.7 2.3 0 4.7-0.7 6.9-2 3.3-1.8 6.5-3.7 9.9-5.7q1.9-1.1 3.9-2.3z" fill="#000000"/>
				</g>
				<path class="s2" d="m226.8 267.9v18.7l15.5-9v-18.6z" fill="#000000"/>
				<path class="s2" d="m227.3 241.1c2.3-0.5 4.7-1.2 6.3-2.2q2.3-1.5 2.4-3.3v18.3q0 0.7-0.3 1.4c-3.6-2.1-7.2-4.1-10.7-6.2-5.6-3.4-4.5-6.6 2.3-8z" fill="#000000"/>
			</g>
			<g>
				<path class="s5" d="m315.3 301.2v18.7c-5.7 3.1-10.9 6.3-16.6 9.1-3.5 1.7-7.7 0.9-10.5-1.8-0.8-0.7-1.5-1.5-2.1-2.3-1.5-1.9-4.1-3.3-7.1-4.2v18.5c0 0.9-0.7 1.8-1.9 2.6-6.4 3.9-13.1 7.6-19.9 11.6-6.4-3.7-12.6-7.2-18.8-10.7-1.2-0.7-2.3-1.5-3.6-2.1-1.9-1.1-3.8-1.7-5.5-2h-3.4c-2 0.3-3.7 1.3-4.9 3.1-0.3 0.5-0.5 1-0.8 1.4-1.9 2.8-7 4.2-12.3 3.5-5.4-0.8-10.6-4-11.6-7.1q-0.1-0.6-0.1-1.1v-18.7q0-0.6 0.2-1.3-1.5-0.9-2.9-1.7c-1-0.6-2-1.2-3.4-2v-18.7q1.8-1.1 3.6-2.1l10.4-6v-6.7c-3.8-1.5-6.9-2.9-9.3-4.1v-8.1q0-0.9 0.3-1.8c0.9-2.6 5.1-4.5 10.3-4.6 5.1-0.1 9.6 1.3 12.1 3.9 0.8 0.8 1.4 1.6 2.1 2.4 3.5 4 9.5 4.7 14.2 1.8 4-2.6 8.3-5.1 12.5-7.6 0.5-0.3 1.2-0.4 1.8-0.7q2.5 1.4 4.9 2.8c4.2 2.5 8.4 4.9 12.8 7.5v5.1q-0.1 0-0.2 0c-4 1-6.2 3-6.2 5.4v9.1q0.5 0.2 0.9 0.4c3.3 1.6 7.2 2.7 11.2 3.2 9.3 1 15.4-1.2 20.7-8 7.8 4.5 15.2 8.8 23.1 13.3z" fill="#000000"/>
				<path class="s6" d="m196.4 318.4q-1.5-0.8-2.9-1.7c-1-0.6-2-1.2-3.4-2v-18.7c1.4 0.9 2.4 1.5 3.4 2.1 4.3 2.5 8.7 5 13 7.5 6.2 3.6 5.4 6.8-1.9 8.4q-0.8 0.1-1.5 0.2c-3.5 0.7-5.9 2.3-6.7 4.2z" fill="#000000"/>
				<path class="s6" d="m208.6 285.2q-2.3 1.3-4.5 2.6v-6.6c-3.8-1.5-6.9-2.9-9.3-4.1v-8.1c0 3.3 3.2 5.8 9.3 7.3 8.1 2.1 9.9 5.7 4.5 8.9z" fill="#000000"/>
				<path class="s6" d="m265.8 272.7v5.1q-0.1 0-0.2 0c-4 1-6.2 3-6.2 5.4v9.1c-3.2-1.8-5.7-3.9-6.8-6.3-1.4-3.2-1.1-5.7 0.6-7.8 2.1-2.5 6.5-4.3 12.6-5.5z" fill="#000000"/>
				<path class="s1" d="m265.8 272.7v5.1q-0.1 0-0.2 0c-4 1-6.2 3-6.2 5.4v9.1c-3.2-1.8-5.7-3.9-6.8-6.3-1.4-3.2-1.1-5.7 0.6-7.8 2.1-2.5 6.5-4.3 12.6-5.5z" fill="#000000"/>
				<path class="s6" d="m315.3 301.2v18.7c-5.7 3.1-10.9 6.3-16.6 9.1-3.5 1.7-7.7 0.9-10.5-1.8-0.8-0.7-1.5-1.5-2.1-2.3-1.5-1.9-4.1-3.3-7.1-4.2v18.5c0 0.9-0.7 1.8-1.9 2.6-6.4 3.9-13.1 7.6-19.9 11.6-6.4-3.7-12.6-7.2-18.8-10.7-1.2-0.7-2.3-1.5-3.6-2.1-1.9-1.1-3.8-1.7-5.5-2h-3.4c-2 0.3-3.7 1.3-4.9 3.1-0.3 0.5-0.5 1-0.8 1.4-1.9 2.8-7 4.2-12.3 3.5-5.4-0.8-10.6-4-11.6-7.1q-0.1-0.6-0.1-1.1v-18.4q0 0.4 0.1 0.8c1 3.2 6.2 6.4 11.6 7.2 5.3 0.7 10.4-0.7 12.3-3.5 0.3-0.5 0.5-1 0.8-1.5 2.5-3.8 7.9-4.2 13.8-1.1 1.3 0.7 2.4 1.4 3.6 2.1 6.2 3.6 12.4 7.1 18.8 10.8 6.8-4 13.5-7.7 19.9-11.7 3.6-2.2 2-5.2-3.5-6.9-1.3-0.4-2.8-0.7-4.2-1.1-5-1.6-8.1-4.8-7.6-7.8 0.6-3.2 5.3-5.9 10.9-6 5.5-0.1 10.9 1.9 13.4 4.9 0.6 0.8 1.3 1.6 2.1 2.4 2.8 2.6 7 3.5 10.5 1.8 5.7-2.9 10.9-6 16.6-9.2z" fill="#000000"/>
				<path class="s1" d="m279 339.2v-18.5c-0.1 0.9-0.7 1.7-1.9 2.4-6.4 4-13.1 7.7-19.9 11.7q0 0-0.1 0l0.1 18.6c6.8-4 13.5-7.7 19.9-11.6 1.2-0.8 1.9-1.7 1.9-2.6z" fill="#000000"/>
				<path class="s6" d="m292.2 287.9c7.8 4.5 15.2 8.8 23.1 13.3-5.7 3.2-10.9 6.3-16.6 9.2-3.5 1.7-7.7 0.8-10.5-1.8-0.8-0.8-1.5-1.6-2.1-2.4-2.5-3-7.9-5-13.4-4.9-5.6 0.1-10.3 2.8-10.9 6-0.5 3 2.6 6.2 7.6 7.8 1.4 0.4 2.9 0.7 4.2 1.1 5.5 1.7 7.1 4.7 3.5 6.9-6.4 4-13.1 7.7-20 11.7-6.3-3.7-12.5-7.2-18.7-10.8-1.2-0.7-2.3-1.4-3.6-2.1-5.9-3.1-11.3-2.7-13.8 1.1-0.3 0.5-0.5 1-0.8 1.5-1.9 2.8-7 4.2-12.3 3.5-5.4-0.8-10.6-4-11.6-7.2-0.9-2.9 1.9-5.6 6.8-6.6 0.5-0.1 1-0.1 1.5-0.2 7.3-1.6 8.1-4.8 1.9-8.4-4.3-2.5-8.7-5-13-7.5-1-0.6-2-1.2-3.4-2.1 1.5-0.9 3-1.8 4.6-2.7 4.6-2.7 9.3-5.4 13.9-8.1 5.4-3.2 3.6-6.8-4.5-8.9-7.2-1.8-10.3-5-9-9.1 0.9-2.6 5.1-4.5 10.3-4.6 5.1-0.1 9.6 1.3 12.1 3.9 0.8 0.8 1.4 1.6 2.1 2.4 3.5 4 9.5 4.7 14.2 1.8 4-2.6 8.3-5.1 12.5-7.6 0.5-0.3 1.2-0.4 1.8-0.7 5.9 3.4 11.6 6.8 17.7 10.3-11 2.1-16.4 6.2-13.2 13.3 2.2 4.9 10.3 8.9 18.9 9.9 9.3 1 15.4-1.2 20.7-8z" fill="#000000"/>
				<path class="s7" d="m292.2 287.9c7.8 4.5 15.2 8.8 23.1 13.3-5.7 3.2-10.9 6.3-16.6 9.2-3.5 1.7-7.7 0.8-10.5-1.8-0.8-0.8-1.5-1.6-2.1-2.4-2.5-3-7.9-5-13.4-4.9-5.6 0.1-10.3 2.8-10.9 6-0.5 3 2.6 6.2 7.6 7.8 1.4 0.4 2.9 0.7 4.2 1.1 5.5 1.7 7.1 4.7 3.5 6.9-6.4 4-13.1 7.7-20 11.7-6.3-3.7-12.5-7.2-18.7-10.8-1.2-0.7-2.3-1.4-3.6-2.1-5.9-3.1-11.3-2.7-13.8 1.1-0.3 0.5-0.5 1-0.8 1.5-1.9 2.8-7 4.2-12.3 3.5-5.4-0.8-10.6-4-11.6-7.2-0.9-2.9 1.9-5.6 6.8-6.6 0.5-0.1 1-0.1 1.5-0.2 7.3-1.6 8.1-4.8 1.9-8.4-4.3-2.5-8.7-5-13-7.5-1-0.6-2-1.2-3.4-2.1 1.5-0.9 3-1.8 4.6-2.7 4.6-2.7 9.3-5.4 13.9-8.1 5.4-3.2 3.6-6.8-4.5-8.9-7.2-1.8-10.3-5-9-9.1 0.9-2.6 5.1-4.5 10.3-4.6 5.1-0.1 9.6 1.3 12.1 3.9 0.8 0.8 1.4 1.6 2.1 2.4 3.5 4 9.5 4.7 14.2 1.8 4-2.6 8.3-5.1 12.5-7.6 0.5-0.3 1.2-0.4 1.8-0.7 5.9 3.4 11.6 6.8 17.7 10.3-11 2.1-16.4 6.2-13.2 13.3 2.2 4.9 10.3 8.9 18.9 9.9 9.3 1 15.4-1.2 20.7-8z" fill="#000000"/>
				<path class="s7" d="m194.8 269q0-0.2 0-0.5 0 0.3 0 0.5z" fill="#000000"/>
				<path class="s7" d="m196.2 319.7q0-0.3 0-0.6 0 0.3 0 0.6z" fill="#000000"/>
				<path class="s7" d="m196.2 319.7q0 0.2 0 0.3z" fill="#000000"/>
				<path class="s7" d="m196.4 318.4q-0.1 0.3-0.2 0.7 0.1-0.4 0.2-0.7 0 0 0 0z" fill="#000000"/>
				<path class="s1" d="m226.8 319.9c-2.5 0.1-4.5 1.2-5.8 3.1-0.3 0.5-0.5 1-0.8 1.5-1.3 1.8-3.9 3-7 3.5v18.6c3.1-0.4 5.8-1.7 7-3.5 0.3-0.4 0.5-0.9 0.8-1.4 1.1-1.8 2.9-2.8 4.9-3.1h0.9z" fill="#000000"/>
				<path class="s1" d="m298.7 310.4c-1.6 0.8-3.4 1-5.1 0.8v18.6c1.7 0.2 3.5 0 5.1-0.8 5.7-2.8 10.9-6 16.6-9.1v-18.7c-5.7 3.2-10.9 6.3-16.6 9.2z" fill="#000000"/>
			</g>
		</g>
	</g>
	<g id="Hand_00000177465703951450372810000013654453434148536979_">
		<g id="Hand_00000154425557180820961290000002275143607865983123_">
			<g>
				<path class="s6" d="m331.9 207.6v-18.7c0-3.6-5.2-7.5-13-8q-3.1-0.2-5.4-0.5 0.9-1.7 1.8-3.4v-18.6c-7.3-1.9-14.3-3.6-21.1-5.5v-13.3h-0.1q0.1-1.2-0.9-2.6c-2.1-3.1-6.4-4.8-11.7-5.4-4.9-0.5-8.9 0.3-10.7 2.7-1.1 1.5-1.4 3.3-1.2 5 0.5 4.5-3.6 6.2-11.1 4.5-2-0.4-3.9-0.9-5.8-1.4-7.4-1.9-14.8-3.8-22.4-5.7-3 5.4-5.9 10.5-8.5 15.6q-0.5 1-0.5 1.8v14.9c-3.7-1.3-7.6-1-9.2 1.3-2.8 4.1-5 8.4-7.5 12.8v18.7c10 2.5 19.5 5 29.2 7.4v-3c0.6-5.4 4.3-8.5 11.3-9.6 7.2-1.2 16.4 0.4 22.1 3.9v17.2c6.5 1.7 12.7 3.2 18.8 4.9 2.9 0.8 4.4 0.6 5.2-1.1 1.4-3.2 3.1-6.3 4.7-9.4 2.2-4.2 8.9-4.6 15.1-1.2 1.9 1.2 4.4 2.3 6.8 2.8 6.7 1.2 13.8-1.8 14.1-5.9q0-0.1 0-0.2z" fill="#000000"/>
				<path class="s1" d="m303.6 190v18.6c-3.4-0.2-6.4 1-7.7 3.5-1.6 3.1-3.3 6.2-4.7 9.4-0.4 0.9-1.1 1.4-2 1.5v-18.6c0.9-0.2 1.6-0.6 2-1.6 1.4-3.1 3.1-6.2 4.7-9.3 1.3-2.5 4.3-3.7 7.7-3.5z" fill="#000000"/>
				<path class="s1" d="m267.2 199.1v1.4c-5.7-3.5-14.9-5.1-22.2-3.9-6.9 1.1-10.6 4.2-11.2 9.6v-15.6c-0.6-7.3 3-11.3 11.2-12.6 8-1.3 18.2 0.7 23.7 4.9 8.1 6.1 6.3 11.4-1.5 16.2z" fill="#000000"/>
				<path class="s1" d="m308.2 171.4q-0.1 0.2-0.1 0.3c-3.1 5.4-2.2 7.6 5.4 8.7q0.9-1.7 1.8-3.4v-18.6c-2.4 4.4-4.7 8.7-7.1 13zm-62.6-7.3c-2-3.2-7-5.2-13.3-5.4q-1 0-2 0c-5.6-0.3-9-2-9-4.6v14.9q0.9 0.3 1.8 0.8c0.9 0.4 1.7 0.9 2.5 1.3 5 2.7 11 3.3 15.6 1.7 4.7-1.6 6.6-5.4 4.4-8.7z" fill="#000000"/>
				<path class="s1" d="m293.4 152.7c-6.5-1.7-8.2-5.1-4.1-7.9 0.5-0.3 1.2-0.6 1.7-0.9 2-1.2 3.1-2.6 3.1-4.2v13.2q-0.3-0.1-0.7-0.2z" fill="#000000"/>
				<g>
					<path class="s6" d="m267.2 199.1c7.8-4.8 9.6-10.1 1.5-16.2-5.5-4.2-15.7-6.2-23.6-4.9-8.3 1.3-11.9 5.3-11.3 12.6-9.7-2.5-19.2-4.9-29.2-7.5 2.5-4.4 4.7-8.7 7.5-12.9 1.9-2.5 6.9-2.6 11-0.4 0.9 0.4 1.7 0.9 2.5 1.3 5 2.7 11 3.3 15.6 1.7 4.7-1.6 6.6-5.4 4.4-8.7-2-3.2-7-5.2-13.3-5.4q-1 0-2 0c-6.8-0.3-10.3-2.8-8.5-6.4 2.6-5.1 5.5-10.2 8.5-15.6 7.6 1.9 15 3.8 22.4 5.7 1.9 0.5 3.8 1 5.8 1.4 7.5 1.7 11.6 0 11.1-4.5-0.2-1.7 0.1-3.5 1.2-5 1.8-2.4 5.8-3.2 10.7-2.7 5.3 0.6 9.6 2.3 11.7 5.4 1.9 2.7 0.9 5.1-2.2 6.9-0.5 0.3-1.2 0.6-1.7 0.9-4.1 2.8-2.5 6.2 4.1 7.9 7.1 1.9 14.3 3.7 21.9 5.7-2.4 4.4-4.7 8.7-7.1 13.1q-0.1 0.1-0.1 0.2c-3.8 6.5-1.6 8.3 10.8 9.2 8 0.5 13.2 4.6 13 8.3-0.3 4.1-7.4 7.1-14.1 5.8-2.5-0.4-4.9-1.6-6.9-2.7-6.1-3.5-12.8-3-15 1.2-1.6 3.1-3.3 6.2-4.7 9.3-0.8 1.7-2.3 1.9-5.2 1.2-6.1-1.7-12.3-3.2-18.8-4.9z" fill="#000000"/>
					<path class="s7" d="m267.2 199.1c7.8-4.8 9.6-10.1 1.5-16.2-5.5-4.2-15.7-6.2-23.6-4.9-8.3 1.3-11.9 5.3-11.3 12.6-9.7-2.5-19.2-4.9-29.2-7.5 2.5-4.4 4.7-8.7 7.5-12.9 1.9-2.5 6.9-2.6 11-0.4 0.9 0.4 1.7 0.9 2.5 1.3 5 2.7 11 3.3 15.6 1.7 4.7-1.6 6.6-5.4 4.4-8.7-2-3.2-7-5.2-13.3-5.4q-1 0-2 0c-6.8-0.3-10.3-2.8-8.5-6.4 2.6-5.1 5.5-10.2 8.5-15.6 7.6 1.9 15 3.8 22.4 5.7 1.9 0.5 3.8 1 5.8 1.4 7.5 1.7 11.6 0 11.1-4.5-0.2-1.7 0.1-3.5 1.2-5 1.8-2.4 5.8-3.2 10.7-2.7 5.3 0.6 9.6 2.3 11.7 5.4 1.9 2.7 0.9 5.1-2.2 6.9-0.5 0.3-1.2 0.6-1.7 0.9-4.1 2.8-2.5 6.2 4.1 7.9 7.1 1.9 14.3 3.7 21.9 5.7-2.4 4.4-4.7 8.7-7.1 13.1q-0.1 0.1-0.1 0.2c-3.8 6.5-1.6 8.3 10.8 9.2 8 0.5 13.2 4.6 13 8.3-0.3 4.1-7.4 7.1-14.1 5.8-2.5-0.4-4.9-1.6-6.9-2.7-6.1-3.5-12.8-3-15 1.2-1.6 3.1-3.3 6.2-4.7 9.3-0.8 1.7-2.3 1.9-5.2 1.2-6.1-1.7-12.3-3.2-18.8-4.9z" fill="#000000"/>
				</g>
			</g>
		</g>
	</g>
	<g id="Pieces">
		<g id="Piece_5_">
			<path class="s6" d="m39.1 193v-5.3c0 0 1.5-0.9 2.2-1.3 7.5-4.4 14-8.3 17.3-8.4 2.2 0 3.1 1.3 3.3 2.5 0.1 1.1 0.9 1.8 1.5 2.1 2.1 1.3 6.5 0.8 9.7-1.1q0.6-0.3 1.1-0.7c-0.7-0.2-1.6-0.4-2.9-0.4-2-0.1-4.2-0.6-4.2-1.8q0-0.1 0-0.1c0.1-1 0-4.3 0-5.3q0 0 0-0.1c0.2-2.2 7.1-6.1 14.7-10l1.6 0.9c6.9 4 11.1 6.4 14.8 6.2 2.7-0.1 4.2-1.8 4.7-3.1 0.4-1.1 1.2-1.7 1.8-2.1 2.2-1.2 6-1.1 8.6 0.4 1.3 0.8 2 1.8 2 2.7 0 0.8 0 4.4 0 5.4 0 0.8-0.4 1.5-1.4 2.1-0.7 0.4-1.8 0.8-3.6 1.1-1.1 0.1-2.1 0.3-3.1 0.7 1.9 1.4 4.7 3.1 8.1 5q0.6 0.4 1.2 0.8l1.5 0.8v5.3c0 0-13.4 8.6-17 8.8-2.2 0-3.2-1.3-3.3-2.5-0.1-1.1-0.9-1.8-1.5-2.2-2.2-1.2-6.5-0.7-9.8 1.1q-0.5 0.4-1 0.7c0.7 0.3 1.6 0.5 2.9 0.5 2 0.1 4.2 0.6 4.2 1.8q0 0.1 0 0.1c-0.1 0.9 0 4.2 0 5.3q0 0 0 0.1c-0.2 2.1-8.8 6.7-17.1 11-1.6-1-3.2-1.9-4.5-2.7-4.9-2.9-8.2-4.9-11.3-4.7-2.7 0.1-4.3 1.7-4.7 3.1-0.4 1.1-1.2 1.7-1.9 2.1-2.1 1.2-6 1.1-8.5-0.4-1.3-0.8-2-1.8-2.1-2.7 0-0.9 0.1-4.4 0-5.4 0-0.8 0.5-1.6 1.5-2.1 0.6-0.4 1.8-0.9 3.6-1.1 0.9-0.1 1.9-0.3 2.8-0.6-1.7-1.2-4.1-2.5-6.8-4-1.4-0.8-4.4-2.5-4.4-2.5z" fill="#000000"/>
			<path class="s8" d="m39.1 193v-5.3c0 0 1.5-0.9 2.2-1.3 7.5-4.4 14-8.3 17.3-8.4 2.2 0 3.1 1.3 3.3 2.5 0.1 1.1 0.9 1.8 1.5 2.1 2.1 1.3 6.5 0.8 9.7-1.1q0.6-0.3 1.1-0.7c-0.7-0.2-1.6-0.4-2.9-0.4-2-0.1-4.2-0.6-4.2-1.8q0-0.1 0-0.1c0.1-1 0-4.3 0-5.3q0 0 0-0.1c0.2-2.2 7.1-6.1 14.7-10l1.6 0.9c6.9 4 11.1 6.4 14.8 6.2 2.7-0.1 4.2-1.8 4.7-3.1 0.4-1.1 1.2-1.7 1.8-2.1 2.2-1.2 6-1.1 8.6 0.4 1.3 0.8 2 1.8 2 2.7 0 0.8 0 4.4 0 5.4 0 0.8-0.4 1.5-1.4 2.1-0.7 0.4-1.8 0.8-3.6 1.1-1.1 0.1-2.1 0.3-3.1 0.7 1.9 1.4 4.7 3.1 8.1 5q0.6 0.4 1.2 0.8l1.5 0.8v5.3c0 0-13.4 8.6-17 8.8-2.2 0-3.2-1.3-3.3-2.5-0.1-1.1-0.9-1.8-1.5-2.2-2.2-1.2-6.5-0.7-9.8 1.1q-0.5 0.4-1 0.7c0.7 0.3 1.6 0.5 2.9 0.5 2 0.1 4.2 0.6 4.2 1.8q0 0.1 0 0.1c-0.1 0.9 0 4.2 0 5.3q0 0 0 0.1c-0.2 2.1-8.8 6.7-17.1 11-1.6-1-3.2-1.9-4.5-2.7-4.9-2.9-8.2-4.9-11.3-4.7-2.7 0.1-4.3 1.7-4.7 3.1-0.4 1.1-1.2 1.7-1.9 2.1-2.1 1.2-6 1.1-8.5-0.4-1.3-0.8-2-1.8-2.1-2.7 0-0.9 0.1-4.4 0-5.4 0-0.8 0.5-1.6 1.5-2.1 0.6-0.4 1.8-0.9 3.6-1.1 0.9-0.1 1.9-0.3 2.8-0.6-1.7-1.2-4.1-2.5-6.8-4-1.4-0.8-4.4-2.5-4.4-2.5z" fill="#000000"/>
			<path class="s6" d="m44.5 206.1c2.5 1.4 6.4 1.6 8.5 0.3 0.7-0.3 1.5-1 1.9-2.1 0.4-1.3 2-2.9 4.7-3.1 3.1-0.1 6.4 1.8 11.3 4.8 1.3 0.8 2.9 1.7 4.5 2.7 8.3-4.3 16.9-8.9 17.1-11.1q0 0 0-0.1c0-1.2-2.2-1.7-4.2-1.8-2-0.1-3.2-0.5-3.8-0.9-2.1-1.2-1.3-3.7 1.9-5.6 3.3-1.8 7.6-2.3 9.8-1.1 0.6 0.4 1.4 1 1.5 2.2 0.1 1.2 1.1 2.5 3.3 2.4 3.6-0.1 9.5-3.9 17-8.7l-0.1-0.1-1.4-0.7q-0.6-0.4-1.2-0.7c-6.4-3.7-10.8-6.4-10.4-8.4 0.2-1.6 3-2.5 5.4-2.8 1.8-0.2 2.9-0.7 3.6-1 1-0.6 1.4-1.4 1.4-2.2 0-0.9-0.7-1.9-2-2.7-2.6-1.5-6.4-1.6-8.6-0.4-0.6 0.4-1.4 1-1.8 2.1-0.5 1.3-2 3-4.7 3.1-3.7 0.2-7.9-2.2-14.8-6.2l-1.6-0.9c-7.6 3.9-14.5 7.8-14.7 10q0 0.1 0 0.1c0 1.2 2.2 1.8 4.2 1.8 2 0.1 3.1 0.6 3.7 0.9 2.2 1.3 1.3 3.8-1.9 5.6-3.2 1.9-7.6 2.4-9.7 1.1-0.6-0.3-1.4-1-1.5-2.1-0.2-1.2-1.1-2.5-3.3-2.5-3.3 0.1-9.8 4-17.3 8.4q-1.1 0.6-2.2 1.3 2.3 1.3 4.4 2.4c5.6 3.2 9.7 5.4 9.4 7.3-0.2 1.6-3 2.4-5.4 2.7-1.8 0.2-3 0.7-3.6 1.1-1 0.5-1.5 1.3-1.5 2.1 0.1 1 0.8 2 2.1 2.8z" fill="#000000"/>
			<path class="s9" d="m44.5 206.1c2.5 1.4 6.4 1.6 8.5 0.3 0.7-0.3 1.5-1 1.9-2.1 0.4-1.3 2-2.9 4.7-3.1 3.1-0.1 6.4 1.8 11.3 4.8 1.3 0.8 2.9 1.7 4.5 2.7 8.3-4.3 16.9-8.9 17.1-11.1q0 0 0-0.1c0-1.2-2.2-1.7-4.2-1.8-2-0.1-3.2-0.5-3.8-0.9-2.1-1.2-1.3-3.7 1.9-5.6 3.3-1.8 7.6-2.3 9.8-1.1 0.6 0.4 1.4 1 1.5 2.2 0.1 1.2 1.1 2.5 3.3 2.4 3.6-0.1 9.5-3.9 17-8.7l-0.1-0.1-1.4-0.7q-0.6-0.4-1.2-0.7c-6.4-3.7-10.8-6.4-10.4-8.4 0.2-1.6 3-2.5 5.4-2.8 1.8-0.2 2.9-0.7 3.6-1 1-0.6 1.4-1.4 1.4-2.2 0-0.9-0.7-1.9-2-2.7-2.6-1.5-6.4-1.6-8.6-0.4-0.6 0.4-1.4 1-1.8 2.1-0.5 1.3-2 3-4.7 3.1-3.7 0.2-7.9-2.2-14.8-6.2l-1.6-0.9c-7.6 3.9-14.5 7.8-14.7 10q0 0.1 0 0.1c0 1.2 2.2 1.8 4.2 1.8 2 0.1 3.1 0.6 3.7 0.9 2.2 1.3 1.3 3.8-1.9 5.6-3.2 1.9-7.6 2.4-9.7 1.1-0.6-0.3-1.4-1-1.5-2.1-0.2-1.2-1.1-2.5-3.3-2.5-3.3 0.1-9.8 4-17.3 8.4q-1.1 0.6-2.2 1.3 2.3 1.3 4.4 2.4c5.6 3.2 9.7 5.4 9.4 7.3-0.2 1.6-3 2.4-5.4 2.7-1.8 0.2-3 0.7-3.6 1.1-1 0.5-1.5 1.3-1.5 2.1 0.1 1 0.8 2 2.1 2.8z" fill="#000000"/>
		</g>
		<g id="Piece_4_">
			<path class="s3" d="m372.5 406.1v-5.3c0 0-3.8-1.9-5.7-2.8-3.4-1.7-6.4-3.2-8.4-4.4q0.7-0.1 1.4-0.2c1.8 0 2.8-0.4 3.4-0.7 0.7-0.4 1-1 1-1.7-0.1-1 0-4.6 0-5.3-0.1-1.1-1.1-2.3-2.9-3.4-2.9-1.7-6.8-2.1-8.7-1-0.5 0.3-1.2 0.9-1.3 1.9-0.1 1.3-1.3 2.8-4 2.8-2.9-0.1-6.4-2.5-11.1-5.8-1.7-1.2-3.7-2.5-5.9-3.9l-0.1 0.1q-2.3 1.3-4.5 2.5c-5.1 2.8-9.2 5.1-9.2 6.7 0 0.1 0 4.5 0 5.4q0 0 0.1 0.1c0.2 1.3 2.6 2 4.7 2.3 1.9 0.2 3.1 0.7 3.9 1.1q-0.2 0.1-0.4 0.3c-2.8 1.6-7.1 1.7-9.6 0.3-0.7-0.4-1.6-1.2-2.1-2.4-0.4-1.1-1.7-2.6-3.9-2.7-2.8-0.1-6.1 1.8-11.1 4.8-1.3 0.8-4.3 2.6-4.3 2.6v5.4l42.3 24.4c1.6-0.9 3-1.8 4.3-2.6 5.1-3.1 8.5-5.1 11.6-4.9 2.7 0.1 4.2 1.7 4.7 3.1 0.4 1.1 1.2 1.7 1.8 2.1 2.2 1.2 6 1.1 8.6-0.4 1.4-0.8 2.1-1.8 2-2.8 0-0.8 0.1-4.4 0-5.3 0-0.8-0.5-1.6-1.4-2.1-0.6-0.4-1.8-0.9-3.6-1.1-0.9-0.1-1.9-0.3-2.8-0.6 1.7-1.1 4-2.4 6.7-3.9 1.5-0.8 4.5-2.6 4.5-2.6z" fill="#000000"/>
			<g>
				<path class="s4" d="m294.3 397.4q2.1-1.2 3.9-2.3c4.8-2.9 8-4.9 10.7-4.9q0.1 0 0.3 0.1c2.1 0.1 3.3 1.4 3.7 2.5 0.4 1 1.1 1.9 2.2 2.5 1.1 0.6 2.7 1 4.4 1 2 0 3.9-0.5 5.4-1.3 1.5-0.9 2.4-2.1 2.4-3.3 0-1-0.7-2-1.9-2.7-0.7-0.4-2-0.9-4.1-1.2-2.1-0.3-4.3-1-4.5-2.1q0 0 0-0.1c0-1.5 4.1-3.8 8.9-6.4 1.6-0.9 3.1-1.7 4.6-2.6l1.3 0.9c1.6 1 3.1 2 4.4 2.9 4.8 3.3 8.3 5.7 11.3 5.8h0.2c2.7 0 3.9-1.6 4.1-3 0.1-0.9 0.7-1.4 1.2-1.7 0.6-0.4 1.5-0.6 2.5-0.6 2 0 4.1 0.6 5.9 1.6 1.7 1 2.7 2.2 2.7 3.2q0 0.9-0.9 1.4c-0.5 0.3-1.5 0.7-3.2 0.7-0.8 0.1-3.6 0.3-4.7 1.5q-0.4 0.5-0.3 1.1c0.1 1.9 4.4 4.1 11.9 7.8q2.6 1.3 5.3 2.6-2.1 1.2-4.1 2.3c-5.9 3.3-9.8 5.4-9.5 7.4 0.3 1.7 3.1 2.7 5.6 3 1.9 0.2 3 0.6 3.5 1 0.9 0.5 1.4 1.1 1.4 1.9 0 0.9-0.7 1.8-2 2.6-1.2 0.7-2.9 1.1-4.6 1.1-1.4 0-2.7-0.3-3.6-0.8q-1.3-0.8-1.7-1.9c-0.6-1.5-2.1-3.2-5-3.3q-0.2 0-0.4 0c-3.1 0-6.4 2-11.3 5l-1 0.6q-1.5 0.9-3.2 1.9z" fill="#000000"/>
				<path class="s5" d="m330.3 376.3l-0.1 0.1q-2.3 1.3-4.5 2.5c-5.1 2.8-9.2 5.1-9.2 6.7q0 0.1 0.1 0.2c0.2 1.2 2.6 2 4.7 2.2 2 0.3 3.3 0.8 4 1.2 2.5 1.5 2.3 3.9-0.5 5.6-1.5 0.8-3.5 1.3-5.3 1.3-1.6 0-3.1-0.4-4.3-1-0.7-0.4-1.6-1.2-2.1-2.4-0.4-1.2-1.7-2.6-3.9-2.7q-0.2 0-0.3 0c-2.8 0-6 1.9-10.8 4.8q-1.9 1.2-4.3 2.6l42.3 24.4c1.6-0.9 3-1.8 4.3-2.5 4.9-3 8.2-5 11.2-5q0.2 0 0.4 0c2.7 0.2 4.2 1.8 4.7 3.1 0.4 1.1 1.2 1.8 1.9 2.1 0.9 0.6 2.3 0.9 3.7 0.9 1.6 0 3.4-0.4 4.8-1.2 1.4-0.8 2.1-1.9 2-2.9 0-0.7-0.5-1.5-1.4-2-0.6-0.4-1.8-0.9-3.6-1.1-2.4-0.3-5.2-1.2-5.4-2.7-0.3-1.9 3.7-4.1 9.3-7.2q2.2-1.2 4.5-2.5-2.9-1.5-5.7-2.8c-6.7-3.4-11.6-5.8-11.8-7.6-0.1-1.6 2.5-2.2 4.8-2.3 1.8-0.1 2.8-0.5 3.4-0.8 0.7-0.4 1-0.9 1-1.6-0.1-1.1-1.1-2.3-2.9-3.4-1.8-1-4.1-1.6-6-1.6-1 0-2 0.2-2.7 0.6-0.5 0.3-1.2 0.9-1.3 1.9-0.1 1.3-1.2 2.8-3.8 2.8q-0.1 0-0.2 0c-2.9-0.1-6.4-2.5-11.1-5.8-1.7-1.2-3.7-2.5-5.9-3.9zm0 0.6l1.1 0.8c1.7 1 3.2 2 4.5 2.9 4.8 3.4 8.3 5.8 11.4 5.9q0.1 0 0.2 0c2.9 0 4.1-1.8 4.3-3.2q0.1-1.1 1.1-1.6c0.6-0.3 1.4-0.5 2.4-0.5 1.9 0 4.1 0.6 5.8 1.6 1.5 0.9 2.5 2 2.6 2.9q0 0.7-0.8 1.2c-0.5 0.3-1.4 0.6-3.1 0.7-1.1 0-3.8 0.3-4.8 1.5q-0.6 0.6-0.5 1.3c0.2 2.1 4.3 4.2 12.1 8q2.4 1.2 4.8 2.4-1.9 1.1-3.6 2.1c-6 3.3-10 5.5-9.6 7.7 0.3 1.8 3.2 2.8 5.8 3.1 1.8 0.2 2.9 0.7 3.4 1 0.8 0.4 1.2 1 1.2 1.7 0.1 0.8-0.6 1.7-1.8 2.3-1.2 0.8-2.9 1.2-4.5 1.2-1.4 0-2.6-0.3-3.5-0.8q-1.2-0.7-1.6-1.8c-0.5-1.5-2.2-3.3-5.2-3.5q-0.2 0-0.4 0c-3.1 0-6.5 2-11.5 5l-1 0.6q-1.4 0.9-3 1.9l-41.3-23.9c1.3-0.7 2.5-1.5 3.6-2.1 4.7-2.9 7.9-4.8 10.5-4.8q0.1 0 0.3 0c2 0.1 3.1 1.4 3.5 2.4 0.3 1 1.1 1.9 2.2 2.6 1.2 0.7 2.9 1.1 4.6 1.1 2 0 4-0.5 5.5-1.4 1.6-0.9 2.5-2.2 2.5-3.5 0-1.1-0.7-2.2-2-2.9-0.7-0.4-2-1-4.2-1.2-2.3-0.3-4.1-1.1-4.3-1.9q0 0 0-0.1c0-1.3 4.5-3.8 8.9-6.2h0.1c1.5-0.9 2.9-1.7 4.3-2.5z" fill="#000000"/>
			</g>
		</g>
		<g id="Piece_3_">
			<path class="s3" d="m200.9 120.5c0 0-3.9-2-5.8-2.9-3.1-1.5-5.8-2.8-7.7-4q0.7-0.1 1.4-0.1c1.9-0.1 2.9-0.5 3.4-0.8 0.7-0.4 1-0.9 1-1.5 0-1 0-4.8 0-5.4 0-1.1-1-2.4-2.8-3.4-2.9-1.7-6.8-2.2-8.7-1.1-0.6 0.3-1.2 0.9-1.4 2-0.1 1.3-1.2 2.8-3.9 2.7-2.9 0-6.3-2.4-11-5.7-1.8-1.3-3.9-2.7-6.1-4.2q-2.2 1.3-4.3 2.4c-5.2 2.9-9.3 5.2-9.3 6.8 0 0.1 0 5.5 0 5.5 0.2 1.3 2.7 2.1 4.7 2.3 1.9 0.2 3.2 0.7 3.9 1.1q-0.2 0.2-0.4 0.3c-2.8 1.6-7.1 1.7-9.6 0.3-0.7-0.4-1.6-1.1-2-2.3-0.5-1.2-1.7-2.6-4-2.8-2.9-0.1-6 1.8-10.9 4.7q-1.9 1.2-4.3 2.5v5.4l1.7 1.1c6.9 4.5 12 7.8 15.3 7.9 2.2 0 3.2-1.3 3.3-2.5 0.2-1.1 0.9-1.8 1.5-2.1 2.2-1.3 6.6-0.8 9.8 1.1q0.5 0.3 1 0.6c-0.7 0.3-1.6 0.5-2.9 0.5-1.9 0.1-4.2 0.6-4.2 1.8 0 0.1 0 4.3 0 5.4q0 0 0 0.1c0.2 2.2 8.4 6.6 16.2 10.6q2.3-1.3 4.4-2.5c4.9-2.7 8.8-4.8 8.8-6.4 0-0.1 0-4.5 0-5.4q0-0.1 0-0.1c-0.2-1.3-2.7-2.1-4.7-2.3-2-0.3-3.2-0.7-3.9-1.2q0.2-0.1 0.4-0.2c2.7-1.6 7-1.8 9.5-0.3 0.7 0.4 1.7 1.1 2.1 2.3 0.4 1.2 1.7 2.6 3.9 2.7 2.8 0.2 6-1.8 10.9-4.7 1.4-0.9 4.7-2.8 4.7-2.8 0 0 0-5.4 0-5.4z" fill="#000000"/>
			<g>
				<path class="s4" d="m164.8 141.2c-5.2-2.7-15.7-8.1-15.9-10.4q-0.1-0.3 0.2-0.6c0.5-0.5 2-1 3.7-1 2.1-0.1 3.3-0.6 3.9-0.9 0.9-0.5 1.3-1.2 1.3-2.1 0-1.3-1.2-2.8-3.2-4-2-1.1-4.5-1.8-6.7-1.8-1.3 0-2.5 0.2-3.3 0.7-0.9 0.6-1.5 1.4-1.6 2.4-0.1 1-1 2.2-2.9 2.2h-0.2c-3.3-0.1-8.3-3.4-15.1-7.9l-1.4-0.8q1.5-0.9 2.8-1.7l1.2-0.7c4.6-2.8 7.7-4.6 10.4-4.6q0.2 0 0.3 0c2.1 0.1 3.3 1.4 3.7 2.5 0.5 1.3 1.5 2.1 2.2 2.5 1.2 0.7 2.7 1 4.4 1 2 0 4-0.4 5.4-1.3 1.5-0.9 2.4-2.1 2.4-3.2 0-1.1-0.6-2.1-1.8-2.7-0.7-0.5-2-1-4.2-1.3-2-0.2-4.3-1-4.5-2.1-0.2-1.4 4.1-3.8 9.1-6.6l0.3-0.2q1.9-1 4-2.2c1.9 1.3 3.7 2.5 5.3 3.6l0.7 0.5c4.7 3.3 8.1 5.7 11.1 5.8h0.2c2.7 0 3.8-1.6 4-3 0.1-0.9 0.7-1.5 1.2-1.8 0.6-0.3 1.5-0.5 2.6-0.5 1.9 0 4.1 0.6 5.8 1.6 1.7 1 2.8 2.2 2.8 3.2q0 0.9-0.9 1.4c-0.5 0.3-1.5 0.7-3.3 0.7-0.8 0.1-3.5 0.3-4.6 1.4q-0.5 0.5-0.4 1.2c0.2 1.9 4.6 4.1 11.2 7.4 1.7 0.8 3.5 1.7 5.4 2.6q-1.7 1.1-3.3 2l-1 0.6c-4.7 2.9-7.8 4.8-10.4 4.8q-0.2 0-0.3 0c-2.2-0.2-3.4-1.5-3.8-2.6-0.4-1.3-1.4-2-2.1-2.5-1.2-0.6-2.8-1-4.5-1-1.9 0-3.9 0.5-5.4 1.3-1.5 0.9-2.3 2.1-2.3 3.3 0 1 0.6 2 1.8 2.7 0.7 0.4 2 1 4.1 1.2 2.1 0.3 4.4 1 4.5 2.1 0.3 1.5-3.8 3.7-8.6 6.4q-2.1 1.1-4.3 2.4z" fill="#000000"/>
				<path class="s5" d="m159.3 96.1q-2.2 1.3-4.3 2.4c-5.4 3-9.6 5.3-9.3 7 0.2 1.3 2.7 2 4.7 2.3 2.1 0.2 3.3 0.8 4 1.2 2.5 1.4 2.3 3.9-0.5 5.5-1.5 0.8-3.4 1.3-5.3 1.3-1.6 0-3.1-0.3-4.3-1-0.7-0.4-1.6-1.1-2-2.3-0.5-1.2-1.7-2.6-4-2.8q-0.1 0-0.3 0c-2.8 0-5.9 1.9-10.6 4.7q-1.9 1.2-4.3 2.6l1.7 1.1c6.9 4.5 12 7.7 15.3 7.8q0.1 0 0.2 0c2.1 0 3-1.3 3.1-2.4 0.2-1.2 0.9-1.8 1.5-2.2 0.8-0.4 1.9-0.7 3.2-0.7 2.1 0 4.6 0.7 6.6 1.8 3.2 1.9 4 4.4 1.9 5.7-0.6 0.3-1.8 0.8-3.8 0.8-2 0.1-4.3 0.7-4.2 1.9 0.2 2.2 8.4 6.7 16.2 10.7q2.3-1.3 4.4-2.5c5-2.8 9.1-5 8.8-6.6-0.2-1.3-2.7-2.1-4.7-2.3-2.1-0.3-3.4-0.8-4.1-1.2-2.5-1.5-2.2-3.9 0.6-5.5 1.4-0.9 3.4-1.3 5.2-1.3 1.6 0 3.2 0.3 4.3 1 0.7 0.4 1.7 1.1 2.1 2.3 0.4 1.2 1.7 2.6 3.9 2.7q0.2 0 0.4 0c2.7 0 5.8-1.9 10.5-4.8 1.4-0.8 3-1.8 4.7-2.8-2-1-3.9-2-5.8-2.9-6.3-3.1-10.9-5.3-11.1-7.1-0.1-1.6 2.5-2.2 4.8-2.3 1.8-0.1 2.9-0.5 3.4-0.8 1.9-1.1 1.1-3.3-1.8-5-1.9-1.1-4.1-1.7-6-1.7-1.1 0-2 0.2-2.7 0.6-0.6 0.3-1.2 0.9-1.4 2-0.1 1.3-1.2 2.7-3.7 2.7q-0.1 0-0.2 0c-2.9 0-6.3-2.4-11-5.7-1.8-1.3-3.9-2.7-6.1-4.2zm0 0.6c1.9 1.2 3.6 2.5 5.2 3.5l0.6 0.5c4.8 3.3 8.2 5.7 11.2 5.8q0.2 0 0.3 0c2.9 0 4.1-1.7 4.2-3.2q0.2-1 1.1-1.5c0.6-0.4 1.5-0.6 2.5-0.6 1.9 0 4 0.6 5.7 1.6 1.6 0.9 2.6 2.1 2.6 3q0 0.7-0.8 1.2c-0.4 0.3-1.4 0.6-3.1 0.7-1.1 0-3.7 0.2-4.8 1.5q-0.5 0.6-0.5 1.3c0.2 2 4.1 4 11.4 7.6 1.6 0.8 3.2 1.6 5 2.5q-1.5 0.9-2.9 1.7l-1 0.6h-0.1c-4.6 2.9-7.7 4.7-10.2 4.7q-0.2 0-0.3 0c-2-0.1-3.2-1.3-3.5-2.4-0.5-1.3-1.5-2.1-2.3-2.6-1.2-0.7-2.8-1-4.6-1-2 0-4 0.5-5.5 1.3-1.6 0.9-2.5 2.2-2.5 3.5 0 1.1 0.7 2.2 2 2.9 0.7 0.4 2 1 4.2 1.3 2.4 0.3 4.2 1 4.3 1.8 0.2 1.3-4.2 3.8-8.6 6.2q-1.9 1.1-4.1 2.3c-4.8-2.5-15.5-8-15.7-10.1q0-0.2 0.2-0.4c0.4-0.5 1.8-0.9 3.5-1 2.1-0.1 3.4-0.5 4-0.9 1-0.5 1.5-1.3 1.5-2.3 0-1.4-1.3-3-3.4-4.2-2-1.2-4.6-1.9-6.8-1.9-1.4 0-2.6 0.3-3.4 0.8-1 0.6-1.6 1.5-1.8 2.6-0.1 0.9-0.8 1.9-2.6 1.9h-0.2c-3.2-0.1-8.4-3.5-15-7.8l-1-0.6q1.3-0.8 2.4-1.5l1.1-0.6 0.1-0.1c4.6-2.8 7.7-4.6 10.3-4.6q0.1 0 0.3 0c2 0.1 3.1 1.4 3.5 2.4 0.5 1.4 1.5 2.2 2.3 2.6 1.2 0.7 2.8 1.1 4.5 1.1 2 0 4-0.5 5.6-1.4 1.5-0.9 2.5-2.2 2.5-3.5 0-1.1-0.7-2.1-2-2.9-0.7-0.4-2.1-1-4.2-1.2-2.4-0.3-4.2-1.1-4.3-1.9-0.2-1.3 4.4-3.9 9-6.4l0.2-0.1q1.9-1.1 3.9-2.2z" fill="#000000"/>
			</g>
		</g>
		<g id="Piece_2_">
			<path class="s3" d="m468.8 230.5c0 0-10.8-5.7-13.6-7.7q0.9-0.2 1.9-0.2c1.8-0.1 2.8-0.5 3.3-0.8 0.7-0.4 1.1-0.9 1.1-1.5 0-1 0-4.7 0-5.4 0-1-1-2.3-2.9-3.4-2.9-1.7-6.8-2.2-8.7-1.1-0.5 0.3-1.2 0.9-1.3 2-0.1 1.3-1.3 2.8-4 2.7-4-0.1-9.8-3.9-17.9-9.1l-0.1 0.1q-2.3 1.3-4.2 2.4-1.6 1-3 1.8c-3.5 2.1-6 3.2-8.5 3.1-2.7-0.2-4.3-1.8-4.8-3.2-0.3-1-1.2-1.7-1.8-2-2.2-1.3-6-1.1-8.5 0.3-1.3 0.8-2 1.8-2.1 2.7 0 0.9 0.1 4.4 0 5.4 0 0.8 0.5 1.6 1.5 2.2 0.6 0.3 1.7 0.8 3.6 1 0.9 0.1 1.9 0.3 2.8 0.6-1.7 1.2-4.1 2.5-6.8 4-1.4 0.8-4.4 2.5-4.4 2.5v5.3c0 0 14.9 9.4 18.7 9.5 2.2 0.1 3.1-1.2 3.3-2.4 0.1-1.2 0.9-1.8 1.5-2.2 2.1-1.2 6.5-0.7 9.7 1.1q0.6 0.4 1 0.7c-0.6 0.3-1.6 0.5-2.9 0.5-1.9 0.1-4.2 0.6-4.2 1.8q0 0.1 0 0.1c0.1 0.9 0 5.3 0 5.4 0.2 2.1 6.7 5.6 15.2 9.9q2.2-1.2 4.4-2.4c5.1-2.9 9.2-5.1 9.2-6.8 0 0 0-4.4 0-5.3q0-0.1 0-0.2c-0.2-1.3-2.6-2-4.7-2.3-1.9-0.2-3.2-0.7-3.9-1.1q0.2-0.1 0.4-0.2c2.8-1.7 7.1-1.8 9.6-0.3 0.7 0.4 1.6 1.1 2 2.3 0.5 1.2 1.8 2.6 4 2.7 2.9 0.2 5.9-1.7 11-4.7 1.3-0.7 4.1-2.4 4.1-2.4 0 0 0-5.4 0-5.4z" fill="#000000"/>
			<g>
				<path class="s4" d="m432.7 251c-8.1-4.1-14.7-7.7-14.9-9.7 0-1 2-1.6 4-1.6 2.1-0.1 3.2-0.6 3.8-0.9 0.9-0.5 1.4-1.2 1.4-2.1 0-1.3-1.2-2.8-3.3-4-1.9-1.1-4.4-1.8-6.7-1.8-1.3 0-2.4 0.2-3.3 0.7-0.6 0.4-1.4 1.1-1.6 2.4-0.1 1-0.9 2.2-2.9 2.2h-0.1c-3.7-0.1-11-4.6-18.2-9.3q2.1-1.2 4-2.2c6-3.4 9.9-5.5 9.6-7.5-0.3-1.7-3.1-2.7-5.7-3-1.4-0.1-2.6-0.5-3.5-1-0.9-0.5-1.3-1.2-1.3-2 0-0.9 0.7-1.8 1.9-2.5 1.3-0.7 3-1.1 4.7-1.1 1.4 0 2.7 0.3 3.6 0.8 0.5 0.2 1.3 0.9 1.7 1.9 0.5 1.4 2.1 3.2 5 3.3q0.2 0 0.4 0c2.4 0 4.9-1.1 8.2-3q1.4-0.8 3.1-1.8 1.8-1.2 4.1-2.5c7.7 5 13.8 9 17.9 9.1h0.2c2.7 0 3.9-1.6 4.1-3 0.1-1 0.7-1.5 1.1-1.8 0.7-0.3 1.6-0.5 2.6-0.5 2 0 4.1 0.6 5.9 1.6 1.7 1 2.7 2.2 2.7 3.2q0 0.9-0.9 1.4c-0.4 0.2-1.4 0.6-3.2 0.7-0.9 0-3.6 0.2-4.6 1.4q-0.5 0.5-0.4 1.2c0.1 2.2 6 5.7 16.2 11q-2 1.1-3.7 2.2c-4.7 2.8-7.8 4.6-10.6 4.6q-0.1 0-0.3 0c-2.1-0.1-3.3-1.4-3.7-2.5-0.5-1.3-1.5-2.1-2.2-2.5-1.2-0.7-2.7-1-4.4-1-2 0-4 0.5-5.4 1.3-1.5 0.9-2.4 2.1-2.4 3.3 0 1 0.7 2 1.9 2.7 0.6 0.4 1.9 0.9 4.1 1.2 2.1 0.2 4.3 1 4.5 2.1q0 0 0 0.1c0 1.5-4.2 3.8-9.1 6.5q-2.1 1.2-4.3 2.4z" fill="#000000"/>
				<path class="s5" d="m426.7 206l-0.1 0.1q-2.3 1.3-4.2 2.4-1.6 1-3 1.8c-3.3 2-5.7 3.1-8.1 3.1q-0.2 0-0.4 0c-2.7-0.2-4.3-1.8-4.8-3.2-0.3-1-1.2-1.7-1.8-2-1-0.6-2.3-0.9-3.7-0.9-1.7 0-3.4 0.4-4.8 1.2-1.3 0.8-2 1.8-2.1 2.7 0 0.9 0.5 1.6 1.5 2.2 0.6 0.4 1.7 0.9 3.6 1.1 2.3 0.2 5.2 1.1 5.4 2.7 0.3 1.8-3.8 4.1-9.4 7.3q-2.1 1.1-4.4 2.4c7.3 4.7 14.9 9.4 18.7 9.5q0 0 0.1 0c2.1 0 3-1.3 3.2-2.4 0.1-1.2 0.9-1.8 1.5-2.2 0.8-0.5 1.9-0.7 3.1-0.7 2.1 0 4.6 0.7 6.6 1.8 3.2 1.9 4.1 4.4 1.9 5.6-0.6 0.4-1.7 0.8-3.8 0.9-1.9 0.1-4.2 0.6-4.2 1.8q0 0.1 0 0.1c0.2 2.2 6.7 5.7 15.2 10q2.2-1.3 4.4-2.4c5.1-2.9 9.2-5.2 9.2-6.8q0-0.1 0-0.2c-0.2-1.3-2.6-2-4.7-2.3-2.1-0.2-3.3-0.7-4-1.2-2.5-1.4-2.3-3.9 0.5-5.5 1.5-0.8 3.4-1.3 5.3-1.3 1.6 0 3.1 0.4 4.3 1 0.7 0.4 1.6 1.2 2 2.4 0.5 1.1 1.8 2.5 4 2.7q0.2 0 0.3 0c2.8 0 5.9-1.8 10.7-4.7q1.9-1.2 4.1-2.5c-10.1-5.1-16.3-8.8-16.5-10.9-0.1-1.6 2.5-2.3 4.8-2.3 1.8-0.1 2.8-0.5 3.3-0.8 0.7-0.4 1.1-0.9 1.1-1.6 0-1-1-2.4-2.9-3.4-1.8-1.1-4.1-1.7-6-1.7-1 0-2 0.2-2.7 0.6-0.5 0.3-1.2 0.9-1.3 2-0.1 1.3-1.2 2.7-3.8 2.7q-0.1 0-0.2 0c-4-0.1-9.8-3.9-17.9-9.1zm0 0.6c8 5.2 13.8 8.9 17.9 9h0.2c2.9 0 4.1-1.7 4.3-3.2q0.1-1 1.1-1.5c0.6-0.4 1.4-0.6 2.4-0.6 1.9 0 4.1 0.6 5.8 1.6 1.6 0.9 2.6 2.1 2.6 3q0 0.7-0.8 1.2c-0.4 0.2-1.3 0.6-3.1 0.7-1.1 0-3.8 0.2-4.8 1.5q-0.6 0.6-0.5 1.3c0.2 2.1 4.2 4.9 16 11q-1.8 1-3.3 1.9c-4.7 2.8-7.8 4.7-10.5 4.7q-0.1 0-0.3 0c-2-0.1-3.1-1.4-3.5-2.4-0.5-1.4-1.5-2.2-2.3-2.6-1.2-0.7-2.8-1.1-4.5-1.1-2 0-4 0.5-5.6 1.4-1.5 0.9-2.4 2.2-2.5 3.5 0 1.1 0.7 2.1 2 2.9 0.7 0.4 2.1 1 4.3 1.2 2.3 0.3 4.1 1.1 4.2 1.9q0 0 0 0.1c0 1.3-4.5 3.9-8.9 6.3h-0.1c-1.6 0.9-2.9 1.6-4.1 2.4-5.9-3.1-14.5-7.5-14.7-9.6 0-0.6 1.6-1.2 3.8-1.3 2.1-0.1 3.3-0.6 4-0.9 0.9-0.6 1.4-1.4 1.4-2.3 0-1.4-1.2-3-3.3-4.2-2.1-1.2-4.6-1.9-6.9-1.9-1.3 0-2.5 0.3-3.4 0.8-1 0.5-1.6 1.5-1.7 2.5-0.1 1-0.9 2-2.7 2h-0.1c-3.6-0.1-10.6-4.4-17.7-9 1.3-0.7 2.5-1.4 3.6-2h0.1c6-3.4 10-5.6 9.6-7.8-0.3-1.8-3.2-2.8-5.8-3.1-1.8-0.2-2.9-0.7-3.4-1-0.8-0.5-1.3-1.1-1.3-1.8 0-0.8 0.7-1.6 1.9-2.3 1.2-0.7 2.9-1.1 4.5-1.1 1.4 0 2.6 0.3 3.5 0.8 0.4 0.2 1.2 0.8 1.6 1.8 0.5 1.5 2.2 3.3 5.1 3.5q0.3 0 0.5 0c2.5 0 5-1.2 8.3-3.1q1.4-0.8 3.1-1.8c1.4-0.9 2.7-1.6 4-2.4z" fill="#000000"/>
			</g>
		</g>
		<g id="Piece_00000003075844221420919280000005620532599775695751_">
			<path class="s6" d="m464 340.3c0 0-9.8-5.1-12.5-7q0.9-0.2 1.9-0.3c1.8 0 2.8-0.4 3.4-0.7 0.7-0.4 1-1 1-1.7 0-1 0-4.6 0-5.3 0-1.1-1.1-2.3-2.9-3.4-2.9-1.6-6.8-2.1-8.7-1-0.5 0.3-1.1 0.9-1.3 1.9-0.1 1.3-1.3 2.9-4 2.8-3.8-0.1-9.9-3.9-18.7-9.6l-35.8 20.7v5.4c0 0 9.7 5.2 12.3 7.1-0.7 0.2-1.4 0.2-2.1 0.3-1.8 0-2.8 0.4-3.3 0.7-0.7 0.4-1 1-1.1 1.6 0 1 0 4.7 0 5.3 0 1.1 1.1 2.4 2.9 3.5 2.9 1.7 6.8 2.1 8.7 1 0.5-0.3 1.2-0.9 1.3-1.9 0.2-1.3 1.3-2.8 4-2.8 3.6 0.1 9.2 3.4 16.9 8q1.1 0.7 2.4 1.4c2.6-1.5 5.1-2.7 7.4-3.8 3.8-1.8 6.6-3.1 6.3-4.4-0.1-1.1 0.2-4.3 0-5.3-0.2-1.3-2.6-2.1-4.7-2.3-1.9-0.2-3.1-0.7-3.9-1.1q0.2-0.1 0.4-0.3c2.8-1.6 7.1-1.7 9.6-0.3 0.7 0.4 1.6 1.2 2 2.3 0.5 1.2 1.8 2.6 4 2.8 2.2 0.1 4.5-1.5 7.6-3.7 1.8-1.3 6.9-4.5 6.9-4.5 0 0 0-5.4 0-5.4z" fill="#000000"/>
			<path class="s8" d="m464 340.3c0 0-9.8-5.1-12.5-7q0.9-0.2 1.9-0.3c1.8 0 2.8-0.4 3.4-0.7 0.7-0.4 1-1 1-1.7 0-1 0-4.6 0-5.3 0-1.1-1.1-2.3-2.9-3.4-2.9-1.6-6.8-2.1-8.7-1-0.5 0.3-1.1 0.9-1.3 1.9-0.1 1.3-1.3 2.9-4 2.8-3.8-0.1-9.9-3.9-18.7-9.6l-35.8 20.7v5.4c0 0 9.7 5.2 12.3 7.1-0.7 0.2-1.4 0.2-2.1 0.3-1.8 0-2.8 0.4-3.3 0.7-0.7 0.4-1 1-1.1 1.6 0 1 0 4.7 0 5.3 0 1.1 1.1 2.4 2.9 3.5 2.9 1.7 6.8 2.1 8.7 1 0.5-0.3 1.2-0.9 1.3-1.9 0.2-1.3 1.3-2.8 4-2.8 3.6 0.1 9.2 3.4 16.9 8q1.1 0.7 2.4 1.4c2.6-1.5 5.1-2.7 7.4-3.8 3.8-1.8 6.6-3.1 6.3-4.4-0.1-1.1 0.2-4.3 0-5.3-0.2-1.3-2.6-2.1-4.7-2.3-1.9-0.2-3.1-0.7-3.9-1.1q0.2-0.1 0.4-0.3c2.8-1.6 7.1-1.7 9.6-0.3 0.7 0.4 1.6 1.2 2 2.3 0.5 1.2 1.8 2.6 4 2.8 2.2 0.1 4.5-1.5 7.6-3.7 1.8-1.3 6.9-4.5 6.9-4.5 0 0 0-5.4 0-5.4z" fill="#000000"/>
			<path class="s6" d="m464 340.3c-2.8 1.7-5.1 3.3-6.9 4.6-3.1 2.2-5.4 3.8-7.6 3.6-2.2-0.1-3.5-1.5-4-2.7-0.4-1.2-1.3-1.9-2-2.3-2.5-1.5-6.8-1.3-9.6 0.3-2.8 1.6-3 4.1-0.5 5.5 0.7 0.4 2 1 4 1.2 2.1 0.2 4.5 1 4.7 2.3 0.3 1.3-2.5 2.6-6.3 4.4-2.3 1-4.8 2.2-7.4 3.8q-1.3-0.8-2.4-1.5c-7.7-4.5-13.3-7.8-16.9-7.9-2.7-0.1-3.8 1.4-4 2.8-0.1 1-0.8 1.6-1.3 1.9-1.9 1.1-5.8 0.6-8.7-1.1-1.8-1-2.9-2.3-2.9-3.4 0.1-0.6 0.4-1.2 1.1-1.6 0.5-0.3 1.5-0.7 3.3-0.7 2.3-0.1 5-0.8 4.8-2.3-0.2-2.3-6.1-5.9-15-10.5l35.8-20.7c8.9 5.7 14.9 9.5 18.7 9.6 2.7 0 3.9-1.5 4-2.8 0.2-1 0.8-1.6 1.3-1.9 1.9-1.1 5.8-0.7 8.7 1 1.8 1.1 2.9 2.3 2.9 3.4 0 0.7-0.3 1.2-1 1.6-0.6 0.3-1.6 0.7-3.4 0.8-2.3 0.1-4.9 0.7-4.8 2.3 0.2 2.3 6.5 5.8 15.4 10.3z" fill="#000000"/>
			<path class="s9" d="m464 340.3c-2.8 1.7-5.1 3.3-6.9 4.6-3.1 2.2-5.4 3.8-7.6 3.6-2.2-0.1-3.5-1.5-4-2.7-0.4-1.2-1.3-1.9-2-2.3-2.5-1.5-6.8-1.3-9.6 0.3-2.8 1.6-3 4.1-0.5 5.5 0.7 0.4 2 1 4 1.2 2.1 0.2 4.5 1 4.7 2.3 0.3 1.3-2.5 2.6-6.3 4.4-2.3 1-4.8 2.2-7.4 3.8q-1.3-0.8-2.4-1.5c-7.7-4.5-13.3-7.8-16.9-7.9-2.7-0.1-3.8 1.4-4 2.8-0.1 1-0.8 1.6-1.3 1.9-1.9 1.1-5.8 0.6-8.7-1.1-1.8-1-2.9-2.3-2.9-3.4 0.1-0.6 0.4-1.2 1.1-1.6 0.5-0.3 1.5-0.7 3.3-0.7 2.3-0.1 5-0.8 4.8-2.3-0.2-2.3-6.1-5.9-15-10.5l35.8-20.7c8.9 5.7 14.9 9.5 18.7 9.6 2.7 0 3.9-1.5 4-2.8 0.2-1 0.8-1.6 1.3-1.9 1.9-1.1 5.8-0.7 8.7 1 1.8 1.1 2.9 2.3 2.9 3.4 0 0.7-0.3 1.2-1 1.6-0.6 0.3-1.6 0.7-3.4 0.8-2.3 0.1-4.9 0.7-4.8 2.3 0.2 2.3 6.5 5.8 15.4 10.3z" fill="#000000"/>
		</g>
		<g id="Piece_00000145031691138632339730000012652379864164716416_">
			<path class="s3" d="m109.1 304.9c0 0-9.9-5.2-12.6-7.1q1-0.2 2-0.2c1.8-0.1 2.8-0.5 3.3-0.8 0.8-0.4 1.1-1 1.1-1.6-0.1-1 0-4.7 0-5.4-0.1-1-1.1-2.3-2.9-3.3-2.9-1.7-6.8-2.2-8.7-1.1-0.5 0.3-1.2 0.9-1.3 1.9-0.1 1.4-1.3 2.9-4 2.8-3.8-0.1-9.9-3.8-18.7-9.5l-35.9 20.7v5.3c0 0 9.8 5.2 12.4 7.1-0.7 0.2-1.4 0.3-2.1 0.3-1.8 0.1-2.8 0.4-3.4 0.8-0.6 0.4-1 0.9-1 1.5 0 1 0 4.7 0 5.3 0 1.1 1 2.4 2.9 3.5 2.9 1.7 6.8 2.2 8.7 1.1 0.5-0.3 1.2-0.9 1.3-2 0.1-1.3 1.3-2.8 4-2.7 3.6 0.1 9.1 3.4 16.8 7.9q1.2 0.7 2.4 1.4c2.7-1.5 5.2-2.7 7.5-3.7 3.8-1.8 6.5-3.1 6.3-4.5-0.2-1.1 0.2-4.3 0-5.3-0.2-1.3-2.7-2-4.7-2.3-1.9-0.2-3.2-0.7-3.9-1.1q0.2-0.1 0.4-0.3c2.8-1.6 7.1-1.7 9.6-0.3 0.7 0.5 1.6 1.2 2 2.4 0.5 1.2 1.7 2.6 4 2.7 2.2 0.1 4.5-1.5 7.6-3.7 1.8-1.3 6.9-4.5 6.9-4.5 0 0 0-5.3 0-5.3z" fill="#000000"/>
			<g>
				<path class="s4" d="m73.4 325.2q-1.1-0.7-2.2-1.3l-0.2-0.1c-7.6-4.6-13.2-7.8-16.8-7.9h-0.2c-2.7 0-3.9 1.6-4.1 3-0.1 0.9-0.7 1.4-1.2 1.7-0.6 0.4-1.5 0.6-2.6 0.6-1.9 0-4.1-0.6-5.8-1.6-1.7-1-2.7-2.3-2.7-3.3q0-0.8 0.9-1.3c0.4-0.3 1.3-0.7 3.2-0.8 0.8 0 3.6-0.2 4.7-1.4q0.4-0.5 0.3-1.1c-0.2-2.4-5.8-5.8-14.7-10.5l35.3-20.4c8.8 5.7 14.8 9.4 18.7 9.5l0.2 0.1c2.7 0 3.9-1.7 4-3 0.2-1 0.8-1.5 1.2-1.8 0.7-0.4 1.6-0.5 2.6-0.5 1.9 0 4.1 0.6 5.9 1.6 1.7 0.9 2.7 2.1 2.7 3.2q0 0.8-0.9 1.4c-0.5 0.2-1.5 0.6-3.2 0.7-0.9 0-3.6 0.2-4.7 1.4q-0.4 0.5-0.4 1.2c0.2 2.4 6.1 5.6 15.1 10.3-2.6 1.6-4.8 3.1-6.5 4.3-2.9 2.1-5.1 3.6-7.2 3.6q-0.1 0-0.2 0c-2.1-0.1-3.3-1.4-3.7-2.5-0.4-1-1.1-1.9-2.2-2.5-1.2-0.7-2.7-1-4.4-1-2 0-4 0.5-5.4 1.3-1.5 0.9-2.4 2.1-2.4 3.3 0 1 0.6 2 1.8 2.7 0.8 0.4 2.1 0.9 4.2 1.2 2 0.2 4.3 1 4.5 2.1 0.1 1.1-2.8 2.5-6.2 4.1-2.3 1.1-4.8 2.3-7.4 3.7z" fill="#000000"/>
				<path class="s5" d="m67.3 280.6l-35.9 20.7c9 4.6 14.9 8.1 15.1 10.4 0.1 1.5-2.5 2.2-4.8 2.3-1.8 0.1-2.8 0.4-3.4 0.8-0.6 0.3-1 0.9-1 1.5 0 1.1 1 2.4 2.9 3.5 1.8 1 4.1 1.6 5.9 1.6 1.1 0 2.1-0.2 2.8-0.6 0.5-0.3 1.2-0.9 1.3-1.9 0.1-1.3 1.2-2.8 3.8-2.8q0.1 0 0.2 0c3.6 0.1 9.1 3.4 16.8 8q1.2 0.7 2.4 1.4c2.7-1.5 5.2-2.7 7.5-3.8 3.8-1.8 6.5-3.1 6.3-4.4-0.2-1.3-2.7-2-4.7-2.3-2.1-0.2-3.3-0.8-4-1.2-2.5-1.4-2.3-3.9 0.5-5.5 1.5-0.8 3.4-1.3 5.3-1.3 1.6 0 3.1 0.3 4.3 1 0.7 0.4 1.6 1.2 2 2.3 0.4 1.2 1.7 2.6 4 2.8q0.1 0 0.2 0c2.2 0 4.4-1.6 7.4-3.7 1.8-1.3 4.1-2.9 6.9-4.5-8.9-4.6-15.2-8-15.4-10.4-0.1-1.5 2.5-2.2 4.8-2.3 1.8 0 2.8-0.4 3.3-0.7 0.8-0.4 1.1-1 1.1-1.7-0.1-1-1.1-2.3-2.9-3.3-1.8-1.1-4.1-1.7-6-1.7-1 0-2 0.2-2.7 0.6-0.5 0.3-1.2 0.9-1.3 1.9-0.1 1.3-1.2 2.8-3.8 2.8q-0.1 0-0.2 0c-3.8-0.1-9.9-3.8-18.7-9.5zm0 0.5c8.7 5.7 14.8 9.4 18.7 9.5q0.1 0 0.2 0c2.9 0 4.1-1.7 4.3-3.2q0.1-1 1.1-1.6c0.6-0.3 1.4-0.5 2.4-0.5 1.9 0 4 0.6 5.8 1.6 1.5 0.9 2.5 2 2.6 3q0 0.7-0.8 1.1c-0.5 0.3-1.4 0.7-3.1 0.7-1.1 0.1-3.8 0.3-4.8 1.5q-0.6 0.6-0.5 1.4c0.2 2.5 6 5.7 14.8 10.3-2.5 1.5-4.5 3-6.1 4.1-2.9 2.1-5.1 3.6-7.1 3.6q-0.1 0-0.2 0c-2-0.1-3.1-1.4-3.5-2.4-0.4-1.1-1.2-2-2.3-2.6-1.2-0.7-2.8-1.1-4.5-1.1-2 0-4.1 0.5-5.6 1.4-1.6 0.9-2.5 2.2-2.5 3.5 0 1.1 0.7 2.1 2 2.9 0.8 0.4 2.1 1 4.2 1.2 2.4 0.3 4.2 1.1 4.3 1.9 0.2 0.9-3 2.4-6 3.9-2.3 1-4.7 2.2-7.3 3.6q-1.1-0.6-2.1-1.3h-0.1c-7.7-4.6-13.3-7.9-17-8h-0.2c-2.9 0-4.1 1.7-4.3 3.2q-0.1 1-1.1 1.6c-0.6 0.3-1.4 0.5-2.5 0.5-1.8 0-4-0.6-5.7-1.6-1.6-0.9-2.6-2-2.6-3q0-0.7 0.8-1.1c0.4-0.2 1.3-0.6 3.1-0.7 1.1-0.1 3.8-0.3 4.8-1.5q0.6-0.6 0.5-1.3c-0.2-2.2-4.1-5.1-14.5-10.5z" fill="#000000"/>
			</g>
		</g>
	</g>
</svg>