<svg xmlns="http://www.w3.org/2000/svg" version="1.2" viewBox="0 0 500 500" width="2000" height="2000">
	<title>23672915_6787846</title>
	<style>
		.s0 { fill: #da26ff } 
		.s1 { opacity: .2;fill: #ffffff } 
		.s2 { opacity: .25;fill: #ffffff } 
		.s3 { opacity: .4;fill: #ffffff } 
		.s4 { opacity: .1;fill: #000000 } 
		.s5 { opacity: .05;fill: #000000 } 
		.s6 { opacity: .1;fill: #ffffff } 
		.s7 { opacity: .4;fill: #000000 } 
		.s8 { opacity: .5;fill: #000000 } 
		.s9 { opacity: .25;fill: #000000 } 
		.s10 { fill: #f5f5f5 } 
		.s11 { opacity: .35;fill: #000000 } 
		.s12 { opacity: .45;fill: #000000 } 
		.s13 { opacity: .15;fill: #000000 } 
		.s14 { fill: #000000 } 
		.s15 { fill: #ffffff } 
		.s16 { fill: #fafafa } 
		.s17 { fill: #263238 } 
		.s18 { fill: #455a64 } 
		.s19 { fill: #37474f } 
		.s20 { fill: #f0f0f0 } 
		.s21 { fill: #e0e0e0 } 
		.s22 { fill: #ffa8a7 } 
		.s23 { fill: #b16668 } 
		.s24 { fill: #f28f8f } 
		.s25 { opacity: .3;fill: #ffffff } 
	</style>
	<g id="Arrow_00000079470841335385305170000004129995500770782639_">
		<g id="Arrow_00000018238396583817833410000006135018785314357935_">
			<g>
				<path class="s0" d="m100 331.3l75.1 43.4 0.3-0.1 2.1-1.2q1-0.6 2-1.2c10-5.8 17-10 16.5-13.3-0.4-2.5-4.9-3.9-8.6-4.3-2.9-0.4-4.7-1.1-5.7-1.7-1.6-0.9-2.3-2.1-2.3-3.4 0-1.5 1.1-3.1 3.3-4.4 4-2.3 10-2.5 13.5-0.5 1 0.5 2.2 1.6 2.9 3.3 0.7 2.1 3.2 4.7 7.4 4.9 6 0.3 12.6-3.5 23.5-9.8l2.6-1.5-75.1-43.4zm200.3 49.2q-3.6 2-6.9 3.9c-9 5-15.5 8.5-15 11.5q0.2 1 1.2 1.8c1.7 1.4 4.7 2.2 7.4 2.5 2.9 0.3 4.7 1.1 5.7 1.7 1.5 0.9 2.3 2.1 2.3 3.4q0 1.1-0.9 2.3c-0.5 0.7-1.3 1.4-2.4 2.1-4 2.3-10 2.5-13.5 0.5-1-0.6-2.3-1.6-2.9-3.3-0.8-2.1-3.2-4.7-7.5-4.9-5-0.3-10.1 2.8-18 7.6-2.1 1.2-4.4 2.7-7 4.2l3.9 2.2 90.2 52.1c23.9-5.4 46.6-13.2 67-23.3q2.1-1 4.2-2.1z" fill="#000000"/>
				<path class="s1" d="m100 331.3l75.1 43.4 0.3-0.1 2.1-1.2q1-0.6 2-1.2c10-5.8 17-10 16.5-13.3-0.4-2.5-4.9-3.9-8.6-4.3-2.9-0.4-4.7-1.1-5.7-1.7-1.6-0.9-2.3-2.1-2.3-3.4 0-1.5 1.1-3.1 3.3-4.4 4-2.3 10-2.5 13.5-0.5 1 0.5 2.2 1.6 2.9 3.3 0.7 2.1 3.2 4.7 7.4 4.9 6 0.3 12.6-3.5 23.5-9.8l2.6-1.5-75.1-43.4zm200.3 49.2q-3.6 2-6.9 3.9c-9 5-15.5 8.5-15 11.5q0.2 1 1.2 1.8c1.7 1.4 4.7 2.2 7.4 2.5 2.9 0.3 4.7 1.1 5.7 1.7 1.5 0.9 2.3 2.1 2.3 3.4q0 1.1-0.9 2.3c-0.5 0.7-1.3 1.4-2.4 2.1-4 2.3-10 2.5-13.5 0.5-1-0.6-2.3-1.6-2.9-3.3-0.8-2.1-3.2-4.7-7.5-4.9-5-0.3-10.1 2.8-18 7.6-2.1 1.2-4.4 2.7-7 4.2l3.9 2.2 90.2 52.1c23.9-5.4 46.6-13.2 67-23.3q2.1-1 4.2-2.1z" fill="#000000"/>
			</g>
			<path class="s0" d="m177.3 200.7l-48.5-49.5-48.6 105.5 19.8-11.4v86l57.5-33.2v-86z" fill="#000000"/>
		</g>
	</g>
	<g id="Coin_00000088831716268368035170000008379849802978072730_">
		<g id="Coin_00000125580291012006221680000011440498356264241552_">
			<g id="Coin_00000161592142509292317940000015832490346552189101_">
				<g id="XMLID_00000119823927730785166890000000291229535279274939_">
					<path id="XMLID_00000142143898696469992710000004678300531809650307_" class="s0" d="m156.2 47.4l2.5-5.1-10.8-6.3q-2-1.1-4.1-1.7-0.8-0.2-1.5-0.3-3.6-0.6-7.6 0.2-1.4 0.3-2.8 0.7-1.4 0.5-2.8 1.1-1.8 0.8-3.6 1.9-2 1.1-3.8 2.5-1.4 1-2.8 2.2c-13.4 11.3-23.9 31.4-26.6 50.8q-0.3 2-0.5 4-0.2 2.8-0.2 5.6 0 2.2 0.2 4.3 0.1 1.9 0.4 3.6 0.3 1.7 0.6 3.2v0.1q1.2 4.7 3.2 8.3 0.4 0.7 0.9 1.5 2 3.1 4.8 5.1 0.8 0.7 1.7 1.2l10.2 5.9 2.3-4.7q0.9-0.2 1.8-0.5 3.5-1 7.1-3.2 2.1-1.2 4.2-2.7 2.6-2 5.1-4.4c11.2-10.8 20-27.6 23.2-44.4q0.8-3.7 1.1-7.4 0.3-3.1 0.3-6.1-0.1-4.7-0.8-8.7-0.6-3.6-1.7-6.7z" fill="#000000"/>
					<g id="XMLID_00000096738391266958487100000018348023762546472839_">
						<path id="XMLID_00000058557387239804296130000015772187739729965213_" class="s2" d="m94.7 82l21.9 12.6 2.9-8.3-21.9-12.7q-1.6 4.1-2.9 8.4z" fill="#000000"/>
						<path id="XMLID_00000041985330796156816860000011177133807876112292_" class="s2" d="m147.9 36q-2-1.1-4.1-1.7-0.8-0.2-1.5-0.3-3.6-0.6-7.6 0.2-0.5 0.1-1 0.2l22.5 13.1q0-0.1 0-0.1l2.5-5.1z" fill="#000000"/>
						<path id="XMLID_00000134950244613172281860000010657807740931721866_" class="s2" d="m145.5 68l2.9-3.4-32.8-19q-1.6 1.6-3.1 3.3z" fill="#000000"/>
						<path id="XMLID_00000158749233507283071860000001700529557987489718_" class="s2" d="m105.5 58.2l28.5 16.4 3.1-8.2-26.5-15.3q-2.7 3.4-5.1 7.1z" fill="#000000"/>
						<path id="XMLID_00000154428338914779398920000015264847102646241979_" class="s3" d="m147.9 36q-2-1.1-4.1-1.7-0.8-0.2-1.5-0.3-3.6-0.6-7.6 0.2-1.4 0.3-2.8 0.7-1.4 0.5-2.8 1.1-1.8 0.8-3.6 1.9-2 1.1-3.8 2.5-1.4 1-2.8 2.2c-12.5 10.5-22.5 28.7-26 46.8l45.7 26.4c9-10.6 16-25 18.7-39.5q0.8-3.7 1.1-7.4 0.3-3.1 0.3-6.1-0.1-4.7-0.8-8.7-0.6-3.6-1.7-6.7l2.5-5.1z" fill="#000000"/>
					</g>
					<path id="XMLID_00000008134915187513738070000009682929336941904263_" class="s4" d="m113.6 136.2l2.3-4.7q0.9-0.2 1.8-0.5 3.5-1 7.1-3.2 2.1-1.2 4.2-2.7 2.6-2 5.1-4.4 2.4-2.3 4.5-4.9l-45.7-26.4q-0.3 2.1-0.6 4-0.3 2-0.5 4-0.2 2.8-0.2 5.6 0 2.2 0.2 4.3 0.1 1.9 0.4 3.6 0.3 1.7 0.6 3.3 1.2 4.7 3.2 8.3 0.4 0.7 0.9 1.5 2 3.1 4.8 5.1 0.8 0.7 1.7 1.2z" fill="#000000"/>
					<path id="XMLID_00000047743514521568493300000007641045332213954182_" class="s4" d="m96 122.5q0.4 0.7 0.9 1.5 2 3.1 4.8 5.1 0.8 0.7 1.7 1.2l10.2 5.9 2.3-4.7q0 0 0.1-0.1l0.1-1.9-22.7-13.1q1.1 3.4 2.6 6.1z" fill="#000000"/>
				</g>
				<g id="XMLID_00000103975705421805695530000015599993469919497141_">
					<path id="XMLID_00000118396842669779185410000005543796306581340345_" class="s0" d="m169.5 60.8q-0.8-4.8-2.5-8.6c-1.7-3.8-4-6.7-6.7-8.8q-2.7-2.1-5.9-2.9-0.8-0.2-1.5-0.4-3.6-0.6-7.6 0.2-1.4 0.3-2.8 0.8-1.4 0.4-2.8 1.1-1.8 0.7-3.6 1.8-2 1.1-3.8 2.5-1.4 1-2.8 2.2c-13.4 11.3-24 31.5-26.6 50.9q-0.3 2-0.5 3.9-0.2 2.8-0.2 5.6 0 2.2 0.2 4.4 0.1 1.8 0.4 3.5 0.3 1.7 0.6 3.3 1.2 4.7 3.2 8.3 0.4 0.8 0.9 1.5 2 3.1 4.8 5.2c2.7 2 5.9 3.2 9.4 3.3q3.6 0.2 7.5-0.9 3.5-1.1 7.2-3.2 2.1-1.2 4.1-2.8 2.7-1.9 5.2-4.3c11.1-10.8 20-27.6 23.2-44.4q0.7-3.7 1-7.4 0.3-3.1 0.3-6.2 0-4.6-0.7-8.6z" fill="#000000"/>
					<path id="XMLID_00000032610147865085058740000003727107418936308143_" class="s5" d="m103.5 95.5q-0.3 2.1-0.6 4.1-0.3 2-0.5 3.9-0.2 2.8-0.2 5.6 0 2.2 0.2 4.4 0.1 1.8 0.4 3.5 0.3 1.7 0.6 3.3 1.2 4.7 3.2 8.3 0.4 0.8 0.9 1.5 2 3.1 4.8 5.2c2.7 2 5.9 3.2 9.4 3.3q3.6 0.2 7.6-0.9 3.4-1.1 7.1-3.2 1.8-1.1 3.7-2.4z" fill="#000000"/>
					<path id="XMLID_00000064333651599644946280000008295418335541367742_" class="s5" d="m104.1 122.6q1 3.3 2.5 6 0.4 0.8 0.9 1.5 2 3.1 4.8 5.2c2.2 1.6 4.8 2.7 7.6 3.2z" fill="#000000"/>
					<g id="XMLID_00000034785071626449461300000003779326485222526867_">
						<path id="XMLID_00000014621911929755112680000005579474550935936950_" class="s6" d="m108.2 79.8q-1.6 4.1-2.9 8.3l39.8 39.8q0.3-0.3 0.6-0.5 2.5-2.5 4.8-5.3z" fill="#000000"/>
						<path id="XMLID_00000023240859505667663510000017915498805799029397_" class="s6" d="m121.2 57.3q-2.7 3.3-5.1 7l43.8 43.8q2.1-4 3.9-8.3z" fill="#000000"/>
						<path id="XMLID_00000066493020743400114580000014651060954471240362_" class="s6" d="m126.2 51.8q-1.6 1.5-3.1 3.2l41.8 41.9q0.9-2.4 1.7-4.7z" fill="#000000"/>
						<path id="XMLID_00000110464890336442174520000017347831375370000818_" class="s6" d="m170.1 66.4q-0.1-1.2-0.2-2.4 0-0.4-0.1-0.7 0-0.4-0.1-0.8-0.1-0.9-0.2-1.7-0.8-4.8-2.5-8.6c-1.7-3.8-4-6.7-6.7-8.8q-2.7-2.1-5.9-2.9-0.8-0.2-1.5-0.4-3.6-0.6-7.6 0.2-0.5 0.1-1 0.3z" fill="#000000"/>
					</g>
					<path id="XMLID_00000097496037548572534680000004187326061974025407_" class="s0" d="m161.5 74.6c0 17.9-10.4 38.6-23.6 47.4q-0.8 0.5-1.7 1c-14 8.1-25.3-0.5-25.3-19.1 0-18.7 11.3-40.3 25.3-48.4q0.9-0.5 1.7-0.9c13.2-6.5 23.6 2.1 23.6 20z" fill="#000000"/>
					<path id="XMLID_00000171683894932700560360000015742750760302381988_" class="s7" d="m161.5 74.6c0 17.9-10.4 38.6-23.6 47.4q-0.8 0.5-1.7 1c-14 8.1-25.3-0.5-25.3-19.1 0-18.7 11.3-40.3 25.3-48.4q0.9-0.5 1.7-0.9c13.2-6.5 23.6 2.1 23.6 20z" fill="#000000"/>
					<path id="XMLID_00000138552461113749515760000013079011890165917333_" class="s0" d="m160.4 75.3q0 0.9 0 1.7c-0.7 16.7-10.4 35.4-22.6 43.5q-0.1 0.1-0.3 0.2-0.6 0.5-1.3 0.8c-2.7 1.6-5.2 2.5-7.6 2.8-5.7 0.8-10.4-1.7-13.4-6.8-1.7-3-2.8-6.9-3.1-11.5q-0.1-1.4-0.1-2.8 0-1.2 0.1-2.5 0.1-2.8 0.6-5.5c2.1-12.9 9-26.1 17.7-34q1.9-1.7 3.9-3 0.9-0.7 1.9-1.2 0.8-0.5 1.6-0.9 0.3-0.1 0.5-0.2c3.6-1.7 7-2.2 10-1.6 5.1 1 9 5.1 10.9 11.5 0.8 2.8 1.2 5.9 1.2 9.5z" fill="#000000"/>
					<path id="XMLID_00000036222404059797091010000001122022646586328449_" class="s8" d="m160.4 75.3q0 0.9 0 1.7c-0.7 16.7-10.4 35.4-22.6 43.5q-0.1 0.1-0.3 0.2-0.6 0.5-1.3 0.8c-2.7 1.6-5.2 2.5-7.6 2.8-5.7 0.8-10.4-1.7-13.4-6.8-1.7-3-2.8-6.9-3.1-11.5q-0.1-1.4-0.1-2.8 0-1.2 0.1-2.5 0.1-2.8 0.6-5.5c2.1-12.9 9-26.1 17.7-34q1.9-1.7 3.9-3 0.9-0.7 1.9-1.2 0.8-0.5 1.6-0.9 0.3-0.1 0.5-0.2c3.6-1.7 7-2.2 10-1.6 5.1 1 9 5.1 10.9 11.5 0.8 2.8 1.2 5.9 1.2 9.5z" fill="#000000"/>
					<path id="XMLID_00000166669390962132260560000001331902899929780671_" class="s0" d="m156.4 74.7q0-0.9 0-1.7c0-3.6-0.4-6.8-1.2-9.5-1.1-3.8-2.9-6.7-5.2-8.7q-0.8-0.3-1.7-0.5c-3-0.6-6.4-0.1-10 1.6q-0.2 0.1-0.5 0.2-0.8 0.4-1.6 0.9-1 0.5-1.9 1.2-2 1.3-3.9 3c-8.7 7.9-15.6 21.1-17.7 34q-0.5 2.7-0.6 5.5-0.1 1.3-0.1 2.5 0 1.4 0.1 2.8c0.3 4.6 1.4 8.5 3.1 11.5q1.4 2.3 3.2 3.9c1.9 0.7 4 0.9 6.2 0.6 2.4-0.4 4.9-1.3 7.6-2.8q0.6-0.4 1.3-0.8 0.1-0.1 0.3-0.2c12.2-8.1 21.9-26.8 22.6-43.5z" fill="#000000"/>
					<path id="XMLID_00000123435018418928278100000000081469838318128011_" class="s9" d="m156.4 74.7q0-0.9 0-1.7c0-3.6-0.4-6.8-1.2-9.5-1.1-3.8-2.9-6.7-5.2-8.7q-0.8-0.3-1.7-0.5c-3-0.6-6.4-0.1-10 1.6q-0.2 0.1-0.5 0.2-0.8 0.4-1.6 0.9-1 0.5-1.9 1.2-2 1.3-3.9 3c-8.7 7.9-15.6 21.1-17.7 34q-0.5 2.7-0.6 5.5-0.1 1.3-0.1 2.5 0 1.4 0.1 2.8c0.3 4.6 1.4 8.5 3.1 11.5q1.4 2.3 3.2 3.9c1.9 0.7 4 0.9 6.2 0.6 2.4-0.4 4.9-1.3 7.6-2.8q0.6-0.4 1.3-0.8 0.1-0.1 0.3-0.2c12.2-8.1 21.9-26.8 22.6-43.5z" fill="#000000"/>
				</g>
				<g id="XMLID_00000075132414055110467620000010100104131838977718_">
					<path id="XMLID_00000024681824209293380630000005470458831444752309_" class="s10" d="m152.9 40.1c-14.7-1.6-26.6 10.5-34.5 21.4-11.5 16.9-18.7 38.3-14.8 58.8v-0.1c1.3 5.7 3.9 11.4 8.7 15.1-4.9-3.6-7.7-9.3-9.1-15-3.6-16.8 1-34.4 8.7-49.4 8.2-14.8 22.1-32.8 41-30.8z" fill="#000000"/>
				</g>
				<g id="Money_Sign_00000079455756414862235930000005432306074181280188_">
					<path id="XMLID_00000005241710871265994940000014507775267753815692_" class="s11" d="m141.8 79.8l-4.9-2.8 9.4-8 4.9 2.8z" fill="#000000"/>
					<g id="XMLID_00000129202578513189521170000016571450281818845313_">
						<path id="XMLID_00000048482401053006639100000017791765776754614450_" class="s11" d="m144.8 81.6c-2.5-1.7-6.8-0.4-10.5 0.8q-1.3 0.4-2.4 0.7-0.3 0.9-0.3 1.7c0 2.9 2.4 2.1 7.6 0.4 1.7-0.6 3.6-1.2 5.4-1.5 0.1 1.5 1.1 2.8 5 0.7z" fill="#000000"/>
						<path id="XMLID_00000106130851428494421520000010648409715594900890_" class="s12" d="m132.7 118.5l-4.8-2.8v-5.8l4.8 2.9z" fill="#000000"/>
						<path id="XMLID_00000029734286363501257810000002294040162454810021_" class="s11" d="m141 96.7c0 2.3-1.7 4.3-4.3 5.8-4 2.4-5.6 0.4-5.9-1.4l-0.9-0.5q0.9-0.3 2-0.9c1.9-1.1 3.3-2.6 3.9-4.2 3-1 5.2-1.4 5.2 1.2z" fill="#000000"/>
					</g>
					<path id="XMLID_00000011752250412428444150000015231847543985826449_" class="s11" d="m122.9 110.8c-0.5-0.4-1.1-0.5-1.8-0.5q-0.1-0.4-0.2-0.9l-4.9-2.8c0.5 2.1 1.5 3.4 2.7 4.2l4.9 2.8c0 0 0.8-1.9-0.7-2.8z" fill="#000000"/>
					<path id="XMLID_00000030452335912669502470000005567037582411344548_" class="s0" d="m139.2 85.2c-5.2 1.7-7.6 2.5-7.6-0.4q0-0.8 0.3-1.7c-3.5 1.1-5.2 1.3-5.2-1.1 0-1.7 1.2-3.8 4.4-5.7 3.4-2 5.4-1.5 5.8 0.7l9.4-8.1q0-0.1-0.1-0.3 0.7-0.1 1.7-0.6l-3.9-2.3q-0.2-0.2-0.4-0.3 0 0 0 0-1.5-0.8-3.7-0.6-2.1 0.2-4.9 1.3v-0.1l4.9-2.8-4.9-2.8-3.3 1.9-4.4 2.6v5.7c-6.6 4.8-10.7 11.1-10.7 17.9 0 3.1 0.8 4.8 2.1 5.7q0 0 0 0h0.1q0.2 0.2 0.4 0.2l4 2.3c0.1-0.8 0-1.4-0.2-1.8 1.2-0.1 2.5-0.4 3.8-0.8 4.9-1.5 9.3-3.9 9.3-0.2q0 0.8-0.3 1.6c3-1 5.2-1.4 5.2 1.2 0 2.3-1.7 4.3-4.3 5.8-4 2.4-5.6 0.4-5.9-1.4l-0.9-0.5-4-2.4-9.9 8.4 4.9 2.8q0.3 1.2 0.7 2.1c1.9 0 4.1-0.6 6.3-1.6v2.4l7.7-1.1v-5.7c6.6-4.9 11.2-11.5 11.2-18.4 0-1.5-0.2-2.6-0.5-3.5-2.2 0-4.8 0.8-7.1 1.6z" fill="#000000"/>
					<path id="XMLID_00000102508668825824511990000010711506334163438998_" class="s13" d="m139.2 85.2c-5.2 1.7-7.6 2.5-7.6-0.4q0-0.8 0.3-1.7c-3.5 1.1-5.2 1.3-5.2-1.1 0-1.7 1.2-3.8 4.4-5.7 3.4-2 5.4-1.5 5.8 0.7l9.4-8.1q0-0.1-0.1-0.3 0.7-0.1 1.7-0.6l-3.9-2.3q-0.2-0.2-0.4-0.3 0 0 0 0-1.5-0.8-3.7-0.6-2.1 0.2-4.9 1.3v-0.1l4.9-2.8-4.9-2.8-3.3 1.9-4.4 2.6v5.7c-6.6 4.8-10.7 11.1-10.7 17.9 0 3.1 0.8 4.8 2.1 5.7q0 0 0 0h0.1q0.2 0.2 0.4 0.2l4 2.3c0.1-0.8 0-1.4-0.2-1.8 1.2-0.1 2.5-0.4 3.8-0.8 4.9-1.5 9.3-3.9 9.3-0.2q0 0.8-0.3 1.6c3-1 5.2-1.4 5.2 1.2 0 2.3-1.7 4.3-4.3 5.8-4 2.4-5.6 0.4-5.9-1.4l-0.9-0.5-4-2.4-9.9 8.4 4.9 2.8q0.3 1.2 0.7 2.1c1.9 0 4.1-0.6 6.3-1.6v2.4l7.7-1.1v-5.7c6.6-4.9 11.2-11.5 11.2-18.4 0-1.5-0.2-2.6-0.5-3.5-2.2 0-4.8 0.8-7.1 1.6z" fill="#000000"/>
					<g id="XMLID_00000039114342299606496140000002852123443375312061_" style="opacity: .2">
						<path class="s14" d="m127.3 70.6c-3.6 3-6.9 6.4-8.8 10.6-1 2.1-1.6 4.4-1.7 6.7-0.1 1.1 0 2.3 0.2 3.4 0.3 1.1 0.8 2.2 1.7 2.9-1-0.6-1.6-1.7-2-2.8-0.3-1.2-0.4-2.4-0.3-3.5 0-2.4 0.6-4.7 1.5-6.9 1.1-2.1 2.4-4.1 4-5.8 1.6-1.8 3.4-3.3 5.4-4.6z" fill="#000000"/>
					</g>
					<g id="XMLID_00000145755187738931421210000008994550054499393694_">
						<path id="XMLID_00000155126525487559006080000011702633953914101666_" class="s0" d="m146.3 83.6c-2.2 0-4.8 0.8-7.1 1.6-5.2 1.7-7.6 2.5-7.6-0.4q0-0.8 0.3-1.7c0.6-1.3 1.8-2.7 4.1-4 3.4-2 5.3-1.5 5.8 0.7l9.4-8c-0.9-2.8-2.7-4.2-5.5-4.2q-2.4-0.1-5.8 1.3v-5.7l-4.9 2.8-2.9 1.7v5.7c-6.6 4.8-10.7 11.1-10.7 17.9q0 2.3 0.6 3.7c1.5 3.6 5.5 3.1 9.6 1.9 1.5-0.5 2.9-1 4.2-1.4 3-1 5.2-1.4 5.2 1.2 0 2.3-1.7 4.3-4.3 5.8-4 2.4-5.6 0.4-5.9-1.4l-9.9 8.3q0.3 1.2 0.7 2.1c1.3 2.4 3.6 3.1 6.3 2.7 1.5-0.2 3.2-0.7 4.8-1.4v5.7l7.7-4.4v-5.8c6.7-4.9 11.3-11.5 11.3-18.4 0-5-2.4-6.4-5.4-6.3z" fill="#000000"/>
					</g>
					<g id="XMLID_00000078766903914465672480000015382089294769624487_" style="opacity: .1">
						<g>
							<path id="XMLID_00000019666421858080111820000011028410542595109297_" class="s15" d="m146.3 83.6c-2.2 0-4.8 0.8-7.1 1.6-5.2 1.7-7.6 2.5-7.6-0.4q0-0.8 0.3-1.7c0.6-1.3 1.8-2.7 4.1-4 3.4-2 5.3-1.5 5.8 0.7l9.4-8c-0.9-2.8-2.7-4.2-5.5-4.2q-2.4-0.1-5.8 1.3v-5.7l-4.9 2.8-2.9 1.7v5.7c-6.6 4.8-10.7 11.1-10.7 17.9q0 2.3 0.6 3.7c1.5 3.6 5.5 3.1 9.6 1.9 1.5-0.5 2.9-1 4.2-1.4 3-1 5.2-1.4 5.2 1.2 0 2.3-1.7 4.3-4.3 5.8-4 2.4-5.6 0.4-5.9-1.4l-9.9 8.3q0.3 1.2 0.7 2.1c1.3 2.4 3.6 3.1 6.3 2.7 1.5-0.2 3.2-0.7 4.8-1.4v5.7l7.7-4.4v-5.8c6.7-4.9 11.3-11.5 11.3-18.4 0-5-2.4-6.4-5.4-6.3z" fill="#000000"/>
						</g>
					</g>
					<g>
						<path class="s6" d="m130.1 101.6l-6.1 5.2 6.7 6.7q1-0.3 2-0.7v2.7l1.9 1.9 5.8-3.3v-2.1z" fill="#000000"/>
						<path class="s6" d="m146.3 83.6c-2.2 0-4.8 0.8-7.1 1.6q-0.9 0.3-1.7 0.5l12.2 12.2c1.2-2.6 2-5.3 2-8q0-1.4-0.2-2.4l-3.9-3.8q-0.6-0.1-1.3-0.1z" fill="#000000"/>
						<path class="s6" d="m133.1 81.3c0.7-0.7 1.6-1.5 2.9-2.2 3.4-2 5.3-1.5 5.8 0.7l1-0.9-10.7-10.7v5.3q-2 1.4-3.7 3.1z" fill="#000000"/>
						<path class="s6" d="m142.5 68.1q-1.3 0.3-2.6 0.8v-3.4l-1.4-1.5-3.5 2-0.6 0.4 10.7 10.6 3.4-2.9z" fill="#000000"/>
						<path class="s6" d="m126.2 97.8l-4.6-4.7q0.1 1.1 0.4 1.9c0.8 1.9 2.3 2.7 4.2 2.8z" fill="#000000"/>
					</g>
					<path id="XMLID_00000161606639237136473300000014015339634757039291_" class="s0" d="m132.1 73.5l-4.8-2.9v-5.7l4.8 2.8z" fill="#000000"/>
					<path id="XMLID_00000050662591158115177760000013855765629440651928_" class="s11" d="m132.1 73.5l-4.8-2.9v-5.7l4.8 2.8z" fill="#000000"/>
					<g id="XMLID_00000043416471139216418400000006086940686628162203_">
						<path id="XMLID_00000178904165223395643290000014108085421746727064_" class="s15" d="m140.4 108.3c0 0 0.3-0.2 0.8-0.6q0.4-0.3 0.8-0.7c0.4-0.3 0.7-0.6 1.1-1q0.6-0.5 1.2-1.1 0.3-0.4 0.7-0.7 0.3-0.3 0.6-0.7 0.4-0.4 0.7-0.8 0.3-0.3 0.6-0.7c0.4-0.6 0.9-1.1 1.2-1.7 0.4-0.6 0.8-1.2 1.1-1.8 0.3-0.6 0.7-1.2 0.9-1.8 0.3-0.6 0.5-1.2 0.7-1.8q0.1-0.4 0.2-0.8 0.1-0.2 0.1-0.4 0.1-0.2 0.1-0.4c0.1-0.5 0.3-1 0.3-1.4 0.1-0.4 0.1-0.8 0.1-1.1 0.1-0.6 0.1-0.9 0.1-0.9 0 0 0 0.3 0 0.9 0 0.3-0.1 0.7-0.1 1.1q-0.1 0.7-0.3 1.4 0 0.2 0 0.4-0.1 0.2-0.1 0.4-0.1 0.4-0.3 0.9c-0.2 0.6-0.3 1.2-0.6 1.8-0.3 0.6-0.6 1.2-0.9 1.8-0.4 0.6-0.7 1.2-1.1 1.8-0.4 0.6-0.8 1.1-1.2 1.7q-0.4 0.4-0.7 0.8-0.3 0.4-0.6 0.7-0.4 0.4-0.7 0.7-0.3 0.4-0.7 0.7c-0.4 0.4-0.8 0.8-1.2 1.1-0.4 0.4-0.8 0.7-1.1 0.9q-0.5 0.4-0.9 0.7c-0.5 0.4-0.8 0.6-0.8 0.6z" fill="#000000"/>
					</g>
					<path class="s16" d="m132.1 67.7l7.8-4.5v5.7l-0.5-4.8z" fill="#000000"/>
					<path class="s16" d="m132.7 112.8l0.5 4.9 7.2-3.6-7.7 4.4z" fill="#000000"/>
				</g>
			</g>
			<g>
				<path id="XMLID_00000029039826577150021920000008012174037091072701_" class="s15" d="m156.4 45.2l0.7-8.5 0.6 8.5 8.5 0.7-8.5 0.6-0.6 8.5-0.7-8.5-8.5-0.6z" fill="#000000"/>
				<path id="XMLID_00000078749949390265444900000007245141976670699910_" class="s15" d="m163.6 52.5l0.3-4.1 0.3 4.1 4.1 0.3-4.1 0.3-0.3 4.2-0.3-4.2-4.2-0.3z" fill="#000000"/>
			</g>
		</g>
	</g>
	<g id="Character">
		<g id="Character_00000003803145219567593370000017092867095174441390_">
			<g id="Bottom_00000064345661173136489610000005125056795935550867_">
				<g id="XMLID_00000090286369449680711970000014620730652540740488_">
					<g>
						<path class="s14" d="m370.9 286.8l-5.8 2.2-1.2-4.1 4.9 0.1z" fill="#000000"/>
						<path class="s17" d="m368.4 275.4c0 0 2.7 2.6 3.6 3.4 0.8 0.9-0.5 6.8-1.1 8l-2.1-1.8c-0.1 1.5 0.4 2.9 0.8 5.2 0.4 1.8 1.7 4.9 1.1 8.2-0.8 4.9-4.4 10.1-9 14.4-4.6 4.2-8.4 5.4-10.6 5.6-2.3 0.1-3.8-0.7-4.5-2.1-0.8-1.5 21.8-40.9 21.8-40.9z" fill="#000000"/>
						<g id="XMLID_00000013888541097546889990000004537755063679682209_">
							<path id="XMLID_00000173128108110912998330000008119480454825608629_" class="s18" d="m347.1 277l-1.6-1.5c-0.9 0.7 1.2 3.1 1.7 6.2 0.8 4.2 1.4 9.7 1 14-0.9 8.3-2.8 14.6-3.2 18.4-0.5 5 8.3 4.7 15.7-2.4 3.7-3.5 8.8-11.2 8.7-15-0.1-3.8-2.1-8.3-2-11.2 0-2.9 1.9-7.3 1-10.1-0.4-1.5-3-3.7-5.3-5.5-2.1-1.7-4-5.5-4.9-4.3l0.8 1.3c0.3 1.2-0.3 4.2-2.9 7.4-1.3 1.5-5.9 5.6-9 2.7z" fill="#000000"/>
							<path class="s13" d="m353.6 276.5c-1.5 1.1-3.6 2-5.4 1.3q0-0.1-0.1-0.1c0 0 1.8 1.2 1.9 3.9 0 2.8 1.5 21.3 1.5 21.3 0 0-0.3-16.1-0.3-19.1-0.1-4.5 0.4-5.5 2.5-7.3q0 0-0.1 0z" fill="#000000"/>
						</g>
						<path class="s19" d="m345 314.1c0.4-3.2 1.7-8.2 2.7-14.7 0.3 2 0 4 0.3 4.5 0.7 1.3 5.2 0 7.6-1.2 2.4-1.1 2.1-5.7 2.7-10.6 0.7-4.8 5.8-4.2 9.9-1.6 0.6 2 1.1 4.2 1.2 6.2 0.1 3.8-5 11.5-8.7 15-7.4 7.1-16.2 7.4-15.7 2.4z" fill="#000000"/>
						<g>
							<path class="s13" d="m354.4 281c0.3 0.3 0.7 0.3 0.9 0 0.2-0.3 0.2-0.6 0-0.9-0.3-0.2-0.7-0.2-0.9 0.1-0.3 0.2-0.2 0.6 0 0.8z" fill="#000000"/>
							<path class="s13" d="m354.4 285.4c0.2 0.3 0.6 0.2 0.9 0 0.2-0.3 0.2-0.6-0.1-0.9-0.2-0.2-0.6-0.2-0.9 0.1-0.2 0.2-0.2 0.6 0.1 0.8z" fill="#000000"/>
							<path class="s13" d="m354.3 289.8c0.3 0.3 0.7 0.2 0.9 0 0.3-0.3 0.3-0.7 0-0.9-0.3-0.2-0.7-0.2-0.9 0.1-0.2 0.2-0.2 0.6 0 0.8z" fill="#000000"/>
							<path class="s13" d="m354.3 294.2c0.3 0.3 0.7 0.2 0.9 0 0.2-0.3 0.2-0.7 0-0.9-0.3-0.2-0.7-0.2-0.9 0.1-0.3 0.2-0.2 0.6 0 0.8z" fill="#000000"/>
							<path class="s13" d="m354.3 298.6c0.2 0.2 0.6 0.2 0.9 0 0.2-0.3 0.2-0.7-0.1-0.9-0.2-0.2-0.6-0.2-0.9 0.1-0.2 0.2-0.2 0.6 0.1 0.8z" fill="#000000"/>
						</g>
						<g>
							<path class="s17" d="m355 280.8q0.1-0.1 0.1-0.2c0-0.1-0.1-0.2-0.2-0.3-0.2 0-4.5-0.1-7.3 2.6q0 0 0 0c-0.1 0.1-0.1 0.3 0 0.3 0.1 0.1 0.3 0.1 0.4 0 2.6-2.5 6.8-2.4 6.8-2.4q0.1 0 0.2 0z" fill="#000000"/>
						</g>
						<g>
							<path class="s17" d="m355 285.1q0 0 0.1-0.1c0-0.1-0.1-0.3-0.3-0.3-0.2 0-4.4-0.1-7.3 2.6q0 0 0 0c-0.1 0.1-0.1 0.2 0 0.3 0.1 0.1 0.3 0.1 0.4 0 2.7-2.5 6.8-2.4 6.9-2.4q0.1 0 0.2-0.1z" fill="#000000"/>
						</g>
						<g>
							<path class="s17" d="m355 289.5q0 0 0-0.1c0-0.1-0.1-0.3-0.2-0.3-0.2 0-4.4-0.1-7.3 2.6q0 0 0 0c-0.1 0.1-0.1 0.2 0 0.3 0.1 0.1 0.3 0.1 0.4 0 2.7-2.5 6.8-2.4 6.9-2.4q0.1 0 0.2-0.1z" fill="#000000"/>
						</g>
						<g>
							<path class="s17" d="m354.9 293.9q0.1 0 0.1-0.1c0-0.2-0.1-0.3-0.2-0.3-0.2 0-4.5-0.1-7.3 2.6q0 0 0 0c-0.1 0.1-0.1 0.2 0 0.3 0.1 0.1 0.3 0.1 0.4 0 2.6-2.5 6.8-2.4 6.8-2.4q0.1 0 0.2-0.1z" fill="#000000"/>
						</g>
						<g>
							<path class="s17" d="m354.9 298.3q0.1 0 0.1-0.1c0-0.2-0.1-0.3-0.3-0.3-0.2 0-4.4-0.1-7.2 2.6q0 0-0.1 0c0 0.1 0 0.2 0.1 0.3 0.1 0.1 0.2 0.1 0.3 0 2.7-2.5 6.9-2.4 6.9-2.4q0.1 0 0.2-0.1z" fill="#000000"/>
						</g>
					</g>
					<path class="s17" d="m282.3 157.1c0 0-1.2 14.2-0.3 35.3 0.8 18.9 1.9 27.9 10.7 39.3 7.8 10.2 50.8 44.7 54.2 48.2 0 0 14 0.3 13.6-13.4 0 0-10.5-18-17.6-30.1-7-12.2-15.8-17.6-15.8-17.6l7.3-55.7z" fill="#000000"/>
					<path class="s14" d="m329.5 162.7l4.8 0.4v0.2l-7 53.7-0.2 1.3q0 0 0 0.1v0.4c0 0 6.2 3.9 12.4 12.4-1.5 4.9-4.7 13.4-4.7 13.4-0.3 1.4 4 6.4 3 22.4-0.1 1.2-0.3 2.9-0.5 4.7-10.6-8.9-25-21-34.8-30-0.6-2.5-2.5-10.6-2.3-16.9 0.3-6.3 1-37.2 1-37.2 0 0-3.6-1.6-7.8-5.9-3-3.2-3.9-6.9-3.9-6.9 0 0-3.3-7.1-4.7-12.3z" fill="#000000"/>
				</g>
				<g>
					<path class="s14" d="m319.7 338.4l-6-1.9 1.7-3.8 3.8 3z" fill="#000000"/>
					<path class="s17" d="m325.2 328c0 0 0.4 3.7 0.5 4.8 0.1 1.2-4.8 4.9-6 5.6l-0.5-2.7c-1 1.1-1.6 2.5-2.7 4.5-0.9 1.7-2 4.8-4.6 7-3.8 3.3-10 5.2-16.3 5.7-6.4 0.5-10.1-0.9-12-2.1-1.9-1.3-2.5-2.8-2.1-4.4 0.3-1.5 43.7-18.4 43.7-18.4z" fill="#000000"/>
					<g id="XMLID_00000059304773010171242640000011189888135524692912_">
						<path id="XMLID_00000137093148565343230020000008190399361796792203_" class="s18" d="m307.5 316.3l-0.2-2.1c-1.2 0-1.1 3.1-2.7 5.8-2.1 3.8-5.3 8.4-8.4 11.4-6.2 6-11.7 9.7-14.5 12.4-3.7 3.6 3.4 8.7 13.7 7.7 5.2-0.5 14.2-3.4 16.6-6.4 2.5-3 3.8-7.7 5.7-9.9 2-2.2 6.3-4.5 7.5-7.2 0.6-1.4 0.1-4.7-0.5-7.5-0.5-2.6 0.5-6.7-1-6.3l-0.3 1.5c-0.5 1.1-3 3.1-7.1 3.9-2 0.4-8.2 0.9-8.8-3.3z" fill="#000000"/>
						<path class="s13" d="m313 319.9c-2-0.1-4.2-0.7-5.1-2.3q0-0.1 0-0.1c0 0 0.6 2-1.2 4.1-1.7 2.2-12.7 17.4-12.7 17.4 0 0 10.3-12.6 12.3-15 2.9-3.5 3.9-3.9 6.7-4.1q0 0 0 0z" fill="#000000"/>
					</g>
					<path class="s19" d="m281.7 343.8c2.3-2.2 6.7-5.3 11.7-9.8-1.1 1.8-2.6 3.2-2.7 3.7-0.4 1.4 4 3.2 6.6 3.7 2.7 0.6 5.4-3.1 9.1-6.5 3.7-3.4 7.3 0.2 8.8 4.7-0.9 1.9-1.9 3.9-3.2 5.5-2.4 3-11.4 5.9-16.6 6.4-10.3 1-17.4-4.1-13.7-7.7z" fill="#000000"/>
					<g>
						<path class="s13" d="m310.6 323.9c0.1 0.3 0.4 0.5 0.7 0.5 0.4-0.1 0.6-0.4 0.6-0.7-0.1-0.3-0.4-0.6-0.8-0.5-0.3 0-0.6 0.3-0.5 0.7z" fill="#000000"/>
						<path class="s13" d="m307.7 327.3c0.1 0.3 0.4 0.5 0.7 0.5 0.4-0.1 0.6-0.4 0.6-0.7-0.1-0.4-0.4-0.6-0.8-0.5-0.3 0-0.6 0.3-0.5 0.7z" fill="#000000"/>
						<path class="s13" d="m304.8 330.7c0.1 0.3 0.4 0.5 0.7 0.5 0.4-0.1 0.6-0.4 0.6-0.7-0.1-0.4-0.4-0.6-0.8-0.5-0.3 0-0.6 0.3-0.5 0.7z" fill="#000000"/>
						<path class="s13" d="m301.9 334c0.1 0.4 0.4 0.6 0.7 0.5 0.4 0 0.6-0.3 0.6-0.6-0.1-0.4-0.4-0.6-0.8-0.6-0.3 0.1-0.6 0.4-0.5 0.7z" fill="#000000"/>
						<path class="s13" d="m299 337.4c0.1 0.4 0.4 0.6 0.7 0.5 0.4 0 0.6-0.3 0.6-0.7-0.1-0.3-0.4-0.5-0.8-0.5-0.3 0.1-0.5 0.4-0.5 0.7z" fill="#000000"/>
					</g>
					<g>
						<path class="s17" d="m311.3 324q0.1 0 0.1 0c0.1-0.1 0.1-0.3 0-0.4-0.1-0.1-3.3-2.8-7.3-2.4q0 0 0 0c-0.2 0-0.3 0.1-0.3 0.2 0.1 0.2 0.2 0.3 0.3 0.3 3.8-0.4 6.9 2.2 7 2.3q0 0 0.2 0z" fill="#000000"/>
					</g>
					<g>
						<path class="s17" d="m308.4 327.4q0.1 0 0.1-0.1c0.1-0.1 0.1-0.2 0-0.3-0.1-0.1-3.3-2.8-7.3-2.4q0 0 0 0c-0.2 0-0.3 0.1-0.3 0.2 0.1 0.2 0.2 0.3 0.3 0.2 3.8-0.3 6.9 2.3 7 2.3q0 0.1 0.2 0.1z" fill="#000000"/>
					</g>
					<g>
						<path class="s17" d="m305.5 330.8q0.1 0 0.1-0.1c0.1-0.1 0.1-0.2 0-0.3-0.1-0.1-3.3-2.8-7.3-2.4q0 0 0 0c-0.2 0-0.3 0.1-0.2 0.2 0 0.2 0.1 0.3 0.2 0.2 3.8-0.3 6.9 2.3 7 2.3q0.1 0.1 0.2 0.1z" fill="#000000"/>
					</g>
					<g>
						<path class="s17" d="m302.6 334.2q0.1 0 0.1-0.1c0.1-0.1 0.1-0.2 0-0.3-0.1-0.2-3.3-2.9-7.3-2.5q0 0 0 0c-0.2 0.1-0.3 0.2-0.2 0.3 0 0.1 0.1 0.2 0.2 0.2 3.8-0.3 6.9 2.3 7 2.3q0.1 0.1 0.2 0.1z" fill="#000000"/>
					</g>
					<g>
						<path class="s17" d="m299.7 337.6q0.1 0 0.1-0.1c0.1-0.1 0.1-0.3 0-0.4-0.1-0.1-3.3-2.8-7.3-2.4q0 0 0 0c-0.2 0-0.3 0.2-0.2 0.3 0 0.1 0.1 0.2 0.2 0.2 3.8-0.4 6.9 2.3 7 2.3q0.1 0.1 0.2 0.1z" fill="#000000"/>
					</g>
				</g>
				<path class="s17" d="m343.7 154.1c0 0 1.2 10.3 1.6 16.6 0.8 12.8-0.3 21.6-2.8 32.6-2 8.9-9.3 39-9.9 42.1 1.7 6.7 2.9 12.2 1.2 27.1-2.5 22.9-9.1 47.6-9.1 47.6-1.9 2.8-16.1 2.4-20.5-1.2 0 0-1.3-66.8-2-80.8-0.5-12.1 2.4-52.2 2.4-52.2 0 0-19.4-6.3-22.6-27.5z" fill="#000000"/>
			</g>
			<g id="Top_00000020399596863194484410000013604455611249083277_">
				<g id="Arm_17_">
					<g>
						<path class="s20" d="m293.2 87.6c-6.8 2.3-9.7 5.5-16.2 14.2-6.3 8.4-15.4 20.9-15.4 20.9l-33.4-3.8 3.4 16.9c0 0 24.1 6.1 32 7.1 5.9 0.7 9-2.4 12.9-7.1 6.9-8.2 15.7-20.4 15.7-20.4z" fill="#000000"/>
					</g>
				</g>
				<g id="Top_00000160178167934070659390000002004247594405851289_">
					<g>
						<g>
							<path class="s16" d="m322.9 176.3c-4.5 0-9.7-0.5-15.9-1.4-17.5-2.7-24-12.2-24.7-14.5 0-1.6 0.2-28.5 2-49.2 1.4-16.4 7.8-23.1 10.9-24.3 9-3.5 22.9-3.9 28.4-3.9 1.6 0 2.8 0 3.2 0 1.3 1.5 2.7 2.5 4.9 3.6 0.2 0 12 4.3 15.2 6.3 2.7 1.8 3.8 9.5 2.8 14.5-1.3 6.5-3.9 22.9-3.9 31.5 0 4.3 0 7.3-0.1 10 0 5.3 0 9.5 0 20.4-6.3 4.9-13.3 7-22.8 7q0 0 0 0z" fill="#000000"/>
							<path class="s21" d="m323.6 82.5c-6.2 0-19.6 0.5-28.6 4-2.6 1-9.6 7.2-11.2 24.7-1.8 21.4-2 49.3-2 49.3 0.6 1.8 6.7 12 25.1 14.8 6.1 1 11.4 1.5 16 1.5 9.8 0 16.9-2.3 23.2-7.2 0-16.7 0.1-17.8 0.1-30.7 0.1-8.4 2.6-24.4 4-31.4 1-4.9 0-13-3.1-15-3.2-2.1-15.2-6.3-15.2-6.3-2.2-1.1-3.6-2.2-4.9-3.6 0 0-1.3-0.1-3.4-0.1zm0 0.9c1.4 0 2.5 0 3 0.1 1.3 1.4 2.8 2.4 4.9 3.5h0.1c0.1 0.1 11.9 4.3 15 6.3 2.6 1.6 3.7 9.2 2.7 14-1.4 6.8-3.9 22.9-4 31.6 0 4.3 0 7.3 0 10 0 5.3-0.1 9.5-0.1 20.2-6.2 4.7-12.9 6.8-22.3 6.8-4.4 0-9.6-0.5-15.9-1.5-18.6-2.9-23.8-13.1-24.3-14.1 0-2.4 0.3-28.7 2-49 1.8-20.3 10.6-23.9 10.7-24 8.9-3.5 22.7-3.9 28.2-3.9z" fill="#000000"/>
						</g>
					</g>
					<g id="Head_00000181063198160928323710000015398661155642775742_">
						<g>
							<g id="XMLID_00000140015731636432161340000004522338302970655105_">
								<g id="XMLID_00000062897690577153797010000008078461063468757124_">
									<path class="s19" d="m332.1 42.1c5.2 6.7 2.9 14 0.5 21.4-2.9 8.3-3.2 11.1-8.2 12.9 2.7-26.6-8.3 2.6-28.5-19.5-3.7-4-3.6-14.3 1.4-19.3 7.1-7.1 24.5-8.1 34.8 4.5z" fill="#000000"/>
									<path class="s22" d="m332.1 72.3c-4 1.4-5.8-1.5-5.8-1.5l-0.6 10.5c0 0 5.3 6.7-0.4 8.3-13.8 4-14.8 6.8-19.3 11.5-2-4-0.7-10.4-0.8-12.8l0.5-7.8c0 0-2.6 0.1-4.8-0.5-4-1.1-6.6-4.1-7.5-9.6-1-6.6 0-17.1 2.8-26 4.3-3 18.5-2.6 27 3.3-0.8 7.4 1.2 8.7 1 11.9-0.2 3.5 0 4.4 1 4.9 1.1 0.6 2.2-1 2.7-2.1 0.8-1.7 1.5-2.8 3.3-3.1 1.8-0.4 3.7 0 5.1 2.5 2.3 3.8-1.3 9.5-4.2 10.5z" fill="#000000"/>
									<g id="XMLID_411_">
										<path id="XMLID_427_" class="s17" d="m311.5 57.5c0 0.9 0.6 1.8 1.5 1.9 0.9 0 1.7-0.6 1.8-1.6 0.1-0.9-0.6-1.7-1.5-1.8-0.9-0.1-1.7 0.6-1.8 1.5z" fill="#000000"/>
										<g>
											<path id="XMLID_421_" class="s23" d="m310.9 67.8l-6 1.2c0.3 1.7 1.9 2.8 3.5 2.5 1.7-0.4 2.8-2 2.5-3.7z" fill="#000000"/>
											<path class="s24" d="m310.2 69.1c-1.4 0-2.5 1-2.7 2.4q0.4 0 0.9 0c1.2-0.3 2.1-1.2 2.4-2.3-0.2 0-0.4-0.1-0.6-0.1z" fill="#000000"/>
										</g>
										<path id="XMLID_416_" class="s17" d="m297.1 52.2l4.4-2.2c-0.6-1.3-2-1.7-3.3-1.1-1.2 0.6-1.7 2.1-1.1 3.3z" fill="#000000"/>
										<path id="XMLID_00000029030597205542677820000007917330606889684654_" class="s17" d="m313 51.7l3.9 3c0.9-1 0.7-2.5-0.4-3.4-1.1-0.8-2.6-0.7-3.5 0.4z" fill="#000000"/>
										<path id="XMLID_413_" class="s17" d="m297.9 56c-0.1 1 0.5 1.8 1.4 1.9 0.9 0.1 1.7-0.6 1.8-1.6 0.1-0.9-0.5-1.7-1.4-1.8-0.9-0.1-1.7 0.6-1.8 1.5z" fill="#000000"/>
										<path id="XMLID_412_" class="s24" d="m308.8 54.6l-2.7 10.9-5.2-2.4c1.8-3.7 4.7-6 7.9-8.5z" fill="#000000"/>
									</g>
									<path class="s24" d="m305.7 80.5c4.4 0.1 10.6-1 13.3-3.1 4.1-3.2 5.1-7.2 5.1-7.2 0 0 0 5.3-4.9 9.7-3.8 3.4-13.7 3.7-13.7 3.7z" fill="#000000"/>
								</g>
							</g>
						</g>
					</g>
				</g>
				<g id="Arma">
					<path class="s20" d="m340 89.3c0 0-2.5 10.9-1.3 19.2 1.3 8.3 6.1 12.5 9.7 16.7 3.6 4.1 9.4 9.6 16.3 10l1.3-21.6c0 0-3.2-5.2-9-12.4-4.8-5.9-5.3-8-17-11.9z" fill="#000000"/>
					<path class="s4" d="m340 89.3c0 0-2.5 10.9-1.3 19.2 1.3 8.3 6.1 12.5 9.7 16.7 3.6 4.1 9.4 9.6 16.3 10l1.3-21.6c0 0-3.2-5.2-9-12.4-4.8-5.9-5.3-8-17-11.9z" fill="#000000"/>
				</g>
				<g>
					<path class="s20" d="m306 101.1c2.2-2.6 5.4-8.1 7.3-9.4 1.9-1.3 11.1-5.7 12.4-10.2l0.1-2.7c1.3-0.5 1.6 2.9 6.1 7.4 0 0 0.3 4.8-3.6 10.1-4.7 6.3-11 5.5-11 5.5 0 0-3.2-6.1-4-6.4-0.9-0.3-4.5 3.8-7.3 5.7z" fill="#000000"/>
					<path class="s20" d="m306 101.1c-1.1-2.3-0.9-11.2-0.9-11.2l0.4-6.6c0 0-2-0.1-3.6 2.6-3.5 6.1-3.6 10.2-3.1 11.4 1.4-2.6 4.2-3.8 4.7-3.1 0.5 0.7 1 4.8 2.5 6.9z" fill="#000000"/>
				</g>
				<g id="Hand">
					<g>
						<g>
							<path class="s22" d="m351 84.9c-1.3-2.6-2.8-5.3-3.2-9-0.4-3.7-2.7-7.4-3.5-8.8-0.8-1.5-2.6-3.8-3.9-5.9-1.3-2.1-1.7-2.7-3.9-3.4-3.1-0.9-5.5-1.7-6.7-1.5-1.3 0.2-1.4 1-0.5 2.2 0.9 1.2 3.2 1.8 3.8 2.1 0.7 0.3 2.1 1.2 2.1 1.2l2.3 4.6c0 0-5 0.2-6 0.6-1 0.4-2.2 2.8-2 4.2 0 0-1.9 1-1.4 2.8 0 0-1.3 1.3-0.7 2.6 0.6 1.3 1.9 3 2.4 3.6 0.6 0.6 2.9 1.1 2.9 1.1 0 0 1.6 3.3 3.1 4.7 1.5 1.5 2.6 1.6 4.1 4.4z" fill="#000000"/>
							<path class="s24" d="m335.3 66.5c-1.1-0.6-1.3-1.4-2.4-1.2-1.2 0.3-0.9 1.6-0.9 1.6z" fill="#000000"/>
							<path class="s24" d="m329.6 71.3c0 0 1-0.7 2.5-1.2 0.9-0.3 2.6-0.6 2.6-0.6 0 0-1.9-0.1-3.5 0.3-1.4 0.5-1.6 0.6-1.7 0.6q0 0.4 0 0.8z" fill="#000000"/>
							<path class="s24" d="m329.2 73c-0.5 0.1-0.9 0.2-1.2 0.4 0 0.2 0 0.5 0.1 0.8 0.7-0.8 3.3-1.5 3.3-1.5 0 0-1.2 0-2.2 0.3z" fill="#000000"/>
							<path class="s24" d="m333.1 82c-0.4-1.1-1.3-3.3-1.9-4.2-0.6-0.9-2-1-2.4-0.6-0.3 0.5 1.2 0.6 1.7 0.9 0.4 0.3 1.9 2.5 2.6 3.9z" fill="#000000"/>
							<path class="s24" d="m338.9 66.4c0 0-0.7-1.3-2.1-3.6-1.3-2.2-1.2-1.9-2.8-2.4-1.4-0.5-4.4-1.4-5-2.5q0.1 0.3 0.3 0.6c0.9 1.2 3.2 1.8 3.8 2.1 0.7 0.3 2.1 1.2 2.1 1.2l2.4 4.7z" fill="#000000"/>
						</g>
						<path class="s22" d="m351 84.9c4.4 7 16.5 24 18.9 30.5 1.7 4.5 1 14.2-1.8 17.5-2.8 3.2-9.2 0.8-13.9-4.6-4-4.6-6.5-14.8-8.9-22.2-2.4-7.4-5.4-15.7-5.4-15.7z" fill="#000000"/>
						<path class="s20" d="m341.5 96.3c0 0 5.5 0.6 9.1-1.4 3.5-2 4.5-4.8 4.5-4.8 0 0 9.4 14.3 12 18.6 2.6 4.4 4.8 7.4 4.3 13.9-0.5 6.5-1.1 12.2-5.8 12.6-4.6 0.4-9.9-3.8-12.6-7-2.8-3.3-8.2-18.6-11.5-31.9z" fill="#000000"/>
					</g>
					<g>
						<path class="s23" d="m351 84.9c-0.9-1.8-1.8-3.6-2.5-5.5-0.7-1.9-0.6-4-1.3-5.9-1.2-3.8-3.4-7.2-5.7-10.5-1.3-1.5-2-3.7-3.8-4.6-1.1-0.4-10.1-3.9-8.6-0.6 1.2 2.3 4.4 2.3 6.3 3.9l2.2 4.6c0.2 0.3 0.2 0.2-0.1 0.2-1.8 0.1-3.6 0.2-5.4 0.5-0.9 0.1-1.5 0.9-1.9 1.6-0.4 0.9-0.7 1.8-0.5 2.7-1.1 0.5-1.9 1.6-1.5 2.8-0.6 0.6-1.1 1.4-0.8 2.2 0.3 0.8 0.8 1.5 1.2 2.2 0.6 0.7 1 1.5 1.7 1.9 0.8 0.4 1.6 0.6 2.5 0.8 0.8 1.7 1.8 3.5 3.2 4.9 1.5 1.3 3.1 2.4 3.9 4.3-0.8-1.9-2.5-3-4-4.2-1.4-1.4-2.4-3.2-3.3-4.9-0.5 0-1.7-0.4-2.4-0.7-0.8-0.5-1.2-1.3-1.7-2-1.1-1.5-2.1-3-0.5-4.6l-0.1 0.1c-0.3-1.2 0.5-2.4 1.6-3l-0.1 0.1c-0.1-1.4 0.5-2.8 1.4-3.8 0.3-0.4 0.8-0.6 1.3-0.6 1.8-0.3 3.6-0.4 5.4-0.5l-0.1 0.2-2.3-4.7c-1.7-1.2-5.2-1.6-6.3-3.9-1.6-3.9 7.6-0.2 9 0.3 1 0.5 1.7 1.3 2.2 2.2 2.7 4.2 5.9 8.2 7.4 13.1 0.6 1.9 0.5 3.9 1.2 5.9 0.6 1.9 1.5 3.7 2.4 5.5z" fill="#000000"/>
					</g>
				</g>
			</g>
			<g id="Puzzle_Piece">
				<g>
					<path class="s0" d="m294.3 151c-0.2-3.7-2.8-8.1-5.8-9.7-0.9-0.5-2.2-1-3.8-0.7-1.9 0.2-4.9-0.4-7-3.4-2.5-3.4-2.6-8.2-2.7-15.6 0-2-0.1-4.2-0.1-6.6-11.1-6.7-22.7-13.4-25.4-12.2q0 0-0.1 0c-1.4 0.8-0.4 3.6 0.9 5.8 1.4 2.4 1.7 3.9 1.8 4.8 0.1 3.2-3.5 3.8-8 1.4-4.5-2.4-8.3-7-8.4-10.2 0-0.9 0.2-2.2 1.5-3 1.2-0.9 2.1-2.8 0.4-5.2-2.7-4-11.4-8.2-22.5-13.5v0.1l0.1 2q0 0.9 0 1.8c0.4 9.4 0.4 16-2.2 16.9-2 0.7-5.1-1.9-7.1-4.3-1.6-2-3-2.9-3.9-3.4-1.4-0.7-2.6-0.8-3.6-0.3-1.1 0.6-1.7 2-1.7 4.1 0.2 3.7 2.7 8 5.8 9.7 0.9 0.4 2.2 0.9 3.7 0.7 2-0.3 5 0.4 7.1 3.3 3 4 3.2 10.2 3.5 20.4l0.1 2.4c10.1 6 19.7 11.3 22.4 10.1q0.1 0 0.2-0.1c1.4-0.7 0.4-3.5-1-5.8-1.3-2.3-1.7-3.8-1.7-4.7-0.1-3.2 3.5-3.8 8-1.4 4.5 2.4 8.2 7 8.3 10.2 0.1 0.9-0.2 2.1-1.4 3-1.3 0.9-2.1 2.8-0.4 5.2 2.5 3.7 11.6 8.5 22.2 14q1.6 0.9 3.2 1.7-0.2-3.3-0.3-6.4c-0.5-8.3-0.8-14.2 1.6-15 2-0.7 5.1 1.8 7.1 4.3 1.6 1.9 3 2.9 3.8 3.3 1.4 0.8 2.7 0.8 3.6 0.3 1.2-0.6 1.8-2 1.8-4z" fill="#000000"/>
					<path class="s25" d="m294.3 151c-0.2-3.7-2.8-8.1-5.8-9.7-0.9-0.5-2.2-1-3.8-0.7-1.9 0.2-4.9-0.4-7-3.4-2.5-3.4-2.6-8.2-2.7-15.6 0-2-0.1-4.2-0.1-6.6-11.1-6.7-22.7-13.4-25.4-12.2q0 0-0.1 0c-1.4 0.8-0.4 3.6 0.9 5.8 1.4 2.4 1.7 3.9 1.8 4.8 0.1 3.2-3.5 3.8-8 1.4-4.5-2.4-8.3-7-8.4-10.2 0-0.9 0.2-2.2 1.5-3 1.2-0.9 2.1-2.8 0.4-5.2-2.7-4-11.4-8.2-22.5-13.5v0.1l0.1 2q0 0.9 0 1.8c0.4 9.4 0.4 16-2.2 16.9-2 0.7-5.1-1.9-7.1-4.3-1.6-2-3-2.9-3.9-3.4-1.4-0.7-2.6-0.8-3.6-0.3-1.1 0.6-1.7 2-1.7 4.1 0.2 3.7 2.7 8 5.8 9.7 0.9 0.4 2.2 0.9 3.7 0.7 2-0.3 5 0.4 7.1 3.3 3 4 3.2 10.2 3.5 20.4l0.1 2.4c10.1 6 19.7 11.3 22.4 10.1q0.1 0 0.2-0.1c1.4-0.7 0.4-3.5-1-5.8-1.3-2.3-1.7-3.8-1.7-4.7-0.1-3.2 3.5-3.8 8-1.4 4.5 2.4 8.2 7 8.3 10.2 0.1 0.9-0.2 2.1-1.4 3-1.3 0.9-2.1 2.8-0.4 5.2 2.5 3.7 11.6 8.5 22.2 14q1.6 0.9 3.2 1.7-0.2-3.3-0.3-6.4c-0.5-8.3-0.8-14.2 1.6-15 2-0.7 5.1 1.8 7.1 4.3 1.6 1.9 3 2.9 3.8 3.3 1.4 0.8 2.7 0.8 3.6 0.3 1.2-0.6 1.8-2 1.8-4z" fill="#000000"/>
				</g>
				<g>
					<g id="Tablet_6_">
						<g>
							<path class="s22" d="m208.9 117.4c-1.5-2.1-1.4-2.3-0.6-3.4 0.9-1.1 2.7-2.9 5.4-2.8 1.9 0.1 3.8 0 4.7 0.5 1 0.5 0.2 2.5-2.2 3.1-3.9 0.8-3.8 1.9-3.8 1.9 0 0 3.5-0.8 4.9-0.9 1.4-0.1 4 0.6 5.6 0.8 1.6 0.3 1.9 2.4-0.8 3.1 0 0 2 0.3 2.9 0.4 2.1 0.4 2.8 1.5 1.1 2.7-0.3 0.3-0.9 0.7-1.8 0.7 0 0 2.2 0 2.2 0.8 0.2 2.1-1.2 2.6-5.6 3.9-2.3 0.6-3.6 1.7-4.2 2.7l0.1 2.8c0 0-1.9-1.4-3.4-2.5-1.1-0.7-2.1-1.6-1.6-3.3 0 0-2.4 0-2.5-1.5-0.2-1.5 0.6-3.2 0.6-3.2 0 0-1.5-0.7-1.4-2.5 0.1-1.7 0.9-2.6 0.9-2.6z" fill="#000000"/>
							<path class="s24" d="m222.1 119.7c-0.9-0.2-1.8-0.4-2.7-0.3-1 0.1-1.8 0.5-2.6 0.8-1.6 0.7-3.2 1.5-4.6 2.5 1.7-0.4 3.3-1.1 4.9-1.8 0.8-0.3 1.6-0.7 2.4-0.9 0.8-0.1 1.7-0.2 2.6-0.3z" fill="#000000"/>
							<path class="s24" d="m224.3 123.5c-0.9-0.2-2-0.3-2.9 0-1 0.1-1.9 0.5-2.8 0.8-1.7 0.8-3.4 1.6-5 2.7 1.9-0.5 3.6-1.2 5.3-2 1.8-0.7 3.5-1.4 5.4-1.5z" fill="#000000"/>
						</g>
					</g>
				</g>
			</g>
		</g>
	</g>
</svg>