<svg xmlns="http://www.w3.org/2000/svg" version="1.2" viewBox="0 0 500 500" width="2000" height="2000">
	<title>13746507_5351313</title>
	<style>
		.s0 { fill: #fafafa } 
		.s1 { fill: #e6e6e6 } 
		.s2 { fill: #da26ff } 
		.s3 { opacity: .2;fill: #ffffff } 
		.s4 { opacity: .6;fill: #da26ff } 
		.s5 { opacity: .5;fill: #ffffff } 
		.s6 { opacity: .3;fill: #ffffff } 
		.s7 { opacity: .4;fill: #ffffff } 
		.s8 { fill: #ffffff } 
		.s9 { fill: #37474f } 
		.s10 { fill: #263238 } 
		.s11 { fill: #455a64 } 
		.s12 { opacity: .2;fill: #000000 } 
		.s13 { fill: #e0e0e0 } 
		.s14 { fill: #ebebeb } 
		.s15 { opacity: .15;fill: #ffffff } 
		.s16 { opacity: .1;fill: #000000 } 
		.s17 { opacity: .25;fill: #000000 } 
		.s18 { opacity: .15;fill: #000000 } 
		.s19 { fill: #f5f5f5 } 
		.s20 { fill: #000000 } 
		.s21 { opacity: .1;fill: #ffffff } 
		.s22 { opacity: .35;fill: #ffffff } 
		.s23 { opacity: .35;fill: #da26ff } 
		.s24 { opacity: .3;fill: #000000 } 
		.s25 { fill: #b16668 } 
		.s26 { fill: #9a4a4d } 
		.s27 { fill: #f0f0f0 } 
		.s28 { opacity: .6;fill: #ffffff } 
		.s29 { opacity: .3;fill: #da26ff } 
		.s30 { fill: #f28f8f } 
	</style>
	<g id="Floor">
		<path id="Floor_5_" class="s0" d="m250 488.6c-131.4 0-237.5-63.5-237.5-142.1 0-78.6 106.1-142.2 237.5-142.2 131.4 0 237.5 63.6 237.5 142.2 0 78.6-106.1 142.1-237.5 142.1z" fill="#000000"/>
	</g>
	<g id="Shadows">
		<path id="Shadow_54_" class="s1" d="m428.3 423.9c-31 0-56-14.5-56-32.4 0-17.9 25-32.3 56-32.3 31 0 56 14.4 56 32.3 0 17.9-25 32.4-56 32.4z" fill="#000000"/>
		<path id="Shadow_4_" class="s1" d="m331.5 292.6l-19.9-11.5c-1.2-0.6-3.1-0.6-4.3 0l-249.9 144.3c-1.2 0.7-1.2 1.8 0 2.5l20.1 11.7c1.2 0.7 3.1 0.7 4.3 0l42.3-24.5q0.8 0.7 1.8 1.3l32.4 18.7c3.9 2.2 9 3.5 14.4 3.5 5.3 0 10.4-1.3 14.3-3.5l62.5-36.1c4.7-2.7 7.3-6.7 7.3-11 0-4.2-2.6-8.2-7.3-10.9l-29.9-17.3 111.9-64.7c1.2-0.7 1.2-1.8 0-2.5z" fill="#000000"/>
		<path id="Shadow_8_" class="s1" d="m357.8 399.6c-23.4-13.5-61.4-13.5-84.7 0-19.9 11.4-22.9 28.9-9.1 42.2l-51.5 29.3c-3.1 1.9-3.1 4.8 0 6.6l4.7 2.7c3.1 1.8 8.1 1.6 11.1-0.3l45-31.5c23.4 13.4 61.1 13.4 84.5-0.1 23.3-13.5 23.3-35.4 0-48.9z" fill="#000000"/>
	</g>
	<g id="Glass">
		<g id="Glass_1_">
			<g id="XMLID_3849_">
				<g>
					<path id="XMLID_3896_" class="s2" d="m367.8 408.4c0-7.9-5.2-15.8-15.6-21.8-20.9-12.1-54.7-12.1-75.6 0-10.5 6-15.7 13.9-15.7 21.8v14.5c0 7.9 5.2 15.8 15.7 21.9 20.9 12 54.7 12 75.6 0 10.4-6.1 15.6-14 15.6-21.9zm-88.6-17.3c9.3-5.4 21.8-8.4 35.2-8.4 13.4 0 25.9 3 35.2 8.4 8.4 4.9 13.1 11 13.1 17.3 0 6.4-4.7 12.5-13.1 17.4-9.3 5.4-21.8 8.3-35.2 8.3-13.4 0-25.9-2.9-35.2-8.3-8.5-4.9-13.1-11-13.1-17.4 0-6.3 4.6-12.4 13.1-17.3z" fill="#000000"/>
					<path id="XMLID_3874_" class="s3" d="m367.8 408.4c0-7.9-5.2-15.8-15.6-21.8-20.9-12.1-54.7-12.1-75.6 0-10.5 6-15.7 13.9-15.7 21.8v14.5c0 7.9 5.2 15.8 15.7 21.9 20.9 12 54.7 12 75.6 0 10.4-6.1 15.6-14 15.6-21.9zm-88.6-17.3c9.3-5.4 21.8-8.4 35.2-8.4 13.4 0 25.9 3 35.2 8.4 8.4 4.9 13.1 11 13.1 17.3 0 6.4-4.7 12.5-13.1 17.4-9.3 5.4-21.8 8.3-35.2 8.3-13.4 0-25.9-2.9-35.2-8.3-8.5-4.9-13.1-11-13.1-17.4 0-6.3 4.6-12.4 13.1-17.3z" fill="#000000"/>
					<path class="s4" d="m261 424.3c0.8 5 3 8.8 11.9 15.7 12.5 9.8 44.3 13.8 62.8 7.7 17.4-5.7 22.9-17 22.9-24.7v-4.5c2.7-3.2 4.1-6.6 4.1-10.1 0-3.6-1.5-7.1-4.3-10.4l-0.1-6.4h1c5.7 5.1 8.5 11 8.5 16.8v14.5c0 7.9-5.2 15.8-15.6 21.9-20.9 12-54.7 12-75.6 0-9.9-5.7-15.1-13.1-15.6-20.5z" fill="#000000"/>
				</g>
				<g>
					<path id="XMLID_3862_" class="s2" d="m276.6 430.2c20.9 12.1 54.7 12.1 75.6 0 20.9-12 20.9-31.6 0-43.6-20.9-12.1-54.7-12.1-75.6 0-20.9 12-20.9 31.6 0 43.6zm-10.5-21.8c0-6.3 4.6-12.5 13.1-17.4 9.3-5.3 21.8-8.3 35.2-8.3 13.4 0 25.9 3 35.2 8.3 8.4 4.9 13.1 11.1 13.1 17.4 0 6.3-4.7 12.5-13.1 17.3-9.3 5.4-21.8 8.4-35.2 8.4-13.4 0-25.9-3-35.2-8.4-8.5-4.8-13.1-11-13.1-17.3z" fill="#000000"/>
					<path id="XMLID_3857_" class="s5" d="m276.6 430.2c20.9 12.1 54.7 12.1 75.6 0 20.9-12 20.9-31.6 0-43.6-20.9-12.1-54.7-12.1-75.6 0-20.9 12-20.9 31.6 0 43.6zm-10.5-21.8c0-6.3 4.6-12.5 13.1-17.4 9.3-5.3 21.8-8.3 35.2-8.3 13.4 0 25.9 3 35.2 8.3 8.4 4.9 13.1 11.1 13.1 17.4 0 6.3-4.7 12.5-13.1 17.3-9.3 5.4-21.8 8.4-35.2 8.4-13.4 0-25.9-3-35.2-8.4-8.5-4.8-13.1-11-13.1-17.3z" fill="#000000"/>
				</g>
				<g id="XMLID_3850_">
					<path id="XMLID_3855_" class="s2" d="m266.1 408.4c0 2.5 0.7 4.9 2.1 7.3 2.1-3.7 5.8-7.1 11-10.1 9.3-5.4 21.8-8.4 35.2-8.4 13.4 0 25.9 3 35.2 8.4 5.1 3 8.9 6.4 11 10.1 1.4-2.4 2.1-4.8 2.1-7.3 0-6.3-4.7-12.5-13.1-17.4-9.3-5.3-21.8-8.3-35.2-8.3-13.4 0-25.9 3-35.2 8.3-8.5 4.9-13.1 11.1-13.1 17.4z" fill="#000000"/>
					<path id="XMLID_3851_" class="s6" d="m266.1 408.4c0 2.5 0.7 4.9 2.1 7.3 2.1-3.7 5.8-7.1 11-10.1 9.3-5.4 21.8-8.4 35.2-8.4 13.4 0 25.9 3 35.2 8.4 5.1 3 8.9 6.4 11 10.1 1.4-2.4 2.1-4.8 2.1-7.3 0-6.3-4.7-12.5-13.1-17.4-9.3-5.3-21.8-8.3-35.2-8.3-13.4 0-25.9 3-35.2 8.3-8.5 4.9-13.1 11.1-13.1 17.4z" fill="#000000"/>
					<path class="s4" d="m349.6 391c8.4 4.9 13.1 11.1 13.1 17.4 0 2.5-0.7 4.9-2.1 7.3-2.1-3.7-5.9-7.1-11-10.1q-3.2-1.8-6.8-3.3c2.1 0.8 8.3 2.8 6-3.1-2.7-7.1-15.9-14.8-25.6-16v-0.1c10 1 19.2 3.8 26.4 7.9z" fill="#000000"/>
				</g>
			</g>
			<path id="XMLID_3848_" class="s7" d="m279.2 397.6c9.3-5.4 21.8-8.3 35.2-8.3 13.4 0 25.9 2.9 35.2 8.3 7 4 11.3 8.9 12.6 14.1-1.3 5.1-5.7 10-12.6 14-9.3 5.4-21.8 8.4-35.2 8.4-13.4 0-25.9-3-35.2-8.4-7-4-11.4-8.9-12.7-14 1.3-5.2 5.7-10.1 12.7-14.1z" fill="#000000"/>
			<path class="s8" d="m353.2 415c-3 2.4-6.4 3.8-9.9 5-3.4 1.2-7 2-10.6 2.6-7.2 1.2-14.5 1.6-21.8 1.3q-5.4-0.3-10.9-1c-3.6-0.5-7.2-1.2-10.7-2.1-3.5-1-6.9-2.1-10.1-3.9q-1.2-0.6-2.3-1.4-1.1-0.7-2.1-1.6-1-0.9-1.7-2.1-0.8-1.1-1.2-2.5c-0.1 1 0.1 2 0.5 2.9 0.3 0.9 0.8 1.8 1.3 2.6q0.9 1.2 1.9 2.3 1 1.1 2.2 2c3.1 2.4 6.6 4.2 10.2 5.6 3.7 1.4 7.4 2.4 11.2 3.1q5.7 1.1 11.5 1.4c7.7 0.3 15.5-0.4 22.9-2.5 3.8-1 7.4-2.4 10.8-4.3 1.7-0.9 3.3-2 4.8-3.2q0.6-0.5 1.1-0.9c0.4-0.4 0.7-0.7 1.1-1q1-1.1 1.8-2.3z" fill="#000000"/>
			<g id="XMLID_3757_">
				<g id="XMLID_3845_">
					<path id="XMLID_3847_" class="s9" d="m277.5 440.2c0-2.2-1.6-4.9-3.5-6.1-0.9-0.5-1.8-0.6-2.4-0.2l-11.1 6.3q0 0 0 0c-0.6 0.4-1 1.1-1 2.3 0 2.2 1.5 4.9 3.4 6 1 0.5 1.9 0.6 2.5 0.2l11-6.3c0.7-0.3 1.1-1.1 1.1-2.2z" fill="#000000"/>
					<path id="XMLID_3846_" class="s10" d="m276.4 442.4c0.7-0.3 1.1-1.1 1.1-2.2 0-0.9-0.3-1.8-0.6-2.6l-15.9 9.1c0.6 0.7 1.2 1.4 1.9 1.8 1 0.5 1.9 0.6 2.5 0.2l11-6.3z" fill="#000000"/>
				</g>
				<g>
					<path class="s11" d="m219.3 458.9q0 0 0.1 0l37.8-19.3q0.1 0 0.1 0v-0.1c0.9-0.4 2.1-0.3 3.4 0.4 2.7 1.6 4.8 5.4 4.8 8.5 0 1.5-0.5 2.6-1.4 3.1l-35.6 23c-1.4 0.9-3.1 1.4-4.8 1.4-5 0-9.1-4.1-9.1-9.1 0-3.4 1.9-6.4 4.7-7.9z" fill="#000000"/>
					<path class="s9" d="m264.1 451.5l-35.6 23c-1.4 0.9-3.1 1.4-4.8 1.4-4.8 0-8.8-3.8-9.1-8.5 0.7 3 5.6 5.5 11.7 2.1 6.1-3.4 28.6-17.6 38.9-23.5q0.3 1.2 0.3 2.4c0 1.5-0.5 2.6-1.4 3.1z" fill="#000000"/>
					<path class="s2" d="m264.1 451.5c0.9-0.5 1.4-1.6 1.4-3.1 0-3.1-2.1-6.9-4.8-8.5-1.3-0.7-2.5-0.8-3.4-0.4l-3.4 1.7c1-0.4 2.2-0.4 3.5 0.4 2.8 1.6 5 5.5 5 8.7 0 1.6-0.6 2.8-1.5 3.3" fill="#000000"/>
					<path class="s12" d="m260.9 453.6c0.9-0.5 1.5-1.7 1.5-3.3q0-1.2-0.4-2.5 1.7-1 3.2-1.8 0.1 0.6 0.2 1.2 0.1 0.3 0.1 0.6 0 0.3 0 0.6c0 1.5-0.5 2.6-1.4 3.1z" fill="#000000"/>
				</g>
			</g>
		</g>
	</g>
	<g id="Stars_1_">
		<g id="Stars">
			<g>
				<path class="s13" d="m304.2 325.4c-1.4-0.8-3.3-0.7-5.4 0.5l-38.8 22.4c-4.1 2.4-7.5 8.1-7.5 12.7 0 2.2 0.8 3.8 2.1 4.6 0.7 0.4 3.5 2 4.2 2.4 1.4 0.7 3.3 0.6 5.4-0.6l38.7-22.4c4.1-2.4 7.5-8 7.5-12.6 0-2.3-0.8-3.9-2.1-4.6-0.7-0.4-3.4-2-4.1-2.4z" fill="#000000"/>
				<g>
					<path class="s0" d="m260.7 368.2c-2.3 0-3.8-1.9-3.8-4.8 0-4.6 3.3-10.1 7.4-12.5l38.7-22.3c1.2-0.7 2.3-1.1 3.3-1.1 2.4 0 3.8 1.9 3.8 4.9 0 4.5-3.3 10.1-7.3 12.4l-38.8 22.4c-1.1 0.6-2.3 1-3.3 1z" fill="#000000"/>
					<path class="s14" d="m306.3 327.3c-1 0-2.2 0.3-3.4 1l-38.7 22.4c-4.2 2.4-7.5 8.1-7.5 12.7 0 3.2 1.6 5 4 5 1 0 2.2-0.3 3.5-1l38.7-22.4c4.1-2.4 7.5-8 7.5-12.6 0-3.3-1.7-5.1-4.1-5.1zm0 0.5c2.2 0 3.6 1.7 3.6 4.6 0 4.4-3.3 9.9-7.3 12.2l-38.7 22.4c-1.1 0.6-2.2 0.9-3.2 0.9-1 0-1.9-0.4-2.5-1.1-0.7-0.8-1-2-1-3.4 0-4.5 3.2-10 7.2-12.3l38.7-22.3c1.2-0.7 2.3-1 3.2-1z" fill="#000000"/>
				</g>
			</g>
			<g id="Stars_4_">
				<g>
					<path class="s2" d="m270.2 355.7c0.2-0.3 0.2-0.6 0-0.7 0 0-1.1-0.7-1.3-0.7q-0.1-0.1-0.2 0l-1.2 0.4-0.3-0.8q-0.1-0.1-0.1-0.1c-0.2-0.1-1.3-0.8-1.3-0.8-0.2-0.1-0.5 0.1-0.6 0.5l-0.8 2.6q-0.1 0.3-0.2 0.4l-1.8 1.4c-0.3 0.3-0.5 0.8-0.2 0.9l1.3 1q0.1 0.1 0.1 0.3l-0.3 2.6q-0.1 0.3 0.1 0.4c0.1 0 1.2 0.7 1.3 0.7 0.1 0.1 0.2 0.1 0.4-0.1l1.6-2.1q0.1-0.2 0.3-0.2l1.6 0.2c0.3 0.1 0.6-0.4 0.5-0.8l-0.3-2.2q0-0.2 0.1-0.5z" fill="#000000"/>
					<g>
						<path class="s15" d="m270.2 355q-0.1 0-0.2 0l-1.8 0.7q-0.2 0.1-0.2-0.1l-0.5-0.9 1.2-0.4q0.1-0.1 0.2 0c0.2 0 1.3 0.7 1.3 0.7z" fill="#000000"/>
						<path class="s15" d="m265.7 356.9q-0.1 0.3-0.2 0.4l-1.9 1.4q-0.1 0.1-0.1 0.2l-1.3-0.7q0-0.2 0.2-0.3l1.8-1.4c0.1 0 0.2-0.2 0.2-0.4z" fill="#000000"/>
						<path class="s16" d="m267.1 353.8c-0.2-0.1-0.5 0.1-0.6 0.4l-0.8 2.7-1.3-0.8 0.8-2.6c0.1-0.4 0.4-0.6 0.6-0.5 0 0 1.1 0.7 1.3 0.8q0 0 0 0z" fill="#000000"/>
						<path class="s17" d="m264.8 360.5l-1.3-0.7q0 0 0 0l-1.3-1c-0.2-0.1-0.2-0.4 0-0.6l1.3 0.7c-0.2 0.3-0.2 0.6 0 0.7z" fill="#000000"/>
						<path class="s18" d="m264.6 363.5q-0.1 0.3 0.1 0.3 0 0 0 0c-0.1 0-1.2-0.7-1.3-0.7q-0.2-0.1-0.1-0.4l0.3-2.6q0-0.2-0.1-0.3l1.3 0.7q0 0 0 0v0.1q0.1 0.1 0.1 0.3z" fill="#000000"/>
					</g>
					<g>
						<path id="XMLID_3958_" class="s2" d="m267.2 353.9l0.8 1.7q0 0.2 0.2 0.1l1.8-0.7c0.3-0.1 0.4 0.3 0.2 0.7l-1.3 2.4q-0.1 0.3-0.1 0.5l0.3 2.2c0.1 0.4-0.2 0.9-0.5 0.8l-1.6-0.2q-0.2 0-0.3 0.2l-1.6 2.1c-0.3 0.3-0.6 0.2-0.5-0.2l0.3-2.6q0-0.3-0.1-0.4l-1.3-0.9c-0.3-0.2-0.1-0.7 0.1-0.9l1.9-1.4q0.1-0.2 0.2-0.4l0.8-2.7c0.2-0.4 0.5-0.6 0.7-0.3z" fill="#000000"/>
						<path id="XMLID_3957_" class="s5" d="m267.2 353.9l0.8 1.7q0 0.2 0.2 0.1l1.8-0.7c0.3-0.1 0.4 0.3 0.2 0.7l-1.3 2.4q-0.1 0.3-0.1 0.5l0.3 2.2c0.1 0.4-0.2 0.9-0.5 0.8l-1.6-0.2q-0.2 0-0.3 0.2l-1.6 2.1c-0.3 0.3-0.6 0.2-0.5-0.2l0.3-2.6q0-0.3-0.1-0.4l-1.3-0.9c-0.3-0.2-0.1-0.7 0.1-0.9l1.9-1.4q0.1-0.2 0.2-0.4l0.8-2.7c0.2-0.4 0.5-0.6 0.7-0.3z" fill="#000000"/>
					</g>
				</g>
				<g>
					<path class="s2" d="m279.3 350.5c0.2-0.3 0.1-0.6 0-0.7-0.1-0.1-1.2-0.7-1.3-0.8q-0.1 0-0.2 0l-1.2 0.5-0.4-0.9q0 0-0.1-0.1c-0.1 0-1.2-0.7-1.3-0.7-0.1-0.1-0.4 0.1-0.5 0.5l-0.8 2.6q-0.1 0.3-0.3 0.4l-1.8 1.4c-0.3 0.2-0.4 0.8-0.2 0.9l1.3 1q0.2 0.1 0.1 0.3l-0.3 2.6q0 0.3 0.1 0.4c0.1 0 1.3 0.7 1.3 0.7 0.1 0.1 0.3 0 0.4-0.2l1.7-2q0.1-0.2 0.3-0.2l1.6 0.2c0.3 0 0.6-0.4 0.5-0.8l-0.3-2.2q0-0.2 0.1-0.5z" fill="#000000"/>
					<g>
						<path class="s15" d="m279.3 349.8q-0.1-0.1-0.2 0l-1.8 0.7q-0.2 0-0.3-0.1l-0.4-0.9 1.2-0.5q0.1 0 0.2 0c0.1 0.1 1.2 0.7 1.3 0.8z" fill="#000000"/>
						<path class="s15" d="m274.8 351.7q-0.1 0.2-0.3 0.4l-1.8 1.4q-0.1 0.1-0.2 0.2l-1.3-0.8q0.1-0.1 0.2-0.2l1.8-1.4c0.1-0.1 0.2-0.2 0.3-0.4z" fill="#000000"/>
						<path class="s16" d="m276.2 348.5c-0.2-0.1-0.5 0.1-0.6 0.5l-0.8 2.7-1.3-0.8 0.8-2.6c0.1-0.4 0.4-0.6 0.5-0.5 0.1 0 1.2 0.7 1.3 0.7q0 0 0.1 0z" fill="#000000"/>
						<path class="s17" d="m273.8 355.3l-1.2-0.7q-0.1 0-0.1 0l-1.3-1c-0.1-0.1-0.1-0.4 0-0.7l1.3 0.8c-0.1 0.2-0.1 0.6 0 0.7z" fill="#000000"/>
						<path class="s18" d="m273.6 358.2q0 0.3 0.2 0.4-0.1 0-0.1 0c0 0-1.2-0.7-1.3-0.7q-0.1-0.1-0.1-0.4l0.3-2.6q0.1-0.2 0-0.3l1.2 0.7q0 0 0 0h0.1q0.1 0.1 0 0.4z" fill="#000000"/>
					</g>
					<g>
						<path id="XMLID_3956_" class="s2" d="m276.2 348.6l0.8 1.8q0.1 0.1 0.3 0.1l1.8-0.7c0.3-0.1 0.4 0.3 0.2 0.7l-1.3 2.4q-0.1 0.3-0.1 0.5l0.3 2.2c0.1 0.4-0.2 0.8-0.5 0.8l-1.6-0.2q-0.2 0-0.3 0.2l-1.7 2c-0.2 0.4-0.5 0.3-0.5-0.2l0.3-2.5q0.1-0.3-0.1-0.4l-1.3-0.9c-0.2-0.2-0.1-0.7 0.2-0.9l1.8-1.4q0.2-0.2 0.3-0.4l0.8-2.7c0.1-0.4 0.5-0.6 0.6-0.4z" fill="#000000"/>
						<path id="XMLID_3955_" class="s5" d="m276.2 348.6l0.8 1.8q0.1 0.1 0.3 0.1l1.8-0.7c0.3-0.1 0.4 0.3 0.2 0.7l-1.3 2.4q-0.1 0.3-0.1 0.5l0.3 2.2c0.1 0.4-0.2 0.8-0.5 0.8l-1.6-0.2q-0.2 0-0.3 0.2l-1.7 2c-0.2 0.4-0.5 0.3-0.5-0.2l0.3-2.5q0.1-0.3-0.1-0.4l-1.3-0.9c-0.2-0.2-0.1-0.7 0.2-0.9l1.8-1.4q0.2-0.2 0.3-0.4l0.8-2.7c0.1-0.4 0.5-0.6 0.6-0.4z" fill="#000000"/>
					</g>
				</g>
				<g>
					<path class="s2" d="m288.4 345.2c0.1-0.3 0.1-0.6 0-0.7-0.1 0-1.2-0.6-1.3-0.7q-0.1-0.1-0.2 0l-1.2 0.4-0.4-0.8q0-0.1-0.1-0.1c-0.1-0.1-1.2-0.7-1.3-0.7-0.1-0.1-0.4 0.1-0.5 0.4l-0.8 2.7q-0.1 0.2-0.3 0.4l-1.8 1.4c-0.3 0.2-0.4 0.7-0.2 0.9l1.3 0.9q0.1 0.1 0.1 0.4l-0.3 2.6q0 0.2 0.1 0.3c0.1 0.1 1.2 0.7 1.3 0.8 0.1 0 0.3 0 0.4-0.2l1.6-2.1q0.2-0.2 0.4-0.1l1.6 0.2c0.2 0 0.5-0.5 0.5-0.8l-0.3-2.3q-0.1-0.2 0.1-0.4z" fill="#000000"/>
					<g>
						<path class="s15" d="m288.4 344.5q-0.1 0-0.2 0l-1.8 0.7q-0.2 0.1-0.3-0.1l-0.4-0.9 1.2-0.4q0.1-0.1 0.2 0c0.1 0.1 1.2 0.7 1.3 0.7z" fill="#000000"/>
						<path class="s15" d="m283.9 346.4q-0.1 0.3-0.3 0.4l-1.8 1.4q-0.1 0.1-0.2 0.3l-1.3-0.8q0.1-0.1 0.2-0.2l1.8-1.4c0.1-0.1 0.2-0.3 0.3-0.4z" fill="#000000"/>
						<path class="s16" d="m285.2 343.3c-0.1-0.1-0.4 0.1-0.5 0.5l-0.8 2.6-1.3-0.7 0.8-2.7c0.1-0.3 0.4-0.5 0.5-0.4 0.1 0 1.2 0.6 1.3 0.7q0 0 0 0z" fill="#000000"/>
						<path class="s17" d="m282.9 350.1l-1.3-0.8q0 0 0 0l-1.3-0.9c-0.1-0.1-0.1-0.4 0-0.7l1.3 0.8c-0.1 0.2-0.1 0.5 0 0.6z" fill="#000000"/>
						<path class="s18" d="m282.7 353q0 0.3 0.1 0.4 0 0 0 0c-0.1-0.1-1.2-0.7-1.3-0.8q-0.1-0.1-0.1-0.3l0.3-2.6q0-0.3-0.1-0.4l1.3 0.8q0 0 0 0 0.1 0.1 0.1 0.3z" fill="#000000"/>
					</g>
					<g>
						<path id="XMLID_3954_" class="s2" d="m285.3 343.4l0.8 1.7q0.1 0.2 0.3 0.1l1.8-0.7c0.3-0.1 0.4 0.3 0.2 0.7l-1.3 2.5q-0.2 0.2-0.1 0.4l0.3 2.3c0 0.3-0.3 0.8-0.5 0.8l-1.6-0.2q-0.2-0.1-0.4 0.1l-1.6 2.1c-0.2 0.3-0.5 0.2-0.5-0.2l0.3-2.6q0-0.2-0.1-0.3l-1.3-1c-0.2-0.1-0.1-0.7 0.2-0.9l1.8-1.4q0.2-0.1 0.3-0.4l0.8-2.6c0.1-0.4 0.5-0.7 0.6-0.4z" fill="#000000"/>
						<path id="XMLID_3953_" class="s5" d="m285.3 343.4l0.8 1.7q0.1 0.2 0.3 0.1l1.8-0.7c0.3-0.1 0.4 0.3 0.2 0.7l-1.3 2.5q-0.2 0.2-0.1 0.4l0.3 2.3c0 0.3-0.3 0.8-0.5 0.8l-1.6-0.2q-0.2-0.1-0.4 0.1l-1.6 2.1c-0.2 0.3-0.5 0.2-0.5-0.2l0.3-2.6q0-0.2-0.1-0.3l-1.3-1c-0.2-0.1-0.1-0.7 0.2-0.9l1.8-1.4q0.2-0.1 0.3-0.4l0.8-2.6c0.1-0.4 0.5-0.7 0.6-0.4z" fill="#000000"/>
					</g>
				</g>
				<g>
					<path class="s2" d="m297.5 340c0.1-0.3 0.1-0.6-0.1-0.7 0 0-1.1-0.7-1.3-0.7q0-0.1-0.1 0l-1.2 0.4-0.4-0.8q-0.1-0.1-0.1-0.1c-0.2-0.1-1.3-0.8-1.3-0.8-0.2-0.1-0.4 0.1-0.5 0.5l-0.9 2.6q0 0.3-0.2 0.4l-1.8 1.4c-0.3 0.3-0.4 0.8-0.2 0.9l1.3 1q0.1 0.1 0.1 0.3l-0.3 2.6q0 0.3 0.1 0.4c0.1 0 1.2 0.7 1.3 0.7 0.1 0.1 0.2 0.1 0.4-0.1l1.6-2.1q0.2-0.2 0.3-0.2l1.6 0.2c0.3 0.1 0.6-0.4 0.6-0.8l-0.4-2.2q0-0.2 0.1-0.5z" fill="#000000"/>
					<g>
						<path class="s15" d="m297.4 339.3q0 0-0.1 0l-1.8 0.7q-0.2 0.1-0.3-0.1l-0.4-0.9 1.2-0.4q0.1-0.1 0.1 0c0.2 0 1.3 0.7 1.3 0.7z" fill="#000000"/>
						<path class="s15" d="m292.9 341.2q0 0.3-0.2 0.4l-1.8 1.4q-0.1 0.1-0.2 0.2l-1.3-0.7q0.1-0.2 0.2-0.3l1.8-1.4c0.1 0 0.2-0.2 0.3-0.4z" fill="#000000"/>
						<path class="s16" d="m294.3 338.1c-0.2-0.1-0.4 0.1-0.5 0.4l-0.9 2.7-1.3-0.8 0.9-2.6c0.1-0.4 0.3-0.6 0.5-0.5 0 0 1.1 0.7 1.3 0.8q0 0 0 0z" fill="#000000"/>
						<path class="s17" d="m292 344.8l-1.3-0.7q0 0 0 0l-1.3-1c-0.2-0.1-0.1-0.4 0-0.6l1.3 0.7c-0.2 0.3-0.2 0.6 0 0.7z" fill="#000000"/>
						<path class="s18" d="m291.8 347.8q0 0.3 0.1 0.3 0 0 0 0c-0.1 0-1.2-0.7-1.3-0.7q-0.1-0.1-0.1-0.4l0.3-2.6q0-0.2-0.1-0.3l1.3 0.7q0 0 0 0.1 0.1 0.1 0.1 0.3z" fill="#000000"/>
					</g>
					<g>
						<path id="XMLID_3952_" class="s2" d="m294.4 338.2l0.8 1.7q0.1 0.2 0.3 0.1l1.8-0.7c0.2-0.1 0.4 0.3 0.2 0.7l-1.4 2.4q-0.1 0.3-0.1 0.5l0.4 2.2c0 0.4-0.3 0.9-0.6 0.8l-1.6-0.2q-0.1 0-0.3 0.2l-1.6 2.1c-0.3 0.3-0.6 0.2-0.5-0.2l0.3-2.6q0-0.3-0.1-0.4l-1.3-0.9c-0.2-0.2-0.1-0.7 0.2-0.9l1.8-1.4q0.2-0.1 0.2-0.4l0.9-2.7c0.1-0.4 0.5-0.6 0.6-0.3z" fill="#000000"/>
						<path id="XMLID_3951_" class="s5" d="m294.4 338.2l0.8 1.7q0.1 0.2 0.3 0.1l1.8-0.7c0.2-0.1 0.4 0.3 0.2 0.7l-1.4 2.4q-0.1 0.3-0.1 0.5l0.4 2.2c0 0.4-0.3 0.9-0.6 0.8l-1.6-0.2q-0.1 0-0.3 0.2l-1.6 2.1c-0.3 0.3-0.6 0.2-0.5-0.2l0.3-2.6q0-0.3-0.1-0.4l-1.3-0.9c-0.2-0.2-0.1-0.7 0.2-0.9l1.8-1.4q0.2-0.1 0.2-0.4l0.9-2.7c0.1-0.4 0.5-0.6 0.6-0.3z" fill="#000000"/>
					</g>
				</g>
				<g>
					<path class="s2" d="m306.5 334.8c0.2-0.3 0.2-0.6 0-0.7 0-0.1-1.1-0.7-1.3-0.8q-0.1 0-0.2 0l-1.1 0.5-0.4-0.9q-0.1 0-0.1-0.1c-0.2 0-1.3-0.7-1.3-0.7-0.2-0.1-0.5 0.1-0.6 0.5l-0.8 2.6q-0.1 0.3-0.2 0.4l-1.8 1.4c-0.3 0.2-0.4 0.8-0.2 0.9l1.3 1q0.1 0.1 0.1 0.3l-0.3 2.6q-0.1 0.3 0.1 0.4c0.1 0 1.2 0.7 1.3 0.7 0.1 0.1 0.2 0 0.4-0.2l1.6-2q0.1-0.2 0.3-0.2l1.6 0.2c0.3 0 0.6-0.4 0.5-0.8l-0.3-2.2q0-0.2 0.1-0.5z" fill="#000000"/>
					<g>
						<path class="s15" d="m306.5 334.1q-0.1-0.1-0.2 0l-1.8 0.7q-0.1 0-0.2-0.1l-0.4-0.9 1.1-0.5q0.1 0 0.2 0c0.2 0.1 1.3 0.7 1.3 0.8z" fill="#000000"/>
						<path class="s15" d="m302 336q-0.1 0.2-0.2 0.4l-1.8 1.4q-0.2 0.1-0.2 0.2l-1.3-0.8q0-0.1 0.2-0.2l1.8-1.4c0.1-0.1 0.2-0.2 0.2-0.4z" fill="#000000"/>
						<path class="s16" d="m303.4 332.8c-0.2-0.1-0.5 0.2-0.6 0.5l-0.8 2.7-1.3-0.8 0.8-2.6c0.1-0.4 0.4-0.6 0.6-0.5 0 0 1.1 0.7 1.3 0.7q0 0 0 0z" fill="#000000"/>
						<path class="s17" d="m301.1 339.6l-1.3-0.7q0 0 0 0l-1.3-1c-0.2-0.1-0.2-0.4 0-0.7l1.3 0.8c-0.2 0.2-0.2 0.6 0 0.7z" fill="#000000"/>
						<path class="s18" d="m300.9 342.5q-0.1 0.3 0.1 0.4 0 0 0 0c-0.1 0-1.2-0.7-1.3-0.7q-0.2-0.1-0.1-0.4l0.3-2.6q0-0.2-0.1-0.3l1.3 0.7q0 0 0 0 0.1 0.1 0.1 0.4z" fill="#000000"/>
					</g>
					<g>
						<path id="XMLID_3950_" class="s2" d="m303.5 332.9l0.8 1.8q0 0.1 0.2 0.1l1.8-0.7c0.3-0.1 0.4 0.3 0.2 0.7l-1.3 2.4q-0.1 0.3-0.1 0.5l0.3 2.2c0.1 0.4-0.2 0.8-0.5 0.8l-1.6-0.2q-0.2 0-0.3 0.2l-1.6 2c-0.3 0.4-0.6 0.3-0.5-0.2l0.3-2.5q0-0.3-0.1-0.4l-1.3-0.9c-0.3-0.2-0.1-0.7 0.1-0.9l1.9-1.4q0.1-0.2 0.2-0.4l0.8-2.7c0.2-0.4 0.5-0.6 0.7-0.4z" fill="#000000"/>
						<path id="XMLID_3949_" class="s5" d="m303.5 332.9l0.8 1.8q0 0.1 0.2 0.1l1.8-0.7c0.3-0.1 0.4 0.3 0.2 0.7l-1.3 2.4q-0.1 0.3-0.1 0.5l0.3 2.2c0.1 0.4-0.2 0.8-0.5 0.8l-1.6-0.2q-0.2 0-0.3 0.2l-1.6 2c-0.3 0.4-0.6 0.3-0.5-0.2l0.3-2.5q0-0.3-0.1-0.4l-1.3-0.9c-0.3-0.2-0.1-0.7 0.1-0.9l1.9-1.4q0.1-0.2 0.2-0.4l0.8-2.7c0.2-0.4 0.5-0.6 0.7-0.4z" fill="#000000"/>
					</g>
				</g>
			</g>
		</g>
	</g>
	<g id="Device">
		<g id="Monitor_2_">
			<g>
				<path class="s14" d="m247.2 376.7l-32.4-18.7c-6.6-3.8-17.8-4.7-25-1.9l-19.2 7.4c-7.2 2.7-17.9 8.8-23.9 13.6l-19.6 15.4c-2.8 2.2-4.2 4.9-4.2 7.5 0 0.7 0 3.7 0 4.5 0.1 2.9 1.8 5.8 5.3 7.9l32.4 18.7c6.7 3.8 17.5 3.8 24.1 0l62.5-36.1c3.3-2 5-4.5 5-7 0-0.7 0-3.6 0-4.3 0-2.5-1.7-5.1-5-7z" fill="#000000"/>
				<path class="s13" d="m122.9 404.5c0.1 2.9 1.8 5.8 5.3 7.9l32.4 18.7c3.4 1.9 7.7 2.8 12.1 2.8v-4.6l-49.8-28.7c0 1.1 0 3.2 0 3.9z" fill="#000000"/>
				<path class="s16" d="m122.9 404.5c0.1 2.9 1.8 5.8 5.3 7.9l32.4 18.7c3.4 1.9 7.7 2.8 12.1 2.8v-4.6l-49.8-28.7c0 1.1 0 3.2 0 3.9z" fill="#000000"/>
				<path class="s19" d="m189.8 356.1l-19.2 7.4c-7.2 2.7-17.9 8.8-23.9 13.6l-19.6 15.4c-6 4.7-5.5 11.7 1.1 15.5l32.4 18.7c6.7 3.8 17.5 3.8 24.1 0l62.5-36.1c6.6-3.8 6.6-10 0-13.9l-32.4-18.7c-6.6-3.8-17.8-4.7-25-1.9z" fill="#000000"/>
				<path class="s16" d="m214.8 358c-6.6-3.8-17.8-4.7-25-1.9l-19.2 7.4c-7.2 2.7-17.9 8.8-23.9 13.6l-19.6 15.4c-2.8 2.2-4.2 4.9-4.2 7.5 0 0.7 0 3.7 0 4.5 0.1 2.9 1.8 5.8 5.3 7.9l18.1 10.4v-4.4l86.6-49.9z" fill="#000000"/>
				<g>
					<path class="s13" d="m184.5 377.7c0-9.6 3-39.6 9.2-46.7l-20-2.2c-9.9 10.5-21.7 35.3-28.8 49.7 0 0 5.9 2.4 13.1 5.4 7.3 3 17.4 3 22.6 0 2.6-1.5 3.9-3.8 3.9-6.2z" fill="#000000"/>
					<path class="s16" d="m184.5 377.7c0-9.6 3-39.6 9.2-46.7l-20-2.2c-9.9 10.5-21.7 35.3-28.8 49.7 0 0 5.9 2.4 13.1 5.4 7.3 3 17.4 3 22.6 0 2.6-1.5 3.9-3.8 3.9-6.2z" fill="#000000"/>
					<path class="s13" d="m180.7 331.7c3.9 1.6 9.3 1.6 12.1 0 2.8-1.6 2.8-4.7 0-7l-5-4c-4.9 2-9.7 4.6-14.1 8.1 0 0 3.1 1.3 7 2.9z" fill="#000000"/>
				</g>
			</g>
			<path id="XMLID_306_" class="s11" d="m71.1 424.8c2.7 1.6 7.4 1.5 10.3-0.2 36.8-21.3 205.9-118.9 242.7-140.2 3-1.7 5.3-5.8 5.3-9.2v-224.3c0-3.4-2.2-7.4-5-9-2.7-1.6-7.3-1.5-10.3 0.2l-242.7 140.1c-2.9 1.7-5.3 5.8-5.3 9.2v224.3c0 3.4 2.2 7.5 5 9.1z" fill="#000000"/>
			<path id="XMLID_303_" class="s9" d="m81.4 424.6l242.7-140.2c3-1.7 5.3-5.8 5.3-9.2v-224.3c0-3.4-2.3-4.8-5.3-3.1l-242.7 140.2c-2.9 1.7-5.3 5.8-5.3 9.2v224.3c0 3.4 2.4 4.8 5.3 3.1z" fill="#000000"/>
			<path class="s14" d="m76.1 403.4v18.1c0 3.4 2.4 4.8 5.3 3.1l242.7-140.2c3-1.7 5.3-5.8 5.3-9.2v-18.1z" fill="#000000"/>
			<path id="XMLID_300_" class="s10" d="m83.1 386.5v-186.9c0-2.1 1.5-4.6 3.3-5.7l232.7-134.4c1.8-1 3.3-0.2 3.3 1.9v186.9c0 2.1-1.5 4.7-3.3 5.7l-232.7 134.4c-1.8 1-3.3 0.2-3.3-1.9z" fill="#000000"/>
			<path class="s10" d="m67.6 186.2l10 5.7c-0.9 1.7-1.5 3.6-1.5 5.3v199.4 24.9c0 3.1 2.1 4.8 5.3 3.1-3.2 1.8-7.8 1.6-10.3 0.2-2.8-1.6-5-5-5-8.4v-25.6-199.4c0-1.6 0.6-3.5 1.5-5.2z" fill="#000000"/>
			<path class="s2" d="m199.8 342l12.1-6.9c1.1-0.6 1.9-0.2 1.9 1 0 1.2-0.8 2.6-1.9 3.2l-12.1 7c-1.1 0.6-1.9 0.1-1.9-1 0-1.2 0.8-2.6 1.9-3.3z" fill="#000000"/>
		</g>
		<g id="Window_17_">
			<g id="Window_18_">
				<path id="XMLID_589_" class="s1" d="m102.3 417.9c0 0.1-0.7 0.5-2 0.7-1.1 0.1-2.2-0.1-3-0.6-1.4-0.7-2.5-2.7-2.5-4.4v-175.1l4.9 2.8v175.1c0 1.2 0.6 1.9 1.4 1.9 0.2 0 0.6 0 1.2-0.4z" fill="#000000"/>
				<g id="XMLID_582_">
					<g id="XMLID_583_">
						<path class="s0" d="m101.1 417.7c-0.7 0-0.8-0.9-0.8-1.3v-191.6l238-137.4v190.9c0 1.5-1.1 3.3-2.3 4l-234 135.1q-0.5 0.3-0.9 0.3z" fill="#000000"/>
						<path class="s14" d="m338.9 86.4l-239.2 138.1v191.9c0 1.2 0.6 1.9 1.4 1.9q0.6 0 1.2-0.4l234-135.1c1.4-0.8 2.6-2.8 2.6-4.5v-175.1-16.8zm-1.2 2.1v14.7 175.1c0 1.3-0.9 2.9-2 3.5l-234 135.1c-0.3 0.2-0.5 0.2-0.6 0.2-0.2 0-0.2-0.7-0.2-0.7v-191.2z" fill="#000000"/>
					</g>
				</g>
				<g>
					<path id="XMLID_578_" class="s2" d="m97.3 232.5c-1.4-0.8-2.5-2.8-2.5-4.4v-20.3c0-1.6 1.2-3.7 2.6-4.5l234-135.1c1.5-0.8 3.7-0.8 5.1-0.1 1.3 0.8 2.4 2.8 2.4 4.4v20.3c0 1.6-1.2 3.6-2.6 4.5l-234 135.1c-1.4 0.8-3.7 0.8-5 0.1z" fill="#000000"/>
					<path id="XMLID_575_" class="s6" d="m338.9 72.1c-0.2-1.3-1.3-1.8-2.6-1.1l-234 135.1c-0.7 0.4-1.4 1.2-1.8 2l-4.9-2.8c0.5-0.9 1.1-1.6 1.8-2l234-135.1c1.5-0.8 3.7-0.9 5.1-0.1 1.2 0.7 2.2 2.4 2.4 4z" fill="#000000"/>
					<path id="XMLID_574_" class="s12" d="m100.5 208.1c-0.5 0.8-0.8 1.7-0.8 2.5v30.7l-4.9-2.8v-30.7q0-0.1 0-0.3c0.1-0.2 0.1-0.4 0.1-0.6 0.2-0.6 0.4-1.2 0.7-1.6z" fill="#000000"/>
					<path id="XMLID_568_" class="s2" d="m338.9 72.5v13.9l-160.4 92.7c-1.4 0.8-2.6 0.1-2.6-1.5v-5.3c0-1.6-1.1-2.3-2.6-1.5l-61.3 35.3c-1.4 0.9-2.6 2.9-2.6 4.5v5.3c0 1.6-1.1 3.6-2.6 4.5l-7.1 4.1v-13.9c0-1.6 1.2-3.6 2.6-4.5l234-135.1c1.4-0.8 2.6-0.1 2.6 1.5z" fill="#000000"/>
					<g id="XMLID_562_">
						<path id="XMLID_567_" class="s8" d="m331.5 80c1.1-0.7 2-0.2 2 1.1 0 1.3-0.9 2.8-2 3.4-1.1 0.7-2 0.2-2-1.1 0-1.3 0.9-2.8 2-3.4z" fill="#000000"/>
						<path id="XMLID_565_" class="s8" d="m324.3 84.1c1.1-0.7 2-0.1 2 1.1 0 1.3-0.9 2.8-2 3.5-1.1 0.6-2 0.1-2-1.2 0-1.2 0.9-2.8 2-3.4z" fill="#000000"/>
						<path id="XMLID_564_" class="s8" d="m317.1 88.2c1.1-0.6 2-0.1 2 1.2 0 1.2-0.9 2.8-2 3.4-1.1 0.6-1.9 0.1-1.9-1.1 0-1.3 0.8-2.9 1.9-3.5z" fill="#000000"/>
					</g>
				</g>
				<g>
					<g>
						<path id="XMLID_554_" class="s13" d="m338.9 86.4v16.8l-239.2 138.1v-16.8l5.3-3.1c1.5-0.8 1.9-2.1 2.6-4.5l1.8-6.3c0.6-2.2 1.2-3.6 2.6-4.5l60.3-34.7c1.4-0.8 2.5-0.9 3.6 0.9l2.2 4c0.9 1.5 1.3 2.3 2.7 1.5z" fill="#000000"/>
						<path id="XMLID_517_" class="s13" d="m99.7 224.5v16.8l-4.9-2.8v-16.8z" fill="#000000"/>
						<path id="XMLID_507_" class="s18" d="m99.7 224.5v16.8l-4.9-2.8v-16.8z" fill="#000000"/>
					</g>
					<g>
						<path id="XMLID_505_" class="s18" d="m111.6 225.7l-4.1 2.3 1.6-2.9c0.1-0.3 0.1-0.6 0-0.8-0.1-0.1-0.3 0-0.5 0.2l-2.2 4.3q0 0 0 0 0 0.1 0 0.2 0 0 0 0-0.1 0.1-0.1 0.2 0 0.1 0.1 0.2 0 0 0 0.1 0 0 0 0 0 0 0 0.1l2.2 1.7q0.1 0 0.3 0 0.1-0.1 0.2-0.4c0.1-0.2 0.1-0.6 0-0.7l-1.6-1.1 4.1-2.4c0.2-0.1 0.3-0.4 0.3-0.7 0-0.3-0.1-0.4-0.3-0.3z" fill="#000000"/>
						<path id="XMLID_502_" class="s18" d="m115 223.7l4.1-2.3-1.6-1.2c-0.1-0.1-0.1-0.4 0-0.7 0.1-0.3 0.3-0.4 0.4-0.3l2.3 1.7q0 0 0 0 0 0 0 0.1 0 0 0 0 0.1 0.1 0.1 0.2 0 0.1-0.1 0.2 0 0 0 0.1 0 0 0 0.1 0 0 0 0l-2.3 4.3q0 0.2-0.2 0.2-0.1 0.1-0.2 0c-0.1-0.1-0.1-0.5 0-0.7l1.6-3-4.1 2.3c-0.2 0.1-0.3 0-0.3-0.3 0-0.3 0.1-0.6 0.3-0.7z" fill="#000000"/>
						<path id="XMLID_501_" class="s18" d="m128.4 212c-0.1-0.2-0.3-0.2-0.4 0.1l-0.6 1.3c-0.9-0.1-2.1 0.8-2.8 2.5-1 2.1-1 4.7 0 5.6 0.5 0.5 1.1 0.5 1.8 0.1 0.7-0.3 1.3-1.1 1.8-2.2 0.2-0.3 0.2-0.6 0-0.7-0.1-0.1-0.3 0-0.4 0.3-0.8 1.6-2 2.3-2.8 1.5-0.7-0.7-0.7-2.6 0-4.2 0.6-1.1 1.3-1.8 2-1.8l-0.4 1c-0.1 0.3 0 0.5 0.2 0.4l1.6-1.1c0.1 0 0.2-0.2 0.2-0.4z" fill="#000000"/>
						<path id="XMLID_498_" class="s18" d="m170.5 179.1l1.5-3.1c0.1-0.4 0.1-0.8 0-1-0.2-0.2-0.5 0-0.7 0.4l-1.4 3.1-1.5-1.4c-0.2-0.2-0.5 0-0.7 0.4-0.1 0.3-0.1 0.8 0 0.9l1.5 1.5-1.5 3.1c-0.1 0.4-0.1 0.8 0 1q0.2 0.1 0.3 0 0.2-0.1 0.4-0.4l1.5-3.1 1.4 1.4q0.2 0.1 0.4 0 0.1-0.1 0.3-0.4c0.1-0.3 0.1-0.8 0-0.9z" fill="#000000"/>
						<path id="XMLID_492_" class="s0" d="m133.8 215.9v-5.3c0-1.6 1.1-3.6 2.5-4.5l185.4-106.9c1.4-0.8 2.6-0.2 2.6 1.5v5.2c0 1.7-1.2 3.7-2.6 4.5l-185.4 107c-1.4 0.8-2.5 0.1-2.5-1.5z" fill="#000000"/>
						<g id="XMLID_490_">
							<path class="s13" d="m318.2 110.8q-0.1 0-0.3 0c-0.2-0.1-0.4-0.4-0.3-0.8l0.2-2.1-1-0.8q-0.2-0.2-0.3-0.5c0-0.4 0.2-0.7 0.5-0.9l1.5-1.2q0 0 0.1-0.1l0.6-2.3c0.2-0.4 0.5-0.7 0.8-0.7 0.3 0 0.5 0.1 0.6 0.4l0.6 1.2 1.3-0.5c0.2-0.1 0.5-0.1 0.6 0.1 0.3 0.3 0.3 0.7 0.1 1.1l-1.1 2.1q-0.1 0.1-0.1 0.1l0.3 1.9c0.1 0.3-0.1 0.7-0.3 0.9q-0.3 0.3-0.6 0.2l-1.3-0.1-1.3 1.7c-0.2 0.2-0.4 0.3-0.6 0.3zm-0.8-4.3l1 0.7c0.2 0.2 0.3 0.4 0.3 0.7l-0.2 1.4 0.9-1.1q0.3-0.4 0.7-0.3l1.3 0.1q0-0.1 0-0.1l-0.2-1.9c-0.1-0.2 0-0.5 0.1-0.7l1-1.8-1 0.4c-0.4 0.1-0.7 0-0.8-0.3l-0.5-1-0.6 2q-0.1 0.4-0.4 0.6l-1.5 1.2q0 0-0.1 0.1zm3.5-3.4q0 0 0 0z" fill="#000000"/>
						</g>
						<g id="XMLID_482_" style="opacity: .15">
							<g id="XMLID_488_">
								<path id="XMLID_489_" class="s20" d="m327.4 98.5c-0.3 0-0.7-0.1-0.8-0.4-0.3-0.4-0.1-1 0.3-1.2l7.3-4.3c0.4-0.2 1-0.1 1.2 0.4 0.3 0.4 0.1 1-0.3 1.2l-7.3 4.2q-0.2 0.1-0.4 0.1z" fill="#000000"/>
							</g>
							<g id="XMLID_485_">
								<path id="XMLID_486_" class="s20" d="m327.4 102.8c-0.3 0-0.7-0.2-0.8-0.5-0.3-0.4-0.1-1 0.3-1.2l7.3-4.2c0.4-0.3 1-0.1 1.2 0.3 0.3 0.4 0.1 1-0.3 1.2l-7.3 4.2q-0.2 0.2-0.4 0.2z" fill="#000000"/>
							</g>
							<g id="XMLID_483_">
								<path id="XMLID_484_" class="s20" d="m327.4 107c-0.3 0-0.7-0.2-0.8-0.5-0.3-0.4-0.1-1 0.3-1.2l7.3-4.2c0.4-0.3 1-0.1 1.2 0.3 0.3 0.4 0.1 1-0.3 1.2l-7.3 4.2q-0.2 0.2-0.4 0.2z" fill="#000000"/>
							</g>
						</g>
					</g>
				</g>
			</g>
			<g>
				<g>
					<path class="s2" d="m134.4 236.6q-0.3-1-0.8-1.6-0.5-0.6-1.3-0.7-0.8-0.1-1.7 0.5-1 0.5-1.7 1.5-0.8 1-1.4 2.3-0.5 1.3-0.8 2.7-0.3 1.5-0.3 2.9 0 1.6 0.3 2.7 0.3 1.1 0.8 1.8 0.6 0.6 1.4 0.7 0.7 0 1.7-0.5 0.9-0.6 1.6-1.4 0.8-0.8 1.3-1.6 0.4-0.8 0.7-1.6 0.2-0.7 0.3-1.1 0-0.3-0.2-0.4-0.1-0.1-0.3 0l-1.4 0.8q-0.2 0.1-0.3 0.3-0.1 0.1-0.3 0.4-0.2 0.4-0.5 0.8-0.4 0.3-0.9 0.6-0.4 0.3-0.8 0.3-0.3 0.1-0.6-0.1-0.3-0.2-0.4-0.5-0.2-0.4-0.2-1l5.7-3.2q0.2-0.2 0.3-0.4 0.1-0.3 0.1-0.6v-1.2q0-1.3-0.3-2.4zm-5.8 4.8q0.1-0.4 0.2-0.9 0.1-0.5 0.3-1 0.3-0.5 0.6-0.9 0.4-0.4 0.9-0.7 0.5-0.3 0.9-0.3 0.3 0.1 0.5 0.3 0.2 0.2 0.3 0.6 0.1 0.4 0.2 0.7z" fill="#000000"/>
					<path class="s12" d="m134.4 236.6q-0.3-1-0.8-1.6-0.5-0.6-1.3-0.7-0.8-0.1-1.7 0.5-1 0.5-1.7 1.5-0.8 1-1.4 2.3-0.5 1.3-0.8 2.7-0.3 1.5-0.3 2.9 0 1.6 0.3 2.7 0.3 1.1 0.8 1.8 0.6 0.6 1.4 0.7 0.7 0 1.7-0.5 0.9-0.6 1.6-1.4 0.8-0.8 1.3-1.6 0.4-0.8 0.7-1.6 0.2-0.7 0.3-1.1 0-0.3-0.2-0.4-0.1-0.1-0.3 0l-1.4 0.8q-0.2 0.1-0.3 0.3-0.1 0.1-0.3 0.4-0.2 0.4-0.5 0.8-0.4 0.3-0.9 0.6-0.4 0.3-0.8 0.3-0.3 0.1-0.6-0.1-0.3-0.2-0.4-0.5-0.2-0.4-0.2-1l5.7-3.2q0.2-0.2 0.3-0.4 0.1-0.3 0.1-0.6v-1.2q0-1.3-0.3-2.4zm-5.8 4.8q0.1-0.4 0.2-0.9 0.1-0.5 0.3-1 0.3-0.5 0.6-0.9 0.4-0.4 0.9-0.7 0.5-0.3 0.9-0.3 0.3 0.1 0.5 0.3 0.2 0.2 0.3 0.6 0.1 0.4 0.2 0.7z" fill="#000000"/>
					<path class="s2" d="m124.2 243.8q-0.5-0.4-1.2-0.5-0.8 0-1.8 0.3-0.9 0.2-1.6 0.3-0.6 0.1-1 0.1-0.3-0.1-0.5-0.3-0.2-0.3-0.2-0.9 0-0.5 0.2-1 0.2-0.5 0.5-1 0.3-0.4 0.7-0.8 0.4-0.3 0.8-0.6 1-0.6 1.5-0.4 0.5 0.2 0.8 0.7 0.1 0.2 0.3 0.3 0.1 0.1 0.4-0.1l1.2-0.7q0.2-0.1 0.3-0.4 0.2-0.2 0.1-0.5 0-0.8-0.3-1.5-0.3-0.6-0.9-1-0.5-0.4-1.4-0.3-0.9 0-2 0.6-1 0.6-1.8 1.5-0.8 0.8-1.4 1.9-0.6 1-0.9 2.2-0.4 1.2-0.4 2.4 0 1.2 0.2 1.9 0.2 0.7 0.7 1.1 0.4 0.4 1 0.5 0.6 0 1.5-0.2 0.9-0.1 1.6-0.3 0.8-0.2 1.2-0.2 0.5 0 0.8 0.2 0.2 0.2 0.2 0.8 0 0.6-0.2 1.1-0.2 0.6-0.6 1.1-0.4 0.4-0.8 0.8-0.5 0.4-1 0.7-0.7 0.4-1.1 0.5-0.4 0-0.7 0-0.3-0.1-0.5-0.4-0.1-0.2-0.3-0.5-0.1-0.3-0.2-0.3-0.2-0.1-0.5 0.1l-1.1 0.7q-0.2 0.1-0.4 0.4-0.1 0.2-0.1 0.5 0.1 1.2 0.5 1.9 0.4 0.7 1 0.9 0.7 0.3 1.6 0.2 0.8-0.2 1.8-0.7 1.1-0.7 2-1.6 1-1 1.6-2 0.6-1.1 0.9-2.3 0.4-1.2 0.4-2.4 0-1.1-0.2-1.8-0.3-0.7-0.7-1z" fill="#000000"/>
					<path class="s2" d="m171.1 215.2q-0.2-1-0.6-1.6-0.4-0.6-1.1-0.7-0.7-0.1-1.8 0.5-0.8 0.5-1.4 1.2-0.6 0.8-1 1.8v-5.6q0-0.3-0.1-0.4-0.2-0.1-0.4 0l-1.2 0.7q-0.2 0.1-0.4 0.4-0.1 0.3-0.1 0.6v17.1q0 0.3 0.1 0.4 0.2 0.1 0.4 0l1.2-0.7q0.2-0.1 0.4-0.4 0.1-0.3 0.1-0.6v-6.6q0-1.6 0.5-2.8 0.5-1.2 1.4-1.8 1-0.5 1.5 0.1 0.5 0.7 0.5 2.3v6.6q0 0.3 0.1 0.4 0.1 0.1 0.3 0l1.3-0.7q0.2-0.1 0.3-0.4 0.2-0.3 0.2-0.6v-7q0-1.2-0.2-2.2z" fill="#000000"/>
					<path class="s7" d="m171.1 215.2q-0.2-1-0.6-1.6-0.4-0.6-1.1-0.7-0.7-0.1-1.8 0.5-0.8 0.5-1.4 1.2-0.6 0.8-1 1.8v-5.6q0-0.3-0.1-0.4-0.2-0.1-0.4 0l-1.2 0.7q-0.2 0.1-0.4 0.4-0.1 0.3-0.1 0.6v17.1q0 0.3 0.1 0.4 0.2 0.1 0.4 0l1.2-0.7q0.2-0.1 0.4-0.4 0.1-0.3 0.1-0.6v-6.6q0-1.6 0.5-2.8 0.5-1.2 1.4-1.8 1-0.5 1.5 0.1 0.5 0.7 0.5 2.3v6.6q0 0.3 0.1 0.4 0.1 0.1 0.3 0l1.3-0.7q0.2-0.1 0.3-0.4 0.2-0.3 0.2-0.6v-7q0-1.2-0.2-2.2z" fill="#000000"/>
					<path class="s2" d="m155.2 225.3q0.2-0.7 0.5-1.2 0.3-0.5 0.6-0.9 0.4-0.3 0.7-0.5 0.4-0.3 0.7-0.3 0.3-0.1 0.5 0 0.2 0 0.4 0.2 0.1 0.2 0.2 0.4 0.1 0.2 0.3 0.3 0.1 0.2 0.3 0.1l1.3-0.8q0.2-0.1 0.3-0.4 0.2-0.2 0.1-0.5 0-0.6-0.2-1.2-0.2-0.6-0.7-1.1-0.5-0.4-1.3-0.5-0.8 0-1.9 0.6-0.9 0.6-1.7 1.5-0.7 0.9-1.3 2-0.5 1.2-0.8 2.5-0.4 1.2-0.4 2.5 0 0.5 0 1.1 0 0.5 0 1 0.1 1.1 0.4 2 0.3 0.9 0.8 1.4 0.6 0.6 1.3 0.6 0.8 0.1 1.7-0.5 1.1-0.6 1.9-1.6 0.8-0.9 1.3-1.9 0.5-1 0.7-1.9 0.2-1 0.2-1.5 0.1-0.3-0.1-0.4-0.1-0.2-0.3 0l-1.3 0.7q-0.2 0.1-0.3 0.4-0.2 0.3-0.3 0.6-0.1 0.4-0.2 0.7-0.2 0.4-0.4 0.7-0.2 0.3-0.5 0.6-0.3 0.2-0.7 0.5-0.3 0.2-0.7 0.2-0.3 0-0.6-0.1-0.3-0.2-0.5-0.7-0.2-0.5-0.2-1.3 0-0.3 0-0.8 0-0.6 0-1 0-0.8 0.2-1.5z" fill="#000000"/>
					<path class="s12" d="m155.2 225.3q0.2-0.7 0.5-1.2 0.3-0.5 0.6-0.9 0.4-0.3 0.7-0.5 0.4-0.3 0.7-0.3 0.3-0.1 0.5 0 0.2 0 0.4 0.2 0.1 0.2 0.2 0.4 0.1 0.2 0.3 0.3 0.1 0.2 0.3 0.1l1.3-0.8q0.2-0.1 0.3-0.4 0.2-0.2 0.1-0.5 0-0.6-0.2-1.2-0.2-0.6-0.7-1.1-0.5-0.4-1.3-0.5-0.8 0-1.9 0.6-0.9 0.6-1.7 1.5-0.7 0.9-1.3 2-0.5 1.2-0.8 2.5-0.4 1.2-0.4 2.5 0 0.5 0 1.1 0 0.5 0 1 0.1 1.1 0.4 2 0.3 0.9 0.8 1.4 0.6 0.6 1.3 0.6 0.8 0.1 1.7-0.5 1.1-0.6 1.9-1.6 0.8-0.9 1.3-1.9 0.5-1 0.7-1.9 0.2-1 0.2-1.5 0.1-0.3-0.1-0.4-0.1-0.2-0.3 0l-1.3 0.7q-0.2 0.1-0.3 0.4-0.2 0.3-0.3 0.6-0.1 0.4-0.2 0.7-0.2 0.4-0.4 0.7-0.2 0.3-0.5 0.6-0.3 0.2-0.7 0.5-0.3 0.2-0.7 0.2-0.3 0-0.6-0.1-0.3-0.2-0.5-0.7-0.2-0.5-0.2-1.3 0-0.3 0-0.8 0-0.6 0-1 0-0.8 0.2-1.5z" fill="#000000"/>
					<path class="s2" d="m151.5 223l-0.8 0.4q-0.8 0.5-1.3 1.1-0.5 0.6-0.9 1.5v-0.6q0-0.3-0.2-0.4-0.1-0.1-0.3 0l-1.3 0.7q-0.2 0.1-0.3 0.4-0.1 0.3-0.1 0.6v12.2q0 0.2 0.1 0.4 0.1 0.1 0.3 0l1.3-0.7q0.2-0.2 0.3-0.4 0.2-0.3 0.2-0.6v-6.8q0-1.6 0.4-2.5 0.5-1 1.5-1.6l1.1-0.6q0.2-0.1 0.3-0.4 0.1-0.3 0.1-0.6v-1.7q0-0.3-0.1-0.4-0.1-0.1-0.3 0z" fill="#000000"/>
					<path class="s2" d="m143.7 230.3q-0.2-0.9-0.7-1.3-0.5-0.4-1.2-0.3-0.7 0-1.6 0.5-0.8 0.5-1.5 1.3-0.7 0.7-1.1 1.5-0.5 0.8-0.7 1.6-0.2 0.7-0.3 1.3 0 0.3 0.1 0.4 0.1 0.1 0.3 0l1.5-0.9q0.2-0.1 0.3-0.3 0.1-0.1 0.3-0.4 0.2-0.5 0.5-0.8 0.2-0.3 0.6-0.5 0.7-0.4 1.2-0.3 0.4 0.2 0.4 1.3l-2.8 2.3q-1.3 1.2-2.2 2.7-0.8 1.5-0.8 3.3 0 0.9 0.2 1.5 0.2 0.6 0.6 0.9 0.4 0.4 1 0.3 0.6 0 1.3-0.4 1-0.6 1.7-1.6 0.7-0.9 1-1.8v0.8q0 0.3 0.1 0.4 0.2 0.2 0.4 0.1l1.3-0.8q0.1-0.1 0.3-0.4 0.1-0.3 0.1-0.5v-7.7q0-1.3-0.3-2.2zm-1.9 6q0 0.6-0.1 1.2-0.2 0.6-0.5 1.2-0.3 0.6-0.8 1.1-0.4 0.5-1 0.8-0.5 0.3-0.8 0.3-0.4-0.1-0.4-0.6 0-0.6 0.3-1.2 0.3-0.5 1-1.1l2.3-1.9z" fill="#000000"/>
					<path class="s3" d="m143.7 230.3q-0.2-0.9-0.7-1.3-0.5-0.4-1.2-0.3-0.7 0-1.6 0.5-0.8 0.5-1.5 1.3-0.7 0.7-1.1 1.5-0.5 0.8-0.7 1.6-0.2 0.7-0.3 1.3 0 0.3 0.1 0.4 0.1 0.1 0.3 0l1.5-0.9q0.2-0.1 0.3-0.3 0.1-0.1 0.3-0.4 0.2-0.5 0.5-0.8 0.2-0.3 0.6-0.5 0.7-0.4 1.2-0.3 0.4 0.2 0.4 1.3l-2.8 2.3q-1.3 1.2-2.2 2.7-0.8 1.5-0.8 3.3 0 0.9 0.2 1.5 0.2 0.6 0.6 0.9 0.4 0.4 1 0.3 0.6 0 1.3-0.4 1-0.6 1.7-1.6 0.7-0.9 1-1.8v0.8q0 0.3 0.1 0.4 0.2 0.2 0.4 0.1l1.3-0.8q0.1-0.1 0.3-0.4 0.1-0.3 0.1-0.5v-7.7q0-1.3-0.3-2.2zm-1.9 6q0 0.6-0.1 1.2-0.2 0.6-0.5 1.2-0.3 0.6-0.8 1.1-0.4 0.5-1 0.8-0.5 0.3-0.8 0.3-0.4-0.1-0.4-0.6 0-0.6 0.3-1.2 0.3-0.5 1-1.1l2.3-1.9z" fill="#000000"/>
				</g>
				<g>
					<g>
						<path class="s13" d="m183.9 219.1q-0.8 0-1.5-0.4c-1.1-0.6-1.7-1.9-1.7-3.6v-4.6c0-3.3 2.3-7.3 5.1-8.9l139.3-80.5c1.5-0.8 2.9-1 4-0.3 1.1 0.6 1.7 1.9 1.7 3.6v4.6c0 3.2-2.3 7.2-5.1 8.9l-139.3 80.5q-1.3 0.7-2.5 0.7zm143.7-97.6q-0.9 0-1.9 0.6l-139.3 80.5c-2.6 1.4-4.6 5-4.6 7.9v4.6c0 1.3 0.4 2.2 1.1 2.6 0.8 0.5 1.8 0.3 2.9-0.3l139.3-80.5c2.5-1.5 4.6-5 4.6-7.9v-4.6c0-1.3-0.4-2.2-1.2-2.6q-0.4-0.3-0.9-0.3z" fill="#000000"/>
					</g>
					<g>
						<path class="s11" d="m186.8 204.7q0.6-0.4 1.1-0.4 0.5 0 0.8 0.2 0.3 0.2 0.5 0.6 0.2 0.3 0.2 0.7 0 0.2-0.1 0.4-0.1 0.1-0.2 0.2l-0.6 0.3q-0.2 0.1-0.3 0.1-0.1-0.1-0.1-0.2-0.2-0.3-0.4-0.4-0.3-0.1-0.9 0.3-0.2 0.1-0.5 0.3-0.2 0.2-0.3 0.5-0.2 0.2-0.3 0.5-0.1 0.3-0.1 0.5 0 0.4 0.1 0.5 0.1 0.2 0.3 0.2 0.2 0 0.6 0 0.3-0.1 0.8-0.2 0.6-0.2 1-0.2 0.4 0.1 0.7 0.3 0.2 0.2 0.3 0.6 0.2 0.4 0.2 0.9 0 0.7-0.2 1.4-0.2 0.6-0.6 1.2-0.3 0.6-0.8 1.1-0.5 0.6-1.1 0.9-0.6 0.3-1 0.4-0.5 0.1-0.9-0.1-0.4-0.1-0.6-0.5-0.2-0.4-0.2-1-0.1-0.2 0-0.3 0.1-0.2 0.2-0.3l0.7-0.3q0.1-0.1 0.2-0.1 0.1 0.1 0.2 0.2 0 0.1 0.1 0.3 0.1 0.1 0.3 0.2 0.1 0 0.4 0 0.2-0.1 0.6-0.3 0.2-0.1 0.5-0.4 0.3-0.2 0.5-0.4 0.2-0.3 0.3-0.6 0.1-0.3 0.1-0.6 0-0.3-0.1-0.5-0.2-0.1-0.4-0.1-0.3 0-0.7 0.1-0.4 0.1-0.9 0.2-0.5 0.1-0.8 0.1-0.4-0.1-0.6-0.3-0.2-0.2-0.3-0.6-0.2-0.4-0.2-1 0-0.7 0.2-1.4 0.2-0.6 0.5-1.2 0.4-0.6 0.8-1.1 0.5-0.4 1-0.7z" fill="#000000"/>
						<path class="s11" d="m195 208.4q0.1-0.1 0.2 0 0.1 0.1 0.1 0.2v1q0 0.2-0.1 0.4-0.1 0.1-0.2 0.2l-4.1 2.4q-0.1 0-0.2-0.1-0.1 0-0.1-0.2v-9.3q0-0.2 0.1-0.3 0.1-0.2 0.2-0.2l4-2.4q0.1 0 0.2 0 0.1 0.1 0.1 0.3v1q0 0.1-0.1 0.3-0.1 0.2-0.2 0.2l-3 1.8v2.3l2.8-1.7q0.1 0 0.2 0 0.1 0.1 0.1 0.3v1q0 0.2-0.1 0.3-0.1 0.2-0.2 0.2l-2.8 1.7v2.4z" fill="#000000"/>
						<path class="s11" d="m196.1 203.2q0.1-0.8 0.2-1.7 0.2-0.8 0.5-1.5 0.4-0.7 0.9-1.3 0.5-0.6 1.2-1 0.7-0.4 1.2-0.4 0.5 0 0.8 0.4 0.4 0.3 0.5 0.9 0.2 0.6 0.2 1.4 0.1 0.3 0.1 0.6 0 0.3 0 0.7 0 0.3 0 0.7 0 0.3-0.1 0.6 0 0.8-0.2 1.6-0.1 0.8-0.5 1.6-0.3 0.7-0.8 1.3-0.5 0.6-1.2 1-0.7 0.4-1.2 0.4-0.5 0-0.9-0.4-0.3-0.3-0.5-0.9-0.1-0.6-0.2-1.4 0-0.3 0-0.6 0-0.4 0-0.7 0-0.4 0-0.7 0-0.3 0-0.6zm4.3-2.4q-0.1-1-0.5-1.3-0.4-0.4-1 0-0.7 0.4-1.1 1.2-0.4 0.8-0.4 1.8 0 0.6 0 1.3 0 0.6 0 1.2 0 1 0.4 1.3 0.4 0.4 1.1 0 0.6-0.4 1-1.2 0.4-0.8 0.5-1.9 0-0.5 0-1.2 0-0.7 0-1.2z" fill="#000000"/>
					</g>
					<g>
						<g>
							<path class="s11" d="m319.5 136.4q-0.7 0-1.2-0.3c-0.8-0.4-1.2-1.4-1.2-2.6 0-2.3 1.6-5 3.6-6.2 1-0.6 2-0.7 2.8-0.2 0.8 0.5 1.3 1.4 1.3 2.6 0 2.3-1.6 5.1-3.6 6.2q-0.9 0.5-1.7 0.5zm2.9-8.5q-0.5 0-1.2 0.4c-1.6 0.9-3 3.3-3 5.2 0 0.8 0.2 1.4 0.7 1.7 0.4 0.2 1.1 0.1 1.8-0.3 1.6-0.9 3-3.3 3-5.2 0-0.8-0.3-1.4-0.7-1.6q-0.3-0.2-0.6-0.2z" fill="#000000"/>
						</g>
						<g>
							<path class="s11" d="m325.4 135.2q-0.1 0-0.3 0l-2.3-1.4c-0.3-0.2-0.4-0.5-0.2-0.8 0.1-0.2 0.5-0.3 0.7-0.2l2.4 1.4c0.3 0.2 0.4 0.5 0.2 0.8-0.1 0.1-0.3 0.2-0.5 0.2z" fill="#000000"/>
						</g>
					</g>
				</g>
				<g>
					<g>
						<path class="s13" d="m116 337.2c-0.2 0-0.3-0.1-0.4-0.2-0.2-0.3-0.1-0.6 0.1-0.7l209.9-121.1c0.2-0.2 0.5-0.1 0.6 0.2 0.2 0.2 0.1 0.5-0.1 0.6l-209.9 121.2q-0.1 0-0.2 0z" fill="#000000"/>
						<path class="s18" d="m116 337.2c-0.2 0-0.3-0.1-0.4-0.2-0.2-0.3-0.1-0.6 0.1-0.7l209.9-121.1c0.2-0.2 0.5-0.1 0.6 0.2 0.2 0.2 0.1 0.5-0.1 0.6l-209.9 121.2q-0.1 0-0.2 0z" fill="#000000"/>
					</g>
					<g>
						<g>
							<g>
								<path class="s13" d="m118 361.2c-0.2 0-0.3-0.1-0.4-0.2-0.2-0.3-0.1-0.6 0.2-0.7l202.7-117.1c0.2-0.1 0.5-0.1 0.7 0.2 0.1 0.2 0 0.5-0.2 0.7l-202.7 117.1q-0.2 0-0.3 0z" fill="#000000"/>
							</g>
							<g>
								<path class="s13" d="m118 365.9c-0.2 0-0.3-0.1-0.4-0.3-0.2-0.2-0.1-0.5 0.2-0.6l185.1-107c0.2-0.1 0.5 0 0.7 0.2 0.1 0.2 0 0.5-0.2 0.7l-185.1 106.9q-0.2 0.1-0.3 0.1z" fill="#000000"/>
							</g>
						</g>
						<g>
							<path class="s13" d="m118 342.6c0 1.2 0.9 1.8 2 1.1 1.1-0.6 2-2.2 2-3.5 0-1.3-0.9-1.8-2-1.1-1.1 0.6-2 2.2-2 3.5z" fill="#000000"/>
							<path class="s14" d="m124.1 339.1c0-0.9 0.9-2.2 2.1-2.9l44.1-25.5c1.2-0.7 2.2-0.5 2.2 0.4 0 1-1 2.3-2.2 3l-44.1 25.4c-1.2 0.7-2.1 0.5-2.1-0.4z" fill="#000000"/>
						</g>
						<g>
							<path class="s13" d="m120.2 353.8l110.1-63.5c1.2-0.7 2.2-2.4 2.2-3.8v-0.5c0-1.4-1-2-2.2-1.3l-110.1 63.6c-1.2 0.7-2.2 2.4-2.2 3.7v0.5c0 1.4 1 2 2.2 1.3z" fill="#000000"/>
							<path class="s13" d="m238.5 285.5l48-27.7c1.2-0.7 2.2-2.3 2.2-3.7v-0.6c0-1.4-1-1.9-2.2-1.2l-48 27.7c-1.2 0.7-2.2 2.3-2.2 3.7v0.5c0 1.4 1 2 2.2 1.3z" fill="#000000"/>
							<path class="s13" d="m234.6 289.2q0 0.1 0 0.2-0.1 0.1-0.2 0.1l-0.4 0.3q0 0-0.1 0 0-0.1 0-0.2v-8.7q0-0.1 0-0.2 0.1-0.1 0.1-0.2l0.4-0.2q0.1 0 0.2 0 0 0.1 0 0.1z" fill="#000000"/>
						</g>
					</g>
				</g>
				<g>
					<g>
						<path class="s13" d="m116 372.6c-0.2 0-0.3-0.1-0.4-0.2-0.2-0.3-0.1-0.6 0.1-0.7l209.9-121.1c0.2-0.2 0.5-0.1 0.6 0.2 0.2 0.2 0.1 0.5-0.1 0.6l-209.9 121.2q-0.1 0-0.2 0z" fill="#000000"/>
						<path class="s18" d="m116 372.6c-0.2 0-0.3-0.1-0.4-0.2-0.2-0.3-0.1-0.6 0.1-0.7l209.9-121.1c0.2-0.2 0.5-0.1 0.6 0.2 0.2 0.2 0.1 0.5-0.1 0.6l-209.9 121.2q-0.1 0-0.2 0z" fill="#000000"/>
					</g>
					<g>
						<g>
							<g>
								<path class="s13" d="m118 396.6c-0.2 0-0.3-0.1-0.4-0.2-0.2-0.3-0.1-0.6 0.2-0.7l202.7-117.1c0.2-0.1 0.5-0.1 0.7 0.2 0.1 0.2 0 0.5-0.2 0.7l-202.7 117.1q-0.2 0-0.3 0z" fill="#000000"/>
							</g>
							<g>
								<path class="s13" d="m118 401.3c-0.2 0-0.3-0.1-0.4-0.3-0.2-0.2-0.1-0.5 0.2-0.6l185.1-107c0.2-0.1 0.5 0 0.7 0.2 0.1 0.2 0 0.5-0.2 0.7l-185.1 106.9q-0.2 0.1-0.3 0.1z" fill="#000000"/>
							</g>
						</g>
						<g>
							<path class="s13" d="m118 378c0 1.2 0.9 1.8 2 1.1 1.1-0.6 2-2.2 2-3.5 0-1.3-0.9-1.8-2-1.1-1.1 0.6-2 2.2-2 3.5z" fill="#000000"/>
							<path class="s14" d="m124.1 374.5c0-0.9 0.9-2.2 2.1-2.9l44.1-25.5c1.2-0.7 2.2-0.5 2.2 0.4 0 1-1 2.3-2.2 3l-44.1 25.4c-1.2 0.7-2.1 0.5-2.1-0.4z" fill="#000000"/>
						</g>
						<g>
							<path class="s13" d="m120.2 389.2l110.1-63.5c1.2-0.7 2.2-2.4 2.2-3.7v-0.6c0-1.4-1-2-2.2-1.3l-110.1 63.6c-1.2 0.7-2.2 2.4-2.2 3.7v0.5c0 1.4 1 2 2.2 1.3z" fill="#000000"/>
							<path class="s13" d="m238.5 320.9l48-27.7c1.2-0.7 2.2-2.3 2.2-3.7v-0.6c0-1.4-1-1.9-2.2-1.2l-48 27.7c-1.2 0.7-2.2 2.3-2.2 3.7v0.5c0 1.4 1 2 2.2 1.3z" fill="#000000"/>
							<path class="s13" d="m234.6 324.6q0 0.1 0 0.2-0.1 0.1-0.2 0.1l-0.4 0.3q0 0-0.1 0 0-0.1 0-0.2v-8.7q0-0.1 0-0.2 0.1-0.1 0.1-0.2l0.4-0.2q0.1 0 0.2 0 0 0.1 0 0.1z" fill="#000000"/>
						</g>
					</g>
				</g>
			</g>
		</g>
	</g>
	<g id="Search">
		<g id="Search_2_">
			<g id="Rocket">
				<g id="Flame_1_">
					<path id="XMLID_4467_" class="s2" d="m130.6 307.9l-3 0.7-3.1 2.8c0 0-0.3 2.4 0.1 5.6 0.4 3.2 2.1 5.6 3 5.1 0.8-0.5 2.6-4.9 3-8.6 0.4-3.6 0-5.6 0-5.6z" fill="#000000"/>
					<g id="XMLID_4458_" style="opacity: .7">
						<path class="s8" d="m130.6 307.9l-3 0.7-3.1 2.8c0 0-0.3 2.4 0.1 5.6 0.4 3.2 2.1 5.6 3 5.1 0.8-0.5 2.6-4.9 3-8.6 0.4-3.6 0-5.6 0-5.6z" fill="#000000"/>
					</g>
					<path id="XMLID_4455_" class="s2" d="m129.6 309l-2.1 1.2-2.1 1.2c-0.6 5.2 1.3 7.8 2.1 7.3 0.8-0.4 2.7-5.2 2.1-9.7z" fill="#000000"/>
					<path id="XMLID_4452_" class="s8" d="m127.5 310.2l0.7-0.4c0 0 0.5 0.7 0.4 2.4-0.1 1.3-0.7 3.3-1.1 3.6-0.4 0.2-1-1.1-1.1-2.4-0.1-1.5 0.4-2.8 0.4-2.8z" fill="#000000"/>
				</g>
				<g>
					<path class="s10" d="m131.4 301.5l0.6-10.6 2.6 0.5c1.2 0.3 1.7 2.4 1.5 6l-0.3 6-0.7-2.8c-0.4-1.5-1.3-1.6-2.7-0.2z" fill="#000000"/>
					<path class="s10" d="m123.8 305.9l-0.7-9.9-2.5 3.5c-1.2 1.6-1.8 4.4-1.6 7.8l0.3 5.6 0.7-3.6c0.4-2 1.4-3.1 2.7-3.3z" fill="#000000"/>
					<g>
						<path class="s9" d="m131.4 306.5l-0.5-2.6-6.6 3.9-0.5 3c-0.1 1 0.2 1.7 1.1 1.8 1.5 0.3 3.9-1.1 5.4-3.1 0.8-1.1 1.2-2.2 1.1-3z" fill="#000000"/>
						<path class="s11" d="m125.2 309.4c-1.3-0.3-1.3-1.9 0-3.7 1.3-1.7 3.4-2.9 4.7-2.7 1.3 0.3 1.3 1.9 0 3.6-1.3 1.8-3.4 3-4.7 2.8z" fill="#000000"/>
						<g>
							<path class="s10" d="m123.8 310.8c-0.1 1 0.2 1.6 1.1 1.8 1.5 0.3 3.9-1.1 5.4-3.1 0.8-1.1 1.2-2.2 1.1-3l-0.2-0.7c0.1 0.7-0.2 1.7-1 2.7-1.4 2-3.8 3.4-5.3 3.1-0.8-0.2-1.1-0.8-1-1.6z" fill="#000000"/>
							<path class="s10" d="m124.1 308.9c-0.1 0.8 0.2 1.5 1 1.6 1.4 0.3 3.6-1 5-2.9 0.8-1 1.1-2 1-2.7l-0.2-1c0.1 0.7-0.2 1.7-1 2.7-1.3 1.8-3.4 3-4.7 2.8-0.7-0.2-1-0.8-0.9-1.6z" fill="#000000"/>
							<path class="s21" d="m130 304.4l-0.5 0.3c0.2 0.9 0.6 3.2 0.7 3.7 0.1 0.7-1.1 2.6-4.3 4.2 1.5-0.3 3.2-1.5 4.4-3.1q0.5-0.7 0.7-1.3z" fill="#000000"/>
						</g>
						<path class="s11" d="m125.2 309.4c-1.3-0.3-1.3-1.9 0-3.7 1.3-1.7 3.4-2.9 4.7-2.7 1.3 0.3 1.3 1.9 0 3.6-1.3 1.8-3.4 3-4.7 2.8z" fill="#000000"/>
					</g>
					<g>
						<path class="s2" d="m134.2 281.6c0-10.9-3.5-18.4-6-19.1q-0.1 0-0.1 0 0 0 0 0-0.2-0.1-0.5 0.1-0.3 0.2-0.5 0.5 0 0 0 0-0.1 0-0.1 0.1c-2.6 3.7-6 15.1-6 26 0 10.6 2.2 18.6 2.4 19.4q0 0 0 0c0.2 0.5 0.5 0.9 1.2 1 1.6 0.3 4.3-1.2 6-3.5 0.6-0.8 1-1.7 1.2-2.4 0.2-1 2.4-11.6 2.4-22.1z" fill="#000000"/>
						<path class="s22" d="m134.2 281.6c0-10.9-3.5-18.4-6-19.1q-0.1 0-0.1 0 0 0 0 0-0.2-0.1-0.5 0.1-0.3 0.2-0.5 0.5 0 0 0 0-0.1 0-0.1 0.1c-2.6 3.7-6 15.1-6 26 0 10.6 2.2 18.6 2.4 19.4q0 0 0 0c0.2 0.5 0.5 0.9 1.2 1 1.6 0.3 4.3-1.2 6-3.5 0.6-0.8 1-1.7 1.2-2.4 0.2-1 2.4-11.6 2.4-22.1z" fill="#000000"/>
						<path class="s23" d="m121 289.2c0 10.6 2.2 18.6 2.4 19.4q0 0 0 0c0.2 0.5 0.5 0.9 1.2 1q0.4 0.1 0.9 0c-1.1-4.5-2.4-12.6-2.4-21.4 0-12.1 2.3-21.9 3.9-25-2.6 3.7-6 15.1-6 26z" fill="#000000"/>
						<path class="s11" d="m130 264.1c-0.6-0.9-1.2-1.4-1.8-1.6q-0.1 0-0.1 0 0 0 0 0-0.2-0.1-0.5 0.1-0.3 0.2-0.5 0.5 0 0 0 0-0.1 0-0.1 0.1c-0.6 0.8-1.2 2.1-1.9 3.7q-0.5 1.4-1.1 3.1c0.1 0.5 0.5 0.8 1 0.9 1.4 0.3 3.7-1 5.1-2.9 0.6-0.8 0.9-1.5 1.1-2.1q-0.6-1.1-1.2-1.8z" fill="#000000"/>
						<path class="s10" d="m127.9 262.7l-0.3-4.2-0.4 4.6q0 0.1 0.1 0.2c0.2 0 0.4-0.1 0.5-0.3q0.1-0.2 0.1-0.3z" fill="#000000"/>
						<path class="s9" d="m124.7 270.9c0.8-3.7 1.6-6.4 2.3-7.7q-0.2 0.3-0.5 0.8 0 0 0 0-0.1 0.2-0.2 0.4-0.1 0-0.1 0.1-0.1 0.2-0.2 0.4 0 0 0 0.1-0.1 0.2-0.2 0.4-0.1 0.1-0.1 0.1-0.1 0.2-0.2 0.4 0 0.1-0.1 0.2 0 0.2-0.1 0.4-0.1 0.1-0.1 0.2-0.1 0.2-0.2 0.4 0 0.2-0.1 0.3-0.1 0.2-0.1 0.4-0.1 0.2-0.2 0.3 0 0.2-0.1 0.4-0.1 0.2-0.1 0.4-0.1 0.2-0.2 0.4 0 0.2-0.1 0.4 0 0.2-0.1 0.3 0.2 0.6 0.7 0.9z" fill="#000000"/>
						<path class="s22" d="m134.2 281.6c0 10.5-2.2 21.1-2.4 22.1q0 0 0 0.1c-0.2 0.7-0.6 1.5-1.2 2.3 1.2-6.8 2.7-14.9 2.7-23.7 0-12.1-3.5-18.7-5.1-19.9 2.5 0.7 6 8.2 6 19.1z" fill="#000000"/>
					</g>
					<g>
						<path class="s11" d="m135 296.5l-2.4-4.5-0.6 0.9-1.1 9.9 1 0.5c1.4 0.7 2.4 2.2 2.8 4.3l0.6 3.8c0 0 0.3-2.8 0.7-6.3 0.3-3.1 0.3-6.4-1-8.6z" fill="#000000"/>
						<path class="s9" d="m130.9 302.8l1.1-9.9 2.4 4.5c1.2 2.1 1.5 5.2 1.3 8.6l-0.4 5.4-0.6-3.8c-0.4-2.1-1.4-3.6-2.8-4.3z" fill="#000000"/>
					</g>
					<g>
						<path class="s11" d="m120.1 305.1l2.4-7.2 0.6 0.1 1.1 8.6-1 1.7c-1.4 2.3-2.3 4.9-2.7 7.5l-0.7 4.6c0 0-0.3-2.5-0.6-5.6-0.3-2.7-0.3-6.1 0.9-9.7z" fill="#000000"/>
						<path class="s9" d="m124.2 306.6l-1.1-8.6-2.3 7.3c-1.3 3.5-1.5 6.9-1.3 10l0.3 5.1 0.7-4.6c0.4-2.6 1.3-5.2 2.7-7.5z" fill="#000000"/>
					</g>
				</g>
				<g>
					<path class="s2" d="m130.2 279.6c-1.1 2.6-3.1 4.2-4.6 3.6-1.5-0.6-1.8-3.2-0.7-5.8 1.1-2.6 3.2-4.2 4.7-3.6 1.5 0.6 1.7 3.2 0.6 5.8z" fill="#000000"/>
					<path class="s18" d="m130.2 279.6c-1.1 2.6-3.1 4.2-4.6 3.6-1.5-0.6-1.8-3.2-0.7-5.8 1.1-2.6 3.2-4.2 4.7-3.6 1.5 0.6 1.7 3.2 0.6 5.8z" fill="#000000"/>
					<path class="s2" d="m130.2 280.2c-1.1 2.5-3.1 4.1-4.6 3.5-1.5-0.6-1.8-3.2-0.7-5.8 1.1-2.6 3.2-4.2 4.7-3.6 1.5 0.7 1.7 3.3 0.6 5.9z" fill="#000000"/>
					<path class="s12" d="m128.8 282.5l-1.1-3.3 2.7 0.5q0.1-0.1 0.1-0.2l-2.7-0.5 3.1-2.5q0-0.1-0.1-0.2l-3.1 2.5 2.1-4.4q-0.1 0-0.1 0l-2.1 4.4v-4.2q0 0 0 0-0.1 0-0.1 0v4.2l-2-2q-0.1 0.1-0.1 0.2l2 2-3.1 1.1q0 0.1 0 0.2l3.1-1.1-2.7 3.7q0 0 0 0.1l2.8-3.7-1.1 4.6q0 0 0.1 0l1.1-4.6 1.1 3.3q0-0.1 0.1-0.1z" fill="#000000"/>
					<path class="s9" d="m130 277.7c0 1.7-1.1 3.8-2.4 4.5-1.3 0.8-2.4 0-2.4-1.8 0-1.7 1.1-3.8 2.4-4.6 1.3-0.7 2.4 0.1 2.4 1.9z" fill="#000000"/>
					<path class="s11" d="m127.6 275.8c-1.3 0.8-2.3 2.6-2.4 4.3 0.1 1.6 1.1 2.3 2.4 1.6 1.2-0.8 2.3-2.6 2.4-4.3-0.1-1.6-1.2-2.3-2.4-1.6z" fill="#000000"/>
					<path class="s13" d="m129.5 277.1c0 0.5-0.3 1.2-0.7 1.4-0.4 0.2-0.7 0-0.7-0.6 0-0.5 0.3-1.1 0.7-1.3 0.4-0.2 0.7 0 0.7 0.5z" fill="#000000"/>
					<path class="s13" d="m129.1 279.3c0 0.3-0.2 0.6-0.5 0.8-0.2 0.1-0.4 0-0.4-0.4 0-0.3 0.2-0.6 0.4-0.7 0.3-0.2 0.5 0 0.5 0.3z" fill="#000000"/>
				</g>
				<g>
					<path class="s2" d="m130.4 287.7c0 2-1.2 4.4-2.8 5.3-1.5 0.8-2.7-0.1-2.7-2.1 0-2 1.2-4.4 2.7-5.3 1.6-0.8 2.8 0.1 2.8 2.1z" fill="#000000"/>
					<path class="s18" d="m130.4 287.7c0 2-1.2 4.4-2.8 5.3-1.5 0.8-2.7-0.1-2.7-2.1 0-2 1.2-4.4 2.7-5.3 1.6-0.8 2.8 0.1 2.8 2.1z" fill="#000000"/>
					<path class="s2" d="m130.4 288.1c0 2.1-1.2 4.4-2.8 5.3-1.5 0.9-2.7-0.1-2.7-2.1 0-2 1.2-4.4 2.7-5.2 1.6-0.9 2.8 0 2.8 2z" fill="#000000"/>
					<path class="s12" d="m128.6 292.6l-0.9-2.8 2.3 0.5q0-0.1 0-0.2l-2.2-0.4 2.6-2.1q0-0.1-0.1-0.1l-2.5 2 1.7-3.6q-0.1 0-0.1 0l-1.7 3.6v-3.5q0 0-0.1 0.1 0 0 0 0v3.5l-1.7-1.7q0 0-0.1 0.1l1.7 1.7-2.6 0.9q0 0 0 0.1l2.6-0.9-2.3 3.1q0.1 0 0.1 0.1l2.2-3.1-0.8 3.8q0 0 0.1 0l0.8-3.8 0.9 2.8q0.1-0.1 0.1-0.1z" fill="#000000"/>
					<path class="s9" d="m129.6 288.6c0 1.4-0.9 3.1-2 3.8-1.1 0.6-1.9-0.1-1.9-1.5 0-1.5 0.8-3.2 1.9-3.8 1.1-0.7 2 0 2 1.5z" fill="#000000"/>
					<path class="s11" d="m127.6 287.1c-1 0.6-1.8 2.1-1.9 3.5 0.1 1.3 0.9 1.9 1.9 1.3 1.1-0.6 1.9-2.2 2-3.6-0.1-1.3-0.9-1.8-2-1.2z" fill="#000000"/>
					<path class="s13" d="m129.2 288.1c0 0.5-0.2 1-0.6 1.2-0.3 0.1-0.6-0.1-0.6-0.5 0-0.4 0.3-0.9 0.6-1.1 0.4-0.2 0.6 0 0.6 0.4z" fill="#000000"/>
					<path class="s13" d="m128.9 289.9c0 0.3-0.2 0.6-0.4 0.7-0.2 0.1-0.3 0-0.3-0.3 0-0.2 0.1-0.5 0.3-0.6 0.2-0.2 0.4 0 0.4 0.2z" fill="#000000"/>
				</g>
			</g>
		</g>
	</g>
	<g id="Arrows">
		<g id="Arrow_2_">
			<path class="s9" d="m324 340.8l6.2 3.6 10.3-5.9v-60.4l6.9-3.9-11.8-9-6.2-3.6-12.2 22.8 6.2 3.6 0.6-0.3z" fill="#000000"/>
			<path id="Down_Arrow_8_" class="s11" d="m330.2 344.4l10.3-5.9v-60.4l6.9-3.9-11.8-9-12.2 22.8 6.8-3.9z" fill="#000000"/>
			<path class="s10" d="m324 340.8l6.2 3.6v-60.3l-6.2 3.6z" fill="#000000"/>
		</g>
		<g id="Arrow_9_">
			<path class="s2" d="m354.2 342.9l8.2 4.7 13.6-7.8v-125.8l9-5.2-15.5-11.9-8.2-4.8-16.1 30.2 8.2 4.7 0.8-0.4z" fill="#000000"/>
			<path class="s21" d="m353.4 227l16.1-30.1-8.2-4.8-16.1 30.2z" fill="#000000"/>
			<path id="Down_Arrow_9_" class="s2" d="m362.4 347.6l13.6-7.8v-125.8l9-5.2-15.5-11.9-16.1 30.1 9-5.2z" fill="#000000"/>
			<path id="Down_Arrow_7_" class="s16" d="m362.4 347.6l13.6-7.8v-125.8l9-5.2-15.5-11.9-16.1 30.1 9-5.2z" fill="#000000"/>
			<path class="s24" d="m354.2 342.9l8.2 4.7v-125.8l-8.2 4.8z" fill="#000000"/>
		</g>
		<g id="Arrow_1_">
			<path class="s14" d="m28.5 430.9l8.1 4.6 13.2-7.6v-249.8l8.9-5.1-15.2-11.7-8.1-4.6-15.8 29.6 8.1 4.6 0.8-0.4z" fill="#000000"/>
			<path id="Down_Arrow_2_" class="s13" d="m36.6 435.5l13.2-7.6v-249.8l8.9-5.1-15.2-11.7-15.8 29.6 8.9-5.1z" fill="#000000"/>
			<path class="s13" d="m28.5 430.9l8.1 4.6v-249.7l-8.1 4.7z" fill="#000000"/>
			<path class="s16" d="m28.5 430.9l8.1 4.6v-249.7l-8.1 4.7z" fill="#000000"/>
		</g>
	</g>
	<g id="Character">
		<g id="Character_15_">
			<g>
				<path class="s25" d="m401.1 68.7c0.1-2.2 0.3-4 0.4-6.7 0.1-2.7-0.3-4.5-1.6-4.7-1.2-0.3-2 1.5-2.5 5-0.8 5.6-1.3 9.6-1.8 9.7-1.5-2.1-1.9-2.6-3.6-1.7-1.1 0.7-1 2.4-1 2.4 0 0-1-1.2-2.3-0.3-1.3 0.9-1.1 2.2-1.1 2.2 0 0-0.7-0.8-1.8 0.2-0.9 0.9-1.3 1.9-1.3 3.1l1.1-0.4c0 0 0.2 0.5 0.6 0.9 0.5 0.4 0.8 1.7 1.1 2.8 0.3 1 0.5 2.3 1.4 2.6 1 0.3 1.8-0.2 1.9-0.9 0.1-0.6 0-1.3 0-1.3 0 0 0.5 1.6 1.9 1.4 1.4-0.2 1.4-1.5 1.5-2.3 0.7 0.4 1.6 0.6 2 0 0.5-0.6 0.6-3.3 0.6-3.3l2.2-0.4c0 0 2-0.2 2.1-1.7 0.1-2.7 0.2-4.3 0.2-6.6z" fill="#000000"/>
				<g>
					<path class="s25" d="m418.4 145.7c-4-2.8-6-5.5-8.2-8.6-2.2-3.1-10.2-17.3-10.2-17.3 0 0 0-20.8 0.2-24.7 0.1-5.1 0.5-5.8 1.6-7.8 1.5-2.8 2.3-4.1 2.2-5.4-0.3-2.6-0.8-6.4-1.2-7.1-0.6-1-2.4-1.6-2.4-1.6-1.6-0.4-2.2-0.3-2.2-0.3l-3.9 2.7c0 0-0.1 1.2 0.8 1.6 0.9 0.5 1.5 0.3 1.5 0.3 0 0 0 2.5-0.5 3-0.6 0.5-1 0.7-1.9-0.1-0.2 0.9-0.4 2.3-1.5 2.4-1.1 0.2-2.1-1.2-2.1-1.2 0 0-0.3 2.5-1.1 2.5-0.8 0-2.6-8-2.6-8l-2.4 1.8c0.3 2.1 0.9 7.4 2.3 11.2 0.6 1.3 0.5 3.2 0.1 7.6-0.3 4.5-1.1 8.5-3 21.6-0.8 5.7-1.8 5.9 3.6 16 4.4 8 7.3 13.2 10.7 20.3 3.3 6.7 7 13.2 6.1 21.6-0.1 1.3 5.6-6 7.6-9.8 3.7-7.2 6.8-17.4 6.5-20.7z" fill="#000000"/>
					<path class="s26" d="m398.9 76.7c0 0-1.9 0.6-2.9 0.5-1.1-0.1-1.4-0.8-1.5-1.3 0-0.4 3.9-2.9 3.9-2.9l2 0.2c-1.3-0.4-1.6-0.5-2.1-0.4-0.7 0.1-3.4 2.1-4.1 2.6-0.6 0.5 0 2.5 2 2.2q0.1 0 0.2 0 0 0.1 0 0.1c0.1 0.8 0 1.5-0.4 2.2-0.2 0.5-0.4 1-1 0.9-0.2-0.1-0.4-0.2-0.6-0.4q-0.2-0.2-0.4-0.5c0-0.1-0.1-0.3-0.3-0.4q0 0 0 0c-0.1 0-0.1 0-0.1 0.1q0 0.4 0 0.8c0 0.8-0.2 2.1-1.3 2.1q-0.8 0-1.2-0.7c-0.2-0.3-0.4-0.6-0.6-0.9-0.1-0.1-0.2-0.1-0.2-0.1q0 0.1 0 0.1c0 0.6 0.1 1.3-0.1 1.9-0.1 0.4-0.3 0.9-0.6 1-0.5 0.2-1.2-0.2-1.5-0.5q-0.1-0.1-0.1-0.2-0.1 0-0.1 0 0 0.1 0 0.1 0.1 0.2 0.2 0.4c0.4 0.6 1.3 0.8 1.9 0.5 0.7-0.4 0.9-1 0.9-1.6 0.4 0.5 0.8 0.8 1.7 0.9 1.4 0 1.6-1.1 1.7-2.3q0.4 0.3 0.8 0.4c-1.2 1.3-2.3 2.9-2.8 5 0 0 1.5-3 4-5.1 2.1-1.8 4.3-2.6 4.3-2.6 0 0-1.7-1.3-1.7-2.1zm-1.4 2.5q0 0-0.1-0.1-0.2-0.2-0.3-0.5c-0.1-0.3-0.2-0.7-0.3-1 1.5-0.2 2-0.3 2-0.3 0 0 0.2 0.5 0.6 0.7 0 0-0.8 0.4-1.9 1.2z" fill="#000000"/>
				</g>
			</g>
			<g id="Bottom_12_">
				<g>
					<path class="s25" d="m466.4 370.1c-0.9-12.3 0.5-21.6-0.5-40.7-0.1-4.8-0.3-10.1-0.6-14.7-1.1-15.6-3.5-21-3.8-24 0 0-0.4-24.3-1.4-58.6-0.5-16-5.1-20.9-8.9-29.5h-44.3c-4.9 21.1-6.3 67.1-6.2 88.8 0.1 11.1 4.6 70.3 4.7 71.7 0.3 4.8-0.1 6.7-2 8.8-4 4.2-9.8 8.3-14.7 12 0.7 1.9 6.7 1.8 9.6 0.4 4.8-2.3 9.5-5.9 11.1-7.1 4.1-3 9.3-5.4 9.3-10 0.1-0.6 0.2-0.7 0.2-0.8 0.1-2.7 6.3-42.4 6.8-51.5 0.5-8-0.5-21.4-0.5-21.4l5.1-33.5c0 0 3.2 19.8 6.4 33.3 2.6 11 6.8 29.8 9.7 43.4 2.8 15.6 7 26.7 7.7 34.5 0.2 1.9 2.3 20.2 3.2 24.3 0.8 4.2 10 4.4 10.6-2.9 0.3-4.8-1.3-20.3-1.5-22.5z" fill="#000000"/>
				</g>
				<g>
					<path class="s10" d="m380.2 388.8c-0.2 0-0.7 2.7 0.7 3.9 1.6 1.4 6.2 3.7 12.4 3 6.1-0.7 9.5-2.6 12-4.6 2.4-2.1 5.9-4.9 8.7-5.5 2.6-0.6 5.4-1.7 6.2-2.5 0.9-0.8 0.8-4.3 0.8-4.3z" fill="#000000"/>
					<path id="XMLID_4002_" class="s9" d="m419 365.1c0 0 0.5 0 0.6 0.8 0.2 1 0.4 3.8 0.8 5.5 0.5 2.2 0.8 6.8 0.5 8.6-0.4 1.8-4.6 3-7.3 4-2.8 1-6 3.2-8.8 5.4-2.9 2.4-9 4.7-13 4.7-6.1 0.1-10.1-1.7-11.3-3.9-1.5-2.7-0.3-4.3 6.8-7.4 1.3-0.6 6-3.4 7.7-4.4 1.6-1 3.3-2.2 4.8-3.5q1.1-1 2.1-2.1c0.6-0.6 1.5-1.4 1.8-2.2 0.1-0.2 0.2-0.4 0.3-0.6 0.2-0.6 0.3-1.1 0.4-1.7 0.2-0.5 0.2-1.4 0.8-1.7 0.6-0.4 1.8-0.4 2.5-0.3q1.4 0.1 2.7 0.4c1.1 0.3 2.3 0.4 2.9 1.3 0.4 0.8 0.5 1.7 0.5 2.6q0 0.6 0 1.2c0 0.2-0.1 0.5 0.2 0.4 0.2 0 0.5-0.6 0.6-0.8 0.2-0.5 0.3-1 0.5-1.4 0.3-0.6 0.5-1.1 0.9-1.5q0.5-0.6 1.1-1.1c0.4-0.3 0.9-0.5 1.2-0.8 0.5-0.4 0.7-1.2 0.7-1.5z" fill="#000000"/>
					<path class="s0" d="m386.2 383.3c8.8 0.7 11.5 6.2 11.9 9.6-2.2 0.7-4.5 1.2-6.3 1.2-6.1 0.1-10.3-1.7-11.5-3.9-1.4-2.5-0.4-4.6 5.9-6.9z" fill="#000000"/>
					<g>
						<g>
							<path class="s27" d="m399.4 383.5q0.2 0 0.3-0.1c0.2-0.1 0.2-0.4 0.1-0.6-1.2-1.5-4.8-3.6-8-3.2-0.2 0-0.4 0.2-0.4 0.4 0 0.3 0.2 0.4 0.5 0.4 3-0.3 6.2 1.7 7.2 2.9q0.1 0.2 0.3 0.2z" fill="#000000"/>
						</g>
						<g>
							<path class="s27" d="m403.3 381.3q0.1 0 0.3-0.1c0.1-0.1 0.2-0.4 0-0.6-1.2-1.5-4.7-3.5-8-3.2-0.2 0-0.4 0.2-0.3 0.5 0 0.2 0.2 0.4 0.4 0.3 3-0.2 6.3 1.8 7.2 3q0.2 0.1 0.4 0.1z" fill="#000000"/>
						</g>
						<g>
							<path class="s27" d="m406.8 378.8q0.2 0 0.3-0.1c0.2-0.1 0.2-0.4 0.1-0.6-1.2-1.5-4.8-3.5-8-3.2-0.2 0-0.4 0.2-0.4 0.5 0 0.2 0.2 0.4 0.5 0.3 3-0.2 6.2 1.8 7.2 3q0.1 0.1 0.3 0.1z" fill="#000000"/>
						</g>
						<g>
							<path class="s27" d="m410.3 376.3q0.2 0 0.3-0.1c0.2-0.1 0.2-0.4 0.1-0.6-1.7-2.1-5.5-3.6-8.7-3.3-0.3 0.1-0.4 0.3-0.4 0.5 0 0.2 0.2 0.4 0.5 0.4 2.9-0.3 6.4 1 7.9 3q0.1 0.1 0.3 0.1z" fill="#000000"/>
						</g>
					</g>
				</g>
				<g>
					<path class="s10" d="m454.4 398.8c0.2 4.2 0.9 7 2.4 9.4 1.4 2.5 4.2 3.2 7.1 2.5 2.8-0.7 6.4-2.6 7.3-6.2 0.8-3.6 1.2-6.1 0.6-10z" fill="#000000"/>
					<path id="XMLID_3987_" class="s9" d="m466.3 368.6c1.2 0.1 1.5 5.7 2.2 11.3 0.7 6 2.5 8.5 3.1 13.4 0.8 5.7-0.1 8.2-2.1 11.6-2 3.4-9 6.8-12.4 1.9-2.9-4-3-8.4-2.7-14.1 0.2-5.8-0.2-9.8-0.4-14.2-0.2-4.3-1.2-8.5-0.1-9 0 0.6 0.1 1.4 0.2 2 0.1 0.8 0.1 1.6 0.4 2.3 0.1 0.3 0.4 0.6 0.5 0.1 0-0.3 0-0.7 0-1-0.2-1.6 0.6-1.7 1-1.8 0.9-0.3 4.5-0.7 5.4-0.8 0.9-0.1 4-0.2 4.4 0.3 0.2 0.4 0.3 0.9 0.4 1.6 0.1 0.9 0.3 1.5 0.3 1.2 0-0.6-0.1-2.1-0.1-2.5 0-0.4-0.1-0.9-0.1-1.3q0-0.5 0-1z" fill="#000000"/>
					<path class="s0" d="m472 396.6c0.2 3.5-0.7 5.9-2.2 8.6-2 3.4-9.5 6.7-13 1.8-1.7-2.4-2.2-5.3-2.4-8.2 2.1-3.8 14.3-5.4 17.6-2.2z" fill="#000000"/>
					<g>
						<g>
							<path class="s27" d="m456.9 392.7q0.1 0 0.2-0.1c0 0 5.4-2.2 10.7-1 0.2 0.1 0.5-0.1 0.5-0.3 0.1-0.3-0.1-0.5-0.3-0.5-5.6-1.3-11.1 1-11.3 1.1-0.2 0.1-0.3 0.3-0.2 0.5 0.1 0.2 0.3 0.3 0.4 0.3z" fill="#000000"/>
						</g>
						<g>
							<path class="s27" d="m467.5 387.4c0.2 0 0.3-0.1 0.4-0.3 0.1-0.2-0.1-0.5-0.3-0.5-5.2-1.8-11 0.8-11.2 1-0.2 0.1-0.3 0.3-0.2 0.5 0.1 0.3 0.4 0.3 0.6 0.2 0 0 5.7-2.6 10.5-0.9q0.1 0 0.2 0z" fill="#000000"/>
						</g>
						<g>
							<path class="s27" d="m467.3 383.4c0.2 0 0.3-0.1 0.4-0.2 0.1-0.3 0-0.5-0.3-0.6-5.7-2.1-11.2 0.8-11.4 1-0.2 0.1-0.3 0.4-0.2 0.6 0.2 0.2 0.4 0.2 0.6 0.1 0.1 0 5.4-2.8 10.8-0.9q0 0 0.1 0z" fill="#000000"/>
						</g>
						<g>
							<path class="s14" d="m467.1 379.5c0.1 0 0.3-0.1 0.3-0.2 0.1-0.3 0-0.5-0.2-0.6-5.4-2-11.4 1-11.6 1.1-0.2 0.1-0.3 0.4-0.1 0.6 0.1 0.2 0.3 0.3 0.5 0.1 0.1 0 5.9-2.9 10.9-1q0.1 0 0.2 0z" fill="#000000"/>
						</g>
					</g>
				</g>
				<g>
					<g>
						<path class="s2" d="m452.4 202.8c5.3 9.5 9.2 17.4 9.7 45.8 0.5 28.5 0.4 36.4 0.5 39.9 0.2 3.4 2.2 9.5 3.9 26.4 1.8 16.9-0.3 37.1-0.3 37.1 0 0-1.2 2.7-7.7 3.3-5.9 0.5-8.9-1.7-8.9-1.7 0 0-8.2-32.9-10.4-43.1-2.3-10.2-8.9-43.7-8.9-43.7l-3.9 27.2c0 0 1.9 9.3 0 24.1-1.8 14.8-5 30-5 30 0 0-4 1.6-9.1 1.5-5.1-0.1-8.1-2.1-8.1-2.1 0 0-5-44.1-5-60.9 0-16.8 1.4-58.8 6.7-83.6z" fill="#000000"/>
						<path class="s28" d="m452.4 202.8c5.3 9.5 9.2 17.4 9.7 45.8 0.5 28.5 0.4 36.4 0.5 39.9 0.2 3.4 2.2 9.5 3.9 26.4 1.8 16.9-0.3 37.1-0.3 37.1 0 0-1.2 2.7-7.7 3.3-5.9 0.5-8.9-1.7-8.9-1.7 0 0-8.2-32.9-10.4-43.1-2.3-10.2-8.9-43.7-8.9-43.7l-3.9 27.2c0 0 1.9 9.3 0 24.1-1.8 14.8-5 30-5 30 0 0-4 1.6-9.1 1.5-5.1-0.1-8.1-2.1-8.1-2.1 0 0-5-44.1-5-60.9 0-16.8 1.4-58.8 6.7-83.6z" fill="#000000"/>
					</g>
					<path class="s29" d="m461.2 301.6q-0.4-1.5-0.6-2.8c-1.7-7.8-1.7-18.1-1.6-31.1 0-4 0-8-0.1-12.4-0.1-16.9-1.4-35.9-10-48.1l-0.7 0.5c5.8 8.2 8.2 19.6 9.2 31.3-8.5-1.1-10.4-9.5-12.9-21.1q-0.5-2.3-1.1-4.9l-0.8 0.2q0.6 2.5 1.1 4.9c2.5 11.6 4.5 20.7 13.8 21.8 0.4 5.2 0.6 10.4 0.6 15.5 0 4.3 0 8.3 0 12.3 0 13 0 23.4 1.6 31.3q0.3 1.3 0.6 2.8c2.2 10.2 5.5 25.4 3.9 52q0.5-0.3 0.9-0.6c1.5-26.3-1.7-41.5-3.9-51.6zm-53.7-74.4c1.2 5.6 10.1 10.3 14.2 11.3l1 5.7q-0.3 4.5-0.6 9.4c-1.3 18.1-2.5 36.8-1.6 41 2.4 11.1 1.7 18.1 0.4 30.9q-0.2 2-0.4 4.1c-0.8 7.4-1.6 14.7-2.1 19.4q0.5-0.1 0.9-0.2c0.5-4.7 1.3-11.8 2-19.1q0.2-2.1 0.4-4.1c1.4-12.9 2.1-19.9-0.4-31.2-0.9-4.1 0.4-23.5 1.6-40.7q0.2-3.1 0.4-6.1l3.6 20-0.5 26.4 3.9-27.2-5.3-32.3c0 0-11.2-0.8-17.5-7.3z" fill="#000000"/>
				</g>
			</g>
			<g id="Top_17_">
				<path class="s9" d="m443.8 139.2c0.2-3.1 8.9-9.8 10.5-17.1 1.5-7.3-2.7-10.3-2.7-10.3 0 0 3-7-6.7-11.7-6.1-2.9-15.7 1-27.5-3.4-3.7-1.4-5.3 5.3-3.6 8.5-2.6 0.3-3.5 4.6-1.1 8.6 3.8 6.1 31.1 25.4 31.1 25.4z" fill="#000000"/>
				<g id="Chest_10_">
					<g>
						<path class="s11" d="m460.9 220.9c-0.9-8.5-5-24.8-5.2-26.8-1.2-11.5 1-17.2 1.9-22.1 1.9-10.9 2.2-16.3-0.3-18.5 0 0-6.2-2.8-8.8-4.1-1.7-0.8-2.9-1.6-5.4-2.3-6.3-1.7-13.2-0.4-15.5-0.2-1.2 0-2.6 0.4-5 0.2-1.6-0.2-4-1.2-4.2-1.4 0 0-6.6 5.2-10.4 11.5-2.9 4.9-3.7 8.8-4.4 18.5-1.1 16.2-1.7 36.6-2.5 45.8 8.9 5.8 37 10.2 50.7 4.2l0.4-13.5 2.8 12.5c1.1-0.5 4.1-1.8 5.9-3.8z" fill="#000000"/>
					</g>
					<path class="s9" d="m423.6 169.7c-0.5 2.4-0.8 4.9-1.1 7.4-0.6 5-1 10-1.4 15-0.2 5-0.5 10-0.6 15q-0.1 3.7-0.1 7.5 0 3.7 0.1 7.5l0.7-15c0.2-5 0.5-10 0.8-15q0.4-7.5 1.1-14.9c0.3-2.5 0.5-5 0.9-7.5 0.3-2.4 0.6-4.9 1.4-7.3-0.9 2.3-1.4 4.8-1.9 7.3z" fill="#000000"/>
				</g>
				<path class="s25" d="m457.3 153.5c22.6 7.7-10.4 41.3-15.2 46.4-2.7 2.9-3.4 4.1-13.1 1.9-10.9-2.9-21.2-7.9-32-11.2-7.7-2.1-21.8 1.4-24.2-9-0.6-0.4-1.6-0.7-2.2-2.2-0.1-0.5-0.3-1.4-0.1-2 0 0-0.9-0.4-2.6-1.2-0.7-0.3-0.1-2.8 1.7-2.8 2.6-0.1 3.6 0.6 5.7 0.9 4 1 9.3 1.3 12.5 0.4 0.8-0.2 0.8-0.8 0.4-1.3-1.7-2.3-4.7-4.3-3.7-7.5 0.1-0.8 0.9-0.8 1.5-0.4 2.4 1.7 5.1 3.1 7.3 5.1 0.7 0.7 1.3 1.5 1.9 2.2 1.5 2.1 3.7 3.6 6.2 4.2 10.1 2.7 20.4 4.7 30.7 7l13.4-18.5c0 0 7.7-9.8 11.8-12z" fill="#000000"/>
				<g>
					<g>
						<g>
							<g id="XMLID_3969_">
								<g id="XMLID_3972_">
									<path id="XMLID_3973_" class="s25" d="m418 109.6c-1.5 2.5-2.2 4.9-2.2 7.6 0 1.8-0.2 3.6-0.6 5.3-1.5 6.2-0.1 14.4 4.3 17.8 1.9 1.4 4.8 2.1 7.8 2.1l-0.1 1.9c-0.1 1.1-1 2.1-2.1 2.4l-2.9 0.4c-0.7 4.4-0.6 9.4 2.2 15.4 7.5-0.9 21.2-8 24.3-11.1-3.3 0.1-5.6-4.2-5.2-7.5l0.6-9.1c0 0 2.5 1.7 4.9 0.4 3.5-1.9 4.7-6.9 2.8-9.6-2-2.6-6.5-2-8 1.1 0 0-4.2 1.9-1.9-8-3.6-1.5-4.7-5-4.7-10.1-0.4 0.1-9.7 3.2-19.2 1z" fill="#000000"/>
								</g>
								<g id="XMLID_3970_">
									<path id="XMLID_3971_" class="s26" d="m427.3 142.4c8.3-0.4 12.2-5.4 13.8-8.3 0 0-0.8 4.2-4.2 6.6-4.9 3.5-9.7 3.1-9.7 3.1z" fill="#000000"/>
								</g>
							</g>
							<g id="XMLID_3967_">
								<path id="XMLID_3968_" class="s26" d="m431.4 131.9l-5.2 1.2c0.3 1.5 1.7 2.4 3.2 2.1 1.4-0.4 2.3-1.8 2-3.3z" fill="#000000"/>
							</g>
							<path class="s30" d="m431 133c-1.4-0.1-2.7 0.8-3.1 2.1q0.7 0.3 1.5 0.1c1-0.3 1.7-1.1 2-2.1q-0.2 0-0.4-0.1z" fill="#000000"/>
							<g id="XMLID_3965_">
								<path id="XMLID_3966_" class="s10" d="m417.8 117.7l3.8-1.4c-0.3-1.1-1.4-1.6-2.5-1.3-1.1 0.4-1.7 1.6-1.3 2.7z" fill="#000000"/>
							</g>
							<g id="XMLID_3963_">
								<path id="XMLID_3964_" class="s10" d="m435.7 119.7l-3.5-2.3c0.6-1 1.8-1.3 2.8-0.6 1 0.6 1.3 1.9 0.7 2.9z" fill="#000000"/>
							</g>
							<g id="XMLID_3961_">
								<path id="XMLID_3962_" class="s26" d="m426.8 119.5l-1.3 10.7-5.4-2.7z" fill="#000000"/>
							</g>
							<path id="XMLID_3960_" class="s10" d="m422 121.1c0 0.9-0.8 1.7-1.7 1.7-1 0-1.8-0.7-1.8-1.6 0-1 0.8-1.8 1.7-1.8 1 0 1.8 0.7 1.8 1.7z" fill="#000000"/>
							<path id="XMLID_3959_" class="s10" d="m434.3 122.3c0 0.9-0.8 1.7-1.7 1.7-1 0-1.7-0.7-1.8-1.6 0-1 0.8-1.7 1.8-1.8 0.9 0 1.7 0.7 1.7 1.7z" fill="#000000"/>
						</g>
					</g>
				</g>
				<g>
					<path class="s9" d="m425.4 162.4c0 0 8.2-4.9 11.4-7.5 6-4.9 6.7-8.7 6.7-8.7 0 0-0.2-1.1 0-2.5 0.8 0.1 0.9 0.8 1.7 1.9 1.6 2.1 4.3 4.3 4.3 4.3 0 0-0.3 1.8-4.8 7.6-3.7 4.6-12.2 9.2-13.3 9.4-1.1 0.2-6-4.5-6-4.5z" fill="#000000"/>
					<path class="s9" d="m425.4 162.4c-2.8-5.6-1.2-11-0.6-12.7 0.6-1.8 1.1-3.3 1.1-3.3 0 0 1.2-0.3 1.3-2.1v-1c0 0-0.9 0.2-2.1 1.4-1.1 1.2-2 1.6-4.1 1.9-2.8 5.2-4.3 12.8-2.1 17.4 0.3 0.6 6.5-1.6 6.5-1.6z" fill="#000000"/>
				</g>
			</g>
		</g>
	</g>
	<g id="Speech_Bubble">
		<g id="Speech_Bubble_11_">
			<g id="Speech_Bubble_13_">
				<path class="s11" d="m450.9 31.7c-14.2 0-25.7 11.6-25.7 25.7 0 14.2 11.5 25.7 25.7 25.7 14.1 0 25.7-11.5 25.7-25.7 0-14.1-11.6-25.7-25.7-25.7zm16.8 41.5l-1.9 1.8c-4 3.4-9.2 5.5-14.9 5.5-12.7 0-23.1-10.4-23.1-23.1 0-5.7 2.1-10.9 5.5-14.9l1.8-1.9c4.2-3.9 9.7-6.2 15.8-6.2 12.7 0 23 10.3 23 23 0 6.1-2.3 11.6-6.2 15.8z" fill="#000000"/>
				<path class="s11" d="m436.3 86.6l0.5-9.1 8.6 3.9-6.5 6.4c-1 0.9-2.6 0.2-2.6-1.2z" fill="#000000"/>
			</g>
			<g>
				<g>
					<path class="s2" d="m434.1 53.5q-0.2-0.2-0.1-0.6 0-0.3 0.3-0.6l6.8-5.3q0.3-0.2 0.5-0.4 0.3-0.2 0.6-0.2h2.5q0.3 0 0.6 0.3 0.2 0.2 0.2 0.6v20.3q0 0.3-0.2 0.6-0.3 0.2-0.6 0.2h-2.6q-0.3 0-0.6-0.2-0.2-0.3-0.2-0.6v-15.5l-4.5 3.4q-0.3 0.3-0.6 0.2-0.3 0-0.6-0.3z" fill="#000000"/>
					<path class="s2" d="m463.1 63.3l-0.5 3.2q0 0.3-0.3 0.5-0.2 0.2-0.5 0.2h-2.5q-0.2 0-0.4-0.2-0.2-0.2-0.2-0.5v-0.1l0.4-3.1h-3.1l-0.5 3.2q-0.1 0.3-0.3 0.5-0.2 0.2-0.5 0.2h-2.5q-0.3 0-0.5-0.2-0.2-0.2-0.2-0.5v-0.1l0.5-3.1h-2.1q-0.3 0-0.6-0.2-0.2-0.3-0.2-0.6v-2q0-0.3 0.2-0.6 0.3-0.2 0.6-0.2h2.6l0.7-4.3h-2.5q-0.3 0-0.6-0.3-0.2-0.2-0.2-0.6v-2q0-0.3 0.2-0.6 0.3-0.2 0.6-0.2h3l0.5-3.2q0.1-0.2 0.3-0.4 0.2-0.2 0.5-0.2h2.5q0.3 0 0.5 0.2 0.2 0.2 0.2 0.4v0.1l-0.5 3.1h3.2l0.5-3.2q0-0.2 0.2-0.4 0.2-0.2 0.5-0.2h2.5q0.3 0 0.5 0.2 0.2 0.2 0.2 0.4v0.1l-0.5 3.1h2.1q0.4 0 0.6 0.2 0.3 0.3 0.3 0.6v2q0 0.4-0.3 0.6-0.2 0.3-0.6 0.3h-2.6l-0.6 4.3h2.4q0.4 0 0.6 0.2 0.3 0.3 0.3 0.6v2q0 0.3-0.3 0.6-0.2 0.2-0.6 0.2zm-6.5-3.6h3.1l0.7-4.3h-3.2z" fill="#000000"/>
				</g>
				<g style="opacity: .4">
					<path class="s8" d="m434.1 53.5q-0.2-0.2-0.1-0.6 0-0.3 0.3-0.6l6.8-5.3q0.3-0.2 0.5-0.4 0.3-0.2 0.6-0.2h2.5q0.3 0 0.6 0.3 0.2 0.2 0.2 0.6v20.3q0 0.3-0.2 0.6-0.3 0.2-0.6 0.2h-2.6q-0.3 0-0.6-0.2-0.2-0.3-0.2-0.6v-15.5l-4.5 3.4q-0.3 0.3-0.6 0.2-0.3 0-0.6-0.3z" fill="#000000"/>
					<path class="s8" d="m463.1 63.3l-0.5 3.2q0 0.3-0.3 0.5-0.2 0.2-0.5 0.2h-2.5q-0.2 0-0.4-0.2-0.2-0.2-0.2-0.5v-0.1l0.4-3.1h-3.1l-0.5 3.2q-0.1 0.3-0.3 0.5-0.2 0.2-0.5 0.2h-2.5q-0.3 0-0.5-0.2-0.2-0.2-0.2-0.5v-0.1l0.5-3.1h-2.1q-0.3 0-0.6-0.2-0.2-0.3-0.2-0.6v-2q0-0.3 0.2-0.6 0.3-0.2 0.6-0.2h2.6l0.7-4.3h-2.5q-0.3 0-0.6-0.3-0.2-0.2-0.2-0.6v-2q0-0.3 0.2-0.6 0.3-0.2 0.6-0.2h3l0.5-3.2q0.1-0.2 0.3-0.4 0.2-0.2 0.5-0.2h2.5q0.3 0 0.5 0.2 0.2 0.2 0.2 0.4v0.1l-0.5 3.1h3.2l0.5-3.2q0-0.2 0.2-0.4 0.2-0.2 0.5-0.2h2.5q0.3 0 0.5 0.2 0.2 0.2 0.2 0.4v0.1l-0.5 3.1h2.1q0.4 0 0.6 0.2 0.3 0.3 0.3 0.6v2q0 0.4-0.3 0.6-0.2 0.3-0.6 0.3h-2.6l-0.6 4.3h2.4q0.4 0 0.6 0.2 0.3 0.3 0.3 0.6v2q0 0.3-0.3 0.6-0.2 0.2-0.6 0.2zm-6.5-3.6h3.1l0.7-4.3h-3.2z" fill="#000000"/>
				</g>
			</g>
		</g>
	</g>
</svg>