<svg xmlns="http://www.w3.org/2000/svg" xmlns:xlink="http://www.w3.org/1999/xlink" version="1.1" x="0px" y="0px" viewBox="0 0 500 500" style="enable-background:new 0 0 500 500;" xml:space="preserve">
<g id="Floor">
	<path style="fill:#F5F5F5;" d="M401.788,269.989c-84.762-48.938-221.74-48.937-305.952,0.001   c-84.216,48.941-83.77,128.284,0.992,177.222c84.767,48.94,221.746,48.94,305.962-0.002   C487.002,398.272,486.555,318.93,401.788,269.989z"/>
</g>
<g id="Shadows_1_">
	<path style="fill:#E6E6E6;" d="M84.416,403.69l102.45-59.104c3.17-1.829,7.075-1.827,10.243,0.006l10.177,5.887   c2.273,1.315,2.272,4.596-0.001,5.909l-102.429,59.196c-3.191,1.844-7.126,1.831-10.305-0.034l-10.157-5.96   C82.137,408.266,82.149,404.998,84.416,403.69z"/>
	<path style="fill:#E6E6E6;" d="M421.041,403.69l-102.45-59.104c-3.17-1.829-7.075-1.827-10.243,0.006l-10.177,5.887   c-2.273,1.315-2.272,4.596,0.001,5.909L400.6,415.584c3.191,1.844,7.126,1.831,10.305-0.034l10.157-5.96   C423.32,408.266,423.308,404.998,421.041,403.69z"/>
	<path style="fill:#E6E6E6;" d="M440.327,376.495c-6.408-3.7-16.764-3.7-23.131,0c-6.367,3.7-6.333,9.699,0.075,13.398   c6.409,3.7,16.765,3.7,23.132,0C446.769,386.193,446.735,380.195,440.327,376.495z"/>
	<path style="fill:#E6E6E6;" d="M95.947,406.734c-6.408-3.7-16.764-3.7-23.131,0c-6.367,3.7-6.333,9.699,0.075,13.398   c6.409,3.7,16.765,3.7,23.132,0C102.39,416.432,102.356,410.434,95.947,406.734z"/>
</g>
<g id="Window">
	<g>
		<g>
			<polygon style="fill:#F0F0F0;" points="183.954,47.515 190.498,43.779 190.908,186.843 190.891,186.852 138.135,216.976      138.113,209.482 137.725,73.912    "/>
			<polygon style="opacity:0.1;" points="184.342,183.086 183.954,47.515 190.498,43.779 190.908,186.843 190.891,186.852      184.318,183.1    " fill="#000000"/>
			<polygon style="opacity:0.2;" points="138.113,209.482 184.318,183.1 190.891,186.852 138.135,216.976    " fill="#000000"/>
		</g>
		<g>
			<polygon style="fill:#F0F0F0;" points="111.762,88.734 118.306,84.997 118.716,228.062 118.699,228.071 65.943,258.194      65.922,250.701 65.533,115.13    "/>
			<polygon style="opacity:0.1;" points="112.151,224.305 111.762,88.734 118.306,84.997 118.716,228.062 118.699,228.071      112.127,224.318    " fill="#000000"/>
			<polygon style="opacity:0.2;" points="65.922,250.701 112.127,224.318 118.699,228.071 65.943,258.194    " fill="#000000"/>
		</g>
	</g>
</g>
<g id="Clock">
	<g>
		<path style="fill:none;" d="M330.359,65.124C330.359,65.124,330.359,65.124,330.359,65.124c-0.113-0.089-0.227-0.179-0.342-0.268    c0,0,0,0,0.001,0C330.132,64.944,330.245,65.034,330.359,65.124z"/>
		<path style="fill:none;" d="M332.288,66.732c-0.022-0.019-0.043-0.04-0.065-0.059c0.021,0.02,0.043,0.039,0.064,0.058    C332.288,66.731,332.288,66.732,332.288,66.732z"/>
		<path style="fill:none;" d="M318.675,59.2c-0.164-0.035-0.324-0.061-0.487-0.092c0.155,0.03,0.308,0.052,0.464,0.086    C318.66,59.196,318.667,59.198,318.675,59.2z"/>
		<path style="fill:none;" d="M319.782,59.474c-0.148-0.041-0.294-0.073-0.44-0.11c0.141,0.034,0.281,0.066,0.424,0.105    C319.771,59.47,319.777,59.472,319.782,59.474z"/>
		<path style="fill:none;" d="M324.437,61.306c-0.014-0.007-0.029-0.014-0.043-0.021C324.408,61.292,324.422,61.298,324.437,61.306    C324.436,61.305,324.436,61.306,324.437,61.306z"/>
		<path style="fill:none;" d="M339.555,118.61c0.309-0.095,0.611-0.201,0.907-0.32C340.166,118.409,339.864,118.516,339.555,118.61z    "/>
		<path style="fill:none;" d="M343.104,80.144C343.104,80.144,343.104,80.145,343.104,80.144c-0.066-0.113-0.135-0.225-0.202-0.339    c0,0,0,0.001,0,0.001C342.969,79.919,343.038,80.031,343.104,80.144z"/>
		<path style="fill:none;" d="M341.915,78.192c-0.08-0.127-0.16-0.254-0.241-0.38c0,0,0,0,0,0    C341.755,77.938,341.835,78.065,341.915,78.192z"/>
		<path style="fill:none;" d="M334.223,68.545c-0.069-0.069-0.14-0.134-0.21-0.203C334.084,68.41,334.154,68.476,334.223,68.545    C334.223,68.545,334.223,68.545,334.223,68.545z"/>
		<polygon style="fill:none;" points="335.521,69.88 335.513,69.871 335.521,69.879   "/>
		<path style="fill:none;" d="M338.744,73.668c-0.012-0.015-0.023-0.031-0.035-0.046c0,0,0,0,0,0    C338.721,73.637,338.732,73.653,338.744,73.668z"/>
		<path style="fill:none;" d="M336.977,119.086c0.339-0.026,0.672-0.065,0.999-0.117    C337.648,119.021,337.315,119.06,336.977,119.086z"/>
		<path style="fill:none;" d="M318.451,110.352c0.504,0.493,1.016,0.971,1.536,1.432    C319.467,111.323,318.955,110.844,318.451,110.352z"/>
		<path style="fill:none;" d="M325.828,116.04c0.48,0.277,0.955,0.528,1.427,0.767C326.782,116.568,326.307,116.317,325.828,116.04z    "/>
		<path style="fill:none;" d="M324.052,114.927c0.587,0.391,1.177,0.768,1.776,1.113    C325.229,115.695,324.638,115.319,324.052,114.927z"/>
		<path style="fill:none;" d="M333.081,118.849c0.174,0.033,0.35,0.07,0.522,0.097C333.431,118.92,333.255,118.882,333.081,118.849z    "/>
		<path style="fill:none;" d="M345.162,84.016c-0.024-0.049-0.047-0.097-0.071-0.145c0,0,0,0,0,0    C345.115,83.919,345.138,83.967,345.162,84.016z"/>
		<path style="fill:none;" d="M312.848,58.97c-0.007,0.001-0.014,0.002-0.021,0.003c0.006-0.001,0.013-0.002,0.019-0.003    C312.847,58.97,312.848,58.97,312.848,58.97z"/>
		<path style="fill:none;" d="M316.257,58.845c-0.103-0.008-0.205-0.012-0.307-0.018c0.082,0.005,0.164,0.007,0.246,0.013    C316.216,58.842,316.236,58.844,316.257,58.845z"/>
		<path style="fill:none;" d="M314.186,58.82c0.008,0,0.016,0,0.024,0c-0.094,0.005-0.186,0.016-0.279,0.023    c0.006,0,0.011-0.002,0.017-0.002C314.027,58.835,314.106,58.825,314.186,58.82z"/>
		<path style="fill:none;" d="M317.549,58.989c0.007,0.001,0.014,0.003,0.022,0.004c-0.173-0.027-0.342-0.042-0.514-0.064    c0.152,0.019,0.302,0.032,0.456,0.055C317.524,58.986,317.536,58.987,317.549,58.989z"/>
		<path style="fill:none;" d="M311.292,59.306c0.01-0.003,0.022-0.004,0.032-0.007c-0.061,0.017-0.119,0.04-0.179,0.058    c0.031-0.009,0.06-0.023,0.092-0.032C311.255,59.319,311.273,59.312,311.292,59.306z"/>
		<path style="fill:none;" d="M310.16,59.704c-0.057,0.023-0.113,0.047-0.17,0.071c0.05-0.021,0.099-0.043,0.149-0.063    C310.146,59.709,310.154,59.707,310.16,59.704z"/>
		<path style="fill:none;" d="M328.224,63.554c-0.024-0.017-0.049-0.032-0.073-0.049C328.175,63.521,328.2,63.537,328.224,63.554    L328.224,63.554z"/>
		<path style="fill:none;" d="M349.882,108.853c-0.04,0.233-0.076,0.47-0.121,0.697    C349.806,109.323,349.842,109.086,349.882,108.853z"/>
		<path style="fill:none;" d="M349.334,111.272c-0.059,0.204-0.114,0.412-0.178,0.61    C349.22,111.683,349.275,111.476,349.334,111.272z"/>
		<path style="fill:none;" d="M349.634,110.103c-0.049,0.214-0.094,0.433-0.148,0.642    C349.54,110.536,349.585,110.318,349.634,110.103z"/>
		<path style="fill:none;" d="M348.566,113.439c-0.077,0.18-0.15,0.364-0.232,0.538C348.416,113.802,348.49,113.619,348.566,113.439    z"/>
		<path style="fill:none;" d="M348.978,112.382c-0.068,0.193-0.133,0.39-0.207,0.577    C348.845,112.772,348.91,112.575,348.978,112.382z"/>
		<path style="fill:none;" d="M348.103,114.432c-0.085,0.168-0.168,0.34-0.258,0.502C347.936,114.771,348.018,114.6,348.103,114.432    z"/>
		<polygon style="fill:none;" points="347.967,90.889 347.965,90.885 347.967,90.889   "/>
		<path style="fill:none;" d="M325.98,62.135c0.34,0.196,0.677,0.402,1.012,0.614C326.656,62.539,326.32,62.331,325.98,62.135z"/>
		<path style="fill:none;" d="M350.201,106.074c-0.02,0.308-0.037,0.618-0.066,0.918    C350.164,106.692,350.182,106.382,350.201,106.074z"/>
		<path style="fill:none;" d="M350.075,107.495c-0.031,0.269-0.059,0.541-0.097,0.804    C350.016,108.037,350.044,107.765,350.075,107.495z"/>
		<path style="fill:none;" d="M350.269,104.21c-0.001,0.482-0.013,0.954-0.036,1.418    C350.255,105.164,350.267,104.692,350.269,104.21z"/>
		<path style="fill:none;" d="M350.201,102.092c-0.003-0.045-0.006-0.09-0.008-0.135    C350.195,102.002,350.198,102.047,350.201,102.092L350.201,102.092z"/>
		<path style="fill:none;" d="M349.969,99.56c-0.011-0.088-0.025-0.177-0.037-0.266C349.944,99.383,349.958,99.472,349.969,99.56    C349.969,99.56,349.969,99.56,349.969,99.56z"/>
		<path style="fill:none;" d="M345.409,118.138c0.121-0.117,0.236-0.243,0.353-0.365    C345.645,117.896,345.53,118.022,345.409,118.138z"/>
		<path style="fill:none;" d="M349.438,96.375c-0.011-0.053-0.023-0.106-0.034-0.159C349.415,96.269,349.426,96.322,349.438,96.375    C349.437,96.375,349.437,96.375,349.438,96.375z"/>
		<path style="fill:none;" d="M349.738,97.991C349.738,97.991,349.738,97.992,349.738,97.991c-0.036-0.22-0.077-0.44-0.117-0.661    c0,0,0,0.001,0,0.001C349.661,97.551,349.702,97.771,349.738,97.991z"/>
		<path style="fill:none;" d="M347.59,115.362c-0.094,0.157-0.184,0.317-0.282,0.467    C347.406,115.679,347.496,115.518,347.59,115.362z"/>
		<path style="fill:none;" d="M344.323,119.055c-0.134,0.101-0.265,0.205-0.402,0.3C344.059,119.26,344.19,119.156,344.323,119.055z    "/>
		<path style="fill:none;" d="M346.417,117.034c-0.11,0.133-0.216,0.271-0.33,0.399    C346.201,117.305,346.308,117.167,346.417,117.034z"/>
		<path style="fill:none;" d="M347.026,116.231c-0.101,0.145-0.2,0.293-0.306,0.432    C346.826,116.524,346.925,116.375,347.026,116.231z"/>
		<path style="fill:none;" d="M345.063,118.447c-0.125,0.112-0.248,0.227-0.377,0.332    C344.815,118.674,344.938,118.559,345.063,118.447z"/>
		<path style="fill:none;" d="M309.591,62.883c-0.121,0.077-0.244,0.15-0.363,0.231C309.347,63.032,309.47,62.959,309.591,62.883z"/>
		<path style="fill:none;" d="M306.203,91.456c-0.237-0.624-0.464-1.249-0.673-1.876C305.739,90.207,305.966,90.832,306.203,91.456    C306.203,91.456,306.203,91.456,306.203,91.456z"/>
		<path style="fill:none;" d="M305.481,89.426C305.481,89.427,305.481,89.427,305.481,89.426c-0.213-0.646-0.409-1.293-0.592-1.94    c0,0,0,0.001,0,0.001C305.072,88.134,305.268,88.781,305.481,89.426z"/>
		<path style="fill:none;" d="M343.951,115.498c-0.334,0.053-0.673,0.093-1.019,0.119c-0.074,0.006-0.146,0.015-0.221,0.019    c-0.427,0.025-0.863,0.027-1.306,0.011c-0.099-0.004-0.2-0.011-0.3-0.016c-0.494-0.028-0.994-0.072-1.507-0.151    c-0.336-0.052-0.676-0.115-1.019-0.189c-0.107-0.023-0.216-0.053-0.324-0.079c-0.234-0.055-0.469-0.11-0.706-0.176    c-0.401-0.11-0.806-0.235-1.216-0.375c-0.082-0.028-0.166-0.063-0.248-0.092c-0.329-0.117-0.66-0.242-0.995-0.378    c-0.126-0.052-0.254-0.109-0.38-0.164c-0.355-0.152-0.713-0.316-1.073-0.49c-0.136-0.066-0.272-0.131-0.409-0.2    c-0.473-0.239-0.948-0.49-1.428-0.768c-0.599-0.346-1.19-0.722-1.776-1.113c-0.1-0.066-0.2-0.131-0.299-0.199    c-0.559-0.382-1.112-0.784-1.659-1.205c-0.106-0.082-0.212-0.165-0.318-0.249c-0.555-0.436-1.104-0.887-1.644-1.361    c-0.048-0.042-0.095-0.087-0.143-0.13c-0.521-0.461-1.033-0.94-1.538-1.434c-0.082-0.08-0.166-0.158-0.248-0.24    c-0.389-0.385-0.773-0.778-1.151-1.18c-0.021-0.023-0.042-0.046-0.063-0.069c-0.357-0.382-0.708-0.771-1.055-1.168    c-0.076-0.087-0.15-0.176-0.226-0.263c-0.566-0.656-1.12-1.327-1.658-2.019c-0.058-0.074-0.114-0.15-0.171-0.225    c-0.428-0.556-0.846-1.123-1.254-1.7c-0.059-0.084-0.12-0.165-0.178-0.249c-0.391-0.56-0.771-1.129-1.142-1.705    c-0.088-0.137-0.175-0.275-0.262-0.413c-0.299-0.474-0.592-0.952-0.876-1.435c-0.061-0.103-0.124-0.205-0.184-0.308    c-0.322-0.553-0.632-1.113-0.934-1.677c-0.074-0.138-0.145-0.277-0.217-0.415c-0.236-0.45-0.465-0.902-0.688-1.357    c-0.073-0.15-0.148-0.3-0.22-0.451c-0.274-0.574-0.54-1.15-0.792-1.73c-0.036-0.083-0.07-0.167-0.105-0.25    c-0.224-0.521-0.437-1.045-0.642-1.57c-0.061-0.157-0.122-0.314-0.182-0.472c-0.237-0.624-0.464-1.249-0.673-1.875    c-0.017-0.051-0.032-0.102-0.049-0.154c-0.213-0.645-0.408-1.291-0.591-1.937c-0.035-0.125-0.072-0.251-0.107-0.376    c-0.206-0.752-0.389-1.503-0.552-2.253c-0.036-0.164-0.072-0.329-0.105-0.493c-0.06-0.294-0.116-0.587-0.169-0.88    c-0.037-0.205-0.075-0.41-0.109-0.615c-0.05-0.303-0.094-0.605-0.137-0.907c-0.026-0.181-0.053-0.362-0.076-0.543    c-0.082-0.648-0.144-1.293-0.19-1.933c-0.01-0.136-0.017-0.272-0.025-0.408c-0.039-0.657-0.064-1.312-0.063-1.958    c0.015-5.349,1.44-9.502,3.868-12.234c3.638-0.775,8.038,0.079,12.777,2.815c12.449,7.187,22.512,24.61,22.471,38.921    c-0.015,5.337-1.436,9.483-3.855,12.213c-0.11,0.023-0.216,0.055-0.328,0.076C344.159,115.465,344.055,115.481,343.951,115.498z"/>
		<path style="fill:none;" d="M311.043,101.119c-0.299-0.474-0.592-0.951-0.876-1.434    C310.451,100.167,310.743,100.645,311.043,101.119C311.042,101.119,311.042,101.119,311.043,101.119z"/>
		<path style="fill:none;" d="M315.707,107.43c-0.566-0.655-1.119-1.326-1.656-2.017    C314.588,106.104,315.141,106.775,315.707,107.43C315.707,107.43,315.707,107.43,315.707,107.43z"/>
		<path style="fill:none;" d="M308.145,95.93c0.222,0.453,0.45,0.903,0.684,1.351C308.595,96.833,308.367,96.383,308.145,95.93z"/>
		<path style="fill:none;" d="M309.984,99.379C309.984,99.379,309.984,99.379,309.984,99.379c-0.321-0.553-0.632-1.113-0.934-1.676    h0C309.352,98.266,309.663,98.826,309.984,99.379z"/>
		<path style="fill:none;" d="M341.602,117.753c0.022-0.012,0.045-0.023,0.068-0.033c-0.298,0.165-0.605,0.313-0.919,0.449    c0.006-0.003,0.012-0.006,0.018-0.009C341.054,118.036,341.331,117.901,341.602,117.753z"/>
		<path style="fill:none;" d="M312.447,103.237c-0.391-0.559-0.77-1.127-1.14-1.702C311.677,102.11,312.056,102.678,312.447,103.237    C312.446,103.237,312.447,103.237,312.447,103.237z"/>
		<path style="fill:none;" d="M316.98,108.852c-0.354-0.378-0.702-0.765-1.046-1.158l0,0    C316.278,108.088,316.626,108.474,316.98,108.852z"/>
		<path style="fill:none;" d="M321.775,113.274c-0.585-0.46-1.164-0.939-1.733-1.441c0.029,0.027,0.059,0.054,0.089,0.08    C320.671,112.387,321.22,112.838,321.775,113.274z"/>
		<path style="fill:none;" d="M323.752,114.728c0.073,0.05,0.146,0.097,0.219,0.146c-0.705-0.473-1.4-0.978-2.086-1.513    c0.069,0.054,0.138,0.109,0.207,0.162C322.64,113.944,323.193,114.346,323.752,114.728z"/>
		<path style="fill:none;" d="M341.785,117.661c0.003-0.002,0.006-0.003,0.009-0.005    C341.791,117.657,341.788,117.659,341.785,117.661z"/>
		<path style="fill:none;" d="M318.201,110.11c-0.388-0.385-0.772-0.776-1.149-1.178    C317.429,109.334,317.813,109.725,318.201,110.11z"/>
		<path style="fill:none;" d="M328.738,117.498c0.001,0.001,0.003,0.002,0.005,0.002c-0.434-0.186-0.872-0.389-1.314-0.608    c0.079,0.038,0.157,0.077,0.236,0.115C328.024,117.182,328.382,117.346,328.738,117.498z"/>
		<path style="fill:none;" d="M330.112,118.04c0.082,0.029,0.166,0.064,0.248,0.092c0.404,0.139,0.805,0.261,1.201,0.37    c-0.801-0.221-1.62-0.503-2.454-0.845c0.004,0.001,0.007,0.003,0.01,0.004C329.452,117.798,329.783,117.923,330.112,118.04z"/>
		<path style="fill:none;" d="M335.136,119.102c-0.238-0.013-0.477-0.029-0.72-0.054c0.241,0.023,0.48,0.041,0.717,0.054    C335.133,119.102,335.135,119.102,335.136,119.102z"/>
		<path style="fill:none;" d="M336.716,119.107c-0.426,0.024-0.861,0.027-1.303,0.01c0.006,0,0.013,0,0.019,0    C335.868,119.133,336.296,119.131,336.716,119.107z"/>
		<path style="fill:none;" d="M339.386,118.664c-0.364,0.104-0.738,0.188-1.119,0.258c0.008-0.002,0.016-0.004,0.023-0.005    C338.663,118.848,339.029,118.767,339.386,118.664z"/>
		<path style="fill:none;" d="M332.585,118.756c-0.13-0.028-0.262-0.064-0.392-0.095c0.03,0.007,0.06,0.015,0.09,0.022    C332.383,118.706,332.485,118.733,332.585,118.756z"/>
		<path style="fill:none;" d="M313.877,105.185C313.877,105.185,313.877,105.185,313.877,105.185    c-0.427-0.555-0.844-1.12-1.25-1.695c0,0,0,0,0,0C313.034,104.064,313.451,104.63,313.877,105.185z"/>
		<path style="fill:none;" d="M306.353,66.008c-0.085,0.122-0.174,0.239-0.256,0.365C306.179,66.247,306.268,66.13,306.353,66.008z"/>
		<path style="fill:none;" d="M306.919,65.261c-0.093,0.114-0.189,0.223-0.279,0.342C306.729,65.485,306.826,65.375,306.919,65.261z    "/>
		<path style="fill:none;" d="M305.832,66.813c-0.078,0.13-0.159,0.256-0.233,0.39C305.673,67.068,305.754,66.942,305.832,66.813z"/>
		<path style="fill:none;" d="M308.178,63.948c-0.108,0.096-0.219,0.189-0.325,0.29C307.958,64.137,308.069,64.045,308.178,63.948z"/>
		<path style="fill:none;" d="M308.866,63.384c-0.115,0.087-0.233,0.17-0.345,0.262C308.633,63.554,308.751,63.471,308.866,63.384z"/>
		<path style="fill:none;" d="M307.527,64.576c-0.101,0.105-0.204,0.206-0.301,0.315C307.323,64.782,307.426,64.681,307.527,64.576z    "/>
		<path style="fill:none;" d="M306.385,91.928c0.205,0.525,0.418,1.048,0.642,1.569C306.803,92.976,306.59,92.452,306.385,91.928z"/>
		<path style="fill:none;" d="M307.132,93.748c0.252,0.58,0.517,1.156,0.792,1.729C307.65,94.904,307.384,94.328,307.132,93.748z"/>
		<path style="fill:#EBEBEB;" d="M316.98,108.852c-0.354-0.378-0.702-0.765-1.046-1.158l0,0c-0.076-0.087-0.151-0.177-0.227-0.265    c0,0,0,0,0,0c-0.565-0.655-1.119-1.326-1.656-2.016c-0.059-0.075-0.115-0.153-0.174-0.229c0,0,0,0,0,0    c-0.427-0.555-0.843-1.12-1.25-1.695c0,0,0,0,0,0c-0.06-0.084-0.121-0.167-0.181-0.252c0,0,0,0,0,0    c-0.391-0.559-0.77-1.127-1.14-1.702c-0.089-0.138-0.176-0.277-0.264-0.416c0,0,0,0,0,0c-0.299-0.474-0.591-0.951-0.876-1.434    c-0.06-0.102-0.122-0.203-0.182-0.305c0,0,0,0,0,0c-0.322-0.553-0.632-1.113-0.934-1.676h0c-0.075-0.14-0.147-0.281-0.221-0.422    c-0.235-0.448-0.463-0.898-0.684-1.351c-0.074-0.151-0.149-0.301-0.221-0.453c-0.274-0.573-0.539-1.149-0.792-1.729    c-0.036-0.083-0.07-0.168-0.105-0.251c-0.224-0.521-0.437-1.045-0.642-1.569c-0.061-0.157-0.122-0.314-0.182-0.471    c0,0,0-0.001,0-0.001c-0.237-0.624-0.463-1.248-0.673-1.875c-0.017-0.051-0.032-0.102-0.049-0.153c0,0,0,0,0-0.001    c-0.213-0.646-0.409-1.292-0.592-1.939c0,0,0-0.001,0-0.001c-0.035-0.124-0.072-0.248-0.106-0.372    c-0.206-0.752-0.389-1.504-0.553-2.254c0,0,0,0,0,0c-0.036-0.165-0.072-0.329-0.105-0.493c-0.06-0.293-0.116-0.586-0.169-0.878    c-0.034-0.187-0.069-0.375-0.1-0.562c-0.003-0.018-0.007-0.035-0.009-0.053c-0.05-0.304-0.094-0.606-0.137-0.909    c-0.026-0.18-0.053-0.36-0.076-0.54c-0.082-0.648-0.144-1.293-0.19-1.933c-0.01-0.137-0.017-0.273-0.025-0.409    c-0.039-0.657-0.064-1.311-0.063-1.957c0.001-0.445,0.012-0.883,0.033-1.311c0.008-0.163,0.024-0.319,0.034-0.48    c0.017-0.262,0.032-0.527,0.056-0.783c0.016-0.165,0.039-0.323,0.058-0.485c0.028-0.243,0.053-0.489,0.088-0.725    c0.025-0.172,0.058-0.335,0.087-0.503c0.037-0.219,0.071-0.441,0.114-0.655c0.034-0.171,0.077-0.334,0.115-0.501    c0.046-0.202,0.088-0.408,0.139-0.604c0.043-0.167,0.094-0.325,0.141-0.487c0.054-0.188,0.105-0.381,0.164-0.564    c0.052-0.161,0.112-0.313,0.167-0.47c0.063-0.176,0.122-0.356,0.189-0.527c0.06-0.153,0.127-0.298,0.191-0.446    c0.071-0.166,0.138-0.335,0.214-0.495c0.067-0.144,0.142-0.279,0.212-0.418c0.079-0.157,0.156-0.317,0.24-0.468    c0.074-0.134,0.155-0.26,0.233-0.39c0.088-0.147,0.173-0.298,0.265-0.439c0.082-0.126,0.171-0.243,0.256-0.365    c0.095-0.136,0.188-0.275,0.287-0.405c0.09-0.118,0.186-0.228,0.279-0.342c0.102-0.124,0.201-0.252,0.307-0.371    c0.097-0.109,0.2-0.21,0.301-0.315c0.109-0.113,0.214-0.23,0.327-0.338c0.105-0.101,0.216-0.194,0.325-0.29    c0.114-0.101,0.226-0.206,0.343-0.302c0.112-0.092,0.23-0.175,0.345-0.262c0.12-0.091,0.239-0.185,0.362-0.271    c0.118-0.082,0.241-0.154,0.363-0.231c1.09-0.69,2.298-1.183,3.606-1.461c-2.428,2.731-3.853,6.885-3.868,12.234    c-0.002,0.646,0.024,1.3,0.063,1.958c0.008,0.136,0.015,0.272,0.025,0.408c0.045,0.64,0.108,1.284,0.19,1.933    c0.023,0.18,0.05,0.362,0.076,0.543c0.043,0.302,0.087,0.604,0.137,0.907c0.034,0.204,0.072,0.41,0.109,0.615    c0.053,0.293,0.109,0.587,0.169,0.88c0.034,0.164,0.07,0.328,0.105,0.493c0.163,0.75,0.346,1.501,0.552,2.253    c0.034,0.125,0.071,0.251,0.107,0.376c0.183,0.646,0.378,1.292,0.591,1.937c0.017,0.051,0.032,0.103,0.049,0.154    c0.209,0.627,0.436,1.252,0.673,1.875c0.06,0.157,0.121,0.315,0.182,0.472c0.205,0.525,0.419,1.049,0.642,1.57    c0.036,0.083,0.069,0.167,0.105,0.25c0.252,0.58,0.518,1.157,0.792,1.73c0.072,0.151,0.146,0.3,0.22,0.451    c0.223,0.455,0.452,0.907,0.688,1.357c0.072,0.138,0.143,0.277,0.217,0.415c0.302,0.564,0.613,1.123,0.934,1.677    c0.06,0.103,0.123,0.205,0.184,0.308c0.285,0.483,0.577,0.961,0.876,1.435c0.087,0.138,0.174,0.276,0.262,0.413    c0.371,0.576,0.751,1.145,1.142,1.705c0.059,0.084,0.119,0.166,0.178,0.249c0.408,0.576,0.826,1.143,1.254,1.7    c0.057,0.075,0.113,0.151,0.171,0.225c0.537,0.691,1.091,1.363,1.658,2.019c0.075,0.087,0.15,0.177,0.226,0.263    c0.347,0.396,0.698,0.786,1.055,1.168c0.021,0.023,0.042,0.046,0.063,0.069c0.378,0.403,0.763,0.795,1.151,1.18    c0.082,0.081,0.165,0.159,0.248,0.24c0.505,0.493,1.018,0.973,1.538,1.434c0.048,0.043,0.095,0.087,0.143,0.13    c0.54,0.474,1.089,0.925,1.644,1.361c0.106,0.083,0.211,0.167,0.318,0.249c0.547,0.421,1.1,0.823,1.659,1.205    c0.099,0.068,0.2,0.133,0.299,0.199c0.587,0.391,1.178,0.768,1.776,1.113c0.48,0.277,0.956,0.529,1.428,0.768    c0.137,0.069,0.273,0.134,0.409,0.2c0.36,0.174,0.718,0.338,1.073,0.49c0.127,0.054,0.254,0.112,0.38,0.164    c0.334,0.137,0.665,0.261,0.995,0.378c0.082,0.029,0.166,0.064,0.248,0.092c0.41,0.14,0.815,0.264,1.216,0.375    c0.238,0.065,0.472,0.121,0.706,0.176c0.108,0.025,0.217,0.056,0.324,0.079c0.343,0.074,0.683,0.138,1.019,0.189    c0.512,0.079,1.013,0.123,1.507,0.151c0.1,0.006,0.201,0.013,0.3,0.016c0.443,0.016,0.879,0.014,1.306-0.011    c0.074-0.004,0.147-0.014,0.221-0.019c0.346-0.026,0.685-0.066,1.019-0.119c0.104-0.017,0.209-0.032,0.312-0.051    c0.111-0.021,0.217-0.053,0.328-0.076c-0.822,0.928-1.759,1.693-2.796,2.285c-0.003,0.002-0.006,0.003-0.009,0.005    c-0.037,0.021-0.077,0.038-0.115,0.059c-0.023,0.011-0.046,0.021-0.068,0.033c-0.271,0.147-0.549,0.283-0.833,0.407    c-0.006,0.003-0.012,0.006-0.018,0.009c-0.096,0.042-0.193,0.082-0.29,0.121c-0.296,0.119-0.599,0.225-0.907,0.32    c-0.057,0.017-0.112,0.038-0.169,0.055c-0.357,0.102-0.723,0.184-1.096,0.253c-0.008,0.001-0.016,0.004-0.023,0.005    c-0.096,0.018-0.194,0.031-0.291,0.046c-0.327,0.052-0.66,0.091-0.999,0.117c-0.087,0.007-0.173,0.017-0.261,0.022    c-0.42,0.024-0.848,0.026-1.283,0.01c-0.007,0-0.013,0-0.019,0c-0.092-0.003-0.185-0.011-0.277-0.016c-0.001,0-0.002,0-0.003,0    c-0.237-0.013-0.476-0.031-0.717-0.054c-0.269-0.028-0.539-0.059-0.813-0.101c-0.172-0.027-0.348-0.064-0.522-0.097    c-0.165-0.031-0.329-0.057-0.496-0.094c-0.1-0.022-0.202-0.05-0.302-0.073c-0.03-0.007-0.06-0.015-0.09-0.022    c-0.21-0.05-0.419-0.1-0.632-0.158c-0.396-0.109-0.797-0.232-1.201-0.37c-0.082-0.028-0.166-0.063-0.248-0.092    c-0.329-0.117-0.66-0.242-0.995-0.379c-0.003-0.001-0.007-0.003-0.01-0.004c-0.121-0.05-0.243-0.105-0.365-0.157    c-0.002-0.001-0.003-0.002-0.005-0.002c-0.355-0.152-0.713-0.316-1.074-0.491c-0.078-0.038-0.157-0.077-0.236-0.115    c-0.058-0.029-0.115-0.056-0.174-0.085c-0.472-0.239-0.947-0.49-1.427-0.767c-0.599-0.346-1.189-0.722-1.776-1.113    c-0.027-0.018-0.054-0.035-0.08-0.053c-0.073-0.048-0.146-0.096-0.219-0.146c-0.56-0.382-1.112-0.784-1.659-1.205    c-0.069-0.053-0.138-0.108-0.207-0.162c-0.037-0.029-0.073-0.057-0.11-0.086c-0.555-0.437-1.104-0.887-1.644-1.361    c-0.03-0.026-0.059-0.053-0.089-0.08c-0.019-0.016-0.037-0.034-0.056-0.05c-0.52-0.461-1.032-0.939-1.536-1.432    c-0.083-0.081-0.167-0.16-0.25-0.242c-0.388-0.385-0.772-0.776-1.149-1.178C317.027,108.906,317.004,108.878,316.98,108.852z"/>
		<g>
			<g>
				<polygon style="fill:#FFFFFF;" points="344.212,96.554 344.208,97.941 348.12,100.199 348.124,98.813     "/>
			</g>
			<g>
				<polygon style="fill:#FFFFFF;" points="312.561,67.309 311.957,68.156 315.343,72.365 315.947,71.511     "/>
			</g>
			<g>
				<path style="fill:#E0E0E0;" d="M351.433,101.421c-0.04,14.305-10.169,20.07-22.618,12.883      c-12.449-7.187-22.511-24.61-22.471-38.915c0.041-14.311,10.169-20.077,22.618-12.889      C341.411,69.687,351.473,87.11,351.433,101.421z M318.703,87.599c0.097,0.317,0.318,0.601,0.551,0.735      c0.081,0.047,0.162,0.075,0.238,0.081l9.575,0.75c0.149,0.031,0.282-0.014,0.357-0.141l6.267-10.616      c0.147-0.258,0.029-0.743-0.268-1.089c-0.086-0.098-0.177-0.174-0.266-0.226c-0.22-0.127-0.432-0.11-0.541,0.071l-6.163,10.452      l-9.433-0.745C318.716,86.853,318.574,87.176,318.703,87.599 M337.111,78.226l1.97-2.767l-1.042-1.293l-1.969,2.767      L337.111,78.226 M337.928,113.139l1.046-0.087l-1.947-5.029l-1.046,0.087L337.928,113.139 M312.495,90.609l3.399-0.292      l-0.597-1.547l-3.399,0.292L312.495,90.609 M345.216,109.501l0.604-0.853l-3.386-4.209l-0.604,0.853L345.216,109.501       M312.561,67.309l-0.604,0.847l3.386,4.209l0.604-0.853L312.561,67.309 M342.48,88.032l3.399-0.292l-0.597-1.54l-3.399,0.286      L342.48,88.032 M319.844,63.661l-1.041,0.09l1.948,5.029l1.041-0.09L319.844,63.661 M319.733,102.634l1.97-2.767l-1.037-1.29      l-1.97,2.767L319.733,102.634 M313.564,80.249l0.004-1.386l-3.917-2.261l-0.004,1.386L313.564,80.249 M348.124,98.813      l-3.912-2.258l-0.004,1.386l3.912,2.258L348.124,98.813 M328.225,110.158l1.201,0.693l0.013-4.501l-1.201-0.693L328.225,110.158       M329.551,66.645l-1.201-0.693l-0.013,4.501l1.201,0.693L329.551,66.645"/>
			</g>
			<g>
				<polygon style="fill:#FFFFFF;" points="328.35,65.951 328.338,70.452 329.539,71.145 329.551,66.645     "/>
			</g>
			<g>
				<polygon style="fill:#FFFFFF;" points="338.038,74.166 336.069,76.933 337.111,78.226 339.08,75.459     "/>
			</g>
			<g>
				<polygon style="fill:#FFFFFF;" points="345.282,86.2 341.883,86.486 342.48,88.032 345.879,87.741     "/>
			</g>
			<g>
				<polygon style="fill:#FFFFFF;" points="342.434,104.438 341.83,105.291 345.216,109.501 345.82,108.647     "/>
			</g>
			<g>
				<polygon style="fill:#FFFFFF;" points="337.026,108.023 335.98,108.11 337.928,113.139 338.974,113.051     "/>
			</g>
			<g>
				<polygon style="fill:#FFFFFF;" points="328.238,105.657 328.225,110.158 329.426,110.852 329.439,106.351     "/>
			</g>
			<g>
				<polygon style="fill:#FFFFFF;" points="320.666,98.577 318.696,101.344 319.733,102.634 321.703,99.867     "/>
			</g>
			<g>
				<polygon style="fill:#FFFFFF;" points="315.296,88.771 311.898,89.062 312.495,90.609 315.893,90.317     "/>
			</g>
			<g>
				<polygon style="fill:#FFFFFF;" points="309.652,76.601 309.648,77.987 313.564,80.249 313.568,78.862     "/>
			</g>
			<g>
				<polygon style="fill:#FFFFFF;" points="319.844,63.661 318.803,63.751 320.75,68.78 321.791,68.69     "/>
			</g>
			<g>
				<path style="fill:#FFFFFF;" d="M328.893,87.713c-0.08-0.047-0.162-0.075-0.241-0.08l-0.2-0.016l-9.433-0.745      c-0.303-0.02-0.445,0.303-0.316,0.727c0.097,0.317,0.318,0.601,0.551,0.735c0.081,0.047,0.162,0.075,0.238,0.081l9.575,0.75      l0.058,0.005c0.303,0.026,0.445-0.297,0.316-0.726C329.341,88.128,329.123,87.845,328.893,87.713z"/>
			</g>
			<g>
				<path style="fill:#F5F5F5;" d="M335.156,77.094c-0.22-0.127-0.432-0.11-0.541,0.071l-6.163,10.452l0.2,0.016      c0.079,0.005,0.16,0.033,0.241,0.08c0.23,0.133,0.449,0.415,0.548,0.731c0.129,0.429-0.013,0.752-0.316,0.726l-0.058-0.005      c0.149,0.031,0.282-0.013,0.357-0.141l6.268-10.616c0.147-0.258,0.029-0.743-0.268-1.089      C335.337,77.221,335.246,77.146,335.156,77.094z"/>
			</g>
		</g>
		<path style="fill:#EBEBEB;" d="M344.323,119.055c0.121-0.092,0.245-0.179,0.363-0.275c0.129-0.106,0.252-0.221,0.377-0.332    c0.115-0.103,0.233-0.201,0.346-0.309c0.121-0.116,0.236-0.243,0.353-0.365c0.109-0.113,0.22-0.223,0.326-0.341    c0.113-0.128,0.22-0.265,0.33-0.399c0.101-0.124,0.206-0.243,0.304-0.371c0.106-0.139,0.204-0.287,0.306-0.432    c0.094-0.134,0.191-0.263,0.281-0.401c0.098-0.151,0.189-0.311,0.282-0.467c0.085-0.143,0.174-0.281,0.256-0.428    c0.09-0.162,0.172-0.334,0.258-0.502c0.077-0.152,0.158-0.299,0.231-0.455c0.082-0.174,0.155-0.358,0.232-0.538    c0.068-0.16,0.141-0.315,0.205-0.48c0.073-0.187,0.138-0.384,0.207-0.577c0.059-0.167,0.123-0.329,0.178-0.501    c0.064-0.198,0.119-0.406,0.178-0.61c0.051-0.176,0.106-0.347,0.152-0.527c0.054-0.209,0.099-0.427,0.148-0.642    c0.042-0.185,0.089-0.364,0.126-0.553c0.046-0.227,0.082-0.464,0.121-0.697c0.031-0.185,0.068-0.365,0.095-0.554    c0.038-0.262,0.066-0.535,0.097-0.804c0.019-0.169,0.044-0.332,0.061-0.504c0.029-0.3,0.046-0.61,0.066-0.918    c0.01-0.15,0.025-0.295,0.032-0.446c0.022-0.464,0.034-0.936,0.036-1.418c0.002-0.699-0.026-1.407-0.068-2.118l0,0    c-0.003-0.045-0.006-0.09-0.008-0.135c-0.05-0.793-0.122-1.591-0.224-2.396c0,0,0,0,0,0c-0.011-0.088-0.025-0.177-0.037-0.265    c-0.058-0.433-0.121-0.867-0.193-1.303c0,0,0,0,0-0.001c-0.036-0.22-0.077-0.44-0.117-0.66c0,0,0-0.001,0-0.001    c-0.058-0.318-0.118-0.636-0.184-0.955c0,0,0,0,0,0c-0.011-0.053-0.023-0.106-0.034-0.159c-0.37-1.771-0.85-3.552-1.436-5.326l0,0    c0-0.001-0.001-0.003-0.001-0.004c-0.766-2.317-1.71-4.62-2.804-6.87c-0.024-0.048-0.047-0.097-0.071-0.145c0,0,0,0,0,0    c-0.617-1.262-1.279-2.507-1.987-3.726c0,0,0,0,0-0.001c-0.066-0.113-0.135-0.225-0.201-0.338c0,0,0,0,0-0.001    c-0.321-0.543-0.65-1.081-0.987-1.614c-0.08-0.127-0.16-0.253-0.241-0.379c0,0,0,0,0,0c-0.921-1.429-1.899-2.815-2.93-4.144    c-0.012-0.015-0.023-0.031-0.035-0.046c0,0,0,0,0,0c-1.016-1.306-2.08-2.558-3.188-3.742c0,0,0,0-0.001-0.001    c-0.003-0.003-0.005-0.006-0.008-0.008c-0.423-0.452-0.854-0.894-1.289-1.326c0,0,0,0,0-0.001    c-0.069-0.068-0.139-0.135-0.209-0.202c-0.566-0.555-1.141-1.093-1.726-1.61c0,0-0.001-0.001-0.001-0.001    c-0.022-0.019-0.043-0.039-0.064-0.058c-0.612-0.539-1.234-1.053-1.863-1.549c0,0,0,0-0.001,0    c-0.114-0.089-0.227-0.179-0.341-0.267c0,0,0,0-0.001,0c-0.591-0.455-1.188-0.89-1.793-1.302h0    c-0.024-0.017-0.049-0.033-0.073-0.049c-0.384-0.261-0.77-0.513-1.158-0.756c-0.335-0.212-0.672-0.418-1.012-0.614    c-0.519-0.3-1.033-0.571-1.544-0.829c0,0,0,0,0,0c-0.014-0.007-0.029-0.014-0.043-0.021c-1.582-0.796-3.124-1.4-4.611-1.811    c-0.005-0.001-0.011-0.004-0.016-0.005c-0.143-0.039-0.283-0.071-0.424-0.105c-0.223-0.056-0.447-0.116-0.667-0.164    c-0.007-0.002-0.015-0.004-0.022-0.006c-0.156-0.034-0.309-0.057-0.464-0.086c-0.206-0.039-0.414-0.083-0.618-0.115    c-0.007-0.001-0.014-0.003-0.022-0.004c-0.012-0.002-0.024-0.003-0.037-0.005c-0.153-0.023-0.304-0.037-0.456-0.055    c-0.269-0.034-0.536-0.064-0.8-0.084c-0.02-0.001-0.04-0.003-0.061-0.004c-0.083-0.006-0.164-0.009-0.246-0.013    c-0.592-0.034-1.173-0.04-1.739-0.008c-0.008,0-0.016,0-0.024,0c-0.081,0.005-0.159,0.015-0.239,0.021    c-0.006,0-0.011,0.001-0.017,0.002c-0.367,0.028-0.727,0.07-1.082,0.126c-0.001,0-0.002,0-0.003,0    c-0.006,0.001-0.013,0.002-0.019,0.003c-0.513,0.082-1.017,0.186-1.504,0.326c-0.01,0.003-0.022,0.004-0.032,0.007    c-0.019,0.006-0.036,0.013-0.055,0.018c-0.031,0.009-0.061,0.023-0.092,0.032c-0.335,0.102-0.663,0.218-0.984,0.347    c-0.007,0.003-0.014,0.005-0.021,0.007c-0.05,0.02-0.099,0.042-0.149,0.063c-0.45,0.189-0.889,0.397-1.309,0.639    c-0.014,0.008-0.029,0.015-0.044,0.023l5.972-3.471c0.044-0.026,0.089-0.051,0.134-0.076c0.051-0.029,0.107-0.049,0.158-0.077    c0.293-0.159,0.592-0.305,0.899-0.439c0.057-0.025,0.11-0.058,0.167-0.082c0.047-0.02,0.097-0.032,0.144-0.051    c0.358-0.144,0.722-0.276,1.097-0.387c0.016-0.005,0.03-0.012,0.046-0.016c0.003-0.001,0.006-0.001,0.009-0.002    c0.396-0.115,0.804-0.204,1.217-0.281c0.048-0.009,0.093-0.024,0.142-0.033c0.064-0.011,0.131-0.013,0.195-0.023    c0.361-0.057,0.728-0.101,1.101-0.129c0.06-0.005,0.116-0.017,0.176-0.021c0.021-0.001,0.043,0.001,0.063,0    c0.461-0.027,0.933-0.029,1.412-0.012c0.047,0.002,0.091-0.003,0.138-0.001c0.151,0.007,0.306,0.022,0.459,0.033    c0.109,0.008,0.217,0.014,0.327,0.024c0.327,0.03,0.656,0.069,0.99,0.12c0.012,0.002,0.024,0.003,0.036,0.005    c0.002,0,0.003,0,0.005,0.001c0.362,0.056,0.729,0.125,1.099,0.204c0.115,0.025,0.233,0.058,0.349,0.085    c0.232,0.054,0.462,0.106,0.697,0.169c0.023,0.006,0.046,0.015,0.068,0.021c0.434,0.119,0.872,0.253,1.314,0.405    c0.09,0.031,0.181,0.068,0.27,0.1c0.356,0.127,0.713,0.261,1.074,0.409c0.048,0.02,0.095,0.035,0.143,0.054    c0.088,0.037,0.179,0.084,0.267,0.122c0.384,0.165,0.771,0.341,1.16,0.53c0.147,0.071,0.293,0.141,0.441,0.216    c0.511,0.258,1.025,0.53,1.544,0.83c0.647,0.374,1.286,0.78,1.92,1.203c0.108,0.072,0.216,0.142,0.324,0.215    c0.605,0.413,1.202,0.848,1.793,1.302c0.115,0.088,0.228,0.179,0.343,0.269c0.6,0.472,1.195,0.96,1.779,1.472    c0.051,0.044,0.1,0.091,0.151,0.136c0.564,0.499,1.119,1.018,1.666,1.553c0.055,0.053,0.112,0.102,0.167,0.156    c0.034,0.034,0.067,0.07,0.101,0.104c0.42,0.416,0.835,0.84,1.244,1.275c0.021,0.022,0.04,0.045,0.061,0.067    c0.388,0.415,0.77,0.839,1.147,1.269c0.036,0.041,0.073,0.079,0.109,0.12c0.046,0.052,0.088,0.11,0.133,0.162    c0.612,0.709,1.212,1.436,1.793,2.183c0.016,0.021,0.034,0.041,0.051,0.062c0.044,0.057,0.085,0.118,0.13,0.176    c0.462,0.601,0.914,1.214,1.354,1.837c0.045,0.063,0.093,0.123,0.138,0.187c0.021,0.03,0.04,0.061,0.061,0.091    c0.422,0.604,0.832,1.218,1.232,1.839c0.038,0.059,0.08,0.116,0.118,0.176c0.057,0.09,0.11,0.183,0.167,0.273    c0.322,0.51,0.637,1.024,0.943,1.544c0.048,0.082,0.101,0.161,0.149,0.244c0.018,0.031,0.035,0.064,0.053,0.095    c0.347,0.598,0.683,1.202,1.009,1.811c0.026,0.049,0.055,0.097,0.081,0.146c0.053,0.1,0.101,0.203,0.154,0.304    c0.254,0.485,0.502,0.973,0.742,1.464c0.05,0.102,0.105,0.202,0.154,0.304c0.03,0.062,0.056,0.124,0.085,0.186    c0.297,0.621,0.585,1.245,0.858,1.874c0.008,0.019,0.017,0.037,0.025,0.055c0.028,0.065,0.052,0.13,0.08,0.195    c0.244,0.57,0.478,1.142,0.702,1.716c0.036,0.092,0.077,0.184,0.113,0.276c0.03,0.078,0.055,0.156,0.084,0.234    c0.256,0.675,0.501,1.351,0.728,2.029c0.004,0.012,0.009,0.025,0.013,0.037c0.013,0.039,0.023,0.078,0.036,0.117    c0.232,0.701,0.444,1.402,0.642,2.104c0.025,0.088,0.056,0.175,0.08,0.263c0.013,0.049,0.022,0.097,0.036,0.145    c0.223,0.813,0.421,1.626,0.597,2.437c0.016,0.072,0.038,0.144,0.053,0.216c0.023,0.106,0.039,0.211,0.061,0.317    c0.066,0.319,0.126,0.637,0.184,0.955c0.04,0.221,0.081,0.442,0.117,0.662c0.055,0.329,0.102,0.657,0.149,0.984    c0.022,0.154,0.05,0.308,0.07,0.462c0.005,0.041,0.007,0.08,0.012,0.121c0.089,0.702,0.156,1.399,0.205,2.093    c0.01,0.147,0.018,0.293,0.027,0.44c0.042,0.711,0.07,1.419,0.068,2.118c-0.022,7.682-2.734,13.088-7.109,15.63l-5.972,3.471    c0.129-0.075,0.253-0.161,0.379-0.242c0.128-0.081,0.258-0.158,0.382-0.244C344.059,119.26,344.19,119.156,344.323,119.055z"/>
		<path style="fill:#FFFFFF;" d="M301.528,76.07c-0.044,15.461,10.833,34.301,24.294,42.072c6.971,4.025,13.261,4.283,17.718,1.457    c0.128-0.081,0.258-0.158,0.382-0.244c0.137-0.095,0.268-0.199,0.402-0.3c0.121-0.092,0.245-0.179,0.363-0.275    c0.129-0.106,0.252-0.221,0.377-0.332c0.115-0.103,0.233-0.201,0.346-0.309c0.121-0.117,0.236-0.243,0.353-0.365    c0.109-0.113,0.22-0.223,0.326-0.341c0.113-0.128,0.22-0.265,0.33-0.399c0.101-0.124,0.206-0.243,0.304-0.371    c0.106-0.139,0.204-0.287,0.306-0.432c0.094-0.134,0.191-0.263,0.281-0.401c0.098-0.151,0.189-0.311,0.282-0.467    c0.085-0.143,0.174-0.281,0.256-0.428c0.09-0.162,0.172-0.334,0.258-0.502c0.077-0.152,0.158-0.299,0.231-0.455    c0.082-0.174,0.155-0.358,0.232-0.538c0.068-0.16,0.141-0.315,0.205-0.48c0.073-0.187,0.138-0.384,0.207-0.577    c0.059-0.167,0.123-0.329,0.178-0.501c0.064-0.198,0.119-0.406,0.178-0.61c0.051-0.176,0.106-0.347,0.152-0.527    c0.054-0.209,0.099-0.427,0.148-0.642c0.042-0.185,0.089-0.364,0.126-0.553c0.046-0.227,0.082-0.464,0.121-0.697    c0.031-0.185,0.068-0.365,0.095-0.554c0.038-0.262,0.066-0.535,0.097-0.804c0.019-0.169,0.044-0.332,0.061-0.504    c0.029-0.3,0.046-0.61,0.066-0.918c0.01-0.15,0.025-0.295,0.032-0.446c0.022-0.464,0.034-0.936,0.036-1.418    c0.002-0.699-0.026-1.407-0.068-2.118c-0.003-0.045-0.006-0.09-0.008-0.135c-0.05-0.793-0.122-1.591-0.224-2.396    c-0.011-0.088-0.025-0.177-0.037-0.266c-0.058-0.433-0.121-0.867-0.193-1.303c-0.036-0.22-0.077-0.441-0.117-0.661    c-0.058-0.318-0.118-0.636-0.184-0.955c-0.011-0.053-0.023-0.106-0.034-0.159c-0.37-1.771-0.85-3.552-1.436-5.326    c0-0.001-0.001-0.003-0.001-0.004c-0.766-2.317-1.71-4.62-2.804-6.87c-0.024-0.049-0.047-0.097-0.071-0.145    c-0.617-1.262-1.279-2.507-1.987-3.726c-0.066-0.114-0.135-0.226-0.202-0.339c-0.321-0.543-0.65-1.081-0.987-1.614    c-0.08-0.127-0.16-0.254-0.241-0.38c-0.921-1.429-1.899-2.815-2.93-4.144c-0.012-0.015-0.023-0.031-0.035-0.046    c-1.016-1.306-2.08-2.558-3.188-3.742c-0.003-0.003-0.006-0.006-0.009-0.009c-0.423-0.452-0.854-0.894-1.289-1.326    c-0.069-0.069-0.14-0.134-0.21-0.203c-0.566-0.555-1.141-1.093-1.726-1.61c-0.022-0.019-0.043-0.04-0.065-0.059    c-0.612-0.539-1.234-1.053-1.863-1.549c-0.114-0.09-0.228-0.18-0.342-0.268c-0.591-0.455-1.188-0.89-1.793-1.302    c-0.024-0.017-0.049-0.032-0.073-0.049c-0.384-0.261-0.77-0.513-1.158-0.756c-0.336-0.21-0.672-0.418-1.012-0.614    c-0.519-0.3-1.033-0.571-1.544-0.829c-0.014-0.007-0.029-0.014-0.043-0.021c-1.582-0.796-3.124-1.4-4.611-1.811    c-0.148-0.041-0.294-0.073-0.44-0.11c-0.223-0.056-0.447-0.116-0.667-0.164c-0.164-0.035-0.324-0.061-0.487-0.092    c-0.206-0.039-0.414-0.083-0.618-0.115c-0.173-0.027-0.342-0.042-0.514-0.064c-0.269-0.034-0.536-0.064-0.8-0.084    c-0.103-0.008-0.205-0.012-0.307-0.018c-0.592-0.034-1.173-0.04-1.739-0.008c-0.094,0.005-0.186,0.016-0.279,0.023    c-0.367,0.028-0.727,0.07-1.082,0.126c-0.007,0.001-0.014,0.002-0.021,0.003c-0.513,0.082-1.017,0.186-1.504,0.326    c-0.061,0.017-0.119,0.04-0.179,0.058c-0.335,0.102-0.663,0.218-0.984,0.347c-0.057,0.023-0.113,0.047-0.17,0.071    c-0.45,0.189-0.889,0.397-1.309,0.639C304.281,62.946,301.55,68.361,301.528,76.07z M317.052,108.931    c-0.024-0.026-0.048-0.053-0.072-0.079c-0.354-0.378-0.702-0.765-1.046-1.158c-0.076-0.087-0.151-0.177-0.227-0.265    c-0.566-0.655-1.119-1.326-1.656-2.017c-0.059-0.075-0.115-0.153-0.174-0.229c-0.427-0.555-0.844-1.12-1.25-1.696    c-0.06-0.084-0.121-0.167-0.181-0.252c-0.391-0.559-0.77-1.127-1.14-1.702c-0.089-0.138-0.176-0.277-0.264-0.416    c-0.299-0.474-0.592-0.951-0.876-1.434c-0.06-0.102-0.122-0.203-0.182-0.305c-0.322-0.554-0.633-1.113-0.934-1.677    c-0.075-0.14-0.147-0.281-0.221-0.422c-0.235-0.448-0.463-0.898-0.684-1.351c-0.074-0.151-0.149-0.301-0.221-0.453    c-0.274-0.573-0.539-1.149-0.792-1.729c-0.036-0.083-0.07-0.168-0.105-0.251c-0.224-0.521-0.437-1.045-0.642-1.569    c-0.061-0.157-0.122-0.314-0.182-0.471c-0.237-0.624-0.464-1.249-0.673-1.876c-0.017-0.051-0.032-0.102-0.049-0.153    c-0.214-0.646-0.409-1.294-0.592-1.941c-0.035-0.124-0.072-0.248-0.106-0.372c-0.206-0.752-0.389-1.504-0.553-2.254    c-0.036-0.165-0.072-0.329-0.105-0.493c-0.06-0.293-0.116-0.586-0.169-0.878c-0.034-0.187-0.069-0.375-0.1-0.562    c-0.054-0.321-0.101-0.642-0.146-0.962c-0.026-0.18-0.053-0.36-0.076-0.54c-0.082-0.648-0.144-1.293-0.19-1.933    c-0.01-0.137-0.017-0.273-0.025-0.409c-0.039-0.657-0.064-1.311-0.063-1.957c0.001-0.445,0.012-0.883,0.033-1.311    c0.008-0.163,0.024-0.319,0.034-0.48c0.017-0.262,0.032-0.527,0.056-0.783c0.016-0.165,0.039-0.323,0.058-0.485    c0.028-0.243,0.053-0.489,0.088-0.725c0.025-0.172,0.058-0.335,0.087-0.503c0.037-0.219,0.071-0.441,0.114-0.655    c0.034-0.171,0.077-0.334,0.115-0.501c0.046-0.202,0.088-0.408,0.139-0.604c0.043-0.167,0.094-0.325,0.141-0.487    c0.054-0.188,0.105-0.381,0.164-0.564c0.052-0.161,0.112-0.313,0.167-0.47c0.063-0.176,0.122-0.356,0.189-0.527    c0.06-0.153,0.127-0.298,0.191-0.446c0.071-0.166,0.138-0.335,0.214-0.495c0.067-0.144,0.142-0.279,0.212-0.418    c0.079-0.157,0.156-0.317,0.24-0.468c0.074-0.134,0.155-0.26,0.233-0.39c0.088-0.147,0.173-0.298,0.265-0.439    c0.082-0.126,0.171-0.243,0.256-0.365c0.095-0.136,0.188-0.275,0.287-0.405c0.09-0.118,0.186-0.228,0.279-0.342    c0.102-0.124,0.201-0.252,0.307-0.371c0.097-0.109,0.201-0.21,0.301-0.315c0.109-0.113,0.214-0.23,0.327-0.338    c0.105-0.101,0.216-0.194,0.325-0.29c0.114-0.101,0.226-0.206,0.343-0.302c0.112-0.092,0.23-0.175,0.345-0.262    c0.12-0.091,0.239-0.185,0.362-0.271c0.118-0.082,0.241-0.154,0.363-0.231c1.09-0.69,2.298-1.183,3.606-1.461    c3.638-0.775,8.038,0.079,12.777,2.815c12.449,7.187,22.512,24.61,22.471,38.921c-0.015,5.337-1.436,9.483-3.855,12.213    c-0.822,0.928-1.759,1.693-2.796,2.285c-0.003,0.002-0.006,0.003-0.009,0.005c-0.037,0.021-0.077,0.038-0.115,0.059    c-0.298,0.165-0.605,0.313-0.919,0.449c-0.096,0.042-0.193,0.082-0.29,0.121c-0.296,0.119-0.598,0.226-0.907,0.32    c-0.057,0.017-0.112,0.038-0.169,0.055c-0.364,0.104-0.738,0.188-1.119,0.258c-0.096,0.018-0.194,0.031-0.291,0.046    c-0.328,0.052-0.66,0.091-0.999,0.117c-0.087,0.007-0.173,0.017-0.261,0.022c-0.426,0.024-0.861,0.027-1.303,0.01    c-0.092-0.003-0.185-0.011-0.277-0.016c-0.238-0.013-0.477-0.029-0.72-0.054c-0.269-0.028-0.539-0.059-0.813-0.101    c-0.172-0.027-0.348-0.065-0.522-0.097c-0.165-0.031-0.329-0.057-0.496-0.094c-0.13-0.028-0.262-0.064-0.392-0.095    c-0.21-0.05-0.419-0.1-0.632-0.158c-0.801-0.221-1.62-0.503-2.454-0.845c-0.121-0.05-0.243-0.105-0.365-0.157    c-0.434-0.186-0.872-0.389-1.314-0.608c-0.058-0.029-0.115-0.056-0.174-0.085c-0.472-0.239-0.947-0.49-1.427-0.767    c-0.599-0.346-1.189-0.722-1.776-1.113c-0.027-0.018-0.054-0.035-0.08-0.053c-0.705-0.473-1.4-0.978-2.086-1.513    c-0.037-0.029-0.073-0.057-0.11-0.086c-0.585-0.46-1.164-0.939-1.733-1.441c-0.019-0.016-0.037-0.034-0.056-0.05    c-0.52-0.461-1.032-0.939-1.536-1.432c-0.083-0.081-0.167-0.16-0.25-0.242C317.813,109.725,317.429,109.334,317.052,108.931z"/>
	</g>
</g>
<g id="Speech_bubbles">
	<g>
		<g>
			<path style="fill:#da26ff;" d="M220.377,194.816l34.266-19.658c3.002-1.722,10.106,0.612,10.106,5.437     c0-1.714-1.853-2.786-3.339-1.934l-34.265,19.658c-1.154,0.662-2.027,1.655-2.607,2.802l-6.652-3.779     C218.467,196.309,219.313,195.426,220.377,194.816z"/>
			<path style="fill:#da26ff;" d="M224.538,201.121c-0.465,0.92-0.753,1.933-0.753,2.999v19.687c0,1.712,1.849,2.785,3.335,1.936     c-5.02,2.868-10.102-0.95-10.102-5.439v-19.687c0-1.169,0.314-2.29,0.868-3.274L224.538,201.121z"/>
		</g>
		<path style="opacity:0.4;fill:#FFFFFF;" d="M220.377,194.816l34.266-19.658c3.002-1.722,10.106,0.612,10.106,5.437    c0-1.714-1.853-2.786-3.339-1.934l-34.265,19.658c-1.154,0.662-2.027,1.655-2.607,2.802l-6.652-3.779    C218.467,196.309,219.313,195.426,220.377,194.816z"/>
		<path style="opacity:0.2;fill:#FFFFFF;" d="M224.538,201.121c-0.465,0.92-0.753,1.933-0.753,2.999v19.687    c0,1.712,1.849,2.785,3.335,1.936c-5.02,2.868-10.102-0.95-10.102-5.439v-19.687c0-1.169,0.314-2.29,0.868-3.274L224.538,201.121z    "/>
		<g>
			<path style="fill:#da26ff;" d="M261.41,178.661l-34.265,19.658c-2.078,1.192-3.36,3.405-3.36,5.801v19.687     c0,1.712,1.849,2.785,3.335,1.936l34.259-19.577c2.084-1.191,3.37-3.407,3.37-5.807v-19.765     C264.749,178.881,262.896,177.808,261.41,178.661z"/>
			<path style="fill:#da26ff;" d="M215.537,217.104l8.238,1.539V208.08l-8.523,8.056     C214.916,216.454,215.082,217.019,215.537,217.104z"/>
		</g>
		<g>
			<g>
				<path style="fill:#FFFFFF;" d="M255.515,192.883c-1.742,1.006-3.152,3.428-3.146,5.43c0.006,2.002,1.425,2.791,3.167,1.785      c1.725-0.996,3.135-3.418,3.129-5.42C258.659,192.676,257.24,191.887,255.515,192.883z"/>
			</g>
			<g>
				<path style="fill:#FFFFFF;" d="M244.372,199.316c-1.742,1.006-3.152,3.428-3.146,5.43s1.425,2.791,3.167,1.785      c1.725-0.996,3.135-3.418,3.129-5.419C247.516,199.109,246.097,198.32,244.372,199.316z"/>
			</g>
			<g>
				<path style="fill:#FFFFFF;" d="M233.23,205.749c-1.742,1.006-3.135,3.418-3.129,5.42s1.407,2.8,3.149,1.795      c1.742-1.006,3.135-3.418,3.129-5.419C236.374,205.542,234.972,204.743,233.23,205.749z"/>
			</g>
		</g>
		<path style="fill:#da26ff;" d="M223.774,208.08l-6.757-3.873l-8.512,8.147c-0.276,0.26-0.222,0.713,0.107,0.902l6.736,3.776    L223.774,208.08z"/>
		<path style="opacity:0.2;fill:#FFFFFF;" d="M223.774,208.08l-6.757-3.873l-8.512,8.147c-0.276,0.26-0.222,0.713,0.107,0.902    l6.736,3.776L223.774,208.08z"/>
	</g>
	<g>
		<path style="fill:none;" d="M411.562,136.574c0.001,0.001,0.003,0.003,0.005,0.004    C411.565,136.576,411.563,136.575,411.562,136.574z"/>
		<path style="fill:#FFFFFF;" d="M382.604,130.629c1.729,0.998,3.128,3.402,3.122,5.388c-0.006,1.986-1.414,2.769-3.142,1.771    c-1.712-0.988-3.111-3.392-3.105-5.378C379.484,130.423,380.892,129.641,382.604,130.629z"/>
		<path style="fill:#FFFFFF;" d="M393.661,137.013c1.729,0.998,3.128,3.401,3.122,5.388c-0.006,1.986-1.414,2.769-3.143,1.771    c-1.712-0.988-3.111-3.392-3.105-5.378C390.541,136.807,391.949,136.024,393.661,137.013z"/>
		<path style="fill:#FFFFFF;" d="M404.697,150.556c-1.729-0.998-3.111-3.392-3.105-5.378c0.005-1.986,1.396-2.779,3.125-1.781    c1.729,0.998,3.111,3.392,3.105,5.378C407.817,150.761,406.426,151.554,404.697,150.556z"/>
		<path style="fill:#da26ff;" d="M373.441,118.434v19.613c0,2.382,1.276,4.581,3.344,5.762l26.235,14.991l0,0l-4.531-2.589    l2.175,6.168c0.07,0.2,0.275,0.273,0.452,0.223l-0.009,0.025c0.385-0.198,2.095-1.115,3.068-1.759    c0.006-0.003,0.011-0.008,0.017-0.011c0.02-0.014,0.045-0.029,0.065-0.042l-0.004-0.012c0.03-0.025,0.065-0.042,0.087-0.078    l0.534-0.866l5.909,3.376c4.982,2.847,10.025-0.943,10.025-5.397v-19.536c0-1.16-0.312-2.272-0.861-3.249    c-0.577-1.025-1.416-1.902-2.473-2.508l-34.003-19.507C380.49,111.33,373.441,113.647,373.441,118.434z M401.593,145.178    c0.005-1.986,1.396-2.779,3.125-1.781c1.729,0.998,3.111,3.392,3.105,5.378c-0.006,1.987-1.397,2.779-3.125,1.781    C402.969,149.558,401.587,147.164,401.593,145.178z M390.535,138.794c0.005-1.986,1.414-2.769,3.125-1.781    c1.729,0.998,3.128,3.401,3.122,5.388c-0.006,1.986-1.414,2.769-3.143,1.771C391.929,143.184,390.53,140.78,390.535,138.794z     M379.478,132.41c0.005-1.987,1.414-2.769,3.125-1.781c1.729,0.998,3.128,3.402,3.122,5.388c-0.006,1.986-1.414,2.769-3.142,1.771    C380.872,136.8,379.473,134.396,379.478,132.41z"/>
		<path style="opacity:0.2;fill:#FFFFFF;" d="M404.338,160.726c-0.022,0.036-0.057,0.053-0.087,0.078l0.004,0.012    c-0.02,0.013-0.044,0.028-0.065,0.042c-0.006,0.003-0.01,0.008-0.017,0.011c-0.973,0.644-2.683,1.562-3.068,1.759l0.009-0.025    c0.083-0.024,0.161-0.066,0.214-0.151l2.107-3.412l-0.417-0.238l0,0l1.853,1.059L404.338,160.726z"/>
		<path style="opacity:0.4;fill:#FFFFFF;" d="M413.343,138.804c-0.431-0.853-1.025-1.619-1.777-2.227    c-0.002-0.001-0.003-0.003-0.005-0.004c-0.251-0.202-0.519-0.387-0.805-0.551l-34.003-19.507    c-1.475-0.846-3.313,0.219-3.313,1.919c0-4.788,7.05-7.104,10.028-5.395l34.003,19.507c1.056,0.606,1.896,1.482,2.473,2.508    L413.343,138.804z"/>
		<path style="opacity:0.2;fill:#FFFFFF;" d="M414.091,161.316V141.78c0-0.265-0.018-0.527-0.052-0.784    c-0.102-0.771-0.35-1.507-0.695-2.191l6.601-3.75c0.55,0.977,0.861,2.089,0.861,3.249v19.536c0,4.454-5.043,8.244-10.025,5.397    C412.256,164.079,414.091,163.014,414.091,161.316z"/>
	</g>
</g>
<g id="Plant_2">
	<g>
		<g>
			<path style="fill:#FFFFFF;" d="M444.315,355.206l-15.515,0.452l-15.515-0.452c-0.668,10.478,1.377,21.156,4.198,26.372     l0.011-0.002c0.505,1.145,1.52,2.23,3.071,3.125c4.578,2.643,11.976,2.643,16.525,0c1.577-0.916,2.591-2.032,3.069-3.206     C442.957,376.251,444.98,365.632,444.315,355.206z"/>
			<g>
				<path style="fill:#EBEBEB;" d="M439.734,348.851c6.079,3.51,6.111,9.2,0.072,12.71c-6.04,3.51-15.863,3.51-21.942,0      c-6.079-3.509-6.111-9.2-0.071-12.71C423.832,345.341,433.655,345.341,439.734,348.851z"/>
			</g>
			<g>
				<path style="fill:#E0E0E0;" d="M437.33,350.248c4.743,2.738,4.768,7.178,0.056,9.916c-4.712,2.738-12.376,2.738-17.119,0      c-4.742-2.738-4.767-7.177-0.055-9.916C424.924,347.51,432.588,347.51,437.33,350.248z"/>
			</g>
			<g style="opacity:0.15;">
				<path d="M437.33,350.248c4.743,2.738,4.768,7.178,0.056,9.916c-4.712,2.738-12.376,2.738-17.119,0      c-4.742-2.738-4.767-7.177-0.055-9.916C424.924,347.51,432.588,347.51,437.33,350.248z" fill="#000000"/>
			</g>
		</g>
		<g>
			<path style="fill:#da26ff;" d="M454.309,288.998c-34.965,11.449-35.281,34.84-27.399,51.497     c1.988,3.372,8.004,5.183,13.24-15.534l-9.184,1.177l10.703-5.424l2.78-8.31l-8.923,0.663l11.327-4.764     C451.025,295.68,454.309,288.998,454.309,288.998z"/>
			<path style="opacity:0.2;" d="M454.309,288.998c-34.965,11.449-35.281,34.84-27.399,51.497c1.988,3.372,8.004,5.183,13.24-15.534     l-9.184,1.177l10.703-5.424l2.78-8.31l-8.923,0.663l11.327-4.764C451.025,295.68,454.309,288.998,454.309,288.998z" fill="#000000"/>
			<path style="opacity:0.2;fill:#FFFFFF;" d="M454.309,288.998c-34.965,11.449-35.281,34.84-27.399,51.497     c1.988,3.372,8.004,5.183,13.24-15.534l-9.184,1.177l10.703-5.424l2.78-8.31l-8.923,0.663l11.327-4.764     C451.025,295.68,454.309,288.998,454.309,288.998z"/>
			<path style="fill:#FFFFFF;" d="M444.419,294.848c-18.438,13.995-20.103,30.039-14.894,46.788     C427.682,326.888,425.691,311.975,444.419,294.848z"/>
		</g>
		<g>
			<path style="fill:#da26ff;" d="M395.087,312.759c34.465,4.853,38.647,26.585,34.073,43.408     c-1.291,3.471-6.593,6.157-14.912-12.267l8.749-0.43l-10.869-3.274l-3.97-7.277l8.421-0.865l-11.34-2.555     C399.256,318.437,395.087,312.759,395.087,312.759z"/>
			<path style="opacity:0.2;fill:#FFFFFF;" d="M395.087,312.759c34.465,4.853,38.647,26.585,34.073,43.408     c-1.291,3.471-6.593,6.157-14.912-12.267l8.749-0.43l-10.869-3.274l-3.97-7.277l8.421-0.865l-11.34-2.555     C399.256,318.437,395.087,312.759,395.087,312.759z"/>
			<path style="opacity:0.1;" d="M395.087,312.759c34.465,4.853,38.647,26.585,34.073,43.408     c-1.291,3.471-6.593,6.157-14.912-12.267l8.749-0.43l-10.869-3.274l-3.97-7.277l8.421-0.865l-11.34-2.555     C399.256,318.437,395.087,312.759,395.087,312.759z" fill="#000000"/>
			<path style="fill:#FFFFFF;" d="M405.269,316.564c19.497,9.97,23.713,24.635,21.645,41.1     C426.18,343.622,425.557,329.403,405.269,316.564z"/>
		</g>
		<g>
			<path style="fill:#da26ff;" d="M464.396,320.903c-31.607,0.517-37.808,19.636-35.569,35.31c0.775,3.273,5.253,6.287,14.813-9.387     l-7.837-1.366l10.162-1.734l4.392-6.115l-7.493-1.723l10.507-1.034C460.004,325.554,464.396,320.903,464.396,320.903z"/>
			<path style="fill:#FFFFFF;" d="M454.793,323.193c-18.689,6.804-24.13,19.55-24.109,34.621     C432.918,345.24,435.071,332.494,454.793,323.193z"/>
			<path style="opacity:0.2;fill:#FFFFFF;" d="M464.396,320.903c-31.607,0.517-37.808,19.636-35.569,35.31     c0.775,3.273,5.253,6.287,14.813-9.387l-7.837-1.366l10.162-1.734l4.392-6.115l-7.493-1.723l10.507-1.034     C460.004,325.554,464.396,320.903,464.396,320.903z"/>
		</g>
	</g>
</g>
<g id="Character_2">
	<g>
		<g>
			<g>
				<path style="fill:#37474F;" d="M309.735,144.104l-0.007-0.006c0.674-2.365,5.475-6.862,10.254-6.767      c0.173-0.001,1.032,0.086,1.342,0.263l92.817,52.807c1.578,0.898,2.796,2.246,3.568,3.823c0.585,1.195,0.92,2.517,0.92,3.894      v200.769c0,5.114-5.897,9.995-11.434,7.647c-0.014-0.006-0.023-0.02-0.037-0.026c-0.119-0.043-0.24-0.078-0.356-0.144      l-92.821-52.894c-2.771-1.579-4.483-4.524-4.483-7.714V145.071C309.498,144.714,309.594,144.393,309.735,144.104z"/>
				<path style="fill:#da26ff;" d="M405.681,219.337c0-1.596-0.857-3.07-2.244-3.859l-86.181-49.031      c-1.48-0.842-3.317,0.227-3.317,1.929V330.27c0,1.591,0.859,3.069,2.242,3.858l86.182,49.11      c1.479,0.843,3.318-0.225,3.318-1.928V219.337z"/>
				<path style="opacity:0.3;fill:#FFFFFF;" d="M405.681,219.337c0-1.596-0.857-3.07-2.244-3.859l-86.181-49.031      c-1.48-0.842-3.317,0.227-3.317,1.929V330.27c0,1.591,0.859,3.069,2.242,3.858l86.182,49.11      c1.479,0.843,3.318-0.225,3.318-1.928V219.337z"/>
				<path style="fill:#263238;" d="M418.629,198.116v200.769c0,5.114-5.897,9.995-11.434,7.647c-0.014-0.006-0.023-0.02-0.037-0.026      c1.403,0.508,2.963-0.502,2.963-2.072V203.665c0-1.779-0.548-3.471-1.499-4.903l9.087-4.54      C418.294,195.417,418.629,196.74,418.629,198.116z"/>
				<path style="fill:#455A64;" d="M319.982,137.33c0.173-0.001,1.032,0.086,1.342,0.263l92.817,52.807      c1.578,0.898,2.796,2.246,3.568,3.823l-9.087,4.54c-0.756-1.138-1.761-2.115-2.989-2.814l-92.817-52.807      c-1.169-0.665-2.547-0.128-3.08,0.962l-0.007-0.006C310.402,141.732,315.204,137.236,319.982,137.33z"/>
				<g>
					<g>
						<g>
							<path style="fill:#263238;" d="M348.37,176.295c-0.652-0.376-1.192-0.085-1.194,0.664c-0.002,0.749,0.534,1.679,1.187,2.055         l18.21,10.514c0.652,0.376,1.178,0.06,1.18-0.689c0.002-0.749-0.521-1.654-1.173-2.03L348.37,176.295z"/>
						</g>
						<g>
							<path style="fill:#263238;" d="M371.257,189.509c-0.652-0.376-1.178-0.077-1.18,0.672c-0.002,0.749,0.521,1.671,1.173,2.047         c0.652,0.376,1.192,0.068,1.194-0.681C372.445,190.798,371.908,189.885,371.257,189.509z"/>
						</g>
					</g>
					<g>
						<path style="fill:#263238;" d="M359.6,174.766c-1.302-0.752-2.353-0.153-2.358,1.343c-0.004,1.497,1.04,3.338,2.342,4.089        c1.302,0.752,2.382,0.137,2.386-1.36C361.975,177.342,360.903,175.518,359.6,174.766z"/>
					</g>
					<g>
						<path style="fill:#263238;" d="M359.594,363.774c-2.652-1.531-4.793-0.312-4.802,2.736c-0.009,3.048,2.118,6.798,4.77,8.329        c2.653,1.532,4.851,0.279,4.86-2.77C364.431,369.022,362.246,365.305,359.594,363.774z"/>
					</g>
				</g>
			</g>
		</g>
		<g>
			<g>
				<path style="fill:#FFA8A7;" d="M351.063,258.48l-3.098-1.732c-6.036-3.375-13.56-2.471-18.625,2.238l-25.918,24.097      c0,0-9.813-17.871-11.614-23.749c-0.57-1.861,0.525-3.86,1.059-5.731c0.535-1.871,1.033-3.84,0.625-5.743      c-0.529-2.469-0.156-5.049,0.575-7.496c0.267-0.895-0.423-1.788-1.356-1.734c-0.096,0.005-0.19,0.012-0.281,0.02      c-0.691,0.058-1.389,0.289-1.888,0.77c-0.501,0.483-0.752,1.163-0.963,1.827c-0.541,1.704-0.913,3.462-1.108,5.239      c-1.454-3.328-2.272-7.171-2.107-10.799c0.065-1.42,0.254-2.864-0.07-4.248c-0.325-1.384-1.321-2.732-2.725-2.951      c-0.714,0.993-1.233,2.165-1.536,3.35c-0.798-0.295-1.882-0.376-2.612,0.063c-0.729,0.438-1.243,1.219-1.357,2.063      c-2.081,0.147-3.877,1.996-4.724,3.903s-0.918,4.066-0.788,6.148c0.426,6.81,2.906,13.478,7.034,18.911      c3.358,12.749,6.342,27.113,11.112,38.282c2.331,5.46,9.089,7.393,14.036,4.112c18.529-12.286,33.625-25.032,33.625-25.032      L351.063,258.48z"/>
				<path style="fill:#da26ff;" d="M351.063,258.48l-3.098-1.732c-6.036-3.375-13.56-2.471-18.625,2.238l-20.413,18.98      c2.033,10.379,11.798,17.585,11.798,17.585l17.634-15.264L351.063,258.48z"/>
				<path style="opacity:0.2;" d="M351.063,258.48l-3.098-1.732c-6.036-3.375-13.56-2.471-18.625,2.238l-20.413,18.98      c2.033,10.379,11.798,17.585,11.798,17.585l17.634-15.264L351.063,258.48z" fill="#000000"/>
				<path style="fill:#F28F8F;" d="M306.029,295.028c0.09-5.167-0.996-8.106-2.607-11.946l1.357-1.262      C306.033,283.431,308.476,287.76,306.029,295.028z"/>
				<path style="fill:#F28F8F;" d="M286.026,259.731c-1.354-1.477-2.112-3.486-2.071-5.489c0.04-2.003,0.879-3.979,2.291-5.401      c-2.068,0.856-3.565,2.896-3.656,5.133C282.498,256.21,284.035,258.709,286.026,259.731z"/>
			</g>
			<g>
				<path style="fill:#455A64;" d="M330.568,331.928l55.539,0.911c0,0,3.172,17.301,4.073,43.459l-59.458-33.882L330.568,331.928z"/>
			</g>
			<g style="opacity:0.2;">
				<path style="fill:#FFFFFF;" d="M330.568,331.928l55.539,0.911c0,0,3.172,17.301,4.073,43.459l-59.458-33.882L330.568,331.928z"/>
			</g>
			<g>
				<path style="fill:#da26ff;" d="M350.645,254.72l-5.281,0.558c-3.91,0.413-7.432,2.559-9.571,5.858      c-5.435,8.384-7.962,21.214-6.501,35.101c1.821,17.299-0.409,42.675-0.409,42.675c22.944,16.753,57.653,9.139,61.295,5.497      l-2.35-26.602c-0.192-2.388-0.598-7.199-0.19-10.884c0.603-5.446,3.956-17.215,4.476-24.889      c0.728-10.743-4.188-19.757-4.188-19.757l-20.121-7.557H350.645z"/>
			</g>
			<g style="opacity:0.3;">
				<path d="M350.645,254.72l-5.281,0.558c-3.91,0.413-7.432,2.559-9.571,5.858c-5.435,8.384-7.962,21.214-6.501,35.101      c1.821,17.299-0.409,42.675-0.409,42.675c22.944,16.753,57.653,9.139,61.295,5.497l-2.35-26.602      c-0.192-2.388-0.598-7.199-0.19-10.884c0.603-5.446,3.956-17.215,4.476-24.889c0.728-10.743-4.188-19.757-4.188-19.757      l-20.121-7.557H350.645z" fill="#000000"/>
			</g>
			<g>
				<g>
					<path style="fill:#FFA8A7;" d="M367.888,241.389v13.73c0,1.816-0.731,3.579-2.088,4.785c-3.569,3.174-8.414,4.846-13.22,4.547       c-0.965-0.06-1.98-0.221-2.723-0.84c-1.041-0.867-1.255-2.436-0.876-3.736c0.19-0.65,0.5-1.249,0.867-1.818       c0.758-1.173,1.214-2.515,1.214-3.912v-12.757H367.888z"/>
					<path style="fill:#FF9192;" d="M366.894,241.48l-15.831-0.091v11.667c3.568-0.691,7.047-1.607,10.01-3.662       C363.815,247.493,365.872,244.651,366.894,241.48z"/>
				</g>
				<g>
					<path style="fill:#263238;" d="M336.252,218.158c-2.233,0.076-4.486-0.656-6.248-2.031c-1.007-0.785-1.849-1.777-2.474-2.891       c-0.538-0.959,0.35-2.098,1.431-1.898c1.222,0.226,2.492,0.241,3.688,0.04c-2.829-3.683-4.091-8.449-3.431-13.01       c0.158-1.088,1.357-1.719,2.344-1.234c5.042,2.476,10.753,3.699,16.342,3.302c3.003-0.213,5.963-0.849,8.964-1.078       c3.002-0.23,6.133-0.025,8.815,1.342c2.682,1.367,4.821,4.09,4.816,7.1c0.71-1.021,1.746-1.562,2.979-1.722       c1.233-0.16,2.527,0.222,3.475,1.028c-1.737,0.951-3.432,1.916-5.169,2.867c1.779-0.635,4.019,0.755,4.905,2.423       c0.886,1.668,0.931,3.64,0.955,5.529c0.033,2.51,0.064,5.036-0.338,7.514c-0.402,2.478-1.266,4.931-2.85,6.879       c-1.332,1.638-3.155,2.873-5.17,3.503c-2.714,0.848-5.684,0.591-8.395-0.268c-2.711-0.859-5.202-2.29-7.611-3.8       C347.251,227.975,341.473,222.988,336.252,218.158z"/>
					<path style="fill:#FFA8A7;" d="M335.873,213.153c-1.739,10.332-0.579,21.136,3.314,30.863c0.905,2.261,2.077,4.603,4.192,5.81       c2.218,1.266,4.961,1.002,7.486,0.621c4.066-0.613,8.163-1.449,11.822-3.326c3.659-1.877,6.875-4.919,8.183-8.817       c2.691,0.644,5.502-0.599,7.166-2.809c1.664-2.21,2.262-5.061,2.323-7.827c0.039-1.771-0.326-3.862-1.917-4.642       c-1.48-0.725-3.256,0.089-4.536,1.126c-2.095,1.697-3.657,4.042-4.416,6.628c-1.17-4.314-2.992-8.477-4.163-12.79       c-0.46-1.696-1.029-3.546-2.509-4.493c-1.811-1.159-4.171-0.494-6.258,0.023C350.193,215.096,342.134,215.103,335.873,213.153z       "/>
					<polygon style="fill:#F28F8F;" points="348.449,226.248 343.404,234.74 349.418,235.869      "/>
					<path style="fill:#F28F8F;" d="M355.216,238.796c-1.523,0.741-3.047,1.481-4.57,2.222c0.665,1.038,2.341,1.49,3.465,0.985       C355.236,241.498,355.55,239.983,355.216,238.796z"/>
					<path style="opacity:0.3;" d="M355.216,238.796c-1.523,0.741-3.047,1.481-4.57,2.222c0.665,1.038,2.341,1.49,3.465,0.985       C355.236,241.498,355.55,239.983,355.216,238.796z" fill="#000000"/>
					<path style="fill:#F28F8F;" d="M352.524,242.153c0.549,0.097,1.116,0.062,1.587-0.15c0.883-0.396,1.26-1.415,1.223-2.409       c-0.649,0.003-1.299,0.215-1.802,0.626C352.953,240.695,352.598,241.41,352.524,242.153z"/>
					<path style="fill:#263238;" d="M357.159,226.586c0.096,0.949-0.596,1.797-1.546,1.892c-0.949,0.096-1.796-0.596-1.892-1.546       c-0.096-0.949,0.596-1.796,1.546-1.892C356.216,224.945,357.063,225.637,357.159,226.586z"/>
					<path style="fill:#263238;" d="M342.672,227.484c0.096,0.949-0.596,1.796-1.546,1.892c-0.949,0.096-1.796-0.596-1.892-1.546       c-0.096-0.949,0.596-1.796,1.546-1.892C341.729,225.842,342.577,226.534,342.672,227.484z"/>
					<path style="fill:#263238;" d="M340.31,220.811c-1.181,1.006-2.363,2.013-3.544,3.019c-0.468-0.866-0.223-2.076,0.473-2.772       C337.934,220.362,339.444,220.345,340.31,220.811z"/>
					<path style="fill:#263238;" d="M355.008,219.122c1.358,0.75,2.717,1.5,4.076,2.251c0.286-0.942-0.195-2.079-1.016-2.622       C357.246,218.207,355.763,218.491,355.008,219.122z"/>
				</g>
			</g>
			<g>
				<path style="fill:#FFA8A7;" d="M390.287,307.138l5.309,19.435l-20.6,17.266c-1.466,1.229-3.334,1.873-5.246,1.815      c-2.127-0.065-4.279-0.092-6.294,0.362c-1.612,0.364-3.183,0.896-4.793,1.268c-1.132,0.262-2.298,0.444-3.456,0.428      c-1.032-0.014-1.794,1.028-1.34,1.955c0.174,0.355,0.414,0.678,0.698,0.929c0.814,0.721,1.917,1.024,2.994,1.174      c1.71,0.238,3.465,0.147,5.141-0.267c-1.487,1.941-4.019,3.162-6.338,3.938s-4.742,1.215-7.047,2.03      c-0.857,0.303-1.742,0.694-2.262,1.44c-0.52,0.746-0.49,1.941,0.284,2.418c0.989,0.61,2.336-0.291,3.417,0.136      c-0.071,0.65-0.165,1.261,0.03,1.886c0.195,0.625,0.587,1.203,1.15,1.536c0.563,0.333,1.305,0.389,1.872,0.063      c0.915,1.546,2.605,2.541,4.356,2.943c1.751,0.402,3.585,0.262,5.352-0.065c7.34-1.357,11.988-7.749,17.743-12.502      c0.792-0.654,21.083-11.964,31.468-17.739c3.54-1.969,5.299-6.075,4.29-9.998l-6.629-25.761L390.287,307.138z"/>
				<path style="fill:#F28F8F;" d="M408.253,326.147c-2.228-1.043-9.339-1.896-12.657,0.427l-0.545-1.995      C397.21,323.461,403.023,321.55,408.253,326.147z"/>
				<path style="fill:#da26ff;" d="M387.727,262.199l2.913,0.828c6.012,1.708,10.802,6.26,12.812,12.178l9.303,27.382      c-8.391,8.817-23.465,6.115-23.465,6.115l-2.986-13.937C375.781,276.42,385.452,265.186,387.727,262.199z"/>
				<path style="opacity:0.2;" d="M387.727,262.199l2.913,0.828c6.012,1.708,10.802,6.26,12.812,12.178l9.303,27.382      c-8.391,8.817-23.465,6.115-23.465,6.115l-2.986-13.937C375.781,276.42,385.452,265.186,387.727,262.199z" fill="#000000"/>
			</g>
		</g>
	</g>
	<path style="fill:#E6E6E6;" d="M121.747,439.177l-0.002-0.011c-0.03-0.015-0.063-0.022-0.092-0.039L121.747,439.177z"/>
</g>
<g id="Character_1">
	<g>
		<g>
			<g>
				<path style="fill:#37474F;" d="M195.721,144.104l0.007-0.006c-0.674-2.365-5.475-6.862-10.254-6.767      c-0.173-0.001-1.032,0.086-1.342,0.263L91.316,190.4c-1.578,0.898-2.796,2.246-3.568,3.823c-0.585,1.195-0.92,2.517-0.92,3.894      v200.769c0,5.114,5.897,9.995,11.434,7.647c0.014-0.006,0.023-0.02,0.037-0.026c0.119-0.043,0.24-0.078,0.356-0.144      l92.821-52.894c2.771-1.579,4.483-4.524,4.483-7.714V145.071C195.958,144.714,195.863,144.393,195.721,144.104z"/>
				<path style="fill:#da26ff;" d="M99.776,219.337c0-1.596,0.857-3.07,2.244-3.859l86.181-49.031      c1.48-0.842,3.317,0.227,3.317,1.929V330.27c0,1.591-0.859,3.069-2.242,3.858l-86.182,49.11      c-1.479,0.843-3.318-0.225-3.318-1.928V219.337z"/>
				<path style="opacity:0.2;" d="M99.776,219.337c0-1.596,0.857-3.07,2.244-3.859l86.181-49.031      c1.48-0.842,3.317,0.227,3.317,1.929V330.27c0,1.591-0.859,3.069-2.242,3.858l-86.182,49.11      c-1.479,0.843-3.318-0.225-3.318-1.928V219.337z" fill="#000000"/>
				<path style="fill:#263238;" d="M86.828,198.116v200.769c0,5.114,5.897,9.995,11.434,7.647c0.014-0.006,0.023-0.02,0.037-0.026      c-1.403,0.508-2.963-0.502-2.963-2.072V203.665c0-1.779,0.548-3.471,1.499-4.903l-9.087-4.54      C87.163,195.417,86.828,196.74,86.828,198.116z"/>
				<path style="fill:#455A64;" d="M185.475,137.33c-0.173-0.001-1.032,0.086-1.342,0.263L91.316,190.4      c-1.578,0.898-2.796,2.246-3.568,3.823l9.087,4.54c0.756-1.138,1.761-2.115,2.989-2.814l92.817-52.807      c1.169-0.665,2.547-0.128,3.08,0.962l0.007-0.006C195.054,141.732,190.253,137.236,185.475,137.33z"/>
				<g>
					<g>
						<g>
							<path style="fill:#263238;" d="M157.087,176.295c0.652-0.376,1.192-0.085,1.194,0.664c0.002,0.749-0.535,1.679-1.187,2.055         l-18.21,10.514c-0.652,0.376-1.178,0.06-1.18-0.689c-0.002-0.749,0.52-1.654,1.173-2.03L157.087,176.295z"/>
						</g>
						<g>
							<path style="fill:#263238;" d="M134.2,189.509c0.652-0.376,1.178-0.077,1.18,0.672c0.002,0.749-0.521,1.671-1.173,2.047         c-0.652,0.376-1.192,0.068-1.194-0.681C133.011,190.798,133.548,189.885,134.2,189.509z"/>
						</g>
					</g>
					<g>
						<path style="fill:#263238;" d="M145.856,174.766c1.302-0.752,2.353-0.153,2.358,1.343c0.004,1.497-1.04,3.338-2.342,4.089        c-1.302,0.752-2.382,0.137-2.386-1.36C143.481,177.342,144.554,175.518,145.856,174.766z"/>
					</g>
					<g>
						<path style="fill:#263238;" d="M145.863,363.774c2.652-1.531,4.793-0.312,4.802,2.736c0.009,3.048-2.118,6.798-4.77,8.329        c-2.653,1.532-4.851,0.279-4.86-2.77C141.026,369.022,143.21,365.305,145.863,363.774z"/>
					</g>
				</g>
			</g>
		</g>
		<g>
			<path style="fill:#da26ff;" d="M175.585,337.26l-56.874,0.748c0,0-1.133,13.639-1.838,37.378l59.045-33.646     C175.711,338.922,175.585,337.26,175.585,337.26z"/>
			<path style="opacity:0.5;" d="M175.585,337.26l-56.874,0.748c0,0-1.133,13.639-1.838,37.378l59.045-33.646     C175.711,338.922,175.585,337.26,175.585,337.26z" fill="#000000"/>
			<g>
				<path style="fill:#b37c7c;" d="M203.074,276.353l6.51,5.835l18.023-19.325c1.747-1.873,2.978-4.167,3.573-6.659l1.025-4.293      c0.268-1.122,0.699-2.197,1.279-3.194c0.878-1.512,1.821-3.035,2.628-4.534c0.253-0.469,0.537-0.97,1.022-1.19      c0.563-0.256,1.266-0.037,1.683,0.419c0.418,0.456,0.582,1.099,0.574,1.717c-0.007,0.618-0.169,1.223-0.33,1.82      c-0.249,0.926-0.499,1.852-0.748,2.777c-0.103,0.384-0.208,0.777-0.185,1.174c0.022,0.397,0.194,0.808,0.532,1.018      c0.775,0.468,11.89-9.852,13.747-14.577c0.499-1.27,4.485-0.531,2.074,4.629c0.931,0.639,1.213,1.79,1.273,2.918      c0.075,1.405,0.15,2.81,0.224,4.216c0.073,1.384,0.146,2.788-0.154,4.141c-0.447,2.021-1.688,3.773-3.043,5.338      c-2.502,2.889-5.646,4.952-9.056,6.474c-2.598,1.159-4.831,3.002-6.404,5.373l-17.237,25.992      c-4.028,6.074-12.41,7.363-18.077,2.78l-9.109-7.367L203.074,276.353z"/>
				<path style="fill:#F0F0F0;" d="M171.849,252.121c8.849-0.506,11.164,4.123,16.758,9.331      c5.594,5.208,16.107,15.335,16.107,15.335c-1.736,12.442-11.67,16.492-11.67,16.492l-19.482-14.37L171.849,252.121z"/>
				<path style="fill:#FFFFFF;" d="M117.247,341.393c0,0,32.988,12.068,59.773-2.973c0,0-1.626-19.196-2.108-30.384      c-0.482-11.188,3.376-32.792,3.954-38.579c0.579-5.787-0.193-15.817-7.016-17.336c-12.659-2.676-36.457,0-36.457,0      l-14.202,15.697C115.211,298.488,116.234,330.688,117.247,341.393z"/>
				<path style="fill:#263238;" d="M182.267,227.057c2.685-1.929,4.613-4.884,5.296-8.119c0.683-3.235,0.114-6.717-1.562-9.567      c1.455-0.698,2.867-1.857,3.529-3.328c0.638-1.417,0.322-3.209-0.762-4.322c-1.084-1.113-2.867-1.476-4.301-0.876      c0.894-2.199-0.136-5.19-2.184-6.391c-2.048-1.201-4.941-0.666-6.424,1.188c0.098-1.511-0.95-2.965-2.388-3.438      c-1.438-0.473-3.021-0.212-4.453,0.279c-1.432,0.49-2.783,1.203-4.226,1.66c-2.438,0.772-5.038,0.788-7.588,0.968      c-2.55,0.18-5.184,0.565-7.331,1.954c-2.147,1.389-4.041,4.637-2.884,7.434c-0.722-0.917-1.878-1.576-3.045-1.615      c-1.167-0.039-2.34,0.459-3.123,1.326c1.596,0.989,3.14,2.054,4.736,3.042c-1.606-0.722-4.002,0.411-4.872,1.943      c-0.869,1.532-0.91,3.384-0.859,5.144c0.197,6.689,1.416,13.34,3.529,19.689c1.092,3.282,2.67,6.761,5.78,8.275L182.267,227.057      z"/>
				<g>
					<path style="fill:#b37c7c;" d="M165.339,242.862l-0.702,7.849c-0.055,0.611,0.139,1.199,0.444,1.73       c0.882,1.538,0.609,3.994-0.693,5.128c-0.947,0.825-2.253,1.098-3.505,1.189c-4.841,0.352-9.779-1.737-12.971-5.004       c-0.696-0.713-1.053-1.691-1.027-2.687l0.515-19.903L165.339,242.862z"/>
					<path style="fill:#9c7575;" d="M148.979,232.195l16.359,10.667l-0.622,6.96c-3.803-0.891-7.629-1.989-10.639-4.437       C150.25,242.273,148.258,237.07,148.979,232.195z"/>
				</g>
				<g>
					<path style="fill:#b37c7c;" d="M183.174,210.884c1.201,9.073,0.599,18.381-1.761,27.223c-0.517,1.937-1.127,3.874-2.16,5.591       c-1.034,1.718-2.535,3.217-4.412,3.919c-2.309,0.864-4.876,0.447-7.305,0.019c-4.441-0.783-8.997-1.608-12.855-3.943       c-3.858-2.335-6.917-6.554-6.544-11.048c-2.248,1.29-5.09,1.629-7.375,0.408c-2.285-1.221-3.868-3.667-4.045-6.252       c-0.172-2.516,1.283-5.321,3.755-5.819c1.511-0.304,3.09,0.3,4.298,1.257c1.208,0.957,2.111,2.237,2.997,3.498       c0.422,0.601,0.863,1.219,1.493,1.597c0.63,0.378,1.504,0.453,2.062-0.024c0.61-0.521,0.623-1.444,0.586-2.245l-0.26-5.697       c-0.041-0.897,0.464-1.713,1.264-2.12c1.16-0.591,2.046-1.677,2.552-2.936c0.438-1.09,0.626-2.252,0.721-3.428       c0.077-0.947,1.04-1.551,1.921-1.195C165.754,212.773,175.287,212.911,183.174,210.884z"/>
					<g>
						<polygon style="fill:#9c7575;" points="170.641,224.701 175.765,233.326 169.656,234.473       "/>
						<path style="fill:#9c7575;" d="M163.768,237.445c1.547,0.752,3.094,1.505,4.642,2.257c-0.676,1.055-2.377,1.514-3.519,1.001        C163.748,240.19,163.429,238.651,163.768,237.445z"/>
						<path style="opacity:0.4;" d="M163.768,237.445c1.547,0.752,3.094,1.505,4.642,2.257c-0.676,1.055-2.377,1.514-3.519,1.001        C163.748,240.19,163.429,238.651,163.768,237.445z" fill="#000000"/>
						<path style="fill:#9c7575;" d="M166.502,240.855c-0.558,0.099-1.133,0.063-1.611-0.152c-0.897-0.403-1.28-1.437-1.242-2.446        c0.659,0.003,1.319,0.218,1.83,0.636C166.067,239.374,166.427,240.1,166.502,240.855z"/>
						<path style="fill:#263238;" d="M161.795,225.044c-0.097,0.964,0.606,1.824,1.57,1.921c0.964,0.097,1.824-0.605,1.922-1.57        c0.097-0.964-0.606-1.824-1.57-1.921C162.753,223.378,161.892,224.08,161.795,225.044z"/>
						<path style="fill:#263238;" d="M176.508,225.956c-0.097,0.964,0.606,1.824,1.57,1.921c0.964,0.097,1.824-0.605,1.922-1.57        c0.097-0.964-0.606-1.824-1.57-1.922C177.465,224.289,176.605,224.992,176.508,225.956z"/>
						<path style="fill:#263238;" d="M178.907,219.18c1.2,1.022,2.4,2.044,3.6,3.066c0.475-0.879,0.227-2.108-0.48-2.815        C181.32,218.723,179.786,218.706,178.907,219.18z"/>
						<path style="fill:#263238;" d="M163.98,217.464c-1.38,0.762-2.76,1.524-4.139,2.286c-0.29-0.956,0.199-2.111,1.032-2.663        C161.706,216.535,163.212,216.823,163.98,217.464z"/>
					</g>
				</g>
				<path style="fill:#b37c7c;" d="M151.332,293.28l8.892,20.297l28.324,23.309c1.467,1.229,3.334,1.873,5.247,1.815      c2.127-0.065,4.279-0.093,6.294,0.362c1.612,0.364,3.183,0.896,4.793,1.268c1.132,0.262,2.298,0.444,3.456,0.428      c1.033-0.014,1.794,1.028,1.34,1.955c-0.174,0.355-0.414,0.678-0.698,0.929c-0.814,0.721-1.917,1.024-2.994,1.174      c-1.71,0.238-3.465,0.147-5.141-0.267c1.486,1.942,4.019,3.162,6.338,3.938c2.319,0.776,4.742,1.215,7.047,2.03      c0.857,0.303,1.742,0.694,2.262,1.44c0.52,0.746,0.489,1.94-0.284,2.418c-0.989,0.611-2.336-0.291-3.417,0.136      c0.071,0.65,0.165,1.262-0.03,1.886c-0.195,0.625-0.587,1.203-1.15,1.537c-0.563,0.333-1.305,0.389-1.872,0.063      c-0.915,1.546-2.605,2.541-4.356,2.943c-1.751,0.402-3.585,0.262-5.351-0.065c-7.34-1.357-11.988-7.749-17.744-12.502      c-0.824-0.681-23.092-12.941-33.159-18.472c-3.161-1.737-5.688-4.429-7.223-7.692l-10.839-23.044L151.332,293.28z"/>
				<path style="fill:#F0F0F0;" d="M135.392,252.121c9.524,11.26,13.093,30.598,18.011,43.039      c-5.497,10.416-20.832,9.404-20.832,9.404C118.538,275.341,112.606,253.303,135.392,252.121z"/>
				<path style="fill:#9c7575;" d="M209.584,282.189c-1.889,4.58-0.372,10.695-0.372,10.695c-4.219-6.305-1.585-12.449-1.585-12.449      L209.584,282.189z"/>
				<path style="fill:#9c7575;" d="M239.566,253.248c0.806,1.502,1.033,3.306,0.625,4.961c-0.408,1.655-1.447,3.147-2.859,4.102      c2.001-0.068,3.948-1.586,4.504-3.509C242.391,256.88,241.222,254.373,239.566,253.248z"/>
			</g>
		</g>
	</g>
</g>
<g id="Plant_1">
	<g>
		<g>
			<path style="fill:#FFFFFF;" d="M99.935,385.445l-15.515,0.452l-15.515-0.452c-0.668,10.478,1.377,21.156,4.198,26.372     l0.011-0.002c0.505,1.145,1.52,2.23,3.071,3.125c4.578,2.643,11.976,2.643,16.525,0c1.577-0.916,2.591-2.032,3.069-3.206     C98.577,406.49,100.6,395.871,99.935,385.445z"/>
			<g>
				<path style="fill:#EBEBEB;" d="M95.354,379.09c6.079,3.51,6.111,9.2,0.072,12.71c-6.04,3.51-15.863,3.51-21.942,0      c-6.079-3.509-6.111-9.2-0.071-12.71C79.452,375.581,89.276,375.58,95.354,379.09z"/>
			</g>
			<g>
				<path style="fill:#E0E0E0;" d="M92.951,380.487c4.743,2.738,4.768,7.178,0.056,9.916c-4.712,2.738-12.376,2.738-17.119,0      c-4.743-2.738-4.767-7.177-0.055-9.916C80.544,377.749,88.208,377.749,92.951,380.487z"/>
			</g>
			<g style="opacity:0.15;">
				<path d="M92.951,380.487c4.743,2.738,4.768,7.178,0.056,9.916c-4.712,2.738-12.376,2.738-17.119,0      c-4.743-2.738-4.767-7.177-0.055-9.916C80.544,377.749,88.208,377.749,92.951,380.487z" fill="#000000"/>
			</g>
		</g>
		<g>
			<path style="fill:#da26ff;" d="M76.506,353.693c-2.523-3.137-5.454-5.947-7.768-9.242c-1.578-2.248-2.898-4.999-2.235-7.665     c0.616-2.473,2.927-4.312,5.432-4.781c2.505-0.469,5.128,0.28,7.291,1.627c2.164,1.346,3.922,3.252,5.511,5.245     c8.681,10.895,12.91,25.235,11.53,39.097c-0.158,1.589-0.424,3.261-1.44,4.493c-1.089,1.322-2.996,1.905-4.638,1.418     c-4.227-1.254-3.666-6.964-4.357-10.323c-0.947-4.603-2.591-9.063-4.854-13.181C79.685,358.028,78.189,355.785,76.506,353.693z"/>
			<path style="opacity:0.2;fill:#FFFFFF;" d="M76.506,353.693c-2.523-3.137-5.454-5.947-7.768-9.242     c-1.578-2.248-2.898-4.999-2.235-7.665c0.616-2.473,2.927-4.312,5.432-4.781c2.505-0.469,5.128,0.28,7.291,1.627     c2.164,1.346,3.922,3.252,5.511,5.245c8.681,10.895,12.91,25.235,11.53,39.097c-0.158,1.589-0.424,3.261-1.44,4.493     c-1.089,1.322-2.996,1.905-4.638,1.418c-4.227-1.254-3.666-6.964-4.357-10.323c-0.947-4.603-2.591-9.063-4.854-13.181     C79.685,358.028,78.189,355.785,76.506,353.693z"/>
			<g>
				<path style="fill:#F0F0F0;" d="M90.453,379.63c-0.163-0.032-0.29-0.173-0.298-0.346c-0.296-6.785-2.501-29.943-18.461-43.083      c-0.158-0.13-0.18-0.363-0.05-0.521c0.13-0.158,0.362-0.18,0.521-0.051c16.196,13.334,18.431,36.759,18.73,43.621      c0.008,0.204-0.15,0.377-0.354,0.386C90.51,379.637,90.481,379.635,90.453,379.63z"/>
			</g>
			<g>
				<path style="fill:#da26ff;" d="M92.785,380.364c-0.483,2.663-2.771,5.959-5.182,7.186c-2.391,1.217-5.167,1.542-7.842,1.313      c-2.724-0.234-5.369-1.016-7.96-1.888c-1.28-0.431-2.702-1.012-2.838-2.597c-0.072-0.836,0.304-1.647,0.905-2.232      c0.252-0.246,0.53-0.485,0.826-0.711c0.603-0.46,0.32-1.417-0.437-1.469c-0.761-0.052-1.519-0.137-2.269-0.28      c-1.732-0.331-3.438-0.991-4.763-2.155c-0.996-0.874-1.75-2.013-2.2-3.258c-0.385-1.066-0.493-2.403,0.314-3.199      c0.463-0.456,1.129-0.63,1.764-0.767c0.567-0.123,1.136-0.227,1.706-0.316c0.758-0.118,0.884-1.152,0.176-1.447l-2.407-1.003      c-0.669-0.279-1.365-0.577-1.827-1.134c-0.737-0.889-0.684-2.182-0.463-3.316c0.294-1.507,0.815-2.96,1.169-4.454      c0.355-1.494,0.541-3.07,0.159-4.557c4.494-0.455,9.112-0.241,13.483,0.9c1.305,0.341,2.626,0.768,3.68,1.611      c1.501,1.201,1.892,3.003,1.732,4.956c-0.03,0.37,0.479,0.511,0.656,0.184l1.538-2.836c0.463-0.854,1.512-1.177,2.391-0.764      c1.327,0.623,2.512,1.62,3.517,2.766c1.084,1.236,1.638,2.863,1.505,4.502c-0.179,2.216-0.566,4.459-1.121,6.609      c-0.146,0.563,0.485,0.987,0.957,0.647l0.073-0.053c0.42-0.304,0.935-0.486,1.45-0.422c1.36,0.169,1.707,1.546,1.797,2.719      C93.406,376.595,93.106,378.597,92.785,380.364z"/>
				<path style="opacity:0.2;" d="M92.785,380.364c-0.483,2.663-2.771,5.959-5.182,7.186c-2.391,1.217-5.167,1.542-7.842,1.313      c-2.724-0.234-5.369-1.016-7.96-1.888c-1.28-0.431-2.702-1.012-2.838-2.597c-0.072-0.836,0.304-1.647,0.905-2.232      c0.252-0.246,0.53-0.485,0.826-0.711c0.603-0.46,0.32-1.417-0.437-1.469c-0.761-0.052-1.519-0.137-2.269-0.28      c-1.732-0.331-3.438-0.991-4.763-2.155c-0.996-0.874-1.75-2.013-2.2-3.258c-0.385-1.066-0.493-2.403,0.314-3.199      c0.463-0.456,1.129-0.63,1.764-0.767c0.567-0.123,1.136-0.227,1.706-0.316c0.758-0.118,0.884-1.152,0.176-1.447l-2.407-1.003      c-0.669-0.279-1.365-0.577-1.827-1.134c-0.737-0.889-0.684-2.182-0.463-3.316c0.294-1.507,0.815-2.96,1.169-4.454      c0.355-1.494,0.541-3.07,0.159-4.557c4.494-0.455,9.112-0.241,13.483,0.9c1.305,0.341,2.626,0.768,3.68,1.611      c1.501,1.201,1.892,3.003,1.732,4.956c-0.03,0.37,0.479,0.511,0.656,0.184l1.538-2.836c0.463-0.854,1.512-1.177,2.391-0.764      c1.327,0.623,2.512,1.62,3.517,2.766c1.084,1.236,1.638,2.863,1.505,4.502c-0.179,2.216-0.566,4.459-1.121,6.609      c-0.146,0.563,0.485,0.987,0.957,0.647l0.073-0.053c0.42-0.304,0.935-0.486,1.45-0.422c1.36,0.169,1.707,1.546,1.797,2.719      C93.406,376.595,93.106,378.597,92.785,380.364z" fill="#000000"/>
				<path style="opacity:0.2;fill:#FFFFFF;" d="M92.785,380.364c-0.483,2.663-2.771,5.959-5.182,7.186      c-2.391,1.217-5.167,1.542-7.842,1.313c-2.724-0.234-5.369-1.016-7.96-1.888c-1.28-0.431-2.702-1.012-2.838-2.597      c-0.072-0.836,0.304-1.647,0.905-2.232c0.252-0.246,0.53-0.485,0.826-0.711c0.603-0.46,0.32-1.417-0.437-1.469      c-0.761-0.052-1.519-0.137-2.269-0.28c-1.732-0.331-3.438-0.991-4.763-2.155c-0.996-0.874-1.75-2.013-2.2-3.258      c-0.385-1.066-0.493-2.403,0.314-3.199c0.463-0.456,1.129-0.63,1.764-0.767c0.567-0.123,1.136-0.227,1.706-0.316      c0.758-0.118,0.884-1.152,0.176-1.447l-2.407-1.003c-0.669-0.279-1.365-0.577-1.827-1.134c-0.737-0.889-0.684-2.182-0.463-3.316      c0.294-1.507,0.815-2.96,1.169-4.454c0.355-1.494,0.541-3.07,0.159-4.557c4.494-0.455,9.112-0.241,13.483,0.9      c1.305,0.341,2.626,0.768,3.68,1.611c1.501,1.201,1.892,3.003,1.732,4.956c-0.03,0.37,0.479,0.511,0.656,0.184l1.538-2.836      c0.463-0.854,1.512-1.177,2.391-0.764c1.327,0.623,2.512,1.62,3.517,2.766c1.084,1.236,1.638,2.863,1.505,4.502      c-0.179,2.216-0.566,4.459-1.121,6.609c-0.146,0.563,0.485,0.987,0.957,0.647l0.073-0.053c0.42-0.304,0.935-0.486,1.45-0.422      c1.36,0.169,1.707,1.546,1.797,2.719C93.406,376.595,93.106,378.597,92.785,380.364z"/>
				<path style="fill:#F0F0F0;" d="M85.635,387.18c-0.019-0.095-0.95-4.607-3.627-10.51c0-0.106-0.045-0.205-0.128-0.276      c-0.084-0.183-0.166-0.364-0.254-0.549c0.769-7.059,3.564-11.984,3.592-12.033c0.102-0.177,0.041-0.403-0.136-0.505      c-0.177-0.099-0.403-0.041-0.505,0.136c-0.027,0.047-2.6,4.577-3.541,11.185c-3.07-6.156-7.966-13.356-15.526-18.617      c-0.169-0.116-0.398-0.075-0.515,0.092c-0.117,0.168-0.075,0.398,0.092,0.515c7.797,5.426,12.718,12.949,15.708,19.191      c-6.092-2.966-12.565-1.793-12.853-1.739c-0.2,0.038-0.332,0.231-0.294,0.432c0.029,0.153,0.148,0.265,0.292,0.294      c0.045,0.009,0.093,0.009,0.141,0.001c0.071-0.013,7.127-1.296,13.228,2.115c2.656,5.843,3.58,10.318,3.599,10.411      c0.03,0.152,0.149,0.263,0.291,0.291c0.046,0.009,0.094,0.01,0.143,0C85.544,387.574,85.674,387.38,85.635,387.18z"/>
			</g>
		</g>
	</g>
</g>
</svg>