<?xml version="1.0" encoding="UTF-8"?>
<svg version="1.1" xmlns="http://www.w3.org/2000/svg" width="512" height="512">
<path d="M0 0 C1.44278826 -0.00418282 2.88557323 -0.00966549 4.32835221 -0.01631981 C8.25677787 -0.03066926 12.18499186 -0.0265629 16.11342859 -0.019153 C20.36443664 -0.01439731 24.61540046 -0.02695238 28.86639404 -0.03717041 C37.18092374 -0.05431776 45.49537774 -0.05520677 53.80992052 -0.04995751 C60.57291632 -0.04590647 67.33588984 -0.04737043 74.09888458 -0.05270576 C75.06359136 -0.05345419 76.02829813 -0.05420261 77.02223845 -0.05497371 C78.98243108 -0.05650529 80.9426237 -0.05804363 82.90281633 -0.05958868 C101.2628303 -0.07329938 119.62280159 -0.06788641 137.98281458 -0.05640347 C154.75118213 -0.04647575 171.51943927 -0.05940634 188.28778979 -0.08333766 C205.53567418 -0.10776646 222.78350722 -0.11732705 240.03140855 -0.11068493 C249.70267081 -0.1072007 259.37384824 -0.10937184 269.04509735 -0.12693596 C277.27921665 -0.14170544 285.51319138 -0.14223181 293.74730799 -0.12486505 C297.94189684 -0.11639099 302.13622795 -0.11411656 306.33080292 -0.1295166 C333.22217476 -0.22108763 355.90436849 1.77446388 378.26373291 18.38768005 C379.76226807 19.49756287 379.76226807 19.49756287 381.29107666 20.62986755 C400.16079232 35.44393004 412.89761319 57.6008868 416.26373291 81.38768005 C416.54372702 86.17928003 416.54305563 90.96514788 416.53115845 95.76318359 C416.5349008 97.20338091 416.53950464 98.6435762 416.54488909 100.08376831 C416.55706259 104.01892879 416.55686533 107.95400389 416.55450034 111.88917887 C416.55409073 116.14227825 416.56514516 120.39535077 416.57461548 124.6484375 C416.59119618 132.97338838 416.59672373 141.29831094 416.59784023 149.62327696 C416.59879224 156.39492205 416.60291017 163.16655785 416.60924149 169.9382 C416.62684708 189.16114191 416.6360816 208.38406153 416.63458054 227.60701156 C416.63446067 229.16000375 416.63446067 229.16000375 416.63433838 230.74436951 C416.63425662 231.78097038 416.63417486 232.81757126 416.63409062 233.88558429 C416.63327825 250.67353826 416.65240532 267.4614024 416.68061511 284.24933041 C416.70939015 301.51067489 416.72315282 318.77197563 416.72142756 336.03334469 C416.72076518 345.71471797 416.72619043 355.39599711 416.74778366 365.07734871 C416.7660565 373.32251274 416.77029304 381.56753996 416.75676481 389.81271554 C416.75026539 394.0133646 416.75000732 398.21375168 416.76747131 402.41437531 C416.87225352 429.32431089 414.88928688 452.01171046 398.26373291 474.38768005 C397.52381104 475.38670349 396.78388916 476.38572693 396.02154541 477.4150238 C381.20767759 496.2844915 359.05041509 509.02204383 335.26373291 512.38768005 C330.46989173 512.66770193 325.68177544 512.6670022 320.88150024 512.65510559 C319.44059024 512.65884793 317.99968226 512.66345177 316.55877745 512.66883624 C312.62168637 512.68100973 308.68468063 512.68081247 304.74757504 512.67844748 C300.49244979 512.67803788 296.23735138 512.68909222 291.98223877 512.69856262 C283.65361288 512.71514297 275.32501531 512.72067084 266.99637429 512.72178738 C260.22233693 512.72273934 253.44830887 512.72685702 246.67427444 512.73318863 C227.44626687 512.75079359 208.21828158 512.76002876 188.99026589 512.75852768 C187.43687962 512.75840781 187.43687962 512.75840781 185.85211182 512.75828552 C184.29681703 512.75816288 184.29681703 512.75816288 182.71010216 512.75803776 C165.91500612 512.75722526 149.11999984 512.77635589 132.32492976 512.80456226 C115.05794005 512.83333109 97.79099406 512.84710032 80.52397978 512.8453747 C70.838726 512.84471214 61.15356632 512.85014545 51.4683342 512.8717308 C43.22057975 512.88999539 34.97296203 512.89424684 26.72519605 512.88071196 C22.52264567 512.87420861 18.3203572 512.87396898 14.11783218 512.89141846 C10.25971979 512.9072721 6.4020743 512.90416216 2.54397245 512.88685019 C0.51030174 512.88238146 -1.52338418 512.89734053 -3.55699694 512.91332948 C-28.34796983 512.73016519 -52.28808437 501.94185915 -69.73626709 484.38768005 C-73.73279117 479.96936614 -77.28713456 475.23922336 -80.73626709 470.38768005 C-81.61411865 469.17531677 -81.61411865 469.17531677 -82.50970459 467.9384613 C-86.02380034 462.61153838 -88.25351939 456.83418534 -90.48626709 450.88768005 C-90.78049561 450.10433289 -91.07472412 449.32098572 -91.37786865 448.51390076 C-95.15864743 437.99409191 -96.03132092 428.15443667 -96.00369263 417.01217651 C-96.00743498 415.5719792 -96.01203882 414.13178391 -96.01742327 412.6915918 C-96.02959677 408.75643132 -96.02939951 404.82135622 -96.02703452 400.88618124 C-96.02662491 396.63308186 -96.03767934 392.38000934 -96.04714966 388.12692261 C-96.06373036 379.80197172 -96.06925791 371.47704917 -96.07037441 363.15208315 C-96.07132642 356.38043805 -96.07544435 349.60880226 -96.08177567 342.83716011 C-96.09938125 323.6142182 -96.10861578 304.39129858 -96.10711472 285.16834854 C-96.1070348 284.13302042 -96.10695489 283.0976923 -96.10687256 282.0309906 C-96.1067908 280.99438972 -96.10670904 279.95778885 -96.1066248 278.88977582 C-96.10581243 262.10182184 -96.1249395 245.3139577 -96.15314929 228.5260297 C-96.18192433 211.26468522 -96.195687 194.00338448 -96.19396174 176.74201542 C-96.19329936 167.06064214 -96.19872461 157.379363 -96.22031784 147.6980114 C-96.23859068 139.45284737 -96.24282722 131.20782015 -96.22929899 122.96264457 C-96.22279957 118.76199551 -96.2225415 114.56160843 -96.24000549 110.3609848 C-96.36381489 78.57105186 -91.81551433 51.72790106 -69.21282959 27.7275238 C-59.45929823 18.51243661 -48.46014912 11.01945375 -35.92376709 6.20018005 C-35.30848145 5.96202576 -34.6931958 5.72387146 -34.05926514 5.47850037 C-22.80925639 1.36661712 -11.93559023 -0.05465951 0 0 Z M-47.11517334 58.29393005 C-62.7655071 79.53919368 -59.73626709 98.75148245 -59.73626709 126.38768005 C-8.58626709 126.38768005 42.56373291 126.38768005 95.26373291 126.38768005 C91.31698671 120.46756075 87.37091243 114.78961304 83.01373291 109.20018005 C78.97750887 103.97450128 75.00914351 98.71972006 71.20123291 93.32518005 C67.71557541 88.38998538 64.15037737 83.52527041 60.51373291 78.70018005 C56.04191631 72.76675803 51.6060154 66.80856565 47.20123291 60.82518005 C46.40797607 59.74780579 46.40797607 59.74780579 45.59869385 58.64866638 C45.06405518 57.92187683 44.5294165 57.19508728 43.97857666 56.4462738 C43.39737061 55.68661316 42.81616455 54.92695251 42.21734619 54.14427185 C40.66643415 51.95590046 39.35622315 49.82575724 38.04058838 47.50022888 C33.87934836 40.25955718 33.87934836 40.25955718 27.24319458 35.58302307 C21.68249741 34.40829146 16.14314838 34.83259171 10.51373291 35.20018005 C8.86023688 35.24124155 7.20656569 35.27578463 5.55279541 35.30369568 C-15.05462589 35.86540713 -33.64080869 41.83263727 -47.11517334 58.29393005 Z M74.26373291 36.38768005 C75.21513562 37.82475052 76.16786726 39.26094123 77.12115479 40.69676208 C77.65156372 41.49663544 78.18197266 42.29650879 78.72845459 43.12062073 C80.62946178 45.92773135 82.66778027 48.59845856 84.76373291 51.26268005 C90.81643699 59.03101913 96.62449328 66.97622454 102.44927979 74.91600037 C105.38179042 78.91071749 108.32312679 82.89892075 111.26373291 86.88768005 C112.42262031 88.46057224 113.58147438 90.03348897 114.74029541 91.60643005 C117.15082015 94.87795273 119.56241899 98.14868036 121.97467041 101.41893005 C122.58826416 102.2510199 123.20185791 103.08310974 123.83404541 103.94041443 C124.98739913 105.50443197 126.14101866 107.06825355 127.29498291 108.63182068 C127.82865479 109.35562927 128.36232666 110.07943787 128.91217041 110.82518005 C129.44260956 111.50529648 129.97304871 112.1854129 130.51956177 112.88613892 C132.26373291 115.38768005 132.26373291 115.38768005 133.49838257 118.20172119 C135.36869264 121.87955448 136.94406894 123.8906802 140.26373291 126.38768005 C147.94707108 128.48826818 156.35472718 127.66224527 164.23248291 127.4618988 C166.59755836 127.44136865 168.96268077 127.42571708 171.32781982 127.41473389 C177.53674713 127.372841 183.74281929 127.26488596 189.95062256 127.14299011 C196.29157893 127.03022636 202.63299922 126.98017396 208.97467041 126.92478943 C221.40560872 126.80700744 233.83443292 126.61940386 246.26373291 126.38768005 C245.16215788 124.63911156 244.05827225 122.89199859 242.95343018 121.14549255 C242.33895523 120.1724115 241.72448029 119.19933044 241.09138489 118.19676208 C238.64605799 114.43832015 235.97050083 110.91028384 233.20123291 107.38768005 C232.06178276 105.9174325 230.9238153 104.44603492 229.78717041 102.97361755 C229.20677002 102.22177185 228.62636963 101.46992615 228.02838135 100.69529724 C225.07827448 96.83746518 222.20049408 92.92718454 219.32623291 89.01268005 C218.45502808 87.82642029 218.45502808 87.82642029 217.56622314 86.61619568 C216.3870247 85.0093973 215.20823298 83.40230035 214.02984619 81.79490662 C211.11432579 77.82102893 208.18863842 73.85465219 205.26373291 69.88768005 C201.64304022 64.9761851 198.02450474 60.06313944 194.41217041 55.14549255 C193.78052979 54.2863324 193.14888916 53.42717224 192.49810791 52.54197693 C191.29152874 50.90067438 190.08575141 49.25878194 188.88092041 47.61619568 C188.33435791 46.87305115 187.78779541 46.12990662 187.22467041 45.36424255 C186.50996582 44.3909198 186.50996582 44.3909198 185.78082275 43.39793396 C185.02986328 42.40285828 185.02986328 42.40285828 184.26373291 41.38768005 C183.78249969 40.53292587 183.30126648 39.67817169 182.80545044 38.79751587 C178.91556934 35.10946845 175.25333272 35.72483083 170.0791626 35.8200531 C168.52746872 35.8189579 168.52746872 35.8189579 166.94442749 35.81784058 C163.52428806 35.82132473 160.1055095 35.86022712 156.68560791 35.8993988 C154.31478621 35.90872393 151.94395489 35.91584146 149.57312012 35.9208374 C143.33231009 35.93993056 137.09208166 35.98905244 130.85150146 36.0443573 C124.48378365 36.09549915 118.11597189 36.11834069 111.74810791 36.14353943 C99.25306068 36.19716802 86.75844515 36.28250972 74.26373291 36.38768005 Z M226.26373291 36.38768005 C226.89054962 37.49464233 227.51736633 38.60160461 228.16317749 39.74211121 C228.51576189 40.36477749 228.86834629 40.98744377 229.23161507 41.62897873 C230.5015523 43.79291796 231.92319213 45.78315312 233.44342041 47.77830505 C234.33106079 48.95115051 234.33106079 48.95115051 235.2366333 50.14768982 C235.86432617 50.9693866 236.49201904 51.79108337 237.13873291 52.63768005 C238.48968751 54.42231102 239.83993139 56.20748019 241.18951416 57.9931488 C241.87094482 58.89339783 242.55237549 59.79364685 243.25445557 60.72117615 C246.30910052 64.77498321 249.32048843 68.86004691 252.32623291 72.95018005 C252.89906006 73.72909607 253.47188721 74.50801208 254.06207275 75.31053162 C255.21825526 76.88309585 256.37418053 78.45584924 257.52984619 80.02879333 C261.01306937 84.76758556 264.50370891 89.50092064 267.99420166 94.23435974 C271.02860631 98.35028362 274.05803258 102.46974702 277.08013916 106.5947113 C278.02083252 107.87668396 278.02083252 107.87668396 278.98052979 109.18455505 C280.17480734 110.81231113 281.36761497 112.44114715 282.55865479 114.0712738 C283.10199463 114.81119568 283.64533447 115.55111755 284.20513916 116.3134613 C284.67637207 116.95710632 285.14760498 117.60075134 285.63311768 118.26390076 C286.1712207 118.96474792 286.70932373 119.66559509 287.26373291 120.38768005 C287.94404572 121.40743423 288.62435852 122.42718842 289.32528687 123.47784424 C290.87646514 125.31737432 291.80029943 126.25190387 294.12445354 126.93283176 C296.40643813 127.12620703 298.61999823 127.13019246 300.90948486 127.0688324 C302.19805138 127.07014664 302.19805138 127.07014664 303.51264954 127.07148743 C306.34337278 127.06731744 309.17170658 127.02069509 312.00201416 126.97361755 C313.96783656 126.96242328 315.93367573 126.95388418 317.89952087 126.94789124 C323.06699045 126.92501119 328.23344388 126.86609469 333.4005127 126.79966736 C338.67574314 126.73822726 343.95113822 126.71087251 349.22662354 126.6806488 C359.57277248 126.61635096 369.91816811 126.51398111 380.26373291 126.38768005 C380.36400807 121.10819285 380.43585127 115.82928228 380.48345947 110.54905701 C380.50334438 108.75989606 380.53046229 106.97079805 380.56549072 105.18186951 C380.94304578 85.37688586 377.72901885 68.58711274 363.62310791 53.55174255 C350.70414712 41.70223216 336.24141959 36.02578648 318.78692627 36.16062927 C317.78099426 36.16033722 316.77506226 36.16004517 315.73864746 36.15974426 C312.44353334 36.16112757 309.14865084 36.17664151 305.85357666 36.19236755 C303.55715559 36.19610124 301.26073293 36.19894653 298.96430969 36.20094299 C292.94244937 36.20855145 286.92068669 36.22817591 280.89886475 36.25035095 C274.74511027 36.27086956 268.59133991 36.27995755 262.43756104 36.2900238 C250.37957561 36.31142451 238.3216624 36.34552665 226.26373291 36.38768005 Z M-59.73626709 162.38768005 C-59.79814209 205.53518005 -59.86001709 248.68268005 -59.92376709 293.13768005 C-59.9510791 306.75888123 -59.97839111 320.3800824 -60.00653076 334.41404724 C-60.0165644 346.62977486 -60.0165644 346.62977486 -60.02259827 358.84550476 C-60.02539187 364.28418416 -60.03637938 369.72277364 -60.05299377 375.16142273 C-60.0721451 381.43985366 -60.08076204 387.7181958 -60.07660194 393.99665613 C-60.07480149 397.20558121 -60.07926864 400.41426895 -60.09391248 403.62316656 C-60.10890389 407.06898025 -60.1052118 410.51430307 -60.09703064 413.96012878 C-60.10576863 414.94820652 -60.11450663 415.93628426 -60.12350941 416.95430374 C-60.01688639 433.74076061 -53.41856164 448.41826306 -41.73626709 460.38768005 C-27.77566524 472.80354034 -13.18959594 476.70233841 5.09706116 476.64837646 C6.49046094 476.65140095 7.88385907 476.65529192 9.27725428 476.65996903 C13.0875136 476.67021956 16.89767851 476.66807475 20.70794547 476.66378844 C24.82462992 476.66131583 28.94129196 476.67034204 33.05796814 476.67782593 C41.11601559 476.69056037 49.17402969 476.69236816 57.2320855 476.69002566 C63.78402215 476.68824084 70.3359487 476.68999566 76.88788414 476.69425011 C77.82127216 476.6948453 78.75466017 476.69544048 79.71633267 476.69605371 C81.61267609 476.69726549 83.50901951 476.69847963 85.40536293 476.69969609 C103.18052832 476.71056691 120.95567473 476.70841137 138.73084118 476.70231124 C154.97903368 476.69714321 171.2271662 476.70839535 187.47534684 476.72740946 C204.17275862 476.74679894 220.87014204 476.75504186 237.56756514 476.75128621 C246.93634273 476.74937576 256.30506928 476.75184645 265.67383766 476.76600075 C273.6501604 476.77792971 281.62640069 476.7793025 289.60272459 476.76721058 C293.66903741 476.76133236 297.73519955 476.76019305 301.80150223 476.77221298 C305.53046943 476.78310726 309.25916078 476.77992671 312.98811527 476.7659513 C314.96215022 476.76207336 316.93619759 476.77282248 318.91020328 476.78424817 C336.59119325 476.67768664 351.53677209 470.80934646 364.26373291 458.38768005 C375.79276099 445.42424724 380.60418829 431.42346225 380.50424194 414.32089233 C380.50595398 413.24182114 380.50766602 412.16274994 380.50942993 411.05097961 C380.51272729 407.4417093 380.50171439 403.83262663 380.49078369 400.22337341 C380.49017075 397.58903633 380.49034976 394.95471026 380.49151421 392.32037449 C380.49257469 385.98843229 380.48336777 379.65654711 380.47051155 373.32461954 C380.45607834 365.995744 380.45452023 358.66688821 380.45294189 351.33799744 C380.44245289 332.00038264 380.41453053 312.66278048 380.38873291 293.32518005 C380.34748291 250.11580505 380.30623291 206.90643005 380.26373291 162.38768005 C235.06373291 162.38768005 89.86373291 162.38768005 -59.73626709 162.38768005 Z " fill="#000000" transform="translate(95.73626708984375,-0.3876800537109375)"/>
<path d="M0 0 C2.14543286 1.26760513 4.29128046 2.53450852 6.4375 3.80078125 C7.5409375 4.45385254 8.644375 5.10692383 9.78125 5.77978516 C15.16617976 8.95271033 20.58276749 12.07015204 26 15.1875 C28.18492452 16.4465648 30.36982021 17.70567963 32.5546875 18.96484375 C33.63975586 19.58987793 34.72482422 20.21491211 35.84277344 20.85888672 C41.27159942 23.98680148 46.69819281 27.11858448 52.125 30.25 C54.29165583 31.50001879 56.4583225 32.75001878 58.625 34 C62.95833333 36.5 67.29166667 39 71.625 41.5 C72.69854736 42.11931396 73.77209473 42.73862793 74.87817383 43.37670898 C77.03440213 44.62076792 79.19049049 45.86506942 81.34643555 47.10961914 C86.92165493 50.32756779 92.49954087 53.54077598 98.08203125 56.74609375 C103.52864453 59.87448384 108.96690975 63.01688162 114.3984375 66.17138672 C116.74934065 67.53250239 119.10771462 68.87924982 121.46875 70.22265625 C127.37949907 73.63680734 132.05206881 76.49439008 135.125 82.75 C136.61458187 88.43473081 136.39948494 93.27055902 134.125 98.75 C129.87897857 105.09668466 124.01827818 108.04739839 117.4375 111.6875 C116.2746758 112.34248255 115.11257923 112.99875839 113.95117188 113.65625 C111.54135276 115.01917136 109.12852022 116.37651429 106.71337891 117.72998047 C101.15416735 120.85152893 95.64229201 124.05515873 90.125 127.25 C87.95855317 128.50038098 85.79188579 129.7503799 83.625 131 C82.01625 131.928125 82.01625 131.928125 80.375 132.875 C68.45833333 139.75 56.54166667 146.625 44.625 153.5 C43.5515332 154.11931396 42.47806641 154.73862793 41.37207031 155.37670898 C39.21519097 156.62104998 37.05829008 157.86535364 34.90136719 159.10961914 C29.3347733 162.32088902 23.76859385 165.53287446 18.203125 168.74609375 C12.77258988 171.88127187 7.34061502 175.01394178 1.90771484 178.14501953 C-0.56677926 179.57222819 -3.03951048 181.00243112 -5.51171875 182.43359375 C-6.77855916 183.1642128 -8.04547716 183.89469735 -9.3125 184.625 C-10.85744141 185.51832031 -10.85744141 185.51832031 -12.43359375 186.4296875 C-17.24608084 189.03228052 -21.51853272 189.2553271 -26.875 188.75 C-31.99208167 186.88029708 -36.19640484 184.01839935 -38.7439909 179.05798435 C-41.5870857 171.51225469 -41.28985243 163.83104579 -41.24731445 155.89233398 C-41.24974589 154.29809329 -41.25346862 152.70385413 -41.25837708 151.10961914 C-41.26774074 146.80181878 -41.2583993 142.49424743 -41.24504495 138.18646502 C-41.23368335 133.66720237 -41.23784154 129.14795021 -41.23979187 124.62867737 C-41.24067327 117.04220869 -41.22962598 109.45582964 -41.21118164 101.86938477 C-41.19000877 93.11075316 -41.18650671 84.35225271 -41.1927436 75.59360069 C-41.19844693 67.15046238 -41.19278066 58.70737004 -41.18157005 50.26423836 C-41.17693768 46.67871306 -41.17604429 43.09321599 -41.1781559 39.50768852 C-41.18004569 35.28295683 -41.17188196 31.05835777 -41.1560955 26.83365631 C-41.15186942 25.28734702 -41.15099077 23.74102423 -41.15378571 22.19471169 C-41.18438111 2.23302555 -41.18438111 2.23302555 -33.734375 -5.6171875 C-23.19560204 -14.87182426 -9.74547375 -5.83041245 0 0 Z M-3.875 40.75 C-3.875 73.09 -3.875 105.43 -3.875 138.75 C14.25830928 128.85910403 32.25776925 118.76160726 50.06640625 108.296875 C54.35074253 105.78024135 58.65221936 103.29596203 62.96484375 100.828125 C64.07915771 100.18746094 65.19347168 99.54679687 66.34155273 98.88671875 C68.49529339 97.6491466 70.65226313 96.41717353 72.81274414 95.19140625 C73.77172607 94.63839844 74.73070801 94.08539063 75.71875 93.515625 C76.57146484 93.02868164 77.42417969 92.54173828 78.30273438 92.04003906 C78.90408203 91.61432617 79.50542969 91.18861328 80.125 90.75 C80.125 90.09 80.125 89.43 80.125 88.75 C79.4129541 88.34386475 78.7009082 87.93772949 77.96728516 87.51928711 C58.84230136 76.60798378 39.7537092 65.63523115 20.69491577 54.60862732 C18.29243701 53.21893474 15.88945035 51.83012192 13.48638916 50.44143677 C11.7897254 49.46046823 10.09382793 48.4781747 8.39794922 47.49584961 C7.3720166 46.90296143 6.34608398 46.31007324 5.2890625 45.69921875 C4.38623535 45.17674561 3.4834082 44.65427246 2.55322266 44.1159668 C0.44516102 42.93010264 -1.71163269 41.83168366 -3.875 40.75 Z " fill="#000000" transform="translate(223.875,229.25)"/>
</svg>
